<?xml version="1.0" encoding="utf-8" standalone="no"?>
<!DOCTYPE svg PUBLIC "-//W3C//DTD SVG 1.1//EN"
  "http://www.w3.org/Graphics/SVG/1.1/DTD/svg11.dtd">
<!-- Created with matplotlib (http://matplotlib.org/) -->
<svg height="432pt" version="1.1" viewBox="0 0 576 432" width="576pt" xmlns="http://www.w3.org/2000/svg" xmlns:xlink="http://www.w3.org/1999/xlink">
 <defs>
  <style type="text/css">
*{stroke-linecap:butt;stroke-linejoin:round;stroke-miterlimit:100000;}
  </style>
 </defs>
 <g id="figure_1">
  <g id="patch_1">
   <path d="M 0 432 
L 576 432 
L 576 0 
L 0 0 
L 0 432 
z
" style="fill:none;"/>
  </g>
  <g id="axes_1">
   <g id="patch_2">
    <path d="M 72 388.8 
L 518.4 388.8 
L 518.4 43.2 
L 72 43.2 
L 72 388.8 
z
" style="fill:none;"/>
   </g>
   <g id="line2d_1">
    <path clip-path="url(#pf60389284f)" d="M 72 359.92464 
L 135.771429 328.137216 
L 199.542857 293.852256 
L 263.314286 239.477184 
L 327.085714 195.14976 
L 390.857143 158.324544 
L 454.628571 117.978048 
L 518.4 54.578112 
" style="fill:none;stroke:#0000ff;stroke-linecap:square;"/>
    <defs>
     <path d="M -6 6 
L 6 -6 
M -6 -6 
L 6 6 
" id="mcd3ffdb09c" style="stroke:#0000ff;stroke-width:0.5;"/>
    </defs>
    <g clip-path="url(#pf60389284f)">
     <use style="fill:#0000ff;stroke:#0000ff;stroke-width:0.5;" x="72.0" xlink:href="#mcd3ffdb09c" y="359.92464"/>
     <use style="fill:#0000ff;stroke:#0000ff;stroke-width:0.5;" x="135.771428571" xlink:href="#mcd3ffdb09c" y="328.137216"/>
     <use style="fill:#0000ff;stroke:#0000ff;stroke-width:0.5;" x="199.542857143" xlink:href="#mcd3ffdb09c" y="293.852256"/>
     <use style="fill:#0000ff;stroke:#0000ff;stroke-width:0.5;" x="263.314285714" xlink:href="#mcd3ffdb09c" y="239.477184"/>
     <use style="fill:#0000ff;stroke:#0000ff;stroke-width:0.5;" x="327.085714286" xlink:href="#mcd3ffdb09c" y="195.14976"/>
     <use style="fill:#0000ff;stroke:#0000ff;stroke-width:0.5;" x="390.857142857" xlink:href="#mcd3ffdb09c" y="158.324544"/>
     <use style="fill:#0000ff;stroke:#0000ff;stroke-width:0.5;" x="454.628571429" xlink:href="#mcd3ffdb09c" y="117.978048"/>
     <use style="fill:#0000ff;stroke:#0000ff;stroke-width:0.5;" x="518.4" xlink:href="#mcd3ffdb09c" y="54.578112"/>
    </g>
   </g>
   <g id="line2d_2">
    <path clip-path="url(#pf60389284f)" d="M 72 378.575424 
L 135.771429 369.881472 
L 199.542857 361.91232 
L 263.314286 353.409984 
L 327.085714 343.337088 
L 390.857143 334.134336 
L 454.628571 326.105664 
L 518.4 317.434752 
" style="fill:none;stroke:#ff4500;stroke-linecap:square;"/>
    <defs>
     <path d="M -6 6 
L 6 -6 
M -6 -6 
L 6 6 
" id="m620a446b67" style="stroke:#ff4500;stroke-width:0.5;"/>
    </defs>
    <g clip-path="url(#pf60389284f)">
     <use style="fill:#ff4500;stroke:#ff4500;stroke-width:0.5;" x="72.0" xlink:href="#m620a446b67" y="378.575424"/>
     <use style="fill:#ff4500;stroke:#ff4500;stroke-width:0.5;" x="135.771428571" xlink:href="#m620a446b67" y="369.881472"/>
     <use style="fill:#ff4500;stroke:#ff4500;stroke-width:0.5;" x="199.542857143" xlink:href="#m620a446b67" y="361.91232"/>
     <use style="fill:#ff4500;stroke:#ff4500;stroke-width:0.5;" x="263.314285714" xlink:href="#m620a446b67" y="353.409984"/>
     <use style="fill:#ff4500;stroke:#ff4500;stroke-width:0.5;" x="327.085714286" xlink:href="#m620a446b67" y="343.337088"/>
     <use style="fill:#ff4500;stroke:#ff4500;stroke-width:0.5;" x="390.857142857" xlink:href="#m620a446b67" y="334.134336"/>
     <use style="fill:#ff4500;stroke:#ff4500;stroke-width:0.5;" x="454.628571429" xlink:href="#m620a446b67" y="326.105664"/>
     <use style="fill:#ff4500;stroke:#ff4500;stroke-width:0.5;" x="518.4" xlink:href="#m620a446b67" y="317.434752"/>
    </g>
   </g>
   <g id="line2d_3">
    <path clip-path="url(#pf60389284f)" d="M 72 378.0528 
L 135.771429 374.722752 
L 199.542857 371.752704 
L 263.314286 364.827648 
L 327.085714 361.094016 
L 390.857143 356.810496 
L 454.628571 353.70432 
L 518.4 349.158912 
" style="fill:none;stroke:#008000;stroke-linecap:square;"/>
    <defs>
     <path d="M 0 3 
C 0.795609 3 1.55874 2.683901 2.12132 2.12132 
C 2.683901 1.55874 3 0.795609 3 0 
C 3 -0.795609 2.683901 -1.55874 2.12132 -2.12132 
C 1.55874 -2.683901 0.795609 -3 0 -3 
C -0.795609 -3 -1.55874 -2.683901 -2.12132 -2.12132 
C -2.683901 -1.55874 -3 -0.795609 -3 0 
C -3 0.795609 -2.683901 1.55874 -2.12132 2.12132 
C -1.55874 2.683901 -0.795609 3 0 3 
z
" id="m0e88050c70" style="stroke:#008000;stroke-width:0.5;"/>
    </defs>
    <g clip-path="url(#pf60389284f)">
     <use style="fill:#008000;stroke:#008000;stroke-width:0.5;" x="72.0" xlink:href="#m0e88050c70" y="378.0528"/>
     <use style="fill:#008000;stroke:#008000;stroke-width:0.5;" x="135.771428571" xlink:href="#m0e88050c70" y="374.722752"/>
     <use style="fill:#008000;stroke:#008000;stroke-width:0.5;" x="199.542857143" xlink:href="#m0e88050c70" y="371.752704"/>
     <use style="fill:#008000;stroke:#008000;stroke-width:0.5;" x="263.314285714" xlink:href="#m0e88050c70" y="364.827648"/>
     <use style="fill:#008000;stroke:#008000;stroke-width:0.5;" x="327.085714286" xlink:href="#m0e88050c70" y="361.094016"/>
     <use style="fill:#008000;stroke:#008000;stroke-width:0.5;" x="390.857142857" xlink:href="#m0e88050c70" y="356.810496"/>
     <use style="fill:#008000;stroke:#008000;stroke-width:0.5;" x="454.628571429" xlink:href="#m0e88050c70" y="353.70432"/>
     <use style="fill:#008000;stroke:#008000;stroke-width:0.5;" x="518.4" xlink:href="#m0e88050c70" y="349.158912"/>
    </g>
   </g>
   <g id="line2d_4">
    <path clip-path="url(#pf60389284f)" d="M 72 381.911424 
L 135.771429 379.002048 
L 199.542857 375.93216 
L 263.314286 371.974848 
L 327.085714 366.086784 
L 390.857143 360.870528 
L 454.628571 359.341248 
L 518.4 354.456192 
" style="fill:none;stroke:#daa520;stroke-linecap:square;"/>
    <defs>
     <path d="M 0 3 
C 0.795609 3 1.55874 2.683901 2.12132 2.12132 
C 2.683901 1.55874 3 0.795609 3 0 
C 3 -0.795609 2.683901 -1.55874 2.12132 -2.12132 
C 1.55874 -2.683901 0.795609 -3 0 -3 
C -0.795609 -3 -1.55874 -2.683901 -2.12132 -2.12132 
C -2.683901 -1.55874 -3 -0.795609 -3 0 
C -3 0.795609 -2.683901 1.55874 -2.12132 2.12132 
C -1.55874 2.683901 -0.795609 3 0 3 
z
" id="maddabbabf8" style="stroke:#daa520;stroke-width:0.5;"/>
    </defs>
    <g clip-path="url(#pf60389284f)">
     <use style="fill:#daa520;stroke:#daa520;stroke-width:0.5;" x="72.0" xlink:href="#maddabbabf8" y="381.911424"/>
     <use style="fill:#daa520;stroke:#daa520;stroke-width:0.5;" x="135.771428571" xlink:href="#maddabbabf8" y="379.002048"/>
     <use style="fill:#daa520;stroke:#daa520;stroke-width:0.5;" x="199.542857143" xlink:href="#maddabbabf8" y="375.93216"/>
     <use style="fill:#daa520;stroke:#daa520;stroke-width:0.5;" x="263.314285714" xlink:href="#maddabbabf8" y="371.974848"/>
     <use style="fill:#daa520;stroke:#daa520;stroke-width:0.5;" x="327.085714286" xlink:href="#maddabbabf8" y="366.086784"/>
     <use style="fill:#daa520;stroke:#daa520;stroke-width:0.5;" x="390.857142857" xlink:href="#maddabbabf8" y="360.870528"/>
     <use style="fill:#daa520;stroke:#daa520;stroke-width:0.5;" x="454.628571429" xlink:href="#maddabbabf8" y="359.341248"/>
     <use style="fill:#daa520;stroke:#daa520;stroke-width:0.5;" x="518.4" xlink:href="#maddabbabf8" y="354.456192"/>
    </g>
   </g>
   <g id="patch_3">
    <path d="M 72 43.2 
L 518.4 43.2 
" style="fill:none;stroke:#000000;stroke-linecap:square;stroke-linejoin:miter;"/>
   </g>
   <g id="patch_4">
    <path d="M 518.4 388.8 
L 518.4 43.2 
" style="fill:none;stroke:#000000;stroke-linecap:square;stroke-linejoin:miter;"/>
   </g>
   <g id="patch_5">
    <path d="M 72 388.8 
L 518.4 388.8 
" style="fill:none;stroke:#000000;stroke-linecap:square;stroke-linejoin:miter;"/>
   </g>
   <g id="patch_6">
    <path d="M 72 388.8 
L 72 43.2 
" style="fill:none;stroke:#000000;stroke-linecap:square;stroke-linejoin:miter;"/>
   </g>
   <g id="matplotlib.axis_1">
    <g id="xtick_1">
     <g id="line2d_5">
      <path clip-path="url(#pf60389284f)" d="M 72 388.8 
L 72 43.2 
" style="fill:none;stroke:#000000;stroke-dasharray:1.000000,3.000000;stroke-dashoffset:0.0;stroke-width:0.5;"/>
     </g>
     <g id="line2d_6">
      <defs>
       <path d="M 0 0 
L 0 -4 
" id="m6502f1a3f5" style="stroke:#000000;stroke-width:0.5;"/>
      </defs>
      <g>
       <use style="stroke:#000000;stroke-width:0.5;" x="72.0" xlink:href="#m6502f1a3f5" y="388.8"/>
      </g>
     </g>
     <g id="line2d_7">
      <defs>
       <path d="M 0 0 
L 0 4 
" id="m80c1561396" style="stroke:#000000;stroke-width:0.5;"/>
      </defs>
      <g>
       <use style="stroke:#000000;stroke-width:0.5;" x="72.0" xlink:href="#m80c1561396" y="43.2"/>
      </g>
     </g>
     <g id="text_1">
      <!-- 500 -->
      <defs>
       <path d="M 56.09375 29.296875 
Q 56.09375 22.703125 54.1875 17.140625 
Q 52.296875 11.59375 48.890625 7.546875 
Q 45.5 3.5 40.84375 1.25 
Q 36.203125 -1 30.796875 -1 
Q 25.296875 -1 20.640625 1.25 
Q 16 3.5 12.640625 7.546875 
Q 9.296875 11.59375 7.390625 17.140625 
Q 5.5 22.703125 5.5 29.296875 
Q 5.5 35.90625 7.390625 41.453125 
Q 9.296875 47 12.640625 51.046875 
Q 16 55.09375 20.640625 57.390625 
Q 25.296875 59.703125 30.796875 59.703125 
Q 36.203125 59.703125 40.84375 57.390625 
Q 45.5 55.09375 48.890625 51.046875 
Q 52.296875 47 54.1875 41.453125 
Q 56.09375 35.90625 56.09375 29.296875 
M 47.203125 29.296875 
Q 47.203125 34.203125 46 38.296875 
Q 44.796875 42.40625 42.59375 45.34375 
Q 40.40625 48.296875 37.40625 49.890625 
Q 34.40625 51.5 30.796875 51.5 
Q 27.09375 51.5 24.046875 49.890625 
Q 21 48.296875 18.84375 45.34375 
Q 16.703125 42.40625 15.5 38.296875 
Q 14.296875 34.203125 14.296875 29.296875 
Q 14.296875 24.296875 15.5 20.25 
Q 16.703125 16.203125 18.84375 13.296875 
Q 21 10.40625 24.046875 8.796875 
Q 27.09375 7.203125 30.796875 7.203125 
Q 34.40625 7.203125 37.40625 8.796875 
Q 40.40625 10.40625 42.59375 13.296875 
Q 44.796875 16.203125 46 20.25 
Q 47.203125 24.296875 47.203125 29.296875 
" id="Raleway-Medium-30"/>
       <path d="M 28.296875 31.40625 
Q 33.203125 31.40625 37.453125 29.75 
Q 41.703125 28.09375 44.796875 25.09375 
Q 47.90625 22.09375 49.703125 17.890625 
Q 51.5 13.703125 51.5 8.703125 
Q 51.5 3.40625 49.546875 -0.9375 
Q 47.59375 -5.296875 44.1875 -8.390625 
Q 40.796875 -11.5 36.1875 -13.203125 
Q 31.59375 -14.90625 26.40625 -14.90625 
Q 18.796875 -14.90625 12.6875 -11.296875 
Q 6.59375 -7.703125 3.5 -1.703125 
L 9 3.09375 
Q 11.796875 -1.5 16.4375 -4.296875 
Q 21.09375 -7.09375 26.5 -7.09375 
Q 29.90625 -7.09375 32.84375 -5.9375 
Q 35.796875 -4.796875 37.9375 -2.75 
Q 40.09375 -0.703125 41.296875 2.1875 
Q 42.5 5.09375 42.5 8.59375 
Q 42.5 11.90625 41.296875 14.703125 
Q 40.09375 17.5 38.046875 19.5 
Q 36 21.5 33.203125 22.59375 
Q 30.40625 23.703125 27.203125 23.703125 
Q 22.90625 23.703125 19.15625 21.796875 
Q 15.40625 19.90625 13 16.40625 
L 5.09375 16.40625 
Q 5.203125 16.90625 5.59375 18.953125 
Q 6 21 6.59375 23.953125 
Q 7.203125 26.90625 7.890625 30.5 
Q 8.59375 34.09375 9.296875 37.796875 
Q 11 46.40625 13.09375 57.09375 
L 47.59375 57.09375 
L 47.59375 49 
L 19.59375 49 
L 15.296875 26.40625 
Q 17.5 28.703125 20.796875 30.046875 
Q 24.09375 31.40625 28.296875 31.40625 
" id="Raleway-Medium-35"/>
      </defs>
      <g transform="translate(58.634765625 403.75)scale(0.15 -0.15)">
       <use xlink:href="#Raleway-Medium-35"/>
       <use x="55.1999969482" xlink:href="#Raleway-Medium-30"/>
       <use x="116.699981689" xlink:href="#Raleway-Medium-30"/>
      </g>
     </g>
    </g>
    <g id="xtick_2">
     <g id="line2d_8">
      <path clip-path="url(#pf60389284f)" d="M 135.771429 388.8 
L 135.771429 43.2 
" style="fill:none;stroke:#000000;stroke-dasharray:1.000000,3.000000;stroke-dashoffset:0.0;stroke-width:0.5;"/>
     </g>
     <g id="line2d_9">
      <g>
       <use style="stroke:#000000;stroke-width:0.5;" x="135.771428571" xlink:href="#m6502f1a3f5" y="388.8"/>
      </g>
     </g>
     <g id="line2d_10">
      <g>
       <use style="stroke:#000000;stroke-width:0.5;" x="135.771428571" xlink:href="#m80c1561396" y="43.2"/>
      </g>
     </g>
     <g id="text_2">
      <!-- 1000 -->
      <defs>
       <path d="M 42.5 8 
L 42.5 0 
L 6.59375 0 
L 6.59375 8 
L 20.796875 8 
L 20.796875 47 
Q 19.90625 45.796875 18 44.4375 
Q 16.09375 43.09375 13.75 41.9375 
Q 11.40625 40.796875 8.90625 40 
Q 6.40625 39.203125 4.5 39.203125 
L 4.5 47.59375 
Q 6.703125 47.59375 9.390625 48.84375 
Q 12.09375 50.09375 14.546875 51.75 
Q 17 53.40625 18.75 54.953125 
Q 20.5 56.5 20.796875 57.09375 
L 29.796875 57.09375 
L 29.796875 8 
z
" id="Raleway-Medium-31"/>
      </defs>
      <g transform="translate(118.581194196 403.75)scale(0.15 -0.15)">
       <use xlink:href="#Raleway-Medium-31"/>
       <use x="44.6999969482" xlink:href="#Raleway-Medium-30"/>
       <use x="106.199981689" xlink:href="#Raleway-Medium-30"/>
       <use x="167.699966431" xlink:href="#Raleway-Medium-30"/>
      </g>
     </g>
    </g>
    <g id="xtick_3">
     <g id="line2d_11">
      <path clip-path="url(#pf60389284f)" d="M 199.542857 388.8 
L 199.542857 43.2 
" style="fill:none;stroke:#000000;stroke-dasharray:1.000000,3.000000;stroke-dashoffset:0.0;stroke-width:0.5;"/>
     </g>
     <g id="line2d_12">
      <g>
       <use style="stroke:#000000;stroke-width:0.5;" x="199.542857143" xlink:href="#m6502f1a3f5" y="388.8"/>
      </g>
     </g>
     <g id="line2d_13">
      <g>
       <use style="stroke:#000000;stroke-width:0.5;" x="199.542857143" xlink:href="#m80c1561396" y="43.2"/>
      </g>
     </g>
     <g id="text_3">
      <!-- 1500 -->
      <g transform="translate(182.824888393 403.75)scale(0.15 -0.15)">
       <use xlink:href="#Raleway-Medium-31"/>
       <use x="44.6999969482" xlink:href="#Raleway-Medium-35"/>
       <use x="99.8999938965" xlink:href="#Raleway-Medium-30"/>
       <use x="161.399978638" xlink:href="#Raleway-Medium-30"/>
      </g>
     </g>
    </g>
    <g id="xtick_4">
     <g id="line2d_14">
      <path clip-path="url(#pf60389284f)" d="M 263.314286 388.8 
L 263.314286 43.2 
" style="fill:none;stroke:#000000;stroke-dasharray:1.000000,3.000000;stroke-dashoffset:0.0;stroke-width:0.5;"/>
     </g>
     <g id="line2d_15">
      <g>
       <use style="stroke:#000000;stroke-width:0.5;" x="263.314285714" xlink:href="#m6502f1a3f5" y="388.8"/>
      </g>
     </g>
     <g id="line2d_16">
      <g>
       <use style="stroke:#000000;stroke-width:0.5;" x="263.314285714" xlink:href="#m80c1561396" y="43.2"/>
      </g>
     </g>
     <g id="text_4">
      <!-- 2000 -->
      <defs>
       <path d="M 4.796875 0 
Q 4.796875 4 5.4375 7.5 
Q 6.09375 11 7.890625 14.203125 
Q 9.703125 17.40625 12.84375 20.296875 
Q 16 23.203125 21.09375 26.09375 
Q 24.09375 27.703125 27.1875 29.25 
Q 30.296875 30.796875 32.84375 32.546875 
Q 35.40625 34.296875 37.046875 36.296875 
Q 38.703125 38.296875 38.703125 41 
Q 38.703125 42.703125 37.890625 44.390625 
Q 37.09375 46.09375 35.59375 47.390625 
Q 34.09375 48.703125 31.84375 49.5 
Q 29.59375 50.296875 26.703125 50.296875 
Q 23.703125 50.296875 21.25 49.4375 
Q 18.796875 48.59375 16.890625 47.34375 
Q 15 46.09375 13.59375 44.6875 
Q 12.203125 43.296875 11.296875 42.203125 
L 5.59375 48.59375 
Q 6.40625 49.5 8.296875 51.046875 
Q 10.203125 52.59375 13.09375 54.1875 
Q 16 55.796875 19.796875 56.9375 
Q 23.59375 58.09375 28.296875 58.09375 
Q 32.90625 58.09375 36.59375 56.84375 
Q 40.296875 55.59375 42.84375 53.390625 
Q 45.40625 51.203125 46.796875 48.25 
Q 48.203125 45.296875 48.203125 42 
Q 48.203125 38.09375 46.5 35.1875 
Q 44.796875 32.296875 42.34375 30.09375 
Q 39.90625 27.90625 37.09375 26.34375 
Q 34.296875 24.796875 32.09375 23.703125 
Q 29.90625 22.59375 27.15625 21.046875 
Q 24.40625 19.5 21.90625 17.546875 
Q 19.40625 15.59375 17.546875 13.1875 
Q 15.703125 10.796875 15.203125 8 
L 49.296875 8 
L 49.296875 0 
z
" id="Raleway-Medium-32"/>
      </defs>
      <g transform="translate(245.396316964 403.75)scale(0.15 -0.15)">
       <use xlink:href="#Raleway-Medium-32"/>
       <use x="54.3999938965" xlink:href="#Raleway-Medium-30"/>
       <use x="115.899978638" xlink:href="#Raleway-Medium-30"/>
       <use x="177.399963379" xlink:href="#Raleway-Medium-30"/>
      </g>
     </g>
    </g>
    <g id="xtick_5">
     <g id="line2d_17">
      <path clip-path="url(#pf60389284f)" d="M 327.085714 388.8 
L 327.085714 43.2 
" style="fill:none;stroke:#000000;stroke-dasharray:1.000000,3.000000;stroke-dashoffset:0.0;stroke-width:0.5;"/>
     </g>
     <g id="line2d_18">
      <g>
       <use style="stroke:#000000;stroke-width:0.5;" x="327.085714286" xlink:href="#m6502f1a3f5" y="388.8"/>
      </g>
     </g>
     <g id="line2d_19">
      <g>
       <use style="stroke:#000000;stroke-width:0.5;" x="327.085714286" xlink:href="#m80c1561396" y="43.2"/>
      </g>
     </g>
     <g id="text_5">
      <!-- 2500 -->
      <g transform="translate(309.640011161 403.75)scale(0.15 -0.15)">
       <use xlink:href="#Raleway-Medium-32"/>
       <use x="54.3999938965" xlink:href="#Raleway-Medium-35"/>
       <use x="109.599990845" xlink:href="#Raleway-Medium-30"/>
       <use x="171.099975586" xlink:href="#Raleway-Medium-30"/>
      </g>
     </g>
    </g>
    <g id="xtick_6">
     <g id="line2d_20">
      <path clip-path="url(#pf60389284f)" d="M 390.857143 388.8 
L 390.857143 43.2 
" style="fill:none;stroke:#000000;stroke-dasharray:1.000000,3.000000;stroke-dashoffset:0.0;stroke-width:0.5;"/>
     </g>
     <g id="line2d_21">
      <g>
       <use style="stroke:#000000;stroke-width:0.5;" x="390.857142857" xlink:href="#m6502f1a3f5" y="388.8"/>
      </g>
     </g>
     <g id="line2d_22">
      <g>
       <use style="stroke:#000000;stroke-width:0.5;" x="390.857142857" xlink:href="#m80c1561396" y="43.2"/>
      </g>
     </g>
     <g id="text_6">
      <!-- 3000 -->
      <defs>
       <path d="M 35.90625 23.59375 
Q 42.296875 22.5 46.046875 17.703125 
Q 49.796875 12.90625 49.796875 5.796875 
Q 49.796875 1.203125 48.09375 -2.59375 
Q 46.40625 -6.40625 43.25 -9.09375 
Q 40.09375 -11.796875 35.6875 -13.25 
Q 31.296875 -14.703125 25.90625 -14.703125 
Q 18.296875 -14.703125 12.546875 -11.84375 
Q 6.796875 -9 3.59375 -3.796875 
L 9.5 2.09375 
Q 11.796875 -2 15.6875 -4.34375 
Q 19.59375 -6.703125 25.90625 -6.703125 
Q 32.796875 -6.703125 36.75 -3.59375 
Q 40.703125 -0.5 40.703125 5.796875 
Q 40.703125 12.09375 36.453125 15.84375 
Q 32.203125 19.59375 24.09375 19.59375 
L 21.5 19.59375 
L 21.5 27 
L 24.296875 27 
Q 31.5 27 35.34375 30.453125 
Q 39.203125 33.90625 39.203125 39.203125 
Q 39.203125 44.5 35.5 47.09375 
Q 31.796875 49.703125 26.203125 49.703125 
Q 20.703125 49.703125 16.546875 47.34375 
Q 12.40625 45 10.09375 40.796875 
L 4.703125 46.40625 
Q 6 48.90625 8.25 50.953125 
Q 10.5 53 13.453125 54.5 
Q 16.40625 56 19.84375 56.796875 
Q 23.296875 57.59375 27.09375 57.59375 
Q 31.796875 57.59375 35.75 56.296875 
Q 39.703125 55 42.546875 52.703125 
Q 45.40625 50.40625 46.953125 47.09375 
Q 48.5 43.796875 48.5 39.796875 
Q 48.5 36.796875 47.640625 34.09375 
Q 46.796875 31.40625 45.140625 29.203125 
Q 43.5 27 41.140625 25.546875 
Q 38.796875 24.09375 35.90625 23.59375 
" id="Raleway-Medium-33"/>
      </defs>
      <g transform="translate(372.947377232 403.75)scale(0.15 -0.15)">
       <use xlink:href="#Raleway-Medium-33"/>
       <use x="54.299987793" xlink:href="#Raleway-Medium-30"/>
       <use x="115.799972534" xlink:href="#Raleway-Medium-30"/>
       <use x="177.299957275" xlink:href="#Raleway-Medium-30"/>
      </g>
     </g>
    </g>
    <g id="xtick_7">
     <g id="line2d_23">
      <path clip-path="url(#pf60389284f)" d="M 454.628571 388.8 
L 454.628571 43.2 
" style="fill:none;stroke:#000000;stroke-dasharray:1.000000,3.000000;stroke-dashoffset:0.0;stroke-width:0.5;"/>
     </g>
     <g id="line2d_24">
      <g>
       <use style="stroke:#000000;stroke-width:0.5;" x="454.628571429" xlink:href="#m6502f1a3f5" y="388.8"/>
      </g>
     </g>
     <g id="line2d_25">
      <g>
       <use style="stroke:#000000;stroke-width:0.5;" x="454.628571429" xlink:href="#m80c1561396" y="43.2"/>
      </g>
     </g>
     <g id="text_7">
      <!-- 3500 -->
      <g transform="translate(437.191071429 403.75)scale(0.15 -0.15)">
       <use xlink:href="#Raleway-Medium-33"/>
       <use x="54.299987793" xlink:href="#Raleway-Medium-35"/>
       <use x="109.499984741" xlink:href="#Raleway-Medium-30"/>
       <use x="170.999969482" xlink:href="#Raleway-Medium-30"/>
      </g>
     </g>
    </g>
    <g id="xtick_8">
     <g id="line2d_26">
      <path clip-path="url(#pf60389284f)" d="M 518.4 388.8 
L 518.4 43.2 
" style="fill:none;stroke:#000000;stroke-dasharray:1.000000,3.000000;stroke-dashoffset:0.0;stroke-width:0.5;"/>
     </g>
     <g id="line2d_27">
      <g>
       <use style="stroke:#000000;stroke-width:0.5;" x="518.4" xlink:href="#m6502f1a3f5" y="388.8"/>
      </g>
     </g>
     <g id="line2d_28">
      <g>
       <use style="stroke:#000000;stroke-width:0.5;" x="518.4" xlink:href="#m80c1561396" y="43.2"/>
      </g>
     </g>
     <g id="text_8">
      <!-- 4000 -->
      <defs>
       <path d="M 34.203125 -12.703125 
L 34.203125 4.203125 
L 2.09375 4.203125 
L 2.09375 12 
L 37 57.09375 
L 43 57.09375 
L 43 12.203125 
L 51.796875 12.203125 
L 51.796875 4.203125 
L 43 4.203125 
L 43 -12.703125 
z
M 11.203125 12.203125 
L 35.09375 12.203125 
L 35.09375 43.5 
z
" id="Raleway-Medium-34"/>
      </defs>
      <g transform="translate(500.44453125 403.75)scale(0.15 -0.15)">
       <use xlink:href="#Raleway-Medium-34"/>
       <use x="54.8999938965" xlink:href="#Raleway-Medium-30"/>
       <use x="116.399978638" xlink:href="#Raleway-Medium-30"/>
       <use x="177.899963379" xlink:href="#Raleway-Medium-30"/>
      </g>
     </g>
    </g>
    <g id="text_9">
     <!-- Num. Features -->
     <defs>
      <path d="M 6.296875 0 
L 6.296875 11.203125 
L 13.703125 11.203125 
L 13.703125 0 
z
" id="Raleway-Medium-2e"/>
      <path d="M 8.5 0 
L 8.5 71 
L 55.40625 71 
L 55.40625 63 
L 17.5 63 
L 17.5 39.296875 
L 49.40625 39.296875 
L 49.40625 31.796875 
L 17.5 31.796875 
L 17.5 0 
z
" id="Raleway-Medium-46"/>
      <path d="M 85.59375 0 
L 76.796875 0 
L 76.796875 29.203125 
Q 76.796875 37.40625 74.140625 41.296875 
Q 71.5 45.203125 66.296875 45.203125 
Q 60.90625 45.203125 56.65625 41.34375 
Q 52.40625 37.5 50.59375 31.40625 
L 50.59375 0 
L 41.796875 0 
L 41.796875 29.203125 
Q 41.796875 37.59375 39.1875 41.390625 
Q 36.59375 45.203125 31.40625 45.203125 
Q 26.09375 45.203125 21.796875 41.453125 
Q 17.5 37.703125 15.703125 31.5 
L 15.703125 0 
L 6.90625 0 
L 6.90625 52.203125 
L 14.90625 52.203125 
L 14.90625 41 
Q 18.09375 46.796875 23.1875 49.9375 
Q 28.296875 53.09375 34.703125 53.09375 
Q 41.296875 53.09375 45.140625 49.546875 
Q 49 46 49.90625 40.40625 
Q 56.90625 53.09375 69.796875 53.09375 
Q 74.296875 53.09375 77.34375 51.4375 
Q 80.40625 49.796875 82.203125 46.84375 
Q 84 43.90625 84.796875 39.90625 
Q 85.59375 35.90625 85.59375 31.203125 
z
" id="Raleway-Medium-6d"/>
      <path id="Raleway-Medium-20"/>
      <path d="M 34.5 44.5 
Q 27.90625 44.296875 22.84375 41.09375 
Q 17.796875 37.90625 15.703125 32.203125 
L 15.703125 0 
L 6.90625 0 
L 6.90625 52.203125 
L 15.09375 52.203125 
L 15.09375 40.09375 
Q 17.796875 45.5 22.1875 49.046875 
Q 26.59375 52.59375 31.59375 52.59375 
Q 32.59375 52.59375 33.296875 52.59375 
Q 34 52.59375 34.5 52.5 
z
" id="Raleway-Medium-72"/>
      <path d="M 17.5 54.203125 
L 17.5 0 
L 8.5 0 
L 8.5 71 
L 15.5 71 
L 59.5 15.703125 
L 59.5 70.90625 
L 68.5 70.90625 
L 68.5 0 
L 60.90625 0 
z
" id="Raleway-Medium-4e"/>
      <path d="M 30.203125 -1 
Q 24.296875 -1 19.390625 1.140625 
Q 14.5 3.296875 11 7 
Q 7.5 10.703125 5.546875 15.640625 
Q 3.59375 20.59375 3.59375 26.09375 
Q 3.59375 31.59375 5.546875 36.5 
Q 7.5 41.40625 11.046875 45.09375 
Q 14.59375 48.796875 19.5 50.9375 
Q 24.40625 53.09375 30.296875 53.09375 
Q 36.203125 53.09375 41.046875 50.890625 
Q 45.90625 48.703125 49.296875 45.046875 
Q 52.703125 41.40625 54.546875 36.546875 
Q 56.40625 31.703125 56.40625 26.5 
Q 56.40625 25.40625 56.34375 24.5 
Q 56.296875 23.59375 56.203125 23.09375 
L 12.90625 23.09375 
Q 13.203125 19.203125 14.703125 16 
Q 16.203125 12.796875 18.59375 10.5 
Q 21 8.203125 24.046875 6.890625 
Q 27.09375 5.59375 30.5 5.59375 
Q 32.90625 5.59375 35.203125 6.25 
Q 37.5 6.90625 39.5 8 
Q 41.5 9.09375 43.046875 10.6875 
Q 44.59375 12.296875 45.40625 14.296875 
L 53 12.203125 
Q 51.703125 9.296875 49.453125 6.890625 
Q 47.203125 4.5 44.25 2.75 
Q 41.296875 1 37.6875 0 
Q 34.09375 -1 30.203125 -1 
M 48.09375 29.59375 
Q 47.796875 33.296875 46.25 36.4375 
Q 44.703125 39.59375 42.34375 41.796875 
Q 40 44 36.890625 45.25 
Q 33.796875 46.5 30.296875 46.5 
Q 26.796875 46.5 23.6875 45.25 
Q 20.59375 44 18.25 41.75 
Q 15.90625 39.5 14.453125 36.390625 
Q 13 33.296875 12.703125 29.59375 
z
" id="Raleway-Medium-65"/>
      <path d="M 34 2.59375 
Q 33.203125 2.203125 31.890625 1.640625 
Q 30.59375 1.09375 28.9375 0.546875 
Q 27.296875 0 25.34375 -0.34375 
Q 23.40625 -0.703125 21.296875 -0.703125 
Q 16.5 -0.703125 13 1.9375 
Q 9.5 4.59375 9.5 10.203125 
L 9.5 45.296875 
L 2.40625 45.296875 
L 2.40625 52.203125 
L 9.5 52.203125 
L 9.5 69.59375 
L 18.296875 69.59375 
L 18.296875 52.203125 
L 30 52.203125 
L 30 45.296875 
L 18.296875 45.296875 
L 18.296875 12.90625 
Q 18.5 10 20.203125 8.703125 
Q 21.90625 7.40625 24.203125 7.40625 
Q 26.796875 7.40625 28.9375 8.25 
Q 31.09375 9.09375 31.90625 9.59375 
z
" id="Raleway-Medium-74"/>
      <path d="M 23 -1 
Q 14.796875 -1 10.59375 4.5 
Q 6.40625 10 6.40625 20.90625 
L 6.40625 52.203125 
L 15.203125 52.203125 
L 15.203125 22.59375 
Q 15.203125 6.59375 26.296875 6.59375 
Q 31.703125 6.59375 36.453125 10.046875 
Q 41.203125 13.5 43.5 19.5 
L 43.5 52.203125 
L 52.296875 52.203125 
L 52.296875 10.796875 
Q 52.296875 7.703125 55.09375 7.59375 
L 55.09375 0 
Q 54 -0.203125 53.140625 -0.296875 
Q 52.296875 -0.40625 51.59375 -0.40625 
Q 48.59375 -0.40625 46.890625 1.046875 
Q 45.203125 2.5 45 4.90625 
L 44.703125 11.203125 
Q 41.203125 5.296875 35.5 2.140625 
Q 29.796875 -1 23 -1 
" id="Raleway-Medium-75"/>
      <path d="M 21 -1 
Q 17.09375 -1 13.796875 0.25 
Q 10.5 1.5 8.09375 3.640625 
Q 5.703125 5.796875 4.34375 8.75 
Q 3 11.703125 3 15 
Q 3 18.703125 4.59375 21.75 
Q 6.203125 24.796875 9.140625 26.9375 
Q 12.09375 29.09375 16.140625 30.25 
Q 20.203125 31.40625 25 31.40625 
Q 28.796875 31.40625 32.6875 30.703125 
Q 36.59375 30 39.59375 28.796875 
L 39.59375 33 
Q 39.59375 39.40625 36 43.046875 
Q 32.40625 46.703125 25.796875 46.703125 
Q 17.90625 46.703125 9.203125 40.59375 
L 6.296875 46.296875 
Q 11.40625 49.703125 16.40625 51.390625 
Q 21.40625 53.09375 26.796875 53.09375 
Q 36.796875 53.09375 42.59375 47.59375 
Q 48.40625 42.09375 48.40625 32.09375 
L 48.40625 10.796875 
Q 48.40625 7.703125 51.203125 7.59375 
L 51.203125 0 
Q 50.203125 -0.203125 49.296875 -0.296875 
Q 48.40625 -0.40625 47.59375 -0.40625 
Q 45.40625 -0.40625 43.296875 0.796875 
Q 41.203125 2 41 4.90625 
L 40.796875 8.59375 
Q 39 6.203125 36.703125 4.390625 
Q 34.40625 2.59375 31.796875 1.390625 
Q 29.203125 0.203125 26.453125 -0.390625 
Q 23.703125 -1 21 -1 
M 23.203125 5.59375 
Q 27.40625 5.59375 31.40625 7.390625 
Q 35.40625 9.203125 37.703125 11.796875 
Q 39.59375 14 39.59375 15.90625 
L 39.59375 23.59375 
Q 36.5 24.796875 33.046875 25.4375 
Q 29.59375 26.09375 26.40625 26.09375 
Q 19.59375 26.09375 15.5 23.34375 
Q 11.40625 20.59375 11.40625 15.796875 
Q 11.40625 13.796875 12.203125 11.9375 
Q 13 10.09375 14.5 8.6875 
Q 16 7.296875 18.203125 6.4375 
Q 20.40625 5.59375 23.203125 5.59375 
" id="Raleway-Medium-61"/>
      <path d="M 25.40625 -1 
Q 19.09375 -1 13 0.953125 
Q 6.90625 2.90625 2.5 6.59375 
L 6.296875 12.5 
Q 10.90625 9 15.5 7.25 
Q 20.09375 5.5 25.203125 5.5 
Q 30.90625 5.5 34.25 7.75 
Q 37.59375 10 37.59375 14.09375 
Q 37.59375 16 36.6875 17.34375 
Q 35.796875 18.703125 34 19.703125 
Q 32.203125 20.703125 29.390625 21.5 
Q 26.59375 22.296875 22.90625 23.203125 
Q 18.203125 24.40625 14.796875 25.5 
Q 11.40625 26.59375 9.203125 28.09375 
Q 7 29.59375 6 31.6875 
Q 5 33.796875 5 36.90625 
Q 5 40.796875 6.546875 43.84375 
Q 8.09375 46.90625 10.796875 48.953125 
Q 13.5 51 17.140625 52.046875 
Q 20.796875 53.09375 25 53.09375 
Q 30.90625 53.09375 36 51.1875 
Q 41.09375 49.296875 44.59375 46.203125 
L 40.59375 40.90625 
Q 37.296875 43.796875 33.1875 45.25 
Q 29.09375 46.703125 24.796875 46.703125 
Q 20 46.703125 16.640625 44.640625 
Q 13.296875 42.59375 13.296875 38.09375 
Q 13.296875 36.296875 13.9375 35.09375 
Q 14.59375 33.90625 16.09375 33 
Q 17.59375 32.09375 19.9375 31.390625 
Q 22.296875 30.703125 25.59375 29.90625 
Q 30.796875 28.703125 34.640625 27.453125 
Q 38.5 26.203125 41.046875 24.5 
Q 43.59375 22.796875 44.84375 20.5 
Q 46.09375 18.203125 46.09375 14.90625 
Q 46.09375 7.59375 40.5 3.296875 
Q 34.90625 -1 25.40625 -1 
" id="Raleway-Medium-73"/>
     </defs>
     <g transform="translate(240.25 423.62453125)scale(0.16 -0.16)">
      <use xlink:href="#Raleway-Medium-4e"/>
      <use x="76.9999847412" xlink:href="#Raleway-Medium-75"/>
      <use x="137.299972534" xlink:href="#Raleway-Medium-6d"/>
      <use x="229.299957275" xlink:href="#Raleway-Medium-2e"/>
      <use x="249.299942017" xlink:href="#Raleway-Medium-20"/>
      <use x="274.399932861" xlink:href="#Raleway-Medium-46"/>
      <use x="332.499923706" xlink:href="#Raleway-Medium-65"/>
      <use x="391.599914551" xlink:href="#Raleway-Medium-61"/>
      <use x="447.299911499" xlink:href="#Raleway-Medium-74"/>
      <use x="481.999908447" xlink:href="#Raleway-Medium-75"/>
      <use x="542.29989624" xlink:href="#Raleway-Medium-72"/>
      <use x="578.499893188" xlink:href="#Raleway-Medium-65"/>
      <use x="637.599884033" xlink:href="#Raleway-Medium-73"/>
     </g>
    </g>
   </g>
   <g id="matplotlib.axis_2">
    <g id="ytick_1">
     <g id="line2d_29">
      <path clip-path="url(#pf60389284f)" d="M 72 388.8 
L 518.4 388.8 
" style="fill:none;stroke:#000000;stroke-dasharray:1.000000,3.000000;stroke-dashoffset:0.0;stroke-width:0.5;"/>
     </g>
     <g id="line2d_30">
      <defs>
       <path d="M 0 0 
L 4 0 
" id="m6b18f371de" style="stroke:#000000;stroke-width:0.5;"/>
      </defs>
      <g>
       <use style="stroke:#000000;stroke-width:0.5;" x="72.0" xlink:href="#m6b18f371de" y="388.8"/>
      </g>
     </g>
     <g id="line2d_31">
      <defs>
       <path d="M 0 0 
L -4 0 
" id="m3cdedfb073" style="stroke:#000000;stroke-width:0.5;"/>
      </defs>
      <g>
       <use style="stroke:#000000;stroke-width:0.5;" x="518.4" xlink:href="#m3cdedfb073" y="388.8"/>
      </g>
     </g>
     <g id="text_10">
      <!-- 0 -->
      <g transform="translate(58.775 392.677734375)scale(0.15 -0.15)">
       <use xlink:href="#Raleway-Medium-30"/>
      </g>
     </g>
    </g>
    <g id="ytick_2">
     <g id="line2d_32">
      <path clip-path="url(#pf60389284f)" d="M 72 350.4 
L 518.4 350.4 
" style="fill:none;stroke:#000000;stroke-dasharray:1.000000,3.000000;stroke-dashoffset:0.0;stroke-width:0.5;"/>
     </g>
     <g id="line2d_33">
      <g>
       <use style="stroke:#000000;stroke-width:0.5;" x="72.0" xlink:href="#m6b18f371de" y="350.4"/>
      </g>
     </g>
     <g id="line2d_34">
      <g>
       <use style="stroke:#000000;stroke-width:0.5;" x="518.4" xlink:href="#m3cdedfb073" y="350.4"/>
      </g>
     </g>
     <g id="text_11">
      <!-- 200 -->
      <g transform="translate(41.3890625 354.277734375)scale(0.15 -0.15)">
       <use xlink:href="#Raleway-Medium-32"/>
       <use x="54.3999938965" xlink:href="#Raleway-Medium-30"/>
       <use x="115.899978638" xlink:href="#Raleway-Medium-30"/>
      </g>
     </g>
    </g>
    <g id="ytick_3">
     <g id="line2d_35">
      <path clip-path="url(#pf60389284f)" d="M 72 312 
L 518.4 312 
" style="fill:none;stroke:#000000;stroke-dasharray:1.000000,3.000000;stroke-dashoffset:0.0;stroke-width:0.5;"/>
     </g>
     <g id="line2d_36">
      <g>
       <use style="stroke:#000000;stroke-width:0.5;" x="72.0" xlink:href="#m6b18f371de" y="312.0"/>
      </g>
     </g>
     <g id="line2d_37">
      <g>
       <use style="stroke:#000000;stroke-width:0.5;" x="518.4" xlink:href="#m3cdedfb073" y="312.0"/>
      </g>
     </g>
     <g id="text_12">
      <!-- 400 -->
      <g transform="translate(41.3140625 315.877734375)scale(0.15 -0.15)">
       <use xlink:href="#Raleway-Medium-34"/>
       <use x="54.8999938965" xlink:href="#Raleway-Medium-30"/>
       <use x="116.399978638" xlink:href="#Raleway-Medium-30"/>
      </g>
     </g>
    </g>
    <g id="ytick_4">
     <g id="line2d_38">
      <path clip-path="url(#pf60389284f)" d="M 72 273.6 
L 518.4 273.6 
" style="fill:none;stroke:#000000;stroke-dasharray:1.000000,3.000000;stroke-dashoffset:0.0;stroke-width:0.5;"/>
     </g>
     <g id="line2d_39">
      <g>
       <use style="stroke:#000000;stroke-width:0.5;" x="72.0" xlink:href="#m6b18f371de" y="273.6"/>
      </g>
     </g>
     <g id="line2d_40">
      <g>
       <use style="stroke:#000000;stroke-width:0.5;" x="518.4" xlink:href="#m3cdedfb073" y="273.6"/>
      </g>
     </g>
     <g id="text_13">
      <!-- 600 -->
      <defs>
       <path d="M 56.296875 23.5 
Q 56.296875 18.40625 54.34375 13.953125 
Q 52.40625 9.5 48.953125 6.140625 
Q 45.5 2.796875 40.890625 0.890625 
Q 36.296875 -1 30.90625 -1 
Q 25.203125 -1 20.453125 1.09375 
Q 15.703125 3.203125 12.296875 7.140625 
Q 8.90625 11.09375 7.046875 16.75 
Q 5.203125 22.40625 5.203125 29.59375 
Q 5.203125 40.09375 7.09375 47.9375 
Q 9 55.796875 12.5 61.046875 
Q 16 66.296875 20.890625 68.890625 
Q 25.796875 71.5 31.796875 71.5 
Q 38.703125 71.5 44.34375 68.203125 
Q 50 64.90625 53.203125 58.90625 
L 47.796875 53.59375 
Q 45.59375 58.296875 41.296875 61.046875 
Q 37 63.796875 31.703125 63.796875 
Q 27.59375 63.796875 24.296875 61.9375 
Q 21 60.09375 18.59375 56.5 
Q 16.203125 52.90625 14.890625 47.75 
Q 13.59375 42.59375 13.5 36 
Q 15.703125 41.203125 20.59375 44.296875 
Q 25.5 47.40625 31.796875 47.40625 
Q 36.90625 47.40625 41.40625 45.546875 
Q 45.90625 43.703125 49.203125 40.453125 
Q 52.5 37.203125 54.390625 32.84375 
Q 56.296875 28.5 56.296875 23.5 
M 31 6.59375 
Q 34.40625 6.59375 37.5 7.9375 
Q 40.59375 9.296875 42.890625 11.59375 
Q 45.203125 13.90625 46.546875 16.953125 
Q 47.90625 20 47.90625 23.5 
Q 47.90625 26.90625 46.546875 30 
Q 45.203125 33.09375 42.890625 35.34375 
Q 40.59375 37.59375 37.5 38.9375 
Q 34.40625 40.296875 31 40.296875 
Q 27.5 40.296875 24.453125 38.9375 
Q 21.40625 37.59375 19.09375 35.34375 
Q 16.796875 33.09375 15.4375 30 
Q 14.09375 26.90625 14.09375 23.5 
Q 14.09375 20 15.4375 16.953125 
Q 16.796875 13.90625 19.09375 11.59375 
Q 21.40625 9.296875 24.453125 7.9375 
Q 27.5 6.59375 31 6.59375 
" id="Raleway-Medium-36"/>
      </defs>
      <g transform="translate(40.4609375 277.477734375)scale(0.15 -0.15)">
       <use xlink:href="#Raleway-Medium-36"/>
       <use x="60.5999908447" xlink:href="#Raleway-Medium-30"/>
       <use x="122.099975586" xlink:href="#Raleway-Medium-30"/>
      </g>
     </g>
    </g>
    <g id="ytick_5">
     <g id="line2d_41">
      <path clip-path="url(#pf60389284f)" d="M 72 235.2 
L 518.4 235.2 
" style="fill:none;stroke:#000000;stroke-dasharray:1.000000,3.000000;stroke-dashoffset:0.0;stroke-width:0.5;"/>
     </g>
     <g id="line2d_42">
      <g>
       <use style="stroke:#000000;stroke-width:0.5;" x="72.0" xlink:href="#m6b18f371de" y="235.2"/>
      </g>
     </g>
     <g id="line2d_43">
      <g>
       <use style="stroke:#000000;stroke-width:0.5;" x="518.4" xlink:href="#m3cdedfb073" y="235.2"/>
      </g>
     </g>
     <g id="text_14">
      <!-- 800 -->
      <defs>
       <path d="M 54.90625 20.09375 
Q 54.90625 15.296875 52.84375 11.4375 
Q 50.796875 7.59375 47.34375 4.890625 
Q 43.90625 2.203125 39.34375 0.703125 
Q 34.796875 -0.796875 29.703125 -0.796875 
Q 24.40625 -0.796875 19.84375 0.84375 
Q 15.296875 2.5 12 5.34375 
Q 8.703125 8.203125 6.796875 12.09375 
Q 4.90625 16 4.90625 20.5 
Q 4.90625 23.796875 6.09375 26.59375 
Q 7.296875 29.40625 9.140625 31.59375 
Q 11 33.796875 13.390625 35.4375 
Q 15.796875 37.09375 18.203125 38 
Q 16 38.90625 14 40.34375 
Q 12 41.796875 10.5 43.640625 
Q 9 45.5 8.140625 47.703125 
Q 7.296875 49.90625 7.296875 52.40625 
Q 7.296875 56.90625 9.34375 60.34375 
Q 11.40625 63.796875 14.65625 66.1875 
Q 17.90625 68.59375 21.90625 69.796875 
Q 25.90625 71 29.90625 71 
Q 33.90625 71 37.953125 69.796875 
Q 42 68.59375 45.25 66.25 
Q 48.5 63.90625 50.546875 60.453125 
Q 52.59375 57 52.59375 52.5 
Q 52.59375 47.5 49.296875 43.703125 
Q 46 39.90625 41.5 38 
Q 44.203125 36.90625 46.640625 35.203125 
Q 49.09375 33.5 50.890625 31.25 
Q 52.703125 29 53.796875 26.203125 
Q 54.90625 23.40625 54.90625 20.09375 
M 46 20.703125 
Q 46 23.90625 44.546875 26.453125 
Q 43.09375 29 40.796875 30.75 
Q 38.5 32.5 35.59375 33.390625 
Q 32.703125 34.296875 29.796875 34.296875 
Q 26.796875 34.296875 23.9375 33.34375 
Q 21.09375 32.40625 18.84375 30.59375 
Q 16.59375 28.796875 15.25 26.25 
Q 13.90625 23.703125 13.90625 20.59375 
Q 13.90625 17.40625 15.34375 14.90625 
Q 16.796875 12.40625 19.09375 10.703125 
Q 21.40625 9 24.25 8.046875 
Q 27.09375 7.09375 30 7.09375 
Q 33 7.09375 35.84375 8.09375 
Q 38.703125 9.09375 40.953125 10.890625 
Q 43.203125 12.703125 44.59375 15.203125 
Q 46 17.703125 46 20.703125 
M 16.203125 52.09375 
Q 16.203125 49.40625 17.453125 47.34375 
Q 18.703125 45.296875 20.703125 43.890625 
Q 22.703125 42.5 25.09375 41.796875 
Q 27.5 41.09375 29.90625 41.09375 
Q 32.296875 41.09375 34.6875 41.84375 
Q 37.09375 42.59375 39.09375 44 
Q 41.09375 45.40625 42.34375 47.5 
Q 43.59375 49.59375 43.59375 52.296875 
Q 43.59375 54.796875 42.4375 56.796875 
Q 41.296875 58.796875 39.390625 60.1875 
Q 37.5 61.59375 35 62.34375 
Q 32.5 63.09375 29.796875 63.09375 
Q 27.09375 63.09375 24.640625 62.34375 
Q 22.203125 61.59375 20.34375 60.140625 
Q 18.5 58.703125 17.34375 56.640625 
Q 16.203125 54.59375 16.203125 52.09375 
" id="Raleway-Medium-38"/>
      </defs>
      <g transform="translate(40.5640625 239.077734375)scale(0.15 -0.15)">
       <use xlink:href="#Raleway-Medium-38"/>
       <use x="59.8999938965" xlink:href="#Raleway-Medium-30"/>
       <use x="121.399978638" xlink:href="#Raleway-Medium-30"/>
      </g>
     </g>
    </g>
    <g id="ytick_6">
     <g id="line2d_44">
      <path clip-path="url(#pf60389284f)" d="M 72 196.8 
L 518.4 196.8 
" style="fill:none;stroke:#000000;stroke-dasharray:1.000000,3.000000;stroke-dashoffset:0.0;stroke-width:0.5;"/>
     </g>
     <g id="line2d_45">
      <g>
       <use style="stroke:#000000;stroke-width:0.5;" x="72.0" xlink:href="#m6b18f371de" y="196.8"/>
      </g>
     </g>
     <g id="line2d_46">
      <g>
       <use style="stroke:#000000;stroke-width:0.5;" x="518.4" xlink:href="#m3cdedfb073" y="196.8"/>
      </g>
     </g>
     <g id="text_15">
      <!-- 1000 -->
      <g transform="translate(33.61953125 200.677734375)scale(0.15 -0.15)">
       <use xlink:href="#Raleway-Medium-31"/>
       <use x="44.6999969482" xlink:href="#Raleway-Medium-30"/>
       <use x="106.199981689" xlink:href="#Raleway-Medium-30"/>
       <use x="167.699966431" xlink:href="#Raleway-Medium-30"/>
      </g>
     </g>
    </g>
    <g id="ytick_7">
     <g id="line2d_47">
      <path clip-path="url(#pf60389284f)" d="M 72 158.4 
L 518.4 158.4 
" style="fill:none;stroke:#000000;stroke-dasharray:1.000000,3.000000;stroke-dashoffset:0.0;stroke-width:0.5;"/>
     </g>
     <g id="line2d_48">
      <g>
       <use style="stroke:#000000;stroke-width:0.5;" x="72.0" xlink:href="#m6b18f371de" y="158.4"/>
      </g>
     </g>
     <g id="line2d_49">
      <g>
       <use style="stroke:#000000;stroke-width:0.5;" x="518.4" xlink:href="#m3cdedfb073" y="158.4"/>
      </g>
     </g>
     <g id="text_16">
      <!-- 1200 -->
      <g transform="translate(34.68359375 162.277734375)scale(0.15 -0.15)">
       <use xlink:href="#Raleway-Medium-31"/>
       <use x="44.6999969482" xlink:href="#Raleway-Medium-32"/>
       <use x="99.0999908447" xlink:href="#Raleway-Medium-30"/>
       <use x="160.599975586" xlink:href="#Raleway-Medium-30"/>
      </g>
     </g>
    </g>
    <g id="ytick_8">
     <g id="line2d_50">
      <path clip-path="url(#pf60389284f)" d="M 72 120 
L 518.4 120 
" style="fill:none;stroke:#000000;stroke-dasharray:1.000000,3.000000;stroke-dashoffset:0.0;stroke-width:0.5;"/>
     </g>
     <g id="line2d_51">
      <g>
       <use style="stroke:#000000;stroke-width:0.5;" x="72.0" xlink:href="#m6b18f371de" y="120.0"/>
      </g>
     </g>
     <g id="line2d_52">
      <g>
       <use style="stroke:#000000;stroke-width:0.5;" x="518.4" xlink:href="#m3cdedfb073" y="120.0"/>
      </g>
     </g>
     <g id="text_17">
      <!-- 1400 -->
      <g transform="translate(34.60859375 123.877734375)scale(0.15 -0.15)">
       <use xlink:href="#Raleway-Medium-31"/>
       <use x="44.6999969482" xlink:href="#Raleway-Medium-34"/>
       <use x="99.5999908447" xlink:href="#Raleway-Medium-30"/>
       <use x="161.099975586" xlink:href="#Raleway-Medium-30"/>
      </g>
     </g>
    </g>
    <g id="ytick_9">
     <g id="line2d_53">
      <path clip-path="url(#pf60389284f)" d="M 72 81.6 
L 518.4 81.6 
" style="fill:none;stroke:#000000;stroke-dasharray:1.000000,3.000000;stroke-dashoffset:0.0;stroke-width:0.5;"/>
     </g>
     <g id="line2d_54">
      <g>
       <use style="stroke:#000000;stroke-width:0.5;" x="72.0" xlink:href="#m6b18f371de" y="81.6"/>
      </g>
     </g>
     <g id="line2d_55">
      <g>
       <use style="stroke:#000000;stroke-width:0.5;" x="518.4" xlink:href="#m3cdedfb073" y="81.6"/>
      </g>
     </g>
     <g id="text_18">
      <!-- 1600 -->
      <g transform="translate(33.75546875 85.477734375)scale(0.15 -0.15)">
       <use xlink:href="#Raleway-Medium-31"/>
       <use x="44.6999969482" xlink:href="#Raleway-Medium-36"/>
       <use x="105.299987793" xlink:href="#Raleway-Medium-30"/>
       <use x="166.799972534" xlink:href="#Raleway-Medium-30"/>
      </g>
     </g>
    </g>
    <g id="ytick_10">
     <g id="line2d_56">
      <path clip-path="url(#pf60389284f)" d="M 72 43.2 
L 518.4 43.2 
" style="fill:none;stroke:#000000;stroke-dasharray:1.000000,3.000000;stroke-dashoffset:0.0;stroke-width:0.5;"/>
     </g>
     <g id="line2d_57">
      <g>
       <use style="stroke:#000000;stroke-width:0.5;" x="72.0" xlink:href="#m6b18f371de" y="43.2"/>
      </g>
     </g>
     <g id="line2d_58">
      <g>
       <use style="stroke:#000000;stroke-width:0.5;" x="518.4" xlink:href="#m3cdedfb073" y="43.2"/>
      </g>
     </g>
     <g id="text_19">
      <!-- 1800 -->
      <g transform="translate(33.85859375 47.077734375)scale(0.15 -0.15)">
       <use xlink:href="#Raleway-Medium-31"/>
       <use x="44.6999969482" xlink:href="#Raleway-Medium-38"/>
       <use x="104.599990845" xlink:href="#Raleway-Medium-30"/>
       <use x="166.099975586" xlink:href="#Raleway-Medium-30"/>
      </g>
     </g>
    </g>
    <g id="text_20">
     <!-- Training Time (s) -->
     <defs>
      <path d="M 59.796875 63 
L 35.296875 63 
L 35.296875 0 
L 26.296875 0 
L 26.296875 63 
L 1.796875 63 
L 1.796875 71 
L 59.796875 71 
z
" id="Raleway-Medium-54"/>
      <path d="M 52.203125 0 
L 43.40625 0 
L 43.40625 29.203125 
Q 43.40625 37.59375 40.84375 41.390625 
Q 38.296875 45.203125 33.09375 45.203125 
Q 30.40625 45.203125 27.703125 44.140625 
Q 25 43.09375 22.59375 41.296875 
Q 20.203125 39.5 18.390625 37 
Q 16.59375 34.5 15.703125 31.5 
L 15.703125 0 
L 6.90625 0 
L 6.90625 52.203125 
L 14.90625 52.203125 
L 14.90625 41 
Q 18 46.5 23.84375 49.796875 
Q 29.703125 53.09375 36.59375 53.09375 
Q 41.09375 53.09375 44.09375 51.4375 
Q 47.09375 49.796875 48.890625 46.84375 
Q 50.703125 43.90625 51.453125 39.90625 
Q 52.203125 35.90625 52.203125 31.203125 
z
" id="Raleway-Medium-6e"/>
      <path d="M 6.90625 0 
L 6.90625 52.203125 
L 15.703125 52.203125 
L 15.703125 0 
z
M 6.90625 62 
L 6.90625 73 
L 15.703125 73 
L 15.703125 62 
z
" id="Raleway-Medium-69"/>
      <path d="M 23.90625 34.59375 
Q 23.90625 24.90625 19.90625 15.046875 
Q 15.90625 5.203125 9.59375 -4.203125 
L 3.09375 -0.796875 
Q 8.90625 8.296875 12.296875 17.34375 
Q 15.703125 26.40625 15.703125 34.296875 
Q 15.703125 39.203125 14.390625 44.546875 
Q 13.09375 49.90625 11.1875 54.90625 
Q 9.296875 59.90625 7.046875 64.203125 
Q 4.796875 68.5 2.90625 71.40625 
L 9.703125 74.40625 
Q 12.703125 69.40625 15.25 64.5 
Q 17.796875 59.59375 19.75 54.640625 
Q 21.703125 49.703125 22.796875 44.703125 
Q 23.90625 39.703125 23.90625 34.59375 
" id="Raleway-Medium-29"/>
      <path d="M 4.09375 34.59375 
Q 4.09375 39.703125 5.1875 44.703125 
Q 6.296875 49.703125 8.25 54.640625 
Q 10.203125 59.59375 12.75 64.5 
Q 15.296875 69.40625 18.296875 74.40625 
L 25.09375 71.40625 
Q 23.203125 68.5 20.953125 64.203125 
Q 18.703125 59.90625 16.796875 54.90625 
Q 14.90625 49.90625 13.59375 44.546875 
Q 12.296875 39.203125 12.296875 34.296875 
Q 12.296875 26.40625 15.6875 17.34375 
Q 19.09375 8.296875 24.90625 -0.796875 
L 18.40625 -4.203125 
Q 12.09375 5.203125 8.09375 15.046875 
Q 4.09375 24.90625 4.09375 34.59375 
" id="Raleway-Medium-28"/>
      <path d="M 27.796875 -0.59375 
Q 22.5 -0.59375 18.046875 1.59375 
Q 13.59375 3.796875 10.390625 7.5 
Q 7.203125 11.203125 5.453125 16 
Q 3.703125 20.796875 3.703125 26 
Q 3.703125 31.5 5.453125 36.453125 
Q 7.203125 41.40625 10.390625 45.09375 
Q 13.59375 48.796875 18.046875 50.9375 
Q 22.5 53.09375 27.90625 53.09375 
Q 34.5 53.09375 39.296875 49.890625 
Q 44.09375 46.703125 47.40625 41.796875 
L 47.40625 52.203125 
L 55.203125 52.203125 
L 55.203125 0.59375 
Q 55.203125 -5 53.09375 -9.25 
Q 51 -13.5 47.390625 -16.390625 
Q 43.796875 -19.296875 38.9375 -20.796875 
Q 34.09375 -22.296875 28.59375 -22.296875 
Q 19.703125 -22.296875 14.140625 -19.25 
Q 8.59375 -16.203125 4.90625 -10.796875 
L 10 -6.296875 
Q 13.09375 -10.90625 18 -13.203125 
Q 22.90625 -15.5 28.59375 -15.5 
Q 32.203125 -15.5 35.453125 -14.5 
Q 38.703125 -13.5 41.09375 -11.5 
Q 43.5 -9.5 44.953125 -6.5 
Q 46.40625 -3.5 46.40625 0.59375 
L 46.40625 9.796875 
Q 44.90625 7.40625 42.84375 5.453125 
Q 40.796875 3.5 38.390625 2.140625 
Q 36 0.796875 33.296875 0.09375 
Q 30.59375 -0.59375 27.796875 -0.59375 
M 30.5 6.59375 
Q 33.296875 6.59375 35.890625 7.59375 
Q 38.5 8.59375 40.703125 10.25 
Q 42.90625 11.90625 44.40625 14 
Q 45.90625 16.09375 46.40625 18.296875 
L 46.40625 33.296875 
Q 45.296875 36 43.546875 38.203125 
Q 41.796875 40.40625 39.59375 42.046875 
Q 37.40625 43.703125 34.84375 44.59375 
Q 32.296875 45.5 29.703125 45.5 
Q 25.703125 45.5 22.546875 43.796875 
Q 19.40625 42.09375 17.203125 39.296875 
Q 15 36.5 13.796875 32.953125 
Q 12.59375 29.40625 12.59375 25.796875 
Q 12.59375 21.90625 14 18.40625 
Q 15.40625 14.90625 17.796875 12.296875 
Q 20.203125 9.703125 23.453125 8.140625 
Q 26.703125 6.59375 30.5 6.59375 
" id="Raleway-Medium-67"/>
     </defs>
     <g transform="translate(25.05203125 277.49625)rotate(-90.0)scale(0.16 -0.16)">
      <use xlink:href="#Raleway-Medium-54"/>
      <use x="61.5999908447" xlink:href="#Raleway-Medium-72"/>
      <use x="97.799987793" xlink:href="#Raleway-Medium-61"/>
      <use x="153.499984741" xlink:href="#Raleway-Medium-69"/>
      <use x="176.099975586" xlink:href="#Raleway-Medium-6e"/>
      <use x="234.699966431" xlink:href="#Raleway-Medium-69"/>
      <use x="257.299957275" xlink:href="#Raleway-Medium-6e"/>
      <use x="315.89994812" xlink:href="#Raleway-Medium-67"/>
      <use x="377.999938965" xlink:href="#Raleway-Medium-20"/>
      <use x="403.06867981" xlink:href="#Raleway-Medium-54"/>
      <use x="464.668670654" xlink:href="#Raleway-Medium-69"/>
      <use x="487.268661499" xlink:href="#Raleway-Medium-6d"/>
      <use x="579.26864624" xlink:href="#Raleway-Medium-65"/>
      <use x="638.368637085" xlink:href="#Raleway-Medium-20"/>
      <use x="663.46862793" xlink:href="#Raleway-Medium-28"/>
      <use x="691.468612671" xlink:href="#Raleway-Medium-73"/>
      <use x="740.768600464" xlink:href="#Raleway-Medium-29"/>
     </g>
    </g>
   </g>
   <g id="text_21">
    <!-- Yggdrasil vs. PLANET: Number of Features -->
    <defs>
     <path d="M 1.09375 0 
L 30.296875 71 
L 37.703125 71 
L 66.796875 0 
L 57.203125 0 
L 48.796875 20.796875 
L 19 20.796875 
L 10.703125 0 
z
M 34 60.59375 
L 20.796875 27.796875 
L 46.796875 27.796875 
z
" id="Raleway-Medium-41"/>
     <path d="M 6.90625 40.59375 
L 6.90625 51.796875 
L 14.203125 51.796875 
L 14.203125 40.59375 
z
M 6.90625 0 
L 6.90625 11.203125 
L 14.203125 11.203125 
L 14.203125 0 
z
" id="Raleway-Medium-3a"/>
     <path d="M 8.5 0 
L 8.5 71 
L 38.09375 71 
Q 42.796875 71 46.75 69.046875 
Q 50.703125 67.09375 53.546875 63.84375 
Q 56.40625 60.59375 58 56.546875 
Q 59.59375 52.5 59.59375 48.296875 
Q 59.59375 43.90625 58.09375 39.796875 
Q 56.59375 35.703125 53.84375 32.5 
Q 51.09375 29.296875 47.25 27.390625 
Q 43.40625 25.5 38.703125 25.5 
L 17.5 25.5 
L 17.5 0 
z
M 17.5 33.5 
L 38.203125 33.5 
Q 41 33.5 43.25 34.640625 
Q 45.5 35.796875 47.09375 37.84375 
Q 48.703125 39.90625 49.59375 42.59375 
Q 50.5 45.296875 50.5 48.296875 
Q 50.5 51.40625 49.453125 54.09375 
Q 48.40625 56.796875 46.65625 58.796875 
Q 44.90625 60.796875 42.546875 61.890625 
Q 40.203125 63 37.59375 63 
L 17.5 63 
z
" id="Raleway-Medium-50"/>
     <path d="M 56.703125 8 
L 56.703125 0 
L 8.5 0 
L 8.5 71 
L 55.796875 71 
L 55.796875 63 
L 17.5 63 
L 17.5 40 
L 50.796875 40 
L 50.796875 32.5 
L 17.5 32.5 
L 17.5 8 
z
" id="Raleway-Medium-45"/>
     <path d="M 29.90625 -1 
Q 24 -1 19.140625 1.203125 
Q 14.296875 3.40625 10.84375 7.09375 
Q 7.40625 10.796875 5.5 15.6875 
Q 3.59375 20.59375 3.59375 26 
Q 3.59375 31.5 5.546875 36.390625 
Q 7.5 41.296875 10.953125 45 
Q 14.40625 48.703125 19.25 50.890625 
Q 24.09375 53.09375 29.90625 53.09375 
Q 35.703125 53.09375 40.59375 50.890625 
Q 45.5 48.703125 48.953125 45 
Q 52.40625 41.296875 54.34375 36.390625 
Q 56.296875 31.5 56.296875 26 
Q 56.296875 20.59375 54.390625 15.6875 
Q 52.5 10.796875 49 7.09375 
Q 45.5 3.40625 40.640625 1.203125 
Q 35.796875 -1 29.90625 -1 
M 12.59375 25.90625 
Q 12.59375 21.796875 13.9375 18.296875 
Q 15.296875 14.796875 17.640625 12.1875 
Q 20 9.59375 23.140625 8.09375 
Q 26.296875 6.59375 29.90625 6.59375 
Q 33.5 6.59375 36.640625 8.09375 
Q 39.796875 9.59375 42.1875 12.25 
Q 44.59375 14.90625 45.9375 18.453125 
Q 47.296875 22 47.296875 26.09375 
Q 47.296875 30.09375 45.9375 33.640625 
Q 44.59375 37.203125 42.1875 39.84375 
Q 39.796875 42.5 36.640625 44 
Q 33.5 45.5 29.90625 45.5 
Q 26.296875 45.5 23.140625 43.953125 
Q 20 42.40625 17.640625 39.75 
Q 15.296875 37.09375 13.9375 33.546875 
Q 12.59375 30 12.59375 25.90625 
" id="Raleway-Medium-6f"/>
     <path d="M 10.296875 71 
L 31.796875 34 
L 53.5 71 
L 63.296875 71 
L 36.296875 25.90625 
L 36.296875 0 
L 27.296875 0 
L 27.296875 26.09375 
L 0.40625 71 
z
" id="Raleway-Medium-59"/>
     <path d="M 7.09375 73 
L 15.90625 73 
L 15.90625 13.5 
Q 15.90625 10.59375 17.453125 8.9375 
Q 19 7.296875 21.796875 7.296875 
Q 22.90625 7.296875 24.40625 7.640625 
Q 25.90625 8 27.203125 8.5 
L 28.59375 1.40625 
Q 26.40625 0.5 23.40625 -0.09375 
Q 20.40625 -0.703125 18.09375 -0.703125 
Q 13 -0.703125 10.046875 2.1875 
Q 7.09375 5.09375 7.09375 10.296875 
z
" id="Raleway-Medium-6c"/>
     <path d="M 8.5 0 
L 8.5 71 
L 17.5 71 
L 17.5 8 
L 57.09375 8 
L 57.09375 0 
z
" id="Raleway-Medium-4c"/>
     <path d="M 22 0 
L 1.40625 52.203125 
L 10.5 52.203125 
L 27 7.703125 
L 43.59375 52.203125 
L 52 52.203125 
L 31.40625 0 
z
" id="Raleway-Medium-76"/>
     <path d="M 28.5 -1 
Q 23.09375 -1 18.5 1.203125 
Q 13.90625 3.40625 10.59375 7.09375 
Q 7.296875 10.796875 5.4375 15.6875 
Q 3.59375 20.59375 3.59375 26 
Q 3.59375 31.5 5.34375 36.453125 
Q 7.09375 41.40625 10.25 45.09375 
Q 13.40625 48.796875 17.75 50.9375 
Q 22.09375 53.09375 27.296875 53.09375 
Q 33.59375 53.09375 38.546875 49.796875 
Q 43.5 46.5 46.40625 41.796875 
L 46.40625 73 
L 55.203125 73 
L 55.203125 10.796875 
Q 55.203125 7.703125 58 7.59375 
L 58 0 
Q 56.90625 -0.203125 56.046875 -0.296875 
Q 55.203125 -0.40625 54.5 -0.40625 
Q 51.5 -0.40625 49.703125 1.140625 
Q 47.90625 2.703125 47.796875 4.90625 
L 47.59375 9.796875 
Q 44.5 4.703125 39.34375 1.84375 
Q 34.203125 -1 28.5 -1 
M 30.59375 6.59375 
Q 33 6.59375 35.546875 7.5 
Q 38.09375 8.40625 40.34375 10 
Q 42.59375 11.59375 44.25 13.75 
Q 45.90625 15.90625 46.40625 18.296875 
L 46.40625 33.296875 
Q 45.5 35.796875 43.703125 38.046875 
Q 41.90625 40.296875 39.65625 41.9375 
Q 37.40625 43.59375 34.84375 44.546875 
Q 32.296875 45.5 29.796875 45.5 
Q 25.90625 45.5 22.75 43.84375 
Q 19.59375 42.203125 17.34375 39.453125 
Q 15.09375 36.703125 13.890625 33.140625 
Q 12.703125 29.59375 12.703125 25.90625 
Q 12.703125 22 14.09375 18.453125 
Q 15.5 14.90625 17.890625 12.296875 
Q 20.296875 9.703125 23.546875 8.140625 
Q 26.796875 6.59375 30.59375 6.59375 
" id="Raleway-Medium-64"/>
     <path d="M 9.90625 0 
L 9.90625 39.203125 
L 2.796875 39.203125 
L 2.796875 46.09375 
L 9.90625 46.09375 
L 9.90625 53.296875 
Q 9.90625 63 14.203125 68.5 
Q 18.5 74 25.90625 74 
Q 29 74 32 73.140625 
Q 35 72.296875 37.40625 70.796875 
L 35.203125 64.296875 
Q 33.796875 65.296875 31.75 65.890625 
Q 29.703125 66.5 27.703125 66.5 
Q 23.296875 66.5 21 63.203125 
Q 18.703125 59.90625 18.703125 53.59375 
L 18.703125 46.09375 
L 32.59375 46.09375 
L 32.59375 39.203125 
L 18.703125 39.203125 
L 18.703125 0 
z
" id="Raleway-Medium-66"/>
     <path d="M 33.703125 -1 
Q 27.59375 -1 22.59375 2 
Q 17.59375 5 14.703125 9.796875 
L 14.703125 0 
L 6.90625 0 
L 6.90625 73 
L 15.703125 73 
L 15.703125 41.796875 
Q 19 46.90625 23.796875 50 
Q 28.59375 53.09375 35 53.09375 
Q 40.40625 53.09375 44.703125 50.796875 
Q 49 48.5 52.046875 44.75 
Q 55.09375 41 56.75 36.046875 
Q 58.40625 31.09375 58.40625 25.90625 
Q 58.40625 20.40625 56.5 15.5 
Q 54.59375 10.59375 51.296875 6.9375 
Q 48 3.296875 43.453125 1.140625 
Q 38.90625 -1 33.703125 -1 
M 31.5 6.59375 
Q 35.40625 6.59375 38.703125 8.1875 
Q 42 9.796875 44.390625 12.5 
Q 46.796875 15.203125 48.09375 18.640625 
Q 49.40625 22.09375 49.40625 25.90625 
Q 49.40625 29.703125 48.15625 33.25 
Q 46.90625 36.796875 44.65625 39.5 
Q 42.40625 42.203125 39.25 43.84375 
Q 36.09375 45.5 32.296875 45.5 
Q 29.5 45.5 27 44.5 
Q 24.5 43.5 22.34375 41.84375 
Q 20.203125 40.203125 18.546875 38 
Q 16.90625 35.796875 15.703125 33.296875 
L 15.703125 18.203125 
Q 16.203125 15.703125 17.84375 13.59375 
Q 19.5 11.5 21.75 9.953125 
Q 24 8.40625 26.546875 7.5 
Q 29.09375 6.59375 31.5 6.59375 
" id="Raleway-Medium-62"/>
    </defs>
    <g transform="translate(79.7484375 24.376)scale(0.216 -0.216)">
     <use xlink:href="#Raleway-Medium-59"/>
     <use x="63.6999969482" xlink:href="#Raleway-Medium-67"/>
     <use x="125.799987793" xlink:href="#Raleway-Medium-67"/>
     <use x="187.899978638" xlink:href="#Raleway-Medium-64"/>
     <use x="250.999969482" xlink:href="#Raleway-Medium-72"/>
     <use x="287.199966431" xlink:href="#Raleway-Medium-61"/>
     <use x="342.899963379" xlink:href="#Raleway-Medium-73"/>
     <use x="392.199951172" xlink:href="#Raleway-Medium-69"/>
     <use x="414.799942017" xlink:href="#Raleway-Medium-6c"/>
     <use x="442.768676758" xlink:href="#Raleway-Medium-20"/>
     <use x="467.837417603" xlink:href="#Raleway-Medium-76"/>
     <use x="521.221786499" xlink:href="#Raleway-Medium-73"/>
     <use x="570.521774292" xlink:href="#Raleway-Medium-2e"/>
     <use x="590.521759033" xlink:href="#Raleway-Medium-20"/>
     <use x="615.621749878" xlink:href="#Raleway-Medium-50"/>
     <use x="677.721740723" xlink:href="#Raleway-Medium-4c"/>
     <use x="736.721725464" xlink:href="#Raleway-Medium-41"/>
     <use x="804.521713257" xlink:href="#Raleway-Medium-4e"/>
     <use x="881.521697998" xlink:href="#Raleway-Medium-45"/>
     <use x="942.521682739" xlink:href="#Raleway-Medium-54"/>
     <use x="1004.07479858" xlink:href="#Raleway-Medium-3a"/>
     <use x="1025.17478943" xlink:href="#Raleway-Medium-20"/>
     <use x="1050.27478027" xlink:href="#Raleway-Medium-4e"/>
     <use x="1127.27476501" xlink:href="#Raleway-Medium-75"/>
     <use x="1187.57475281" xlink:href="#Raleway-Medium-6d"/>
     <use x="1279.57473755" xlink:href="#Raleway-Medium-62"/>
     <use x="1341.67472839" xlink:href="#Raleway-Medium-65"/>
     <use x="1400.77471924" xlink:href="#Raleway-Medium-72"/>
     <use x="1436.94346619" xlink:href="#Raleway-Medium-20"/>
     <use x="1462.04345703" xlink:href="#Raleway-Medium-6f"/>
     <use x="1521.84344482" xlink:href="#Raleway-Medium-66"/>
     <use x="1557.42781067" xlink:href="#Raleway-Medium-20"/>
     <use x="1582.52780151" xlink:href="#Raleway-Medium-46"/>
     <use x="1640.62779236" xlink:href="#Raleway-Medium-65"/>
     <use x="1699.7277832" xlink:href="#Raleway-Medium-61"/>
     <use x="1755.42778015" xlink:href="#Raleway-Medium-74"/>
     <use x="1790.1277771" xlink:href="#Raleway-Medium-75"/>
     <use x="1850.42776489" xlink:href="#Raleway-Medium-72"/>
     <use x="1886.62776184" xlink:href="#Raleway-Medium-65"/>
     <use x="1945.72775269" xlink:href="#Raleway-Medium-73"/>
    </g>
   </g>
   <g id="legend_1">
    <g id="patch_7">
     <path d="M 81.8 135.48625 
L 232.324063 135.48625 
Q 235.124063 135.48625 235.124063 132.68625 
L 235.124063 53 
Q 235.124063 50.2 232.324063 50.2 
L 81.8 50.2 
Q 79 50.2 79 53 
L 79 132.68625 
Q 79 135.48625 81.8 135.48625 
z
" style="fill:#ffffff;opacity:0.4;stroke:#000000;stroke-linejoin:miter;"/>
    </g>
    <g id="line2d_59">
     <path d="M 88.8 61.12 
L 108.4 61.12 
" style="fill:none;stroke:#0000ff;stroke-linecap:square;"/>
    </g>
    <g id="line2d_60">
     <g>
      <use style="fill:#0000ff;stroke:#0000ff;stroke-width:0.5;" x="88.8" xlink:href="#mcd3ffdb09c" y="61.12"/>
      <use style="fill:#0000ff;stroke:#0000ff;stroke-width:0.5;" x="108.4" xlink:href="#mcd3ffdb09c" y="61.12"/>
     </g>
    </g>
    <g id="text_22">
     <!-- MLlib, D = 15 -->
     <defs>
      <path d="M 4.796875 -1.59375 
Q 5.5 -1.59375 6.390625 -1.140625 
Q 7.296875 -0.703125 7.296875 0.796875 
L 7.296875 11.203125 
L 14.59375 11.203125 
L 14.59375 -0.59375 
Q 14.59375 -2.703125 13.6875 -4.140625 
Q 12.796875 -5.59375 11.390625 -6.4375 
Q 10 -7.296875 8.25 -7.6875 
Q 6.5 -8.09375 4.796875 -8.09375 
z
" id="Raleway-Medium-2c"/>
      <path d="M 8.5 0 
L 8.5 71 
L 33.09375 71 
Q 41.59375 71 48.046875 68.203125 
Q 54.5 65.40625 58.796875 60.59375 
Q 63.09375 55.796875 65.25 49.34375 
Q 67.40625 42.90625 67.40625 35.59375 
Q 67.40625 27.5 65 20.953125 
Q 62.59375 14.40625 58.09375 9.75 
Q 53.59375 5.09375 47.25 2.546875 
Q 40.90625 0 33.09375 0 
z
M 58.296875 35.59375 
Q 58.296875 41.59375 56.640625 46.640625 
Q 55 51.703125 51.75 55.296875 
Q 48.5 58.90625 43.796875 60.953125 
Q 39.09375 63 33.09375 63 
L 17.5 63 
L 17.5 8 
L 33.09375 8 
Q 39.203125 8 43.953125 10.09375 
Q 48.703125 12.203125 51.84375 15.890625 
Q 55 19.59375 56.640625 24.640625 
Q 58.296875 29.703125 58.296875 35.59375 
" id="Raleway-Medium-44"/>
      <path d="M 6.796875 17.90625 
L 6.796875 23.90625 
L 37.296875 23.90625 
L 37.296875 17.90625 
z
M 6.796875 31.296875 
L 6.796875 37.296875 
L 37.296875 37.296875 
L 37.296875 31.296875 
z
" id="Raleway-Medium-3d"/>
      <path d="M 69.90625 0 
L 69.90625 54.90625 
L 46.296875 12.796875 
L 41.203125 12.796875 
L 17.5 54.90625 
L 17.5 0 
L 8.5 0 
L 8.5 71 
L 18 71 
L 43.703125 24.90625 
L 69.5 71 
L 78.90625 71 
L 78.90625 0 
z
" id="Raleway-Medium-4d"/>
     </defs>
     <g transform="translate(123.8 66.02)scale(0.14 -0.14)">
      <use xlink:href="#Raleway-Medium-4d"/>
      <use x="87.3999938965" xlink:href="#Raleway-Medium-4c"/>
      <use x="146.399978638" xlink:href="#Raleway-Medium-6c"/>
      <use x="174.399963379" xlink:href="#Raleway-Medium-69"/>
      <use x="196.999954224" xlink:href="#Raleway-Medium-62"/>
      <use x="259.099945068" xlink:href="#Raleway-Medium-2c"/>
      <use x="280.499938965" xlink:href="#Raleway-Medium-20"/>
      <use x="305.59992981" xlink:href="#Raleway-Medium-44"/>
      <use x="377.399917603" xlink:href="#Raleway-Medium-20"/>
      <use x="402.499908447" xlink:href="#Raleway-Medium-3d"/>
      <use x="446.499893188" xlink:href="#Raleway-Medium-20"/>
      <use x="471.599884033" xlink:href="#Raleway-Medium-31"/>
      <use x="516.299880981" xlink:href="#Raleway-Medium-35"/>
     </g>
    </g>
    <g id="line2d_61">
     <path d="M 88.8 81.321562 
L 108.4 81.321562 
" style="fill:none;stroke:#ff4500;stroke-linecap:square;"/>
    </g>
    <g id="line2d_62">
     <g>
      <use style="fill:#ff4500;stroke:#ff4500;stroke-width:0.5;" x="88.8" xlink:href="#m620a446b67" y="81.3215625"/>
      <use style="fill:#ff4500;stroke:#ff4500;stroke-width:0.5;" x="108.4" xlink:href="#m620a446b67" y="81.3215625"/>
     </g>
    </g>
    <g id="text_23">
     <!-- MLlib, D = 13 -->
     <g transform="translate(123.8 86.2215625)scale(0.14 -0.14)">
      <use xlink:href="#Raleway-Medium-4d"/>
      <use x="87.3999938965" xlink:href="#Raleway-Medium-4c"/>
      <use x="146.399978638" xlink:href="#Raleway-Medium-6c"/>
      <use x="174.399963379" xlink:href="#Raleway-Medium-69"/>
      <use x="196.999954224" xlink:href="#Raleway-Medium-62"/>
      <use x="259.099945068" xlink:href="#Raleway-Medium-2c"/>
      <use x="280.499938965" xlink:href="#Raleway-Medium-20"/>
      <use x="305.59992981" xlink:href="#Raleway-Medium-44"/>
      <use x="377.399917603" xlink:href="#Raleway-Medium-20"/>
      <use x="402.499908447" xlink:href="#Raleway-Medium-3d"/>
      <use x="446.499893188" xlink:href="#Raleway-Medium-20"/>
      <use x="471.599884033" xlink:href="#Raleway-Medium-31"/>
      <use x="516.299880981" xlink:href="#Raleway-Medium-33"/>
     </g>
    </g>
    <g id="line2d_63">
     <path d="M 88.8 101.523125 
L 108.4 101.523125 
" style="fill:none;stroke:#008000;stroke-linecap:square;"/>
    </g>
    <g id="line2d_64">
     <g>
      <use style="fill:#008000;stroke:#008000;stroke-width:0.5;" x="88.8" xlink:href="#m0e88050c70" y="101.523125"/>
      <use style="fill:#008000;stroke:#008000;stroke-width:0.5;" x="108.4" xlink:href="#m0e88050c70" y="101.523125"/>
     </g>
    </g>
    <g id="text_24">
     <!-- Yggdrasil, D = 15 -->
     <g transform="translate(123.8 106.423125)scale(0.14 -0.14)">
      <use xlink:href="#Raleway-Medium-59"/>
      <use x="63.6999969482" xlink:href="#Raleway-Medium-67"/>
      <use x="125.799987793" xlink:href="#Raleway-Medium-67"/>
      <use x="187.899978638" xlink:href="#Raleway-Medium-64"/>
      <use x="250.999969482" xlink:href="#Raleway-Medium-72"/>
      <use x="287.199966431" xlink:href="#Raleway-Medium-61"/>
      <use x="342.899963379" xlink:href="#Raleway-Medium-73"/>
      <use x="392.199951172" xlink:href="#Raleway-Medium-69"/>
      <use x="414.799942017" xlink:href="#Raleway-Medium-6c"/>
      <use x="442.799926758" xlink:href="#Raleway-Medium-2c"/>
      <use x="464.199920654" xlink:href="#Raleway-Medium-20"/>
      <use x="489.299911499" xlink:href="#Raleway-Medium-44"/>
      <use x="561.099899292" xlink:href="#Raleway-Medium-20"/>
      <use x="586.199890137" xlink:href="#Raleway-Medium-3d"/>
      <use x="630.199874878" xlink:href="#Raleway-Medium-20"/>
      <use x="655.299865723" xlink:href="#Raleway-Medium-31"/>
      <use x="699.999862671" xlink:href="#Raleway-Medium-35"/>
     </g>
    </g>
    <g id="line2d_65">
     <path d="M 88.8 121.864687 
L 108.4 121.864687 
" style="fill:none;stroke:#daa520;stroke-linecap:square;"/>
    </g>
    <g id="line2d_66">
     <g>
      <use style="fill:#daa520;stroke:#daa520;stroke-width:0.5;" x="88.8" xlink:href="#maddabbabf8" y="121.8646875"/>
      <use style="fill:#daa520;stroke:#daa520;stroke-width:0.5;" x="108.4" xlink:href="#maddabbabf8" y="121.8646875"/>
     </g>
    </g>
    <g id="text_25">
     <!-- Yggdrasil, D = 13 -->
     <g transform="translate(123.8 126.7646875)scale(0.14 -0.14)">
      <use xlink:href="#Raleway-Medium-59"/>
      <use x="63.6999969482" xlink:href="#Raleway-Medium-67"/>
      <use x="125.799987793" xlink:href="#Raleway-Medium-67"/>
      <use x="187.899978638" xlink:href="#Raleway-Medium-64"/>
      <use x="250.999969482" xlink:href="#Raleway-Medium-72"/>
      <use x="287.199966431" xlink:href="#Raleway-Medium-61"/>
      <use x="342.899963379" xlink:href="#Raleway-Medium-73"/>
      <use x="392.199951172" xlink:href="#Raleway-Medium-69"/>
      <use x="414.799942017" xlink:href="#Raleway-Medium-6c"/>
      <use x="442.799926758" xlink:href="#Raleway-Medium-2c"/>
      <use x="464.199920654" xlink:href="#Raleway-Medium-20"/>
      <use x="489.299911499" xlink:href="#Raleway-Medium-44"/>
      <use x="561.099899292" xlink:href="#Raleway-Medium-20"/>
      <use x="586.199890137" xlink:href="#Raleway-Medium-3d"/>
      <use x="630.199874878" xlink:href="#Raleway-Medium-20"/>
      <use x="655.299865723" xlink:href="#Raleway-Medium-31"/>
      <use x="699.999862671" xlink:href="#Raleway-Medium-33"/>
     </g>
    </g>
   </g>
  </g>
 </g>
 <defs>
  <clipPath id="pf60389284f">
   <rect height="345.6" width="446.4" x="72.0" y="43.2"/>
  </clipPath>
 </defs>
</svg>
