<?xml version="1.0" encoding="utf-8" standalone="no"?>
<!DOCTYPE svg PUBLIC "-//W3C//DTD SVG 1.1//EN"
  "http://www.w3.org/Graphics/SVG/1.1/DTD/svg11.dtd">
<!-- Created with matplotlib (http://matplotlib.org/) -->
<svg height="432pt" version="1.1" viewBox="0 0 576 432" width="576pt" xmlns="http://www.w3.org/2000/svg" xmlns:xlink="http://www.w3.org/1999/xlink">
 <defs>
  <style type="text/css">
*{stroke-linecap:butt;stroke-linejoin:round;stroke-miterlimit:100000;}
  </style>
 </defs>
 <g id="figure_1">
  <g id="patch_1">
   <path d="M 0 432 
L 576 432 
L 576 0 
L 0 0 
L 0 432 
z
" style="fill:none;"/>
  </g>
  <g id="axes_1">
   <g id="patch_2">
    <path d="M 72 388.8 
L 518.4 388.8 
L 518.4 43.2 
L 72 43.2 
L 72 388.8 
z
" style="fill:none;"/>
   </g>
   <g id="line2d_1">
    <path clip-path="url(#p3bc82b9994)" d="M 72 342.414592 
L 121.6 325.801959 
L 171.2 314.582609 
L 220.8 304.778373 
L 270.4 294.962679 
L 320 284.456352 
L 369.6 272.990066 
L 419.2 260.569747 
L 468.8 247.563289 
L 518.4 234.004599 
" style="fill:none;stroke:#008000;stroke-linecap:square;"/>
    <defs>
     <path d="M 0 3 
C 0.795609 3 1.55874 2.683901 2.12132 2.12132 
C 2.683901 1.55874 3 0.795609 3 0 
C 3 -0.795609 2.683901 -1.55874 2.12132 -2.12132 
C 1.55874 -2.683901 0.795609 -3 0 -3 
C -0.795609 -3 -1.55874 -2.683901 -2.12132 -2.12132 
C -2.683901 -1.55874 -3 -0.795609 -3 0 
C -3 0.795609 -2.683901 1.55874 -2.12132 2.12132 
C -1.55874 2.683901 -0.795609 3 0 3 
z
" id="ma890c61401" style="stroke:#008000;stroke-width:0.5;"/>
    </defs>
    <g clip-path="url(#p3bc82b9994)">
     <use style="fill:#008000;stroke:#008000;stroke-width:0.5;" x="72.0" xlink:href="#ma890c61401" y="342.414592328"/>
     <use style="fill:#008000;stroke:#008000;stroke-width:0.5;" x="121.6" xlink:href="#ma890c61401" y="325.801958896"/>
     <use style="fill:#008000;stroke:#008000;stroke-width:0.5;" x="171.2" xlink:href="#ma890c61401" y="314.582608769"/>
     <use style="fill:#008000;stroke:#008000;stroke-width:0.5;" x="220.8" xlink:href="#ma890c61401" y="304.778373265"/>
     <use style="fill:#008000;stroke:#008000;stroke-width:0.5;" x="270.4" xlink:href="#ma890c61401" y="294.962678917"/>
     <use style="fill:#008000;stroke:#008000;stroke-width:0.5;" x="320.0" xlink:href="#ma890c61401" y="284.45635153"/>
     <use style="fill:#008000;stroke:#008000;stroke-width:0.5;" x="369.6" xlink:href="#ma890c61401" y="272.99006559"/>
     <use style="fill:#008000;stroke:#008000;stroke-width:0.5;" x="419.2" xlink:href="#ma890c61401" y="260.569746946"/>
     <use style="fill:#008000;stroke:#008000;stroke-width:0.5;" x="468.8" xlink:href="#ma890c61401" y="247.56328887"/>
     <use style="fill:#008000;stroke:#008000;stroke-width:0.5;" x="518.4" xlink:href="#ma890c61401" y="234.004599371"/>
    </g>
   </g>
   <g id="line2d_2">
    <path clip-path="url(#p3bc82b9994)" d="M 72 206.305605 
L 121.6 182.908222 
L 171.2 164.892302 
L 220.8 148.676122 
L 270.4 133.20186 
L 320 118.073095 
L 369.6 103.724759 
L 419.2 91.23282 
L 468.8 81.391249 
L 518.4 73.651174 
" style="fill:none;stroke:#0000ff;stroke-linecap:square;"/>
    <defs>
     <path d="M -6 6 
L 6 -6 
M -6 -6 
L 6 6 
" id="m44994fc418" style="stroke:#0000ff;stroke-width:0.5;"/>
    </defs>
    <g clip-path="url(#p3bc82b9994)">
     <use style="fill:#0000ff;stroke:#0000ff;stroke-width:0.5;" x="72.0" xlink:href="#m44994fc418" y="206.305604579"/>
     <use style="fill:#0000ff;stroke:#0000ff;stroke-width:0.5;" x="121.6" xlink:href="#m44994fc418" y="182.908221594"/>
     <use style="fill:#0000ff;stroke:#0000ff;stroke-width:0.5;" x="171.2" xlink:href="#m44994fc418" y="164.892302449"/>
     <use style="fill:#0000ff;stroke:#0000ff;stroke-width:0.5;" x="220.8" xlink:href="#m44994fc418" y="148.676121696"/>
     <use style="fill:#0000ff;stroke:#0000ff;stroke-width:0.5;" x="270.4" xlink:href="#m44994fc418" y="133.201860112"/>
     <use style="fill:#0000ff;stroke:#0000ff;stroke-width:0.5;" x="320.0" xlink:href="#m44994fc418" y="118.07309549"/>
     <use style="fill:#0000ff;stroke:#0000ff;stroke-width:0.5;" x="369.6" xlink:href="#m44994fc418" y="103.724759477"/>
     <use style="fill:#0000ff;stroke:#0000ff;stroke-width:0.5;" x="419.2" xlink:href="#m44994fc418" y="91.2328197368"/>
     <use style="fill:#0000ff;stroke:#0000ff;stroke-width:0.5;" x="468.8" xlink:href="#m44994fc418" y="81.391249347"/>
     <use style="fill:#0000ff;stroke:#0000ff;stroke-width:0.5;" x="518.4" xlink:href="#m44994fc418" y="73.6511743339"/>
    </g>
   </g>
   <g id="line2d_3">
    <path clip-path="url(#p3bc82b9994)" d="M 72 191.638348 
L 121.6 168.198603 
L 171.2 150.146016 
L 220.8 133.928621 
L 270.4 118.428193 
L 320 104.272779 
L 369.6 91.333777 
L 419.2 80.457185 
L 468.8 71.27899 
L 518.4 63.115818 
" style="fill:none;stroke:#ff4500;stroke-linecap:square;"/>
    <defs>
     <path d="M -6 6 
L 6 -6 
M -6 -6 
L 6 6 
" id="m5522431fca" style="stroke:#ff4500;stroke-width:0.5;"/>
    </defs>
    <g clip-path="url(#p3bc82b9994)">
     <use style="fill:#ff4500;stroke:#ff4500;stroke-width:0.5;" x="72.0" xlink:href="#m5522431fca" y="191.638348391"/>
     <use style="fill:#ff4500;stroke:#ff4500;stroke-width:0.5;" x="121.6" xlink:href="#m5522431fca" y="168.198603293"/>
     <use style="fill:#ff4500;stroke:#ff4500;stroke-width:0.5;" x="171.2" xlink:href="#m5522431fca" y="150.146016297"/>
     <use style="fill:#ff4500;stroke:#ff4500;stroke-width:0.5;" x="220.8" xlink:href="#m5522431fca" y="133.928620785"/>
     <use style="fill:#ff4500;stroke:#ff4500;stroke-width:0.5;" x="270.4" xlink:href="#m5522431fca" y="118.428193348"/>
     <use style="fill:#ff4500;stroke:#ff4500;stroke-width:0.5;" x="320.0" xlink:href="#m5522431fca" y="104.272778956"/>
     <use style="fill:#ff4500;stroke:#ff4500;stroke-width:0.5;" x="369.6" xlink:href="#m5522431fca" y="91.3337773353"/>
     <use style="fill:#ff4500;stroke:#ff4500;stroke-width:0.5;" x="419.2" xlink:href="#m5522431fca" y="80.4571846212"/>
     <use style="fill:#ff4500;stroke:#ff4500;stroke-width:0.5;" x="468.8" xlink:href="#m5522431fca" y="71.2789897989"/>
     <use style="fill:#ff4500;stroke:#ff4500;stroke-width:0.5;" x="518.4" xlink:href="#m5522431fca" y="63.1158177319"/>
    </g>
   </g>
   <g id="line2d_4">
    <path clip-path="url(#p3bc82b9994)" d="M 72 176.721716 
L 121.6 153.30716 
L 171.2 135.274307 
L 220.8 119.031694 
L 270.4 103.84449 
L 320 89.002351 
L 369.6 75.173099 
L 419.2 63.827899 
L 468.8 54.691779 
L 518.4 46.888722 
" style="fill:none;stroke:#ff00ff;stroke-linecap:square;"/>
    <defs>
     <path d="M -6 6 
L 6 -6 
M -6 -6 
L 6 6 
" id="m54ef6a0f59" style="stroke:#ff00ff;stroke-width:0.5;"/>
    </defs>
    <g clip-path="url(#p3bc82b9994)">
     <use style="fill:#ff00ff;stroke:#ff00ff;stroke-width:0.5;" x="72.0" xlink:href="#m54ef6a0f59" y="176.72171575"/>
     <use style="fill:#ff00ff;stroke:#ff00ff;stroke-width:0.5;" x="121.6" xlink:href="#m54ef6a0f59" y="153.307159845"/>
     <use style="fill:#ff00ff;stroke:#ff00ff;stroke-width:0.5;" x="171.2" xlink:href="#m54ef6a0f59" y="135.274306975"/>
     <use style="fill:#ff00ff;stroke:#ff00ff;stroke-width:0.5;" x="220.8" xlink:href="#m54ef6a0f59" y="119.031693979"/>
     <use style="fill:#ff00ff;stroke:#ff00ff;stroke-width:0.5;" x="270.4" xlink:href="#m54ef6a0f59" y="103.844490467"/>
     <use style="fill:#ff00ff;stroke:#ff00ff;stroke-width:0.5;" x="320.0" xlink:href="#m54ef6a0f59" y="89.0023508914"/>
     <use style="fill:#ff00ff;stroke:#ff00ff;stroke-width:0.5;" x="369.6" xlink:href="#m54ef6a0f59" y="75.1730992182"/>
     <use style="fill:#ff00ff;stroke:#ff00ff;stroke-width:0.5;" x="419.2" xlink:href="#m54ef6a0f59" y="63.8278992775"/>
     <use style="fill:#ff00ff;stroke:#ff00ff;stroke-width:0.5;" x="468.8" xlink:href="#m54ef6a0f59" y="54.6917794794"/>
     <use style="fill:#ff00ff;stroke:#ff00ff;stroke-width:0.5;" x="518.4" xlink:href="#m54ef6a0f59" y="46.8887220399"/>
    </g>
   </g>
   <g id="patch_3">
    <path d="M 72 43.2 
L 518.4 43.2 
" style="fill:none;stroke:#000000;stroke-linecap:square;stroke-linejoin:miter;"/>
   </g>
   <g id="patch_4">
    <path d="M 518.4 388.8 
L 518.4 43.2 
" style="fill:none;stroke:#000000;stroke-linecap:square;stroke-linejoin:miter;"/>
   </g>
   <g id="patch_5">
    <path d="M 72 388.8 
L 518.4 388.8 
" style="fill:none;stroke:#000000;stroke-linecap:square;stroke-linejoin:miter;"/>
   </g>
   <g id="patch_6">
    <path d="M 72 388.8 
L 72 43.2 
" style="fill:none;stroke:#000000;stroke-linecap:square;stroke-linejoin:miter;"/>
   </g>
   <g id="matplotlib.axis_1">
    <g id="xtick_1">
     <g id="line2d_5">
      <path clip-path="url(#p3bc82b9994)" d="M 72 388.8 
L 72 43.2 
" style="fill:none;stroke:#000000;stroke-dasharray:1.000000,3.000000;stroke-dashoffset:0.0;stroke-width:0.5;"/>
     </g>
     <g id="line2d_6">
      <defs>
       <path d="M 0 0 
L 0 -4 
" id="ma10b71d63e" style="stroke:#000000;stroke-width:0.5;"/>
      </defs>
      <g>
       <use style="stroke:#000000;stroke-width:0.5;" x="72.0" xlink:href="#ma10b71d63e" y="388.8"/>
      </g>
     </g>
     <g id="line2d_7">
      <defs>
       <path d="M 0 0 
L 0 4 
" id="mda707b978b" style="stroke:#000000;stroke-width:0.5;"/>
      </defs>
      <g>
       <use style="stroke:#000000;stroke-width:0.5;" x="72.0" xlink:href="#mda707b978b" y="43.2"/>
      </g>
     </g>
     <g id="text_1">
      <!-- 1 -->
      <defs>
       <path d="M 42.5 8 
L 42.5 0 
L 6.59375 0 
L 6.59375 8 
L 20.796875 8 
L 20.796875 47 
Q 19.90625 45.796875 18 44.4375 
Q 16.09375 43.09375 13.75 41.9375 
Q 11.40625 40.796875 8.90625 40 
Q 6.40625 39.203125 4.5 39.203125 
L 4.5 47.59375 
Q 6.703125 47.59375 9.390625 48.84375 
Q 12.09375 50.09375 14.546875 51.75 
Q 17 53.40625 18.75 54.953125 
Q 20.5 56.5 20.796875 57.09375 
L 29.796875 57.09375 
L 29.796875 8 
z
" id="Raleway-Medium-31"/>
      </defs>
      <g transform="translate(68.647265625 403.75)scale(0.15 -0.15)">
       <use xlink:href="#Raleway-Medium-31"/>
      </g>
     </g>
    </g>
    <g id="xtick_2">
     <g id="line2d_8">
      <path clip-path="url(#p3bc82b9994)" d="M 121.6 388.8 
L 121.6 43.2 
" style="fill:none;stroke:#000000;stroke-dasharray:1.000000,3.000000;stroke-dashoffset:0.0;stroke-width:0.5;"/>
     </g>
     <g id="line2d_9">
      <g>
       <use style="stroke:#000000;stroke-width:0.5;" x="121.6" xlink:href="#ma10b71d63e" y="388.8"/>
      </g>
     </g>
     <g id="line2d_10">
      <g>
       <use style="stroke:#000000;stroke-width:0.5;" x="121.6" xlink:href="#mda707b978b" y="43.2"/>
      </g>
     </g>
     <g id="text_2">
      <!-- 2 -->
      <defs>
       <path d="M 4.796875 0 
Q 4.796875 4 5.4375 7.5 
Q 6.09375 11 7.890625 14.203125 
Q 9.703125 17.40625 12.84375 20.296875 
Q 16 23.203125 21.09375 26.09375 
Q 24.09375 27.703125 27.1875 29.25 
Q 30.296875 30.796875 32.84375 32.546875 
Q 35.40625 34.296875 37.046875 36.296875 
Q 38.703125 38.296875 38.703125 41 
Q 38.703125 42.703125 37.890625 44.390625 
Q 37.09375 46.09375 35.59375 47.390625 
Q 34.09375 48.703125 31.84375 49.5 
Q 29.59375 50.296875 26.703125 50.296875 
Q 23.703125 50.296875 21.25 49.4375 
Q 18.796875 48.59375 16.890625 47.34375 
Q 15 46.09375 13.59375 44.6875 
Q 12.203125 43.296875 11.296875 42.203125 
L 5.59375 48.59375 
Q 6.40625 49.5 8.296875 51.046875 
Q 10.203125 52.59375 13.09375 54.1875 
Q 16 55.796875 19.796875 56.9375 
Q 23.59375 58.09375 28.296875 58.09375 
Q 32.90625 58.09375 36.59375 56.84375 
Q 40.296875 55.59375 42.84375 53.390625 
Q 45.40625 51.203125 46.796875 48.25 
Q 48.203125 45.296875 48.203125 42 
Q 48.203125 38.09375 46.5 35.1875 
Q 44.796875 32.296875 42.34375 30.09375 
Q 39.90625 27.90625 37.09375 26.34375 
Q 34.296875 24.796875 32.09375 23.703125 
Q 29.90625 22.59375 27.15625 21.046875 
Q 24.40625 19.5 21.90625 17.546875 
Q 19.40625 15.59375 17.546875 13.1875 
Q 15.703125 10.796875 15.203125 8 
L 49.296875 8 
L 49.296875 0 
z
" id="Raleway-Medium-32"/>
      </defs>
      <g transform="translate(117.51953125 403.75)scale(0.15 -0.15)">
       <use xlink:href="#Raleway-Medium-32"/>
      </g>
     </g>
    </g>
    <g id="xtick_3">
     <g id="line2d_11">
      <path clip-path="url(#p3bc82b9994)" d="M 171.2 388.8 
L 171.2 43.2 
" style="fill:none;stroke:#000000;stroke-dasharray:1.000000,3.000000;stroke-dashoffset:0.0;stroke-width:0.5;"/>
     </g>
     <g id="line2d_12">
      <g>
       <use style="stroke:#000000;stroke-width:0.5;" x="171.2" xlink:href="#ma10b71d63e" y="388.8"/>
      </g>
     </g>
     <g id="line2d_13">
      <g>
       <use style="stroke:#000000;stroke-width:0.5;" x="171.2" xlink:href="#mda707b978b" y="43.2"/>
      </g>
     </g>
     <g id="text_3">
      <!-- 3 -->
      <defs>
       <path d="M 35.90625 23.59375 
Q 42.296875 22.5 46.046875 17.703125 
Q 49.796875 12.90625 49.796875 5.796875 
Q 49.796875 1.203125 48.09375 -2.59375 
Q 46.40625 -6.40625 43.25 -9.09375 
Q 40.09375 -11.796875 35.6875 -13.25 
Q 31.296875 -14.703125 25.90625 -14.703125 
Q 18.296875 -14.703125 12.546875 -11.84375 
Q 6.796875 -9 3.59375 -3.796875 
L 9.5 2.09375 
Q 11.796875 -2 15.6875 -4.34375 
Q 19.59375 -6.703125 25.90625 -6.703125 
Q 32.796875 -6.703125 36.75 -3.59375 
Q 40.703125 -0.5 40.703125 5.796875 
Q 40.703125 12.09375 36.453125 15.84375 
Q 32.203125 19.59375 24.09375 19.59375 
L 21.5 19.59375 
L 21.5 27 
L 24.296875 27 
Q 31.5 27 35.34375 30.453125 
Q 39.203125 33.90625 39.203125 39.203125 
Q 39.203125 44.5 35.5 47.09375 
Q 31.796875 49.703125 26.203125 49.703125 
Q 20.703125 49.703125 16.546875 47.34375 
Q 12.40625 45 10.09375 40.796875 
L 4.703125 46.40625 
Q 6 48.90625 8.25 50.953125 
Q 10.5 53 13.453125 54.5 
Q 16.40625 56 19.84375 56.796875 
Q 23.296875 57.59375 27.09375 57.59375 
Q 31.796875 57.59375 35.75 56.296875 
Q 39.703125 55 42.546875 52.703125 
Q 45.40625 50.40625 46.953125 47.09375 
Q 48.5 43.796875 48.5 39.796875 
Q 48.5 36.796875 47.640625 34.09375 
Q 46.796875 31.40625 45.140625 29.203125 
Q 43.5 27 41.140625 25.546875 
Q 38.796875 24.09375 35.90625 23.59375 
" id="Raleway-Medium-33"/>
      </defs>
      <g transform="translate(167.127734375 403.75)scale(0.15 -0.15)">
       <use xlink:href="#Raleway-Medium-33"/>
      </g>
     </g>
    </g>
    <g id="xtick_4">
     <g id="line2d_14">
      <path clip-path="url(#p3bc82b9994)" d="M 220.8 388.8 
L 220.8 43.2 
" style="fill:none;stroke:#000000;stroke-dasharray:1.000000,3.000000;stroke-dashoffset:0.0;stroke-width:0.5;"/>
     </g>
     <g id="line2d_15">
      <g>
       <use style="stroke:#000000;stroke-width:0.5;" x="220.8" xlink:href="#ma10b71d63e" y="388.8"/>
      </g>
     </g>
     <g id="line2d_16">
      <g>
       <use style="stroke:#000000;stroke-width:0.5;" x="220.8" xlink:href="#mda707b978b" y="43.2"/>
      </g>
     </g>
     <g id="text_4">
      <!-- 4 -->
      <defs>
       <path d="M 34.203125 -12.703125 
L 34.203125 4.203125 
L 2.09375 4.203125 
L 2.09375 12 
L 37 57.09375 
L 43 57.09375 
L 43 12.203125 
L 51.796875 12.203125 
L 51.796875 4.203125 
L 43 4.203125 
L 43 -12.703125 
z
M 11.203125 12.203125 
L 35.09375 12.203125 
L 35.09375 43.5 
z
" id="Raleway-Medium-34"/>
      </defs>
      <g transform="translate(216.68203125 403.75)scale(0.15 -0.15)">
       <use xlink:href="#Raleway-Medium-34"/>
      </g>
     </g>
    </g>
    <g id="xtick_5">
     <g id="line2d_17">
      <path clip-path="url(#p3bc82b9994)" d="M 270.4 388.8 
L 270.4 43.2 
" style="fill:none;stroke:#000000;stroke-dasharray:1.000000,3.000000;stroke-dashoffset:0.0;stroke-width:0.5;"/>
     </g>
     <g id="line2d_18">
      <g>
       <use style="stroke:#000000;stroke-width:0.5;" x="270.4" xlink:href="#ma10b71d63e" y="388.8"/>
      </g>
     </g>
     <g id="line2d_19">
      <g>
       <use style="stroke:#000000;stroke-width:0.5;" x="270.4" xlink:href="#mda707b978b" y="43.2"/>
      </g>
     </g>
     <g id="text_5">
      <!-- 5 -->
      <defs>
       <path d="M 28.296875 31.40625 
Q 33.203125 31.40625 37.453125 29.75 
Q 41.703125 28.09375 44.796875 25.09375 
Q 47.90625 22.09375 49.703125 17.890625 
Q 51.5 13.703125 51.5 8.703125 
Q 51.5 3.40625 49.546875 -0.9375 
Q 47.59375 -5.296875 44.1875 -8.390625 
Q 40.796875 -11.5 36.1875 -13.203125 
Q 31.59375 -14.90625 26.40625 -14.90625 
Q 18.796875 -14.90625 12.6875 -11.296875 
Q 6.59375 -7.703125 3.5 -1.703125 
L 9 3.09375 
Q 11.796875 -1.5 16.4375 -4.296875 
Q 21.09375 -7.09375 26.5 -7.09375 
Q 29.90625 -7.09375 32.84375 -5.9375 
Q 35.796875 -4.796875 37.9375 -2.75 
Q 40.09375 -0.703125 41.296875 2.1875 
Q 42.5 5.09375 42.5 8.59375 
Q 42.5 11.90625 41.296875 14.703125 
Q 40.09375 17.5 38.046875 19.5 
Q 36 21.5 33.203125 22.59375 
Q 30.40625 23.703125 27.203125 23.703125 
Q 22.90625 23.703125 19.15625 21.796875 
Q 15.40625 19.90625 13 16.40625 
L 5.09375 16.40625 
Q 5.203125 16.90625 5.59375 18.953125 
Q 6 21 6.59375 23.953125 
Q 7.203125 26.90625 7.890625 30.5 
Q 8.59375 34.09375 9.296875 37.796875 
Q 11 46.40625 13.09375 57.09375 
L 47.59375 57.09375 
L 47.59375 49 
L 19.59375 49 
L 15.296875 26.40625 
Q 17.5 28.703125 20.796875 30.046875 
Q 24.09375 31.40625 28.296875 31.40625 
" id="Raleway-Medium-35"/>
      </defs>
      <g transform="translate(266.259765625 403.75)scale(0.15 -0.15)">
       <use xlink:href="#Raleway-Medium-35"/>
      </g>
     </g>
    </g>
    <g id="xtick_6">
     <g id="line2d_20">
      <path clip-path="url(#p3bc82b9994)" d="M 320 388.8 
L 320 43.2 
" style="fill:none;stroke:#000000;stroke-dasharray:1.000000,3.000000;stroke-dashoffset:0.0;stroke-width:0.5;"/>
     </g>
     <g id="line2d_21">
      <g>
       <use style="stroke:#000000;stroke-width:0.5;" x="320.0" xlink:href="#ma10b71d63e" y="388.8"/>
      </g>
     </g>
     <g id="line2d_22">
      <g>
       <use style="stroke:#000000;stroke-width:0.5;" x="320.0" xlink:href="#mda707b978b" y="43.2"/>
      </g>
     </g>
     <g id="text_6">
      <!-- 6 -->
      <defs>
       <path d="M 56.296875 23.5 
Q 56.296875 18.40625 54.34375 13.953125 
Q 52.40625 9.5 48.953125 6.140625 
Q 45.5 2.796875 40.890625 0.890625 
Q 36.296875 -1 30.90625 -1 
Q 25.203125 -1 20.453125 1.09375 
Q 15.703125 3.203125 12.296875 7.140625 
Q 8.90625 11.09375 7.046875 16.75 
Q 5.203125 22.40625 5.203125 29.59375 
Q 5.203125 40.09375 7.09375 47.9375 
Q 9 55.796875 12.5 61.046875 
Q 16 66.296875 20.890625 68.890625 
Q 25.796875 71.5 31.796875 71.5 
Q 38.703125 71.5 44.34375 68.203125 
Q 50 64.90625 53.203125 58.90625 
L 47.796875 53.59375 
Q 45.59375 58.296875 41.296875 61.046875 
Q 37 63.796875 31.703125 63.796875 
Q 27.59375 63.796875 24.296875 61.9375 
Q 21 60.09375 18.59375 56.5 
Q 16.203125 52.90625 14.890625 47.75 
Q 13.59375 42.59375 13.5 36 
Q 15.703125 41.203125 20.59375 44.296875 
Q 25.5 47.40625 31.796875 47.40625 
Q 36.90625 47.40625 41.40625 45.546875 
Q 45.90625 43.703125 49.203125 40.453125 
Q 52.5 37.203125 54.390625 32.84375 
Q 56.296875 28.5 56.296875 23.5 
M 31 6.59375 
Q 34.40625 6.59375 37.5 7.9375 
Q 40.59375 9.296875 42.890625 11.59375 
Q 45.203125 13.90625 46.546875 16.953125 
Q 47.90625 20 47.90625 23.5 
Q 47.90625 26.90625 46.546875 30 
Q 45.203125 33.09375 42.890625 35.34375 
Q 40.59375 37.59375 37.5 38.9375 
Q 34.40625 40.296875 31 40.296875 
Q 27.5 40.296875 24.453125 38.9375 
Q 21.40625 37.59375 19.09375 35.34375 
Q 16.796875 33.09375 15.4375 30 
Q 14.09375 26.90625 14.09375 23.5 
Q 14.09375 20 15.4375 16.953125 
Q 16.796875 13.90625 19.09375 11.59375 
Q 21.40625 9.296875 24.453125 7.9375 
Q 27.5 6.59375 31 6.59375 
" id="Raleway-Medium-36"/>
      </defs>
      <g transform="translate(315.45546875 403.75)scale(0.15 -0.15)">
       <use xlink:href="#Raleway-Medium-36"/>
      </g>
     </g>
    </g>
    <g id="xtick_7">
     <g id="line2d_23">
      <path clip-path="url(#p3bc82b9994)" d="M 369.6 388.8 
L 369.6 43.2 
" style="fill:none;stroke:#000000;stroke-dasharray:1.000000,3.000000;stroke-dashoffset:0.0;stroke-width:0.5;"/>
     </g>
     <g id="line2d_24">
      <g>
       <use style="stroke:#000000;stroke-width:0.5;" x="369.6" xlink:href="#ma10b71d63e" y="388.8"/>
      </g>
     </g>
     <g id="line2d_25">
      <g>
       <use style="stroke:#000000;stroke-width:0.5;" x="369.6" xlink:href="#mda707b978b" y="43.2"/>
      </g>
     </g>
     <g id="text_7">
      <!-- 7 -->
      <defs>
       <path d="M 40.796875 50.203125 
L 4.296875 50.203125 
L 4.296875 58.296875 
L 54.703125 58.296875 
L 19 -12.703125 
L 9 -12.703125 
z
" id="Raleway-Medium-37"/>
      </defs>
      <g transform="translate(365.422265625 403.75)scale(0.15 -0.15)">
       <use xlink:href="#Raleway-Medium-37"/>
      </g>
     </g>
    </g>
    <g id="xtick_8">
     <g id="line2d_26">
      <path clip-path="url(#p3bc82b9994)" d="M 419.2 388.8 
L 419.2 43.2 
" style="fill:none;stroke:#000000;stroke-dasharray:1.000000,3.000000;stroke-dashoffset:0.0;stroke-width:0.5;"/>
     </g>
     <g id="line2d_27">
      <g>
       <use style="stroke:#000000;stroke-width:0.5;" x="419.2" xlink:href="#ma10b71d63e" y="388.8"/>
      </g>
     </g>
     <g id="line2d_28">
      <g>
       <use style="stroke:#000000;stroke-width:0.5;" x="419.2" xlink:href="#mda707b978b" y="43.2"/>
      </g>
     </g>
     <g id="text_8">
      <!-- 8 -->
      <defs>
       <path d="M 54.90625 20.09375 
Q 54.90625 15.296875 52.84375 11.4375 
Q 50.796875 7.59375 47.34375 4.890625 
Q 43.90625 2.203125 39.34375 0.703125 
Q 34.796875 -0.796875 29.703125 -0.796875 
Q 24.40625 -0.796875 19.84375 0.84375 
Q 15.296875 2.5 12 5.34375 
Q 8.703125 8.203125 6.796875 12.09375 
Q 4.90625 16 4.90625 20.5 
Q 4.90625 23.796875 6.09375 26.59375 
Q 7.296875 29.40625 9.140625 31.59375 
Q 11 33.796875 13.390625 35.4375 
Q 15.796875 37.09375 18.203125 38 
Q 16 38.90625 14 40.34375 
Q 12 41.796875 10.5 43.640625 
Q 9 45.5 8.140625 47.703125 
Q 7.296875 49.90625 7.296875 52.40625 
Q 7.296875 56.90625 9.34375 60.34375 
Q 11.40625 63.796875 14.65625 66.1875 
Q 17.90625 68.59375 21.90625 69.796875 
Q 25.90625 71 29.90625 71 
Q 33.90625 71 37.953125 69.796875 
Q 42 68.59375 45.25 66.25 
Q 48.5 63.90625 50.546875 60.453125 
Q 52.59375 57 52.59375 52.5 
Q 52.59375 47.5 49.296875 43.703125 
Q 46 39.90625 41.5 38 
Q 44.203125 36.90625 46.640625 35.203125 
Q 49.09375 33.5 50.890625 31.25 
Q 52.703125 29 53.796875 26.203125 
Q 54.90625 23.40625 54.90625 20.09375 
M 46 20.703125 
Q 46 23.90625 44.546875 26.453125 
Q 43.09375 29 40.796875 30.75 
Q 38.5 32.5 35.59375 33.390625 
Q 32.703125 34.296875 29.796875 34.296875 
Q 26.796875 34.296875 23.9375 33.34375 
Q 21.09375 32.40625 18.84375 30.59375 
Q 16.59375 28.796875 15.25 26.25 
Q 13.90625 23.703125 13.90625 20.59375 
Q 13.90625 17.40625 15.34375 14.90625 
Q 16.796875 12.40625 19.09375 10.703125 
Q 21.40625 9 24.25 8.046875 
Q 27.09375 7.09375 30 7.09375 
Q 33 7.09375 35.84375 8.09375 
Q 38.703125 9.09375 40.953125 10.890625 
Q 43.203125 12.703125 44.59375 15.203125 
Q 46 17.703125 46 20.703125 
M 16.203125 52.09375 
Q 16.203125 49.40625 17.453125 47.34375 
Q 18.703125 45.296875 20.703125 43.890625 
Q 22.703125 42.5 25.09375 41.796875 
Q 27.5 41.09375 29.90625 41.09375 
Q 32.296875 41.09375 34.6875 41.84375 
Q 37.09375 42.59375 39.09375 44 
Q 41.09375 45.40625 42.34375 47.5 
Q 43.59375 49.59375 43.59375 52.296875 
Q 43.59375 54.796875 42.4375 56.796875 
Q 41.296875 58.796875 39.390625 60.1875 
Q 37.5 61.59375 35 62.34375 
Q 32.5 63.09375 29.796875 63.09375 
Q 27.09375 63.09375 24.640625 62.34375 
Q 22.203125 61.59375 20.34375 60.140625 
Q 18.5 58.703125 17.34375 56.640625 
Q 16.203125 54.59375 16.203125 52.09375 
" id="Raleway-Medium-38"/>
      </defs>
      <g transform="translate(414.70703125 403.75)scale(0.15 -0.15)">
       <use xlink:href="#Raleway-Medium-38"/>
      </g>
     </g>
    </g>
    <g id="xtick_9">
     <g id="line2d_29">
      <path clip-path="url(#p3bc82b9994)" d="M 468.8 388.8 
L 468.8 43.2 
" style="fill:none;stroke:#000000;stroke-dasharray:1.000000,3.000000;stroke-dashoffset:0.0;stroke-width:0.5;"/>
     </g>
     <g id="line2d_30">
      <g>
       <use style="stroke:#000000;stroke-width:0.5;" x="468.8" xlink:href="#ma10b71d63e" y="388.8"/>
      </g>
     </g>
     <g id="line2d_31">
      <g>
       <use style="stroke:#000000;stroke-width:0.5;" x="468.8" xlink:href="#mda707b978b" y="43.2"/>
      </g>
     </g>
     <g id="text_9">
      <!-- 9 -->
      <defs>
       <path d="M 3.59375 32.59375 
Q 3.59375 37.703125 5.546875 42.140625 
Q 7.5 46.59375 10.953125 49.9375 
Q 14.40625 53.296875 19 55.1875 
Q 23.59375 57.09375 29 57.09375 
Q 34.703125 57.09375 39.453125 55 
Q 44.203125 52.90625 47.59375 48.953125 
Q 51 45 52.84375 39.34375 
Q 54.703125 33.703125 54.703125 26.5 
Q 54.703125 16 52.796875 8.140625 
Q 50.90625 0.296875 47.40625 -4.953125 
Q 43.90625 -10.203125 39 -12.796875 
Q 34.09375 -15.40625 28.09375 -15.40625 
Q 21.203125 -15.40625 15.546875 -12.09375 
Q 9.90625 -8.796875 6.703125 -2.796875 
L 12.09375 2.5 
Q 14.296875 -2.203125 18.59375 -4.953125 
Q 22.90625 -7.703125 28.203125 -7.703125 
Q 36.40625 -7.703125 41.296875 -0.390625 
Q 46.203125 6.90625 46.40625 20.09375 
Q 44.203125 14.90625 39.296875 11.796875 
Q 34.40625 8.703125 28.09375 8.703125 
Q 23 8.703125 18.5 10.546875 
Q 14 12.40625 10.703125 15.59375 
Q 7.40625 18.796875 5.5 23.1875 
Q 3.59375 27.59375 3.59375 32.59375 
M 28.90625 49.5 
Q 25.40625 49.5 22.34375 48.140625 
Q 19.296875 46.796875 17 44.5 
Q 14.703125 42.203125 13.34375 39.140625 
Q 12 36.09375 12 32.59375 
Q 12 29.09375 13.34375 26.046875 
Q 14.703125 23 17 20.75 
Q 19.296875 18.5 22.34375 17.140625 
Q 25.40625 15.796875 28.90625 15.796875 
Q 32.40625 15.796875 35.453125 17.140625 
Q 38.5 18.5 40.796875 20.75 
Q 43.09375 23 44.4375 26.046875 
Q 45.796875 29.09375 45.796875 32.59375 
Q 45.796875 36 44.4375 39.09375 
Q 43.09375 42.203125 40.796875 44.5 
Q 38.5 46.796875 35.390625 48.140625 
Q 32.296875 49.5 28.90625 49.5 
" id="Raleway-Medium-39"/>
      </defs>
      <g transform="translate(464.38203125 403.75)scale(0.15 -0.15)">
       <use xlink:href="#Raleway-Medium-39"/>
      </g>
     </g>
    </g>
    <g id="xtick_10">
     <g id="line2d_32">
      <path clip-path="url(#p3bc82b9994)" d="M 518.4 388.8 
L 518.4 43.2 
" style="fill:none;stroke:#000000;stroke-dasharray:1.000000,3.000000;stroke-dashoffset:0.0;stroke-width:0.5;"/>
     </g>
     <g id="line2d_33">
      <g>
       <use style="stroke:#000000;stroke-width:0.5;" x="518.4" xlink:href="#ma10b71d63e" y="388.8"/>
      </g>
     </g>
     <g id="line2d_34">
      <g>
       <use style="stroke:#000000;stroke-width:0.5;" x="518.4" xlink:href="#mda707b978b" y="43.2"/>
      </g>
     </g>
     <g id="text_10">
      <!-- 10 -->
      <defs>
       <path d="M 56.09375 29.296875 
Q 56.09375 22.703125 54.1875 17.140625 
Q 52.296875 11.59375 48.890625 7.546875 
Q 45.5 3.5 40.84375 1.25 
Q 36.203125 -1 30.796875 -1 
Q 25.296875 -1 20.640625 1.25 
Q 16 3.5 12.640625 7.546875 
Q 9.296875 11.59375 7.390625 17.140625 
Q 5.5 22.703125 5.5 29.296875 
Q 5.5 35.90625 7.390625 41.453125 
Q 9.296875 47 12.640625 51.046875 
Q 16 55.09375 20.640625 57.390625 
Q 25.296875 59.703125 30.796875 59.703125 
Q 36.203125 59.703125 40.84375 57.390625 
Q 45.5 55.09375 48.890625 51.046875 
Q 52.296875 47 54.1875 41.453125 
Q 56.09375 35.90625 56.09375 29.296875 
M 47.203125 29.296875 
Q 47.203125 34.203125 46 38.296875 
Q 44.796875 42.40625 42.59375 45.34375 
Q 40.40625 48.296875 37.40625 49.890625 
Q 34.40625 51.5 30.796875 51.5 
Q 27.09375 51.5 24.046875 49.890625 
Q 21 48.296875 18.84375 45.34375 
Q 16.703125 42.40625 15.5 38.296875 
Q 14.296875 34.203125 14.296875 29.296875 
Q 14.296875 24.296875 15.5 20.25 
Q 16.703125 16.203125 18.84375 13.296875 
Q 21 10.40625 24.046875 8.796875 
Q 27.09375 7.203125 30.796875 7.203125 
Q 34.40625 7.203125 37.40625 8.796875 
Q 40.40625 10.40625 42.59375 13.296875 
Q 44.796875 16.203125 46 20.25 
Q 47.203125 24.296875 47.203125 29.296875 
" id="Raleway-Medium-30"/>
      </defs>
      <g transform="translate(510.434765625 403.75)scale(0.15 -0.15)">
       <use xlink:href="#Raleway-Medium-31"/>
       <use x="44.6999969482" xlink:href="#Raleway-Medium-30"/>
      </g>
     </g>
    </g>
    <g id="text_11">
     <!-- Tree Depth -->
     <defs>
      <path d="M 59.796875 63 
L 35.296875 63 
L 35.296875 0 
L 26.296875 0 
L 26.296875 63 
L 1.796875 63 
L 1.796875 71 
L 59.796875 71 
z
" id="Raleway-Medium-54"/>
      <path d="M 8.5 0 
L 8.5 71 
L 33.09375 71 
Q 41.59375 71 48.046875 68.203125 
Q 54.5 65.40625 58.796875 60.59375 
Q 63.09375 55.796875 65.25 49.34375 
Q 67.40625 42.90625 67.40625 35.59375 
Q 67.40625 27.5 65 20.953125 
Q 62.59375 14.40625 58.09375 9.75 
Q 53.59375 5.09375 47.25 2.546875 
Q 40.90625 0 33.09375 0 
z
M 58.296875 35.59375 
Q 58.296875 41.59375 56.640625 46.640625 
Q 55 51.703125 51.75 55.296875 
Q 48.5 58.90625 43.796875 60.953125 
Q 39.09375 63 33.09375 63 
L 17.5 63 
L 17.5 8 
L 33.09375 8 
Q 39.203125 8 43.953125 10.09375 
Q 48.703125 12.203125 51.84375 15.890625 
Q 55 19.59375 56.640625 24.640625 
Q 58.296875 29.703125 58.296875 35.59375 
" id="Raleway-Medium-44"/>
      <path id="Raleway-Medium-20"/>
      <path d="M 52.203125 0 
L 43.40625 0 
L 43.40625 29.203125 
Q 43.40625 37.296875 40.59375 41.25 
Q 37.796875 45.203125 32.40625 45.203125 
Q 29.796875 45.203125 27.1875 44.140625 
Q 24.59375 43.09375 22.34375 41.296875 
Q 20.09375 39.5 18.34375 37 
Q 16.59375 34.5 15.703125 31.5 
L 15.703125 0 
L 6.90625 0 
L 6.90625 73 
L 15.703125 73 
L 15.703125 41 
Q 18.796875 46.703125 24.09375 49.890625 
Q 29.40625 53.09375 35.703125 53.09375 
Q 40.296875 53.09375 43.5 51.390625 
Q 46.703125 49.703125 48.59375 46.796875 
Q 50.5 43.90625 51.34375 39.84375 
Q 52.203125 35.796875 52.203125 31.203125 
z
" id="Raleway-Medium-68"/>
      <path d="M 30.203125 -1 
Q 24.296875 -1 19.390625 1.140625 
Q 14.5 3.296875 11 7 
Q 7.5 10.703125 5.546875 15.640625 
Q 3.59375 20.59375 3.59375 26.09375 
Q 3.59375 31.59375 5.546875 36.5 
Q 7.5 41.40625 11.046875 45.09375 
Q 14.59375 48.796875 19.5 50.9375 
Q 24.40625 53.09375 30.296875 53.09375 
Q 36.203125 53.09375 41.046875 50.890625 
Q 45.90625 48.703125 49.296875 45.046875 
Q 52.703125 41.40625 54.546875 36.546875 
Q 56.40625 31.703125 56.40625 26.5 
Q 56.40625 25.40625 56.34375 24.5 
Q 56.296875 23.59375 56.203125 23.09375 
L 12.90625 23.09375 
Q 13.203125 19.203125 14.703125 16 
Q 16.203125 12.796875 18.59375 10.5 
Q 21 8.203125 24.046875 6.890625 
Q 27.09375 5.59375 30.5 5.59375 
Q 32.90625 5.59375 35.203125 6.25 
Q 37.5 6.90625 39.5 8 
Q 41.5 9.09375 43.046875 10.6875 
Q 44.59375 12.296875 45.40625 14.296875 
L 53 12.203125 
Q 51.703125 9.296875 49.453125 6.890625 
Q 47.203125 4.5 44.25 2.75 
Q 41.296875 1 37.6875 0 
Q 34.09375 -1 30.203125 -1 
M 48.09375 29.59375 
Q 47.796875 33.296875 46.25 36.4375 
Q 44.703125 39.59375 42.34375 41.796875 
Q 40 44 36.890625 45.25 
Q 33.796875 46.5 30.296875 46.5 
Q 26.796875 46.5 23.6875 45.25 
Q 20.59375 44 18.25 41.75 
Q 15.90625 39.5 14.453125 36.390625 
Q 13 33.296875 12.703125 29.59375 
z
" id="Raleway-Medium-65"/>
      <path d="M 34 2.59375 
Q 33.203125 2.203125 31.890625 1.640625 
Q 30.59375 1.09375 28.9375 0.546875 
Q 27.296875 0 25.34375 -0.34375 
Q 23.40625 -0.703125 21.296875 -0.703125 
Q 16.5 -0.703125 13 1.9375 
Q 9.5 4.59375 9.5 10.203125 
L 9.5 45.296875 
L 2.40625 45.296875 
L 2.40625 52.203125 
L 9.5 52.203125 
L 9.5 69.59375 
L 18.296875 69.59375 
L 18.296875 52.203125 
L 30 52.203125 
L 30 45.296875 
L 18.296875 45.296875 
L 18.296875 12.90625 
Q 18.5 10 20.203125 8.703125 
Q 21.90625 7.40625 24.203125 7.40625 
Q 26.796875 7.40625 28.9375 8.25 
Q 31.09375 9.09375 31.90625 9.59375 
z
" id="Raleway-Medium-74"/>
      <path d="M 34.5 44.5 
Q 27.90625 44.296875 22.84375 41.09375 
Q 17.796875 37.90625 15.703125 32.203125 
L 15.703125 0 
L 6.90625 0 
L 6.90625 52.203125 
L 15.09375 52.203125 
L 15.09375 40.09375 
Q 17.796875 45.5 22.1875 49.046875 
Q 26.59375 52.59375 31.59375 52.59375 
Q 32.59375 52.59375 33.296875 52.59375 
Q 34 52.59375 34.5 52.5 
z
" id="Raleway-Medium-72"/>
      <path d="M 35 -1 
Q 28.5 -1 23.546875 2.203125 
Q 18.59375 5.40625 15.703125 10.296875 
L 15.703125 -21.296875 
L 6.90625 -21.296875 
L 6.90625 52.203125 
L 14.703125 52.203125 
L 14.703125 42.40625 
Q 17.796875 47.203125 22.75 50.140625 
Q 27.703125 53.09375 33.703125 53.09375 
Q 39.09375 53.09375 43.59375 50.890625 
Q 48.09375 48.703125 51.390625 44.953125 
Q 54.703125 41.203125 56.546875 36.296875 
Q 58.40625 31.40625 58.40625 26.09375 
Q 58.40625 20.5 56.703125 15.546875 
Q 55 10.59375 51.890625 6.9375 
Q 48.796875 3.296875 44.5 1.140625 
Q 40.203125 -1 35 -1 
M 32.296875 6.59375 
Q 36.203125 6.59375 39.34375 8.25 
Q 42.5 9.90625 44.75 12.65625 
Q 47 15.40625 48.203125 18.90625 
Q 49.40625 22.40625 49.40625 26.09375 
Q 49.40625 30 48 33.546875 
Q 46.59375 37.09375 44.1875 39.75 
Q 41.796875 42.40625 38.546875 43.953125 
Q 35.296875 45.5 31.5 45.5 
Q 29.09375 45.5 26.546875 44.546875 
Q 24 43.59375 21.75 42.046875 
Q 19.5 40.5 17.84375 38.34375 
Q 16.203125 36.203125 15.703125 33.796875 
L 15.703125 18.90625 
Q 16.796875 16.296875 18.5 14.046875 
Q 20.203125 11.796875 22.390625 10.140625 
Q 24.59375 8.5 27.09375 7.546875 
Q 29.59375 6.59375 32.296875 6.59375 
" id="Raleway-Medium-70"/>
     </defs>
     <g transform="translate(253.01875 423.62453125)scale(0.16 -0.16)">
      <use xlink:href="#Raleway-Medium-54"/>
      <use x="61.5999908447" xlink:href="#Raleway-Medium-72"/>
      <use x="97.799987793" xlink:href="#Raleway-Medium-65"/>
      <use x="156.899978638" xlink:href="#Raleway-Medium-65"/>
      <use x="215.999969482" xlink:href="#Raleway-Medium-20"/>
      <use x="241.099960327" xlink:href="#Raleway-Medium-44"/>
      <use x="312.89994812" xlink:href="#Raleway-Medium-65"/>
      <use x="371.999938965" xlink:href="#Raleway-Medium-70"/>
      <use x="433.999923706" xlink:href="#Raleway-Medium-74"/>
      <use x="468.699920654" xlink:href="#Raleway-Medium-68"/>
     </g>
    </g>
   </g>
   <g id="matplotlib.axis_2">
    <g id="ytick_1">
     <g id="line2d_35">
      <path clip-path="url(#p3bc82b9994)" d="M 72 388.8 
L 518.4 388.8 
" style="fill:none;stroke:#000000;stroke-dasharray:1.000000,3.000000;stroke-dashoffset:0.0;stroke-width:0.5;"/>
     </g>
     <g id="line2d_36">
      <defs>
       <path d="M 0 0 
L 4 0 
" id="mcc60dac90d" style="stroke:#000000;stroke-width:0.5;"/>
      </defs>
      <g>
       <use style="stroke:#000000;stroke-width:0.5;" x="72.0" xlink:href="#mcc60dac90d" y="388.8"/>
      </g>
     </g>
     <g id="line2d_37">
      <defs>
       <path d="M 0 0 
L -4 0 
" id="mc7fe61aecb" style="stroke:#000000;stroke-width:0.5;"/>
      </defs>
      <g>
       <use style="stroke:#000000;stroke-width:0.5;" x="518.4" xlink:href="#mc7fe61aecb" y="388.8"/>
      </g>
     </g>
     <g id="text_12">
      <!-- $\mathdefault{10^{4}}$ -->
      <g transform="translate(45.2 392.677734375)scale(0.15 -0.15)">
       <use transform="translate(0.0 0.54296875)" xlink:href="#Raleway-Medium-31"/>
       <use transform="translate(44.6999969482 0.54296875)" xlink:href="#Raleway-Medium-30"/>
       <use transform="translate(108.940645752 24.034375)scale(0.7)" xlink:href="#Raleway-Medium-34"/>
      </g>
     </g>
    </g>
    <g id="ytick_2">
     <g id="line2d_38">
      <path clip-path="url(#p3bc82b9994)" d="M 72 339.428571 
L 518.4 339.428571 
" style="fill:none;stroke:#000000;stroke-dasharray:1.000000,3.000000;stroke-dashoffset:0.0;stroke-width:0.5;"/>
     </g>
     <g id="line2d_39">
      <g>
       <use style="stroke:#000000;stroke-width:0.5;" x="72.0" xlink:href="#mcc60dac90d" y="339.428571429"/>
      </g>
     </g>
     <g id="line2d_40">
      <g>
       <use style="stroke:#000000;stroke-width:0.5;" x="518.4" xlink:href="#mc7fe61aecb" y="339.428571429"/>
      </g>
     </g>
     <g id="text_13">
      <!-- $\mathdefault{10^{5}}$ -->
      <g transform="translate(45.2 343.306305804)scale(0.15 -0.15)">
       <use transform="translate(0.0 0.54296875)" xlink:href="#Raleway-Medium-31"/>
       <use transform="translate(44.6999969482 0.54296875)" xlink:href="#Raleway-Medium-30"/>
       <use transform="translate(108.940645752 24.034375)scale(0.7)" xlink:href="#Raleway-Medium-35"/>
      </g>
     </g>
    </g>
    <g id="ytick_3">
     <g id="line2d_41">
      <path clip-path="url(#p3bc82b9994)" d="M 72 290.057143 
L 518.4 290.057143 
" style="fill:none;stroke:#000000;stroke-dasharray:1.000000,3.000000;stroke-dashoffset:0.0;stroke-width:0.5;"/>
     </g>
     <g id="line2d_42">
      <g>
       <use style="stroke:#000000;stroke-width:0.5;" x="72.0" xlink:href="#mcc60dac90d" y="290.057142857"/>
      </g>
     </g>
     <g id="line2d_43">
      <g>
       <use style="stroke:#000000;stroke-width:0.5;" x="518.4" xlink:href="#mc7fe61aecb" y="290.057142857"/>
      </g>
     </g>
     <g id="text_14">
      <!-- $\mathdefault{10^{6}}$ -->
      <g transform="translate(44.6 293.934877232)scale(0.15 -0.15)">
       <use transform="translate(0.0 0.45859375)" xlink:href="#Raleway-Medium-31"/>
       <use transform="translate(44.6999969482 0.45859375)" xlink:href="#Raleway-Medium-30"/>
       <use transform="translate(108.940645752 23.95)scale(0.7)" xlink:href="#Raleway-Medium-36"/>
      </g>
     </g>
    </g>
    <g id="ytick_4">
     <g id="line2d_44">
      <path clip-path="url(#p3bc82b9994)" d="M 72 240.685714 
L 518.4 240.685714 
" style="fill:none;stroke:#000000;stroke-dasharray:1.000000,3.000000;stroke-dashoffset:0.0;stroke-width:0.5;"/>
     </g>
     <g id="line2d_45">
      <g>
       <use style="stroke:#000000;stroke-width:0.5;" x="72.0" xlink:href="#mcc60dac90d" y="240.685714286"/>
      </g>
     </g>
     <g id="line2d_46">
      <g>
       <use style="stroke:#000000;stroke-width:0.5;" x="518.4" xlink:href="#mc7fe61aecb" y="240.685714286"/>
      </g>
     </g>
     <g id="text_15">
      <!-- $\mathdefault{10^{7}}$ -->
      <g transform="translate(45.2 244.563448661)scale(0.15 -0.15)">
       <use transform="translate(0.0 0.70078125)" xlink:href="#Raleway-Medium-31"/>
       <use transform="translate(44.6999969482 0.70078125)" xlink:href="#Raleway-Medium-30"/>
       <use transform="translate(108.940645752 24.1921875)scale(0.7)" xlink:href="#Raleway-Medium-37"/>
      </g>
     </g>
    </g>
    <g id="ytick_5">
     <g id="line2d_47">
      <path clip-path="url(#p3bc82b9994)" d="M 72 191.314286 
L 518.4 191.314286 
" style="fill:none;stroke:#000000;stroke-dasharray:1.000000,3.000000;stroke-dashoffset:0.0;stroke-width:0.5;"/>
     </g>
     <g id="line2d_48">
      <g>
       <use style="stroke:#000000;stroke-width:0.5;" x="72.0" xlink:href="#mcc60dac90d" y="191.314285714"/>
      </g>
     </g>
     <g id="line2d_49">
      <g>
       <use style="stroke:#000000;stroke-width:0.5;" x="518.4" xlink:href="#mc7fe61aecb" y="191.314285714"/>
      </g>
     </g>
     <g id="text_16">
      <!-- $\mathdefault{10^{8}}$ -->
      <g transform="translate(44.75 195.192020089)scale(0.15 -0.15)">
       <use transform="translate(0.0 0.80859375)" xlink:href="#Raleway-Medium-31"/>
       <use transform="translate(44.6999969482 0.80859375)" xlink:href="#Raleway-Medium-30"/>
       <use transform="translate(108.940645752 24.3)scale(0.7)" xlink:href="#Raleway-Medium-38"/>
      </g>
     </g>
    </g>
    <g id="ytick_6">
     <g id="line2d_50">
      <path clip-path="url(#p3bc82b9994)" d="M 72 141.942857 
L 518.4 141.942857 
" style="fill:none;stroke:#000000;stroke-dasharray:1.000000,3.000000;stroke-dashoffset:0.0;stroke-width:0.5;"/>
     </g>
     <g id="line2d_51">
      <g>
       <use style="stroke:#000000;stroke-width:0.5;" x="72.0" xlink:href="#mcc60dac90d" y="141.942857143"/>
      </g>
     </g>
     <g id="line2d_52">
      <g>
       <use style="stroke:#000000;stroke-width:0.5;" x="518.4" xlink:href="#mc7fe61aecb" y="141.942857143"/>
      </g>
     </g>
     <g id="text_17">
      <!-- $\mathdefault{10^{9}}$ -->
      <g transform="translate(44.75 145.820591518)scale(0.15 -0.15)">
       <use transform="translate(0.0 0.54296875)" xlink:href="#Raleway-Medium-31"/>
       <use transform="translate(44.6999969482 0.54296875)" xlink:href="#Raleway-Medium-30"/>
       <use transform="translate(108.940645752 24.034375)scale(0.7)" xlink:href="#Raleway-Medium-39"/>
      </g>
     </g>
    </g>
    <g id="ytick_7">
     <g id="line2d_53">
      <path clip-path="url(#p3bc82b9994)" d="M 72 92.571429 
L 518.4 92.571429 
" style="fill:none;stroke:#000000;stroke-dasharray:1.000000,3.000000;stroke-dashoffset:0.0;stroke-width:0.5;"/>
     </g>
     <g id="line2d_54">
      <g>
       <use style="stroke:#000000;stroke-width:0.5;" x="72.0" xlink:href="#mcc60dac90d" y="92.5714285714"/>
      </g>
     </g>
     <g id="line2d_55">
      <g>
       <use style="stroke:#000000;stroke-width:0.5;" x="518.4" xlink:href="#mc7fe61aecb" y="92.5714285714"/>
      </g>
     </g>
     <g id="text_18">
      <!-- $\mathdefault{10^{10}}$ -->
      <g transform="translate(39.8 96.4491629464)scale(0.15 -0.15)">
       <use transform="translate(0.0 0.71640625)" xlink:href="#Raleway-Medium-31"/>
       <use transform="translate(44.6999969482 0.71640625)" xlink:href="#Raleway-Medium-30"/>
       <use transform="translate(108.940645752 24.2078125)scale(0.7)" xlink:href="#Raleway-Medium-31"/>
       <use transform="translate(140.230643616 24.2078125)scale(0.7)" xlink:href="#Raleway-Medium-30"/>
      </g>
     </g>
    </g>
    <g id="ytick_8">
     <g id="line2d_56">
      <path clip-path="url(#p3bc82b9994)" d="M 72 43.2 
L 518.4 43.2 
" style="fill:none;stroke:#000000;stroke-dasharray:1.000000,3.000000;stroke-dashoffset:0.0;stroke-width:0.5;"/>
     </g>
     <g id="line2d_57">
      <g>
       <use style="stroke:#000000;stroke-width:0.5;" x="72.0" xlink:href="#mcc60dac90d" y="43.2"/>
      </g>
     </g>
     <g id="line2d_58">
      <g>
       <use style="stroke:#000000;stroke-width:0.5;" x="518.4" xlink:href="#mc7fe61aecb" y="43.2"/>
      </g>
     </g>
     <g id="text_19">
      <!-- $\mathdefault{10^{11}}$ -->
      <g transform="translate(41.6 47.077734375)scale(0.15 -0.15)">
       <use transform="translate(0.0 0.54296875)" xlink:href="#Raleway-Medium-31"/>
       <use transform="translate(44.6999969482 0.54296875)" xlink:href="#Raleway-Medium-30"/>
       <use transform="translate(108.940645752 24.034375)scale(0.7)" xlink:href="#Raleway-Medium-31"/>
       <use transform="translate(140.230643616 24.034375)scale(0.7)" xlink:href="#Raleway-Medium-31"/>
      </g>
     </g>
    </g>
    <g id="ytick_9">
     <g id="line2d_59">
      <defs>
       <path d="M 0 0 
L 2 0 
" id="m0a19ae648d" style="stroke:#000000;stroke-width:0.5;"/>
      </defs>
      <g>
       <use style="stroke:#000000;stroke-width:0.5;" x="72.0" xlink:href="#m0a19ae648d" y="373.937719071"/>
      </g>
     </g>
     <g id="line2d_60">
      <defs>
       <path d="M 0 0 
L -2 0 
" id="m0a45a99afc" style="stroke:#000000;stroke-width:0.5;"/>
      </defs>
      <g>
       <use style="stroke:#000000;stroke-width:0.5;" x="518.4" xlink:href="#m0a45a99afc" y="373.937719071"/>
      </g>
     </g>
    </g>
    <g id="ytick_10">
     <g id="line2d_61">
      <g>
       <use style="stroke:#000000;stroke-width:0.5;" x="72.0" xlink:href="#m0a19ae648d" y="359.075438142"/>
      </g>
     </g>
     <g id="line2d_62">
      <g>
       <use style="stroke:#000000;stroke-width:0.5;" x="518.4" xlink:href="#m0a45a99afc" y="359.075438142"/>
      </g>
     </g>
    </g>
    <g id="ytick_11">
     <g id="line2d_63">
      <g>
       <use style="stroke:#000000;stroke-width:0.5;" x="72.0" xlink:href="#m0a19ae648d" y="350.381561124"/>
      </g>
     </g>
     <g id="line2d_64">
      <g>
       <use style="stroke:#000000;stroke-width:0.5;" x="518.4" xlink:href="#m0a45a99afc" y="350.381561124"/>
      </g>
     </g>
    </g>
    <g id="ytick_12">
     <g id="line2d_65">
      <g>
       <use style="stroke:#000000;stroke-width:0.5;" x="72.0" xlink:href="#m0a19ae648d" y="344.213157214"/>
      </g>
     </g>
     <g id="line2d_66">
      <g>
       <use style="stroke:#000000;stroke-width:0.5;" x="518.4" xlink:href="#m0a45a99afc" y="344.213157214"/>
      </g>
     </g>
    </g>
    <g id="ytick_13">
     <g id="line2d_67">
      <g>
       <use style="stroke:#000000;stroke-width:0.5;" x="72.0" xlink:href="#m0a19ae648d" y="324.5662905"/>
      </g>
     </g>
     <g id="line2d_68">
      <g>
       <use style="stroke:#000000;stroke-width:0.5;" x="518.4" xlink:href="#m0a45a99afc" y="324.5662905"/>
      </g>
     </g>
    </g>
    <g id="ytick_14">
     <g id="line2d_69">
      <g>
       <use style="stroke:#000000;stroke-width:0.5;" x="72.0" xlink:href="#m0a19ae648d" y="309.704009571"/>
      </g>
     </g>
     <g id="line2d_70">
      <g>
       <use style="stroke:#000000;stroke-width:0.5;" x="518.4" xlink:href="#m0a45a99afc" y="309.704009571"/>
      </g>
     </g>
    </g>
    <g id="ytick_15">
     <g id="line2d_71">
      <g>
       <use style="stroke:#000000;stroke-width:0.5;" x="72.0" xlink:href="#m0a19ae648d" y="301.010132552"/>
      </g>
     </g>
     <g id="line2d_72">
      <g>
       <use style="stroke:#000000;stroke-width:0.5;" x="518.4" xlink:href="#m0a45a99afc" y="301.010132552"/>
      </g>
     </g>
    </g>
    <g id="ytick_16">
     <g id="line2d_73">
      <g>
       <use style="stroke:#000000;stroke-width:0.5;" x="72.0" xlink:href="#m0a19ae648d" y="294.841728642"/>
      </g>
     </g>
     <g id="line2d_74">
      <g>
       <use style="stroke:#000000;stroke-width:0.5;" x="518.4" xlink:href="#m0a45a99afc" y="294.841728642"/>
      </g>
     </g>
    </g>
    <g id="ytick_17">
     <g id="line2d_75">
      <g>
       <use style="stroke:#000000;stroke-width:0.5;" x="72.0" xlink:href="#m0a19ae648d" y="275.194861928"/>
      </g>
     </g>
     <g id="line2d_76">
      <g>
       <use style="stroke:#000000;stroke-width:0.5;" x="518.4" xlink:href="#m0a45a99afc" y="275.194861928"/>
      </g>
     </g>
    </g>
    <g id="ytick_18">
     <g id="line2d_77">
      <g>
       <use style="stroke:#000000;stroke-width:0.5;" x="72.0" xlink:href="#m0a19ae648d" y="260.332581"/>
      </g>
     </g>
     <g id="line2d_78">
      <g>
       <use style="stroke:#000000;stroke-width:0.5;" x="518.4" xlink:href="#m0a45a99afc" y="260.332581"/>
      </g>
     </g>
    </g>
    <g id="ytick_19">
     <g id="line2d_79">
      <g>
       <use style="stroke:#000000;stroke-width:0.5;" x="72.0" xlink:href="#m0a19ae648d" y="251.638703981"/>
      </g>
     </g>
     <g id="line2d_80">
      <g>
       <use style="stroke:#000000;stroke-width:0.5;" x="518.4" xlink:href="#m0a45a99afc" y="251.638703981"/>
      </g>
     </g>
    </g>
    <g id="ytick_20">
     <g id="line2d_81">
      <g>
       <use style="stroke:#000000;stroke-width:0.5;" x="72.0" xlink:href="#m0a19ae648d" y="245.470300071"/>
      </g>
     </g>
     <g id="line2d_82">
      <g>
       <use style="stroke:#000000;stroke-width:0.5;" x="518.4" xlink:href="#m0a45a99afc" y="245.470300071"/>
      </g>
     </g>
    </g>
    <g id="ytick_21">
     <g id="line2d_83">
      <g>
       <use style="stroke:#000000;stroke-width:0.5;" x="72.0" xlink:href="#m0a19ae648d" y="225.823433357"/>
      </g>
     </g>
     <g id="line2d_84">
      <g>
       <use style="stroke:#000000;stroke-width:0.5;" x="518.4" xlink:href="#m0a45a99afc" y="225.823433357"/>
      </g>
     </g>
    </g>
    <g id="ytick_22">
     <g id="line2d_85">
      <g>
       <use style="stroke:#000000;stroke-width:0.5;" x="72.0" xlink:href="#m0a19ae648d" y="210.961152428"/>
      </g>
     </g>
     <g id="line2d_86">
      <g>
       <use style="stroke:#000000;stroke-width:0.5;" x="518.4" xlink:href="#m0a45a99afc" y="210.961152428"/>
      </g>
     </g>
    </g>
    <g id="ytick_23">
     <g id="line2d_87">
      <g>
       <use style="stroke:#000000;stroke-width:0.5;" x="72.0" xlink:href="#m0a19ae648d" y="202.26727541"/>
      </g>
     </g>
     <g id="line2d_88">
      <g>
       <use style="stroke:#000000;stroke-width:0.5;" x="518.4" xlink:href="#m0a45a99afc" y="202.26727541"/>
      </g>
     </g>
    </g>
    <g id="ytick_24">
     <g id="line2d_89">
      <g>
       <use style="stroke:#000000;stroke-width:0.5;" x="72.0" xlink:href="#m0a19ae648d" y="196.098871499"/>
      </g>
     </g>
     <g id="line2d_90">
      <g>
       <use style="stroke:#000000;stroke-width:0.5;" x="518.4" xlink:href="#m0a45a99afc" y="196.098871499"/>
      </g>
     </g>
    </g>
    <g id="ytick_25">
     <g id="line2d_91">
      <g>
       <use style="stroke:#000000;stroke-width:0.5;" x="72.0" xlink:href="#m0a19ae648d" y="176.452004786"/>
      </g>
     </g>
     <g id="line2d_92">
      <g>
       <use style="stroke:#000000;stroke-width:0.5;" x="518.4" xlink:href="#m0a45a99afc" y="176.452004786"/>
      </g>
     </g>
    </g>
    <g id="ytick_26">
     <g id="line2d_93">
      <g>
       <use style="stroke:#000000;stroke-width:0.5;" x="72.0" xlink:href="#m0a19ae648d" y="161.589723857"/>
      </g>
     </g>
     <g id="line2d_94">
      <g>
       <use style="stroke:#000000;stroke-width:0.5;" x="518.4" xlink:href="#m0a45a99afc" y="161.589723857"/>
      </g>
     </g>
    </g>
    <g id="ytick_27">
     <g id="line2d_95">
      <g>
       <use style="stroke:#000000;stroke-width:0.5;" x="72.0" xlink:href="#m0a19ae648d" y="152.895846838"/>
      </g>
     </g>
     <g id="line2d_96">
      <g>
       <use style="stroke:#000000;stroke-width:0.5;" x="518.4" xlink:href="#m0a45a99afc" y="152.895846838"/>
      </g>
     </g>
    </g>
    <g id="ytick_28">
     <g id="line2d_97">
      <g>
       <use style="stroke:#000000;stroke-width:0.5;" x="72.0" xlink:href="#m0a19ae648d" y="146.727442928"/>
      </g>
     </g>
     <g id="line2d_98">
      <g>
       <use style="stroke:#000000;stroke-width:0.5;" x="518.4" xlink:href="#m0a45a99afc" y="146.727442928"/>
      </g>
     </g>
    </g>
    <g id="ytick_29">
     <g id="line2d_99">
      <g>
       <use style="stroke:#000000;stroke-width:0.5;" x="72.0" xlink:href="#m0a19ae648d" y="127.080576214"/>
      </g>
     </g>
     <g id="line2d_100">
      <g>
       <use style="stroke:#000000;stroke-width:0.5;" x="518.4" xlink:href="#m0a45a99afc" y="127.080576214"/>
      </g>
     </g>
    </g>
    <g id="ytick_30">
     <g id="line2d_101">
      <g>
       <use style="stroke:#000000;stroke-width:0.5;" x="72.0" xlink:href="#m0a19ae648d" y="112.218295285"/>
      </g>
     </g>
     <g id="line2d_102">
      <g>
       <use style="stroke:#000000;stroke-width:0.5;" x="518.4" xlink:href="#m0a45a99afc" y="112.218295285"/>
      </g>
     </g>
    </g>
    <g id="ytick_31">
     <g id="line2d_103">
      <g>
       <use style="stroke:#000000;stroke-width:0.5;" x="72.0" xlink:href="#m0a19ae648d" y="103.524418267"/>
      </g>
     </g>
     <g id="line2d_104">
      <g>
       <use style="stroke:#000000;stroke-width:0.5;" x="518.4" xlink:href="#m0a45a99afc" y="103.524418267"/>
      </g>
     </g>
    </g>
    <g id="ytick_32">
     <g id="line2d_105">
      <g>
       <use style="stroke:#000000;stroke-width:0.5;" x="72.0" xlink:href="#m0a19ae648d" y="97.3560143565"/>
      </g>
     </g>
     <g id="line2d_106">
      <g>
       <use style="stroke:#000000;stroke-width:0.5;" x="518.4" xlink:href="#m0a45a99afc" y="97.3560143565"/>
      </g>
     </g>
    </g>
    <g id="ytick_33">
     <g id="line2d_107">
      <g>
       <use style="stroke:#000000;stroke-width:0.5;" x="72.0" xlink:href="#m0a19ae648d" y="77.7091476426"/>
      </g>
     </g>
     <g id="line2d_108">
      <g>
       <use style="stroke:#000000;stroke-width:0.5;" x="518.4" xlink:href="#m0a45a99afc" y="77.7091476426"/>
      </g>
     </g>
    </g>
    <g id="ytick_34">
     <g id="line2d_109">
      <g>
       <use style="stroke:#000000;stroke-width:0.5;" x="72.0" xlink:href="#m0a19ae648d" y="62.8468667139"/>
      </g>
     </g>
     <g id="line2d_110">
      <g>
       <use style="stroke:#000000;stroke-width:0.5;" x="518.4" xlink:href="#m0a45a99afc" y="62.8468667139"/>
      </g>
     </g>
    </g>
    <g id="ytick_35">
     <g id="line2d_111">
      <g>
       <use style="stroke:#000000;stroke-width:0.5;" x="72.0" xlink:href="#m0a19ae648d" y="54.1529896953"/>
      </g>
     </g>
     <g id="line2d_112">
      <g>
       <use style="stroke:#000000;stroke-width:0.5;" x="518.4" xlink:href="#m0a45a99afc" y="54.1529896953"/>
      </g>
     </g>
    </g>
    <g id="ytick_36">
     <g id="line2d_113">
      <g>
       <use style="stroke:#000000;stroke-width:0.5;" x="72.0" xlink:href="#m0a19ae648d" y="47.9845857851"/>
      </g>
     </g>
     <g id="line2d_114">
      <g>
       <use style="stroke:#000000;stroke-width:0.5;" x="518.4" xlink:href="#m0a45a99afc" y="47.9845857851"/>
      </g>
     </g>
    </g>
    <g id="text_20">
     <!-- Number of Bytes Sent, Log Scale -->
     <defs>
      <path d="M 63 18.296875 
Q 63 14.203125 61.34375 10.796875 
Q 59.703125 7.40625 56.84375 5 
Q 54 2.59375 50.25 1.296875 
Q 46.5 0 42.203125 0 
L 8.5 0 
L 8.5 71 
L 43.796875 71 
Q 47.5 71 50.5 69.390625 
Q 53.5 67.796875 55.59375 65.25 
Q 57.703125 62.703125 58.84375 59.453125 
Q 60 56.203125 60 52.90625 
Q 60 47.59375 57.34375 43.09375 
Q 54.703125 38.59375 49.796875 36.40625 
Q 55.90625 34.59375 59.453125 29.75 
Q 63 24.90625 63 18.296875 
M 53.90625 19.90625 
Q 53.90625 22.296875 53.046875 24.546875 
Q 52.203125 26.796875 50.75 28.5 
Q 49.296875 30.203125 47.296875 31.203125 
Q 45.296875 32.203125 42.90625 32.203125 
L 17.5 32.203125 
L 17.5 7.796875 
L 42.203125 7.796875 
Q 44.703125 7.796875 46.796875 8.796875 
Q 48.90625 9.796875 50.5 11.4375 
Q 52.09375 13.09375 53 15.296875 
Q 53.90625 17.5 53.90625 19.90625 
M 17.5 63.203125 
L 17.5 39.5 
L 40.09375 39.5 
Q 42.5 39.5 44.5 40.453125 
Q 46.5 41.40625 47.953125 43 
Q 49.40625 44.59375 50.25 46.75 
Q 51.09375 48.90625 51.09375 51.296875 
Q 51.09375 53.796875 50.296875 56 
Q 49.5 58.203125 48.140625 59.796875 
Q 46.796875 61.40625 44.84375 62.296875 
Q 42.90625 63.203125 40.703125 63.203125 
z
" id="Raleway-Medium-42"/>
      <path d="M 4.796875 -1.59375 
Q 5.5 -1.59375 6.390625 -1.140625 
Q 7.296875 -0.703125 7.296875 0.796875 
L 7.296875 11.203125 
L 14.59375 11.203125 
L 14.59375 -0.59375 
Q 14.59375 -2.703125 13.6875 -4.140625 
Q 12.796875 -5.59375 11.390625 -6.4375 
Q 10 -7.296875 8.25 -7.6875 
Q 6.5 -8.09375 4.796875 -8.09375 
z
" id="Raleway-Medium-2c"/>
      <path d="M 9.90625 0 
L 9.90625 39.203125 
L 2.796875 39.203125 
L 2.796875 46.09375 
L 9.90625 46.09375 
L 9.90625 53.296875 
Q 9.90625 63 14.203125 68.5 
Q 18.5 74 25.90625 74 
Q 29 74 32 73.140625 
Q 35 72.296875 37.40625 70.796875 
L 35.203125 64.296875 
Q 33.796875 65.296875 31.75 65.890625 
Q 29.703125 66.5 27.703125 66.5 
Q 23.296875 66.5 21 63.203125 
Q 18.703125 59.90625 18.703125 53.59375 
L 18.703125 46.09375 
L 32.59375 46.09375 
L 32.59375 39.203125 
L 18.703125 39.203125 
L 18.703125 0 
z
" id="Raleway-Medium-66"/>
      <path d="M 50.40625 56.09375 
Q 49.203125 57.5 47.203125 58.796875 
Q 45.203125 60.09375 42.703125 61.140625 
Q 40.203125 62.203125 37.25 62.84375 
Q 34.296875 63.5 31.09375 63.5 
Q 22.796875 63.5 18.9375 60.390625 
Q 15.09375 57.296875 15.09375 51.90625 
Q 15.09375 49 16.1875 47.09375 
Q 17.296875 45.203125 19.640625 43.84375 
Q 22 42.5 25.5 41.5 
Q 29 40.5 33.796875 39.40625 
Q 39.296875 38.203125 43.75 36.640625 
Q 48.203125 35.09375 51.34375 32.796875 
Q 54.5 30.5 56.140625 27.203125 
Q 57.796875 23.90625 57.796875 19.09375 
Q 57.796875 14 55.796875 10.25 
Q 53.796875 6.5 50.34375 4.046875 
Q 46.90625 1.59375 42.203125 0.4375 
Q 37.5 -0.703125 32 -0.703125 
Q 23.796875 -0.703125 16.4375 1.84375 
Q 9.09375 4.40625 3.09375 9.296875 
L 7.40625 16.90625 
Q 9 15.203125 11.546875 13.5 
Q 14.09375 11.796875 17.34375 10.4375 
Q 20.59375 9.09375 24.34375 8.25 
Q 28.09375 7.40625 32.203125 7.40625 
Q 39.796875 7.40625 44 10.09375 
Q 48.203125 12.796875 48.203125 18.203125 
Q 48.203125 21.203125 46.84375 23.25 
Q 45.5 25.296875 42.890625 26.796875 
Q 40.296875 28.296875 36.4375 29.4375 
Q 32.59375 30.59375 27.703125 31.796875 
Q 22.296875 33.09375 18.1875 34.59375 
Q 14.09375 36.09375 11.34375 38.1875 
Q 8.59375 40.296875 7.1875 43.296875 
Q 5.796875 46.296875 5.796875 50.5 
Q 5.796875 55.59375 7.6875 59.5 
Q 9.59375 63.40625 13 66.09375 
Q 16.40625 68.796875 21.09375 70.140625 
Q 25.796875 71.5 31.296875 71.5 
Q 38.5 71.5 44.296875 69.296875 
Q 50.09375 67.09375 54.59375 63.40625 
z
" id="Raleway-Medium-53"/>
      <path d="M 52.203125 0 
L 43.40625 0 
L 43.40625 29.203125 
Q 43.40625 37.59375 40.84375 41.390625 
Q 38.296875 45.203125 33.09375 45.203125 
Q 30.40625 45.203125 27.703125 44.140625 
Q 25 43.09375 22.59375 41.296875 
Q 20.203125 39.5 18.390625 37 
Q 16.59375 34.5 15.703125 31.5 
L 15.703125 0 
L 6.90625 0 
L 6.90625 52.203125 
L 14.90625 52.203125 
L 14.90625 41 
Q 18 46.5 23.84375 49.796875 
Q 29.703125 53.09375 36.59375 53.09375 
Q 41.09375 53.09375 44.09375 51.4375 
Q 47.09375 49.796875 48.890625 46.84375 
Q 50.703125 43.90625 51.453125 39.90625 
Q 52.203125 35.90625 52.203125 31.203125 
z
" id="Raleway-Medium-6e"/>
      <path d="M 85.59375 0 
L 76.796875 0 
L 76.796875 29.203125 
Q 76.796875 37.40625 74.140625 41.296875 
Q 71.5 45.203125 66.296875 45.203125 
Q 60.90625 45.203125 56.65625 41.34375 
Q 52.40625 37.5 50.59375 31.40625 
L 50.59375 0 
L 41.796875 0 
L 41.796875 29.203125 
Q 41.796875 37.59375 39.1875 41.390625 
Q 36.59375 45.203125 31.40625 45.203125 
Q 26.09375 45.203125 21.796875 41.453125 
Q 17.5 37.703125 15.703125 31.5 
L 15.703125 0 
L 6.90625 0 
L 6.90625 52.203125 
L 14.90625 52.203125 
L 14.90625 41 
Q 18.09375 46.796875 23.1875 49.9375 
Q 28.296875 53.09375 34.703125 53.09375 
Q 41.296875 53.09375 45.140625 49.546875 
Q 49 46 49.90625 40.40625 
Q 56.90625 53.09375 69.796875 53.09375 
Q 74.296875 53.09375 77.34375 51.4375 
Q 80.40625 49.796875 82.203125 46.84375 
Q 84 43.90625 84.796875 39.90625 
Q 85.59375 35.90625 85.59375 31.203125 
z
" id="Raleway-Medium-6d"/>
      <path d="M 29.90625 -1 
Q 24 -1 19.140625 1.203125 
Q 14.296875 3.40625 10.84375 7.09375 
Q 7.40625 10.796875 5.5 15.6875 
Q 3.59375 20.59375 3.59375 26 
Q 3.59375 31.5 5.546875 36.390625 
Q 7.5 41.296875 10.953125 45 
Q 14.40625 48.703125 19.25 50.890625 
Q 24.09375 53.09375 29.90625 53.09375 
Q 35.703125 53.09375 40.59375 50.890625 
Q 45.5 48.703125 48.953125 45 
Q 52.40625 41.296875 54.34375 36.390625 
Q 56.296875 31.5 56.296875 26 
Q 56.296875 20.59375 54.390625 15.6875 
Q 52.5 10.796875 49 7.09375 
Q 45.5 3.40625 40.640625 1.203125 
Q 35.796875 -1 29.90625 -1 
M 12.59375 25.90625 
Q 12.59375 21.796875 13.9375 18.296875 
Q 15.296875 14.796875 17.640625 12.1875 
Q 20 9.59375 23.140625 8.09375 
Q 26.296875 6.59375 29.90625 6.59375 
Q 33.5 6.59375 36.640625 8.09375 
Q 39.796875 9.59375 42.1875 12.25 
Q 44.59375 14.90625 45.9375 18.453125 
Q 47.296875 22 47.296875 26.09375 
Q 47.296875 30.09375 45.9375 33.640625 
Q 44.59375 37.203125 42.1875 39.84375 
Q 39.796875 42.5 36.640625 44 
Q 33.5 45.5 29.90625 45.5 
Q 26.296875 45.5 23.140625 43.953125 
Q 20 42.40625 17.640625 39.75 
Q 15.296875 37.09375 13.9375 33.546875 
Q 12.59375 30 12.59375 25.90625 
" id="Raleway-Medium-6f"/>
      <path d="M 7.09375 73 
L 15.90625 73 
L 15.90625 13.5 
Q 15.90625 10.59375 17.453125 8.9375 
Q 19 7.296875 21.796875 7.296875 
Q 22.90625 7.296875 24.40625 7.640625 
Q 25.90625 8 27.203125 8.5 
L 28.59375 1.40625 
Q 26.40625 0.5 23.40625 -0.09375 
Q 20.40625 -0.703125 18.09375 -0.703125 
Q 13 -0.703125 10.046875 2.1875 
Q 7.09375 5.09375 7.09375 10.296875 
z
" id="Raleway-Medium-6c"/>
      <path d="M 8.5 0 
L 8.5 71 
L 17.5 71 
L 17.5 8 
L 57.09375 8 
L 57.09375 0 
z
" id="Raleway-Medium-4c"/>
      <path d="M 17.5 54.203125 
L 17.5 0 
L 8.5 0 
L 8.5 71 
L 15.5 71 
L 59.5 15.703125 
L 59.5 70.90625 
L 68.5 70.90625 
L 68.5 0 
L 60.90625 0 
z
" id="Raleway-Medium-4e"/>
      <path d="M 9.203125 -14.296875 
Q 11.90625 -14.59375 14 -14.59375 
Q 14.90625 -14.59375 15.703125 -14.1875 
Q 16.5 -13.796875 17.5 -12.296875 
Q 18.5 -10.796875 19.796875 -7.890625 
Q 21.09375 -5 23 0 
L 0.90625 52.203125 
L 10 52.203125 
L 27.796875 7.90625 
L 44 52.203125 
L 52.40625 52.203125 
L 26.796875 -13.703125 
Q 25 -18.40625 21.59375 -20.453125 
Q 18.203125 -22.5 13.59375 -22.5 
Q 12.5 -22.5 11.390625 -22.390625 
Q 10.296875 -22.296875 9.203125 -22 
z
" id="Raleway-Medium-79"/>
      <path d="M 27.796875 -0.59375 
Q 22.5 -0.59375 18.046875 1.59375 
Q 13.59375 3.796875 10.390625 7.5 
Q 7.203125 11.203125 5.453125 16 
Q 3.703125 20.796875 3.703125 26 
Q 3.703125 31.5 5.453125 36.453125 
Q 7.203125 41.40625 10.390625 45.09375 
Q 13.59375 48.796875 18.046875 50.9375 
Q 22.5 53.09375 27.90625 53.09375 
Q 34.5 53.09375 39.296875 49.890625 
Q 44.09375 46.703125 47.40625 41.796875 
L 47.40625 52.203125 
L 55.203125 52.203125 
L 55.203125 0.59375 
Q 55.203125 -5 53.09375 -9.25 
Q 51 -13.5 47.390625 -16.390625 
Q 43.796875 -19.296875 38.9375 -20.796875 
Q 34.09375 -22.296875 28.59375 -22.296875 
Q 19.703125 -22.296875 14.140625 -19.25 
Q 8.59375 -16.203125 4.90625 -10.796875 
L 10 -6.296875 
Q 13.09375 -10.90625 18 -13.203125 
Q 22.90625 -15.5 28.59375 -15.5 
Q 32.203125 -15.5 35.453125 -14.5 
Q 38.703125 -13.5 41.09375 -11.5 
Q 43.5 -9.5 44.953125 -6.5 
Q 46.40625 -3.5 46.40625 0.59375 
L 46.40625 9.796875 
Q 44.90625 7.40625 42.84375 5.453125 
Q 40.796875 3.5 38.390625 2.140625 
Q 36 0.796875 33.296875 0.09375 
Q 30.59375 -0.59375 27.796875 -0.59375 
M 30.5 6.59375 
Q 33.296875 6.59375 35.890625 7.59375 
Q 38.5 8.59375 40.703125 10.25 
Q 42.90625 11.90625 44.40625 14 
Q 45.90625 16.09375 46.40625 18.296875 
L 46.40625 33.296875 
Q 45.296875 36 43.546875 38.203125 
Q 41.796875 40.40625 39.59375 42.046875 
Q 37.40625 43.703125 34.84375 44.59375 
Q 32.296875 45.5 29.703125 45.5 
Q 25.703125 45.5 22.546875 43.796875 
Q 19.40625 42.09375 17.203125 39.296875 
Q 15 36.5 13.796875 32.953125 
Q 12.59375 29.40625 12.59375 25.796875 
Q 12.59375 21.90625 14 18.40625 
Q 15.40625 14.90625 17.796875 12.296875 
Q 20.203125 9.703125 23.453125 8.140625 
Q 26.703125 6.59375 30.5 6.59375 
" id="Raleway-Medium-67"/>
      <path d="M 23 -1 
Q 14.796875 -1 10.59375 4.5 
Q 6.40625 10 6.40625 20.90625 
L 6.40625 52.203125 
L 15.203125 52.203125 
L 15.203125 22.59375 
Q 15.203125 6.59375 26.296875 6.59375 
Q 31.703125 6.59375 36.453125 10.046875 
Q 41.203125 13.5 43.5 19.5 
L 43.5 52.203125 
L 52.296875 52.203125 
L 52.296875 10.796875 
Q 52.296875 7.703125 55.09375 7.59375 
L 55.09375 0 
Q 54 -0.203125 53.140625 -0.296875 
Q 52.296875 -0.40625 51.59375 -0.40625 
Q 48.59375 -0.40625 46.890625 1.046875 
Q 45.203125 2.5 45 4.90625 
L 44.703125 11.203125 
Q 41.203125 5.296875 35.5 2.140625 
Q 29.796875 -1 23 -1 
" id="Raleway-Medium-75"/>
      <path d="M 21 -1 
Q 17.09375 -1 13.796875 0.25 
Q 10.5 1.5 8.09375 3.640625 
Q 5.703125 5.796875 4.34375 8.75 
Q 3 11.703125 3 15 
Q 3 18.703125 4.59375 21.75 
Q 6.203125 24.796875 9.140625 26.9375 
Q 12.09375 29.09375 16.140625 30.25 
Q 20.203125 31.40625 25 31.40625 
Q 28.796875 31.40625 32.6875 30.703125 
Q 36.59375 30 39.59375 28.796875 
L 39.59375 33 
Q 39.59375 39.40625 36 43.046875 
Q 32.40625 46.703125 25.796875 46.703125 
Q 17.90625 46.703125 9.203125 40.59375 
L 6.296875 46.296875 
Q 11.40625 49.703125 16.40625 51.390625 
Q 21.40625 53.09375 26.796875 53.09375 
Q 36.796875 53.09375 42.59375 47.59375 
Q 48.40625 42.09375 48.40625 32.09375 
L 48.40625 10.796875 
Q 48.40625 7.703125 51.203125 7.59375 
L 51.203125 0 
Q 50.203125 -0.203125 49.296875 -0.296875 
Q 48.40625 -0.40625 47.59375 -0.40625 
Q 45.40625 -0.40625 43.296875 0.796875 
Q 41.203125 2 41 4.90625 
L 40.796875 8.59375 
Q 39 6.203125 36.703125 4.390625 
Q 34.40625 2.59375 31.796875 1.390625 
Q 29.203125 0.203125 26.453125 -0.390625 
Q 23.703125 -1 21 -1 
M 23.203125 5.59375 
Q 27.40625 5.59375 31.40625 7.390625 
Q 35.40625 9.203125 37.703125 11.796875 
Q 39.59375 14 39.59375 15.90625 
L 39.59375 23.59375 
Q 36.5 24.796875 33.046875 25.4375 
Q 29.59375 26.09375 26.40625 26.09375 
Q 19.59375 26.09375 15.5 23.34375 
Q 11.40625 20.59375 11.40625 15.796875 
Q 11.40625 13.796875 12.203125 11.9375 
Q 13 10.09375 14.5 8.6875 
Q 16 7.296875 18.203125 6.4375 
Q 20.40625 5.59375 23.203125 5.59375 
" id="Raleway-Medium-61"/>
      <path d="M 25.40625 -1 
Q 19.09375 -1 13 0.953125 
Q 6.90625 2.90625 2.5 6.59375 
L 6.296875 12.5 
Q 10.90625 9 15.5 7.25 
Q 20.09375 5.5 25.203125 5.5 
Q 30.90625 5.5 34.25 7.75 
Q 37.59375 10 37.59375 14.09375 
Q 37.59375 16 36.6875 17.34375 
Q 35.796875 18.703125 34 19.703125 
Q 32.203125 20.703125 29.390625 21.5 
Q 26.59375 22.296875 22.90625 23.203125 
Q 18.203125 24.40625 14.796875 25.5 
Q 11.40625 26.59375 9.203125 28.09375 
Q 7 29.59375 6 31.6875 
Q 5 33.796875 5 36.90625 
Q 5 40.796875 6.546875 43.84375 
Q 8.09375 46.90625 10.796875 48.953125 
Q 13.5 51 17.140625 52.046875 
Q 20.796875 53.09375 25 53.09375 
Q 30.90625 53.09375 36 51.1875 
Q 41.09375 49.296875 44.59375 46.203125 
L 40.59375 40.90625 
Q 37.296875 43.796875 33.1875 45.25 
Q 29.09375 46.703125 24.796875 46.703125 
Q 20 46.703125 16.640625 44.640625 
Q 13.296875 42.59375 13.296875 38.09375 
Q 13.296875 36.296875 13.9375 35.09375 
Q 14.59375 33.90625 16.09375 33 
Q 17.59375 32.09375 19.9375 31.390625 
Q 22.296875 30.703125 25.59375 29.90625 
Q 30.796875 28.703125 34.640625 27.453125 
Q 38.5 26.203125 41.046875 24.5 
Q 43.59375 22.796875 44.84375 20.5 
Q 46.09375 18.203125 46.09375 14.90625 
Q 46.09375 7.59375 40.5 3.296875 
Q 34.90625 -1 25.40625 -1 
" id="Raleway-Medium-73"/>
      <path d="M 3.59375 26.203125 
Q 3.59375 31.703125 5.5 36.59375 
Q 7.40625 41.5 10.90625 45.140625 
Q 14.40625 48.796875 19.25 50.9375 
Q 24.09375 53.09375 30.09375 53.09375 
Q 37.90625 53.09375 43.546875 49.640625 
Q 49.203125 46.203125 52.09375 40.40625 
L 43.5 37.703125 
Q 41.5 41.40625 37.890625 43.453125 
Q 34.296875 45.5 29.90625 45.5 
Q 26.296875 45.5 23.09375 44.046875 
Q 19.90625 42.59375 17.59375 40 
Q 15.296875 37.40625 13.9375 33.90625 
Q 12.59375 30.40625 12.59375 26.203125 
Q 12.59375 22.09375 14 18.5 
Q 15.40625 14.90625 17.75 12.25 
Q 20.09375 9.59375 23.25 8.09375 
Q 26.40625 6.59375 30 6.59375 
Q 32.296875 6.59375 34.546875 7.25 
Q 36.796875 7.90625 38.640625 9 
Q 40.5 10.09375 41.890625 11.546875 
Q 43.296875 13 43.90625 14.703125 
L 52.5 12.09375 
Q 51.296875 9.203125 49.140625 6.796875 
Q 47 4.40625 44.09375 2.703125 
Q 41.203125 1 37.640625 0 
Q 34.09375 -1 30.203125 -1 
Q 24.296875 -1 19.390625 1.203125 
Q 14.5 3.40625 11 7.09375 
Q 7.5 10.796875 5.546875 15.75 
Q 3.59375 20.703125 3.59375 26.203125 
" id="Raleway-Medium-63"/>
      <path d="M 33.703125 -1 
Q 27.59375 -1 22.59375 2 
Q 17.59375 5 14.703125 9.796875 
L 14.703125 0 
L 6.90625 0 
L 6.90625 73 
L 15.703125 73 
L 15.703125 41.796875 
Q 19 46.90625 23.796875 50 
Q 28.59375 53.09375 35 53.09375 
Q 40.40625 53.09375 44.703125 50.796875 
Q 49 48.5 52.046875 44.75 
Q 55.09375 41 56.75 36.046875 
Q 58.40625 31.09375 58.40625 25.90625 
Q 58.40625 20.40625 56.5 15.5 
Q 54.59375 10.59375 51.296875 6.9375 
Q 48 3.296875 43.453125 1.140625 
Q 38.90625 -1 33.703125 -1 
M 31.5 6.59375 
Q 35.40625 6.59375 38.703125 8.1875 
Q 42 9.796875 44.390625 12.5 
Q 46.796875 15.203125 48.09375 18.640625 
Q 49.40625 22.09375 49.40625 25.90625 
Q 49.40625 29.703125 48.15625 33.25 
Q 46.90625 36.796875 44.65625 39.5 
Q 42.40625 42.203125 39.25 43.84375 
Q 36.09375 45.5 32.296875 45.5 
Q 29.5 45.5 27 44.5 
Q 24.5 43.5 22.34375 41.84375 
Q 20.203125 40.203125 18.546875 38 
Q 16.90625 35.796875 15.703125 33.296875 
L 15.703125 18.203125 
Q 16.203125 15.703125 17.84375 13.59375 
Q 19.5 11.5 21.75 9.953125 
Q 24 8.40625 26.546875 7.5 
Q 29.09375 6.59375 31.5 6.59375 
" id="Raleway-Medium-62"/>
     </defs>
     <g transform="translate(31.2 339.80375)rotate(-90.0)scale(0.16 -0.16)">
      <use xlink:href="#Raleway-Medium-4e"/>
      <use x="76.9999847412" xlink:href="#Raleway-Medium-75"/>
      <use x="137.299972534" xlink:href="#Raleway-Medium-6d"/>
      <use x="229.299957275" xlink:href="#Raleway-Medium-62"/>
      <use x="291.39994812" xlink:href="#Raleway-Medium-65"/>
      <use x="350.499938965" xlink:href="#Raleway-Medium-72"/>
      <use x="386.668685913" xlink:href="#Raleway-Medium-20"/>
      <use x="411.768676758" xlink:href="#Raleway-Medium-6f"/>
      <use x="471.568664551" xlink:href="#Raleway-Medium-66"/>
      <use x="507.153030396" xlink:href="#Raleway-Medium-20"/>
      <use x="532.25302124" xlink:href="#Raleway-Medium-42"/>
      <use x="599.437393188" xlink:href="#Raleway-Medium-79"/>
      <use x="653.737380981" xlink:href="#Raleway-Medium-74"/>
      <use x="688.43737793" xlink:href="#Raleway-Medium-65"/>
      <use x="747.537368774" xlink:href="#Raleway-Medium-73"/>
      <use x="796.837356567" xlink:href="#Raleway-Medium-20"/>
      <use x="821.937347412" xlink:href="#Raleway-Medium-53"/>
      <use x="883.237335205" xlink:href="#Raleway-Medium-65"/>
      <use x="942.33732605" xlink:href="#Raleway-Medium-6e"/>
      <use x="1000.93731689" xlink:href="#Raleway-Medium-74"/>
      <use x="1035.63731384" xlink:href="#Raleway-Medium-2c"/>
      <use x="1057.03730774" xlink:href="#Raleway-Medium-20"/>
      <use x="1082.13729858" xlink:href="#Raleway-Medium-4c"/>
      <use x="1141.12165833" xlink:href="#Raleway-Medium-6f"/>
      <use x="1200.92164612" xlink:href="#Raleway-Medium-67"/>
      <use x="1263.02163696" xlink:href="#Raleway-Medium-20"/>
      <use x="1288.12162781" xlink:href="#Raleway-Medium-53"/>
      <use x="1349.4216156" xlink:href="#Raleway-Medium-63"/>
      <use x="1404.8216095" xlink:href="#Raleway-Medium-61"/>
      <use x="1460.52160645" xlink:href="#Raleway-Medium-6c"/>
      <use x="1488.52159119" xlink:href="#Raleway-Medium-65"/>
     </g>
    </g>
   </g>
   <g id="text_21">
    <!-- Yggdrasil vs. PLANET: Communication Cost -->
    <defs>
     <path d="M 4 36 
Q 4 42.40625 6.25 48.75 
Q 8.5 55.09375 12.84375 60.140625 
Q 17.203125 65.203125 23.5 68.296875 
Q 29.796875 71.40625 37.796875 71.40625 
Q 47.296875 71.40625 54.09375 67.09375 
Q 60.90625 62.796875 64.203125 55.90625 
L 57.09375 51.296875 
Q 55.5 54.703125 53.25 57 
Q 51 59.296875 48.34375 60.6875 
Q 45.703125 62.09375 42.890625 62.6875 
Q 40.09375 63.296875 37.40625 63.296875 
Q 31.5 63.296875 26.953125 60.84375 
Q 22.40625 58.40625 19.296875 54.453125 
Q 16.203125 50.5 14.640625 45.546875 
Q 13.09375 40.59375 13.09375 35.59375 
Q 13.09375 30 14.9375 24.953125 
Q 16.796875 19.90625 20.09375 16 
Q 23.40625 12.09375 27.90625 9.796875 
Q 32.40625 7.5 37.703125 7.5 
Q 40.5 7.5 43.453125 8.203125 
Q 46.40625 8.90625 49.09375 10.453125 
Q 51.796875 12 54.140625 14.34375 
Q 56.5 16.703125 58 20 
L 65.5 15.90625 
Q 63.796875 11.90625 60.75 8.84375 
Q 57.703125 5.796875 53.84375 3.6875 
Q 50 1.59375 45.703125 0.5 
Q 41.40625 -0.59375 37.296875 -0.59375 
Q 30 -0.59375 23.890625 2.59375 
Q 17.796875 5.796875 13.34375 10.9375 
Q 8.90625 16.09375 6.453125 22.640625 
Q 4 29.203125 4 36 
" id="Raleway-Medium-43"/>
     <path d="M 1.09375 0 
L 30.296875 71 
L 37.703125 71 
L 66.796875 0 
L 57.203125 0 
L 48.796875 20.796875 
L 19 20.796875 
L 10.703125 0 
z
M 34 60.59375 
L 20.796875 27.796875 
L 46.796875 27.796875 
z
" id="Raleway-Medium-41"/>
     <path d="M 6.90625 40.59375 
L 6.90625 51.796875 
L 14.203125 51.796875 
L 14.203125 40.59375 
z
M 6.90625 0 
L 6.90625 11.203125 
L 14.203125 11.203125 
L 14.203125 0 
z
" id="Raleway-Medium-3a"/>
     <path d="M 6.296875 0 
L 6.296875 11.203125 
L 13.703125 11.203125 
L 13.703125 0 
z
" id="Raleway-Medium-2e"/>
     <path d="M 56.703125 8 
L 56.703125 0 
L 8.5 0 
L 8.5 71 
L 55.796875 71 
L 55.796875 63 
L 17.5 63 
L 17.5 40 
L 50.796875 40 
L 50.796875 32.5 
L 17.5 32.5 
L 17.5 8 
z
" id="Raleway-Medium-45"/>
     <path d="M 8.5 0 
L 8.5 71 
L 38.09375 71 
Q 42.796875 71 46.75 69.046875 
Q 50.703125 67.09375 53.546875 63.84375 
Q 56.40625 60.59375 58 56.546875 
Q 59.59375 52.5 59.59375 48.296875 
Q 59.59375 43.90625 58.09375 39.796875 
Q 56.59375 35.703125 53.84375 32.5 
Q 51.09375 29.296875 47.25 27.390625 
Q 43.40625 25.5 38.703125 25.5 
L 17.5 25.5 
L 17.5 0 
z
M 17.5 33.5 
L 38.203125 33.5 
Q 41 33.5 43.25 34.640625 
Q 45.5 35.796875 47.09375 37.84375 
Q 48.703125 39.90625 49.59375 42.59375 
Q 50.5 45.296875 50.5 48.296875 
Q 50.5 51.40625 49.453125 54.09375 
Q 48.40625 56.796875 46.65625 58.796875 
Q 44.90625 60.796875 42.546875 61.890625 
Q 40.203125 63 37.59375 63 
L 17.5 63 
z
" id="Raleway-Medium-50"/>
     <path d="M 10.296875 71 
L 31.796875 34 
L 53.5 71 
L 63.296875 71 
L 36.296875 25.90625 
L 36.296875 0 
L 27.296875 0 
L 27.296875 26.09375 
L 0.40625 71 
z
" id="Raleway-Medium-59"/>
     <path d="M 6.90625 0 
L 6.90625 52.203125 
L 15.703125 52.203125 
L 15.703125 0 
z
M 6.90625 62 
L 6.90625 73 
L 15.703125 73 
L 15.703125 62 
z
" id="Raleway-Medium-69"/>
     <path d="M 22 0 
L 1.40625 52.203125 
L 10.5 52.203125 
L 27 7.703125 
L 43.59375 52.203125 
L 52 52.203125 
L 31.40625 0 
z
" id="Raleway-Medium-76"/>
     <path d="M 28.5 -1 
Q 23.09375 -1 18.5 1.203125 
Q 13.90625 3.40625 10.59375 7.09375 
Q 7.296875 10.796875 5.4375 15.6875 
Q 3.59375 20.59375 3.59375 26 
Q 3.59375 31.5 5.34375 36.453125 
Q 7.09375 41.40625 10.25 45.09375 
Q 13.40625 48.796875 17.75 50.9375 
Q 22.09375 53.09375 27.296875 53.09375 
Q 33.59375 53.09375 38.546875 49.796875 
Q 43.5 46.5 46.40625 41.796875 
L 46.40625 73 
L 55.203125 73 
L 55.203125 10.796875 
Q 55.203125 7.703125 58 7.59375 
L 58 0 
Q 56.90625 -0.203125 56.046875 -0.296875 
Q 55.203125 -0.40625 54.5 -0.40625 
Q 51.5 -0.40625 49.703125 1.140625 
Q 47.90625 2.703125 47.796875 4.90625 
L 47.59375 9.796875 
Q 44.5 4.703125 39.34375 1.84375 
Q 34.203125 -1 28.5 -1 
M 30.59375 6.59375 
Q 33 6.59375 35.546875 7.5 
Q 38.09375 8.40625 40.34375 10 
Q 42.59375 11.59375 44.25 13.75 
Q 45.90625 15.90625 46.40625 18.296875 
L 46.40625 33.296875 
Q 45.5 35.796875 43.703125 38.046875 
Q 41.90625 40.296875 39.65625 41.9375 
Q 37.40625 43.59375 34.84375 44.546875 
Q 32.296875 45.5 29.796875 45.5 
Q 25.90625 45.5 22.75 43.84375 
Q 19.59375 42.203125 17.34375 39.453125 
Q 15.09375 36.703125 13.890625 33.140625 
Q 12.703125 29.59375 12.703125 25.90625 
Q 12.703125 22 14.09375 18.453125 
Q 15.5 14.90625 17.890625 12.296875 
Q 20.296875 9.703125 23.546875 8.140625 
Q 26.796875 6.59375 30.59375 6.59375 
" id="Raleway-Medium-64"/>
    </defs>
    <g transform="translate(76.199625 24.376)scale(0.216 -0.216)">
     <use xlink:href="#Raleway-Medium-59"/>
     <use x="63.6999969482" xlink:href="#Raleway-Medium-67"/>
     <use x="125.799987793" xlink:href="#Raleway-Medium-67"/>
     <use x="187.899978638" xlink:href="#Raleway-Medium-64"/>
     <use x="250.999969482" xlink:href="#Raleway-Medium-72"/>
     <use x="287.199966431" xlink:href="#Raleway-Medium-61"/>
     <use x="342.899963379" xlink:href="#Raleway-Medium-73"/>
     <use x="392.199951172" xlink:href="#Raleway-Medium-69"/>
     <use x="414.799942017" xlink:href="#Raleway-Medium-6c"/>
     <use x="442.768676758" xlink:href="#Raleway-Medium-20"/>
     <use x="467.837417603" xlink:href="#Raleway-Medium-76"/>
     <use x="521.221786499" xlink:href="#Raleway-Medium-73"/>
     <use x="570.521774292" xlink:href="#Raleway-Medium-2e"/>
     <use x="590.521759033" xlink:href="#Raleway-Medium-20"/>
     <use x="615.621749878" xlink:href="#Raleway-Medium-50"/>
     <use x="677.721740723" xlink:href="#Raleway-Medium-4c"/>
     <use x="736.721725464" xlink:href="#Raleway-Medium-41"/>
     <use x="804.521713257" xlink:href="#Raleway-Medium-4e"/>
     <use x="881.521697998" xlink:href="#Raleway-Medium-45"/>
     <use x="942.521682739" xlink:href="#Raleway-Medium-54"/>
     <use x="1004.07479858" xlink:href="#Raleway-Medium-3a"/>
     <use x="1025.17478943" xlink:href="#Raleway-Medium-20"/>
     <use x="1050.27478027" xlink:href="#Raleway-Medium-43"/>
     <use x="1118.57476807" xlink:href="#Raleway-Medium-6f"/>
     <use x="1178.37475586" xlink:href="#Raleway-Medium-6d"/>
     <use x="1270.3747406" xlink:href="#Raleway-Medium-6d"/>
     <use x="1362.37472534" xlink:href="#Raleway-Medium-75"/>
     <use x="1422.67471313" xlink:href="#Raleway-Medium-6e"/>
     <use x="1481.27470398" xlink:href="#Raleway-Medium-69"/>
     <use x="1503.87469482" xlink:href="#Raleway-Medium-63"/>
     <use x="1559.27468872" xlink:href="#Raleway-Medium-61"/>
     <use x="1614.97468567" xlink:href="#Raleway-Medium-74"/>
     <use x="1649.67468262" xlink:href="#Raleway-Medium-69"/>
     <use x="1672.27467346" xlink:href="#Raleway-Medium-6f"/>
     <use x="1732.07466125" xlink:href="#Raleway-Medium-6e"/>
     <use x="1790.6746521" xlink:href="#Raleway-Medium-20"/>
     <use x="1815.77464294" xlink:href="#Raleway-Medium-43"/>
     <use x="1884.07463074" xlink:href="#Raleway-Medium-6f"/>
     <use x="1943.87461853" xlink:href="#Raleway-Medium-73"/>
     <use x="1993.17460632" xlink:href="#Raleway-Medium-74"/>
    </g>
   </g>
   <g id="legend_1">
    <g id="patch_7">
     <path d="M 81.8 115.004687 
L 208.023125 115.004687 
Q 210.823125 115.004687 210.823125 112.204687 
L 210.823125 53 
Q 210.823125 50.2 208.023125 50.2 
L 81.8 50.2 
Q 79 50.2 79 53 
L 79 112.204687 
Q 79 115.004687 81.8 115.004687 
z
" style="fill:#ffffff;opacity:0.4;stroke:#000000;stroke-linejoin:miter;"/>
    </g>
    <g id="line2d_115">
     <path d="M 88.8 61.12 
L 108.4 61.12 
" style="fill:none;stroke:#0000ff;stroke-linecap:square;"/>
    </g>
    <g id="line2d_116">
     <g>
      <use style="fill:#0000ff;stroke:#0000ff;stroke-width:0.5;" x="88.8" xlink:href="#m44994fc418" y="61.12"/>
      <use style="fill:#0000ff;stroke:#0000ff;stroke-width:0.5;" x="108.4" xlink:href="#m44994fc418" y="61.12"/>
     </g>
    </g>
    <g id="text_22">
     <!-- MLlib, p = 1K -->
     <defs>
      <path d="M 8.5 0 
L 8.5 70.90625 
L 17.5 70.90625 
L 17.5 31.703125 
L 54.09375 71 
L 63.796875 71 
L 35.296875 39.703125 
L 65.40625 0 
L 55.59375 0 
L 29.796875 34.5 
L 17.5 21.703125 
L 17.5 0 
z
" id="Raleway-Medium-4b"/>
      <path d="M 6.796875 17.90625 
L 6.796875 23.90625 
L 37.296875 23.90625 
L 37.296875 17.90625 
z
M 6.796875 31.296875 
L 6.796875 37.296875 
L 37.296875 37.296875 
L 37.296875 31.296875 
z
" id="Raleway-Medium-3d"/>
      <path d="M 69.90625 0 
L 69.90625 54.90625 
L 46.296875 12.796875 
L 41.203125 12.796875 
L 17.5 54.90625 
L 17.5 0 
L 8.5 0 
L 8.5 71 
L 18 71 
L 43.703125 24.90625 
L 69.5 71 
L 78.90625 71 
L 78.90625 0 
z
" id="Raleway-Medium-4d"/>
     </defs>
     <g transform="translate(123.8 66.02)scale(0.14 -0.14)">
      <use xlink:href="#Raleway-Medium-4d"/>
      <use x="87.3999938965" xlink:href="#Raleway-Medium-4c"/>
      <use x="146.399978638" xlink:href="#Raleway-Medium-6c"/>
      <use x="174.399963379" xlink:href="#Raleway-Medium-69"/>
      <use x="196.999954224" xlink:href="#Raleway-Medium-62"/>
      <use x="259.099945068" xlink:href="#Raleway-Medium-2c"/>
      <use x="280.499938965" xlink:href="#Raleway-Medium-20"/>
      <use x="305.59992981" xlink:href="#Raleway-Medium-70"/>
      <use x="367.599914551" xlink:href="#Raleway-Medium-20"/>
      <use x="392.699905396" xlink:href="#Raleway-Medium-3d"/>
      <use x="436.699890137" xlink:href="#Raleway-Medium-20"/>
      <use x="461.799880981" xlink:href="#Raleway-Medium-31"/>
      <use x="506.49987793" xlink:href="#Raleway-Medium-4b"/>
     </g>
    </g>
    <g id="line2d_117">
     <path d="M 88.8 81.321562 
L 108.4 81.321562 
" style="fill:none;stroke:#ff4500;stroke-linecap:square;"/>
    </g>
    <g id="line2d_118">
     <g>
      <use style="fill:#ff4500;stroke:#ff4500;stroke-width:0.5;" x="88.8" xlink:href="#m5522431fca" y="81.3215625"/>
      <use style="fill:#ff4500;stroke:#ff4500;stroke-width:0.5;" x="108.4" xlink:href="#m5522431fca" y="81.3215625"/>
     </g>
    </g>
    <g id="text_23">
     <!-- MLlib, p = 2K -->
     <g transform="translate(123.8 86.2215625)scale(0.14 -0.14)">
      <use xlink:href="#Raleway-Medium-4d"/>
      <use x="87.3999938965" xlink:href="#Raleway-Medium-4c"/>
      <use x="146.399978638" xlink:href="#Raleway-Medium-6c"/>
      <use x="174.399963379" xlink:href="#Raleway-Medium-69"/>
      <use x="196.999954224" xlink:href="#Raleway-Medium-62"/>
      <use x="259.099945068" xlink:href="#Raleway-Medium-2c"/>
      <use x="280.499938965" xlink:href="#Raleway-Medium-20"/>
      <use x="305.59992981" xlink:href="#Raleway-Medium-70"/>
      <use x="367.599914551" xlink:href="#Raleway-Medium-20"/>
      <use x="392.699905396" xlink:href="#Raleway-Medium-3d"/>
      <use x="436.699890137" xlink:href="#Raleway-Medium-20"/>
      <use x="461.799880981" xlink:href="#Raleway-Medium-32"/>
      <use x="516.199874878" xlink:href="#Raleway-Medium-4b"/>
     </g>
    </g>
    <g id="line2d_119">
     <path d="M 88.8 101.523125 
L 108.4 101.523125 
" style="fill:none;stroke:#ff00ff;stroke-linecap:square;"/>
    </g>
    <g id="line2d_120">
     <g>
      <use style="fill:#ff00ff;stroke:#ff00ff;stroke-width:0.5;" x="88.8" xlink:href="#m54ef6a0f59" y="101.523125"/>
      <use style="fill:#ff00ff;stroke:#ff00ff;stroke-width:0.5;" x="108.4" xlink:href="#m54ef6a0f59" y="101.523125"/>
     </g>
    </g>
    <g id="text_24">
     <!-- MLlib, p = 4K -->
     <g transform="translate(123.8 106.423125)scale(0.14 -0.14)">
      <use xlink:href="#Raleway-Medium-4d"/>
      <use x="87.3999938965" xlink:href="#Raleway-Medium-4c"/>
      <use x="146.399978638" xlink:href="#Raleway-Medium-6c"/>
      <use x="174.399963379" xlink:href="#Raleway-Medium-69"/>
      <use x="196.999954224" xlink:href="#Raleway-Medium-62"/>
      <use x="259.099945068" xlink:href="#Raleway-Medium-2c"/>
      <use x="280.499938965" xlink:href="#Raleway-Medium-20"/>
      <use x="305.59992981" xlink:href="#Raleway-Medium-70"/>
      <use x="367.599914551" xlink:href="#Raleway-Medium-20"/>
      <use x="392.699905396" xlink:href="#Raleway-Medium-3d"/>
      <use x="436.699890137" xlink:href="#Raleway-Medium-20"/>
      <use x="461.799880981" xlink:href="#Raleway-Medium-34"/>
      <use x="516.699874878" xlink:href="#Raleway-Medium-4b"/>
     </g>
    </g>
   </g>
   <g id="legend_2">
    <g id="patch_8">
     <path d="M 304.057812 381.8 
L 508.6 381.8 
Q 511.4 381.8 511.4 379 
L 511.4 359.918437 
Q 511.4 357.118438 508.6 357.118438 
L 304.057812 357.118438 
Q 301.257812 357.118438 301.257812 359.918437 
L 301.257812 379 
Q 301.257812 381.8 304.057812 381.8 
z
" style="fill:#ffffff;opacity:0.4;stroke:#000000;stroke-linejoin:miter;"/>
    </g>
    <g id="line2d_121">
     <path d="M 311.057812 368.178438 
L 330.657812 368.178438 
" style="fill:none;stroke:#008000;stroke-linecap:square;"/>
    </g>
    <g id="line2d_122">
     <g>
      <use style="fill:#008000;stroke:#008000;stroke-width:0.5;" x="311.0578125" xlink:href="#ma890c61401" y="368.1784375"/>
      <use style="fill:#008000;stroke:#008000;stroke-width:0.5;" x="330.6578125" xlink:href="#ma890c61401" y="368.1784375"/>
     </g>
    </g>
    <g id="text_25">
     <!-- Yggdrasil, p = {1K, 2K, 4K} -->
     <defs>
      <path d="M 4.40625 66.796875 
L 4.40625 74 
L 15.59375 74 
Q 16.09375 74 17 73.453125 
Q 17.90625 72.90625 17.90625 71 
L 17.90625 45 
Q 17.90625 44.203125 18.15625 43.25 
Q 18.40625 42.296875 18.953125 41.390625 
Q 19.5 40.5 20.25 39.890625 
Q 21 39.296875 22.09375 39.296875 
L 22.09375 32.90625 
Q 20.09375 32.59375 19 30.890625 
Q 17.90625 29.203125 17.90625 27 
L 17.90625 -0.09375 
Q 17.90625 -1.796875 17.09375 -2.4375 
Q 16.296875 -3.09375 15.59375 -3.09375 
L 4.40625 -3.09375 
L 4.40625 4.09375 
L 9.90625 4.09375 
L 9.90625 29.59375 
Q 9.90625 31 10.546875 32.796875 
Q 11.203125 34.59375 12.796875 36 
Q 11.203125 37.40625 10.546875 39.203125 
Q 9.90625 41 9.90625 42.40625 
L 9.90625 66.796875 
z
" id="Raleway-Medium-7d"/>
      <path d="M 17.09375 66.796875 
L 17.09375 42.40625 
Q 17.09375 41 16.4375 39.203125 
Q 15.796875 37.40625 14.203125 36 
Q 15.703125 34.59375 16.390625 32.796875 
Q 17.09375 31 17.09375 29.59375 
L 17.09375 4.09375 
L 22.59375 4.09375 
L 22.59375 -3.09375 
L 11.40625 -3.09375 
Q 10.59375 -3.09375 9.84375 -2.4375 
Q 9.09375 -1.796875 9.09375 -0.09375 
L 9.09375 27 
Q 9.09375 29.203125 7.9375 30.890625 
Q 6.796875 32.59375 4.90625 32.90625 
L 4.90625 39.296875 
Q 5.90625 39.296875 6.703125 39.890625 
Q 7.5 40.5 8.046875 41.390625 
Q 8.59375 42.296875 8.84375 43.25 
Q 9.09375 44.203125 9.09375 45 
L 9.09375 71 
Q 9.09375 72.90625 10 73.453125 
Q 10.90625 74 11.40625 74 
L 22.59375 74 
L 22.59375 66.796875 
z
" id="Raleway-Medium-7b"/>
     </defs>
     <g transform="translate(346.0578125 373.0784375)scale(0.14 -0.14)">
      <use xlink:href="#Raleway-Medium-59"/>
      <use x="63.6999969482" xlink:href="#Raleway-Medium-67"/>
      <use x="125.799987793" xlink:href="#Raleway-Medium-67"/>
      <use x="187.899978638" xlink:href="#Raleway-Medium-64"/>
      <use x="250.999969482" xlink:href="#Raleway-Medium-72"/>
      <use x="287.199966431" xlink:href="#Raleway-Medium-61"/>
      <use x="342.899963379" xlink:href="#Raleway-Medium-73"/>
      <use x="392.199951172" xlink:href="#Raleway-Medium-69"/>
      <use x="414.799942017" xlink:href="#Raleway-Medium-6c"/>
      <use x="442.799926758" xlink:href="#Raleway-Medium-2c"/>
      <use x="464.199920654" xlink:href="#Raleway-Medium-20"/>
      <use x="489.299911499" xlink:href="#Raleway-Medium-70"/>
      <use x="551.29989624" xlink:href="#Raleway-Medium-20"/>
      <use x="576.399887085" xlink:href="#Raleway-Medium-3d"/>
      <use x="620.399871826" xlink:href="#Raleway-Medium-20"/>
      <use x="645.499862671" xlink:href="#Raleway-Medium-7b"/>
      <use x="672.399856567" xlink:href="#Raleway-Medium-31"/>
      <use x="717.099853516" xlink:href="#Raleway-Medium-4b"/>
      <use x="781.999847412" xlink:href="#Raleway-Medium-2c"/>
      <use x="803.399841309" xlink:href="#Raleway-Medium-20"/>
      <use x="828.499832153" xlink:href="#Raleway-Medium-32"/>
      <use x="882.89982605" xlink:href="#Raleway-Medium-4b"/>
      <use x="947.799819946" xlink:href="#Raleway-Medium-2c"/>
      <use x="969.199813843" xlink:href="#Raleway-Medium-20"/>
      <use x="994.299804688" xlink:href="#Raleway-Medium-34"/>
      <use x="1049.19979858" xlink:href="#Raleway-Medium-4b"/>
      <use x="1114.09979248" xlink:href="#Raleway-Medium-7d"/>
     </g>
    </g>
   </g>
  </g>
 </g>
 <defs>
  <clipPath id="p3bc82b9994">
   <rect height="345.6" width="446.4" x="72.0" y="43.2"/>
  </clipPath>
 </defs>
</svg>
