<?xml version="1.0" encoding="utf-8" standalone="no"?>
<!DOCTYPE svg PUBLIC "-//W3C//DTD SVG 1.1//EN"
  "http://www.w3.org/Graphics/SVG/1.1/DTD/svg11.dtd">
<!-- Created with matplotlib (http://matplotlib.org/) -->
<svg height="468pt" version="1.1" viewBox="0 0 576 468" width="576pt" xmlns="http://www.w3.org/2000/svg" xmlns:xlink="http://www.w3.org/1999/xlink">
 <defs>
  <style type="text/css">
*{stroke-linecap:butt;stroke-linejoin:round;stroke-miterlimit:100000;}
  </style>
 </defs>
 <g id="figure_1">
  <g id="patch_1">
   <path d="M 0 468 
L 576 468 
L 576 0 
L 0 0 
L 0 468 
z
" style="fill:none;"/>
  </g>
  <g id="axes_1">
   <g id="patch_2">
    <path d="M 80.85375 398.48 
L 500.715 398.48 
L 500.715 63.536 
L 80.85375 63.536 
L 80.85375 398.48 
z
" style="fill:none;"/>
   </g>
   <g id="matplotlib.axis_1">
    <g id="xtick_1">
     <g id="line2d_1">
      <defs>
       <path d="M 0 0 
L 0 -4 
" id="m80136a1327" style="stroke:#000000;stroke-width:0.5;"/>
      </defs>
      <g>
       <use style="stroke:#000000;stroke-width:0.5;" x="114.864856844" xlink:href="#m80136a1327" y="398.48"/>
      </g>
     </g>
     <g id="line2d_2">
      <defs>
       <path d="M 0 0 
L 0 4 
" id="mbf7d1b10a7" style="stroke:#000000;stroke-width:0.5;"/>
      </defs>
      <g>
       <use style="stroke:#000000;stroke-width:0.5;" x="114.864856844" xlink:href="#mbf7d1b10a7" y="63.536"/>
      </g>
     </g>
     <g id="text_1">
      <!-- uncompressed -->
      <defs>
       <path d="M 52.203125 0 
L 43.40625 0 
L 43.40625 29.203125 
Q 43.40625 37.59375 40.84375 41.390625 
Q 38.296875 45.203125 33.09375 45.203125 
Q 30.40625 45.203125 27.703125 44.140625 
Q 25 43.09375 22.59375 41.296875 
Q 20.203125 39.5 18.390625 37 
Q 16.59375 34.5 15.703125 31.5 
L 15.703125 0 
L 6.90625 0 
L 6.90625 52.203125 
L 14.90625 52.203125 
L 14.90625 41 
Q 18 46.5 23.84375 49.796875 
Q 29.703125 53.09375 36.59375 53.09375 
Q 41.09375 53.09375 44.09375 51.4375 
Q 47.09375 49.796875 48.890625 46.84375 
Q 50.703125 43.90625 51.453125 39.90625 
Q 52.203125 35.90625 52.203125 31.203125 
z
" id="Raleway-Medium-6e"/>
       <path d="M 85.59375 0 
L 76.796875 0 
L 76.796875 29.203125 
Q 76.796875 37.40625 74.140625 41.296875 
Q 71.5 45.203125 66.296875 45.203125 
Q 60.90625 45.203125 56.65625 41.34375 
Q 52.40625 37.5 50.59375 31.40625 
L 50.59375 0 
L 41.796875 0 
L 41.796875 29.203125 
Q 41.796875 37.59375 39.1875 41.390625 
Q 36.59375 45.203125 31.40625 45.203125 
Q 26.09375 45.203125 21.796875 41.453125 
Q 17.5 37.703125 15.703125 31.5 
L 15.703125 0 
L 6.90625 0 
L 6.90625 52.203125 
L 14.90625 52.203125 
L 14.90625 41 
Q 18.09375 46.796875 23.1875 49.9375 
Q 28.296875 53.09375 34.703125 53.09375 
Q 41.296875 53.09375 45.140625 49.546875 
Q 49 46 49.90625 40.40625 
Q 56.90625 53.09375 69.796875 53.09375 
Q 74.296875 53.09375 77.34375 51.4375 
Q 80.40625 49.796875 82.203125 46.84375 
Q 84 43.90625 84.796875 39.90625 
Q 85.59375 35.90625 85.59375 31.203125 
z
" id="Raleway-Medium-6d"/>
       <path d="M 29.90625 -1 
Q 24 -1 19.140625 1.203125 
Q 14.296875 3.40625 10.84375 7.09375 
Q 7.40625 10.796875 5.5 15.6875 
Q 3.59375 20.59375 3.59375 26 
Q 3.59375 31.5 5.546875 36.390625 
Q 7.5 41.296875 10.953125 45 
Q 14.40625 48.703125 19.25 50.890625 
Q 24.09375 53.09375 29.90625 53.09375 
Q 35.703125 53.09375 40.59375 50.890625 
Q 45.5 48.703125 48.953125 45 
Q 52.40625 41.296875 54.34375 36.390625 
Q 56.296875 31.5 56.296875 26 
Q 56.296875 20.59375 54.390625 15.6875 
Q 52.5 10.796875 49 7.09375 
Q 45.5 3.40625 40.640625 1.203125 
Q 35.796875 -1 29.90625 -1 
M 12.59375 25.90625 
Q 12.59375 21.796875 13.9375 18.296875 
Q 15.296875 14.796875 17.640625 12.1875 
Q 20 9.59375 23.140625 8.09375 
Q 26.296875 6.59375 29.90625 6.59375 
Q 33.5 6.59375 36.640625 8.09375 
Q 39.796875 9.59375 42.1875 12.25 
Q 44.59375 14.90625 45.9375 18.453125 
Q 47.296875 22 47.296875 26.09375 
Q 47.296875 30.09375 45.9375 33.640625 
Q 44.59375 37.203125 42.1875 39.84375 
Q 39.796875 42.5 36.640625 44 
Q 33.5 45.5 29.90625 45.5 
Q 26.296875 45.5 23.140625 43.953125 
Q 20 42.40625 17.640625 39.75 
Q 15.296875 37.09375 13.9375 33.546875 
Q 12.59375 30 12.59375 25.90625 
" id="Raleway-Medium-6f"/>
       <path d="M 3.59375 26.203125 
Q 3.59375 31.703125 5.5 36.59375 
Q 7.40625 41.5 10.90625 45.140625 
Q 14.40625 48.796875 19.25 50.9375 
Q 24.09375 53.09375 30.09375 53.09375 
Q 37.90625 53.09375 43.546875 49.640625 
Q 49.203125 46.203125 52.09375 40.40625 
L 43.5 37.703125 
Q 41.5 41.40625 37.890625 43.453125 
Q 34.296875 45.5 29.90625 45.5 
Q 26.296875 45.5 23.09375 44.046875 
Q 19.90625 42.59375 17.59375 40 
Q 15.296875 37.40625 13.9375 33.90625 
Q 12.59375 30.40625 12.59375 26.203125 
Q 12.59375 22.09375 14 18.5 
Q 15.40625 14.90625 17.75 12.25 
Q 20.09375 9.59375 23.25 8.09375 
Q 26.40625 6.59375 30 6.59375 
Q 32.296875 6.59375 34.546875 7.25 
Q 36.796875 7.90625 38.640625 9 
Q 40.5 10.09375 41.890625 11.546875 
Q 43.296875 13 43.90625 14.703125 
L 52.5 12.09375 
Q 51.296875 9.203125 49.140625 6.796875 
Q 47 4.40625 44.09375 2.703125 
Q 41.203125 1 37.640625 0 
Q 34.09375 -1 30.203125 -1 
Q 24.296875 -1 19.390625 1.203125 
Q 14.5 3.40625 11 7.09375 
Q 7.5 10.796875 5.546875 15.75 
Q 3.59375 20.703125 3.59375 26.203125 
" id="Raleway-Medium-63"/>
       <path d="M 30.203125 -1 
Q 24.296875 -1 19.390625 1.140625 
Q 14.5 3.296875 11 7 
Q 7.5 10.703125 5.546875 15.640625 
Q 3.59375 20.59375 3.59375 26.09375 
Q 3.59375 31.59375 5.546875 36.5 
Q 7.5 41.40625 11.046875 45.09375 
Q 14.59375 48.796875 19.5 50.9375 
Q 24.40625 53.09375 30.296875 53.09375 
Q 36.203125 53.09375 41.046875 50.890625 
Q 45.90625 48.703125 49.296875 45.046875 
Q 52.703125 41.40625 54.546875 36.546875 
Q 56.40625 31.703125 56.40625 26.5 
Q 56.40625 25.40625 56.34375 24.5 
Q 56.296875 23.59375 56.203125 23.09375 
L 12.90625 23.09375 
Q 13.203125 19.203125 14.703125 16 
Q 16.203125 12.796875 18.59375 10.5 
Q 21 8.203125 24.046875 6.890625 
Q 27.09375 5.59375 30.5 5.59375 
Q 32.90625 5.59375 35.203125 6.25 
Q 37.5 6.90625 39.5 8 
Q 41.5 9.09375 43.046875 10.6875 
Q 44.59375 12.296875 45.40625 14.296875 
L 53 12.203125 
Q 51.703125 9.296875 49.453125 6.890625 
Q 47.203125 4.5 44.25 2.75 
Q 41.296875 1 37.6875 0 
Q 34.09375 -1 30.203125 -1 
M 48.09375 29.59375 
Q 47.796875 33.296875 46.25 36.4375 
Q 44.703125 39.59375 42.34375 41.796875 
Q 40 44 36.890625 45.25 
Q 33.796875 46.5 30.296875 46.5 
Q 26.796875 46.5 23.6875 45.25 
Q 20.59375 44 18.25 41.75 
Q 15.90625 39.5 14.453125 36.390625 
Q 13 33.296875 12.703125 29.59375 
z
" id="Raleway-Medium-65"/>
       <path d="M 28.5 -1 
Q 23.09375 -1 18.5 1.203125 
Q 13.90625 3.40625 10.59375 7.09375 
Q 7.296875 10.796875 5.4375 15.6875 
Q 3.59375 20.59375 3.59375 26 
Q 3.59375 31.5 5.34375 36.453125 
Q 7.09375 41.40625 10.25 45.09375 
Q 13.40625 48.796875 17.75 50.9375 
Q 22.09375 53.09375 27.296875 53.09375 
Q 33.59375 53.09375 38.546875 49.796875 
Q 43.5 46.5 46.40625 41.796875 
L 46.40625 73 
L 55.203125 73 
L 55.203125 10.796875 
Q 55.203125 7.703125 58 7.59375 
L 58 0 
Q 56.90625 -0.203125 56.046875 -0.296875 
Q 55.203125 -0.40625 54.5 -0.40625 
Q 51.5 -0.40625 49.703125 1.140625 
Q 47.90625 2.703125 47.796875 4.90625 
L 47.59375 9.796875 
Q 44.5 4.703125 39.34375 1.84375 
Q 34.203125 -1 28.5 -1 
M 30.59375 6.59375 
Q 33 6.59375 35.546875 7.5 
Q 38.09375 8.40625 40.34375 10 
Q 42.59375 11.59375 44.25 13.75 
Q 45.90625 15.90625 46.40625 18.296875 
L 46.40625 33.296875 
Q 45.5 35.796875 43.703125 38.046875 
Q 41.90625 40.296875 39.65625 41.9375 
Q 37.40625 43.59375 34.84375 44.546875 
Q 32.296875 45.5 29.796875 45.5 
Q 25.90625 45.5 22.75 43.84375 
Q 19.59375 42.203125 17.34375 39.453125 
Q 15.09375 36.703125 13.890625 33.140625 
Q 12.703125 29.59375 12.703125 25.90625 
Q 12.703125 22 14.09375 18.453125 
Q 15.5 14.90625 17.890625 12.296875 
Q 20.296875 9.703125 23.546875 8.140625 
Q 26.796875 6.59375 30.59375 6.59375 
" id="Raleway-Medium-64"/>
       <path d="M 23 -1 
Q 14.796875 -1 10.59375 4.5 
Q 6.40625 10 6.40625 20.90625 
L 6.40625 52.203125 
L 15.203125 52.203125 
L 15.203125 22.59375 
Q 15.203125 6.59375 26.296875 6.59375 
Q 31.703125 6.59375 36.453125 10.046875 
Q 41.203125 13.5 43.5 19.5 
L 43.5 52.203125 
L 52.296875 52.203125 
L 52.296875 10.796875 
Q 52.296875 7.703125 55.09375 7.59375 
L 55.09375 0 
Q 54 -0.203125 53.140625 -0.296875 
Q 52.296875 -0.40625 51.59375 -0.40625 
Q 48.59375 -0.40625 46.890625 1.046875 
Q 45.203125 2.5 45 4.90625 
L 44.703125 11.203125 
Q 41.203125 5.296875 35.5 2.140625 
Q 29.796875 -1 23 -1 
" id="Raleway-Medium-75"/>
       <path d="M 34.5 44.5 
Q 27.90625 44.296875 22.84375 41.09375 
Q 17.796875 37.90625 15.703125 32.203125 
L 15.703125 0 
L 6.90625 0 
L 6.90625 52.203125 
L 15.09375 52.203125 
L 15.09375 40.09375 
Q 17.796875 45.5 22.1875 49.046875 
Q 26.59375 52.59375 31.59375 52.59375 
Q 32.59375 52.59375 33.296875 52.59375 
Q 34 52.59375 34.5 52.5 
z
" id="Raleway-Medium-72"/>
       <path d="M 25.40625 -1 
Q 19.09375 -1 13 0.953125 
Q 6.90625 2.90625 2.5 6.59375 
L 6.296875 12.5 
Q 10.90625 9 15.5 7.25 
Q 20.09375 5.5 25.203125 5.5 
Q 30.90625 5.5 34.25 7.75 
Q 37.59375 10 37.59375 14.09375 
Q 37.59375 16 36.6875 17.34375 
Q 35.796875 18.703125 34 19.703125 
Q 32.203125 20.703125 29.390625 21.5 
Q 26.59375 22.296875 22.90625 23.203125 
Q 18.203125 24.40625 14.796875 25.5 
Q 11.40625 26.59375 9.203125 28.09375 
Q 7 29.59375 6 31.6875 
Q 5 33.796875 5 36.90625 
Q 5 40.796875 6.546875 43.84375 
Q 8.09375 46.90625 10.796875 48.953125 
Q 13.5 51 17.140625 52.046875 
Q 20.796875 53.09375 25 53.09375 
Q 30.90625 53.09375 36 51.1875 
Q 41.09375 49.296875 44.59375 46.203125 
L 40.59375 40.90625 
Q 37.296875 43.796875 33.1875 45.25 
Q 29.09375 46.703125 24.796875 46.703125 
Q 20 46.703125 16.640625 44.640625 
Q 13.296875 42.59375 13.296875 38.09375 
Q 13.296875 36.296875 13.9375 35.09375 
Q 14.59375 33.90625 16.09375 33 
Q 17.59375 32.09375 19.9375 31.390625 
Q 22.296875 30.703125 25.59375 29.90625 
Q 30.796875 28.703125 34.640625 27.453125 
Q 38.5 26.203125 41.046875 24.5 
Q 43.59375 22.796875 44.84375 20.5 
Q 46.09375 18.203125 46.09375 14.90625 
Q 46.09375 7.59375 40.5 3.296875 
Q 34.90625 -1 25.40625 -1 
" id="Raleway-Medium-73"/>
       <path d="M 35 -1 
Q 28.5 -1 23.546875 2.203125 
Q 18.59375 5.40625 15.703125 10.296875 
L 15.703125 -21.296875 
L 6.90625 -21.296875 
L 6.90625 52.203125 
L 14.703125 52.203125 
L 14.703125 42.40625 
Q 17.796875 47.203125 22.75 50.140625 
Q 27.703125 53.09375 33.703125 53.09375 
Q 39.09375 53.09375 43.59375 50.890625 
Q 48.09375 48.703125 51.390625 44.953125 
Q 54.703125 41.203125 56.546875 36.296875 
Q 58.40625 31.40625 58.40625 26.09375 
Q 58.40625 20.5 56.703125 15.546875 
Q 55 10.59375 51.890625 6.9375 
Q 48.796875 3.296875 44.5 1.140625 
Q 40.203125 -1 35 -1 
M 32.296875 6.59375 
Q 36.203125 6.59375 39.34375 8.25 
Q 42.5 9.90625 44.75 12.65625 
Q 47 15.40625 48.203125 18.90625 
Q 49.40625 22.40625 49.40625 26.09375 
Q 49.40625 30 48 33.546875 
Q 46.59375 37.09375 44.1875 39.75 
Q 41.796875 42.40625 38.546875 43.953125 
Q 35.296875 45.5 31.5 45.5 
Q 29.09375 45.5 26.546875 44.546875 
Q 24 43.59375 21.75 42.046875 
Q 19.5 40.5 17.84375 38.34375 
Q 16.203125 36.203125 15.703125 33.796875 
L 15.703125 18.90625 
Q 16.796875 16.296875 18.5 14.046875 
Q 20.203125 11.796875 22.390625 10.140625 
Q 24.59375 8.5 27.09375 7.546875 
Q 29.59375 6.59375 32.296875 6.59375 
" id="Raleway-Medium-70"/>
      </defs>
      <g transform="translate(69.0936849686 411.97)scale(0.13 -0.13)">
       <use xlink:href="#Raleway-Medium-75"/>
       <use x="60.299987793" xlink:href="#Raleway-Medium-6e"/>
       <use x="118.899978638" xlink:href="#Raleway-Medium-63"/>
       <use x="174.299972534" xlink:href="#Raleway-Medium-6f"/>
       <use x="234.099960327" xlink:href="#Raleway-Medium-6d"/>
       <use x="326.099945068" xlink:href="#Raleway-Medium-70"/>
       <use x="388.09992981" xlink:href="#Raleway-Medium-72"/>
       <use x="424.299926758" xlink:href="#Raleway-Medium-65"/>
       <use x="483.399917603" xlink:href="#Raleway-Medium-73"/>
       <use x="532.699905396" xlink:href="#Raleway-Medium-73"/>
       <use x="581.999893188" xlink:href="#Raleway-Medium-65"/>
       <use x="641.099884033" xlink:href="#Raleway-Medium-64"/>
      </g>
      <!-- training -->
      <defs>
       <path d="M 6.90625 0 
L 6.90625 52.203125 
L 15.703125 52.203125 
L 15.703125 0 
z
M 6.90625 62 
L 6.90625 73 
L 15.703125 73 
L 15.703125 62 
z
" id="Raleway-Medium-69"/>
       <path d="M 34 2.59375 
Q 33.203125 2.203125 31.890625 1.640625 
Q 30.59375 1.09375 28.9375 0.546875 
Q 27.296875 0 25.34375 -0.34375 
Q 23.40625 -0.703125 21.296875 -0.703125 
Q 16.5 -0.703125 13 1.9375 
Q 9.5 4.59375 9.5 10.203125 
L 9.5 45.296875 
L 2.40625 45.296875 
L 2.40625 52.203125 
L 9.5 52.203125 
L 9.5 69.59375 
L 18.296875 69.59375 
L 18.296875 52.203125 
L 30 52.203125 
L 30 45.296875 
L 18.296875 45.296875 
L 18.296875 12.90625 
Q 18.5 10 20.203125 8.703125 
Q 21.90625 7.40625 24.203125 7.40625 
Q 26.796875 7.40625 28.9375 8.25 
Q 31.09375 9.09375 31.90625 9.59375 
z
" id="Raleway-Medium-74"/>
       <path d="M 21 -1 
Q 17.09375 -1 13.796875 0.25 
Q 10.5 1.5 8.09375 3.640625 
Q 5.703125 5.796875 4.34375 8.75 
Q 3 11.703125 3 15 
Q 3 18.703125 4.59375 21.75 
Q 6.203125 24.796875 9.140625 26.9375 
Q 12.09375 29.09375 16.140625 30.25 
Q 20.203125 31.40625 25 31.40625 
Q 28.796875 31.40625 32.6875 30.703125 
Q 36.59375 30 39.59375 28.796875 
L 39.59375 33 
Q 39.59375 39.40625 36 43.046875 
Q 32.40625 46.703125 25.796875 46.703125 
Q 17.90625 46.703125 9.203125 40.59375 
L 6.296875 46.296875 
Q 11.40625 49.703125 16.40625 51.390625 
Q 21.40625 53.09375 26.796875 53.09375 
Q 36.796875 53.09375 42.59375 47.59375 
Q 48.40625 42.09375 48.40625 32.09375 
L 48.40625 10.796875 
Q 48.40625 7.703125 51.203125 7.59375 
L 51.203125 0 
Q 50.203125 -0.203125 49.296875 -0.296875 
Q 48.40625 -0.40625 47.59375 -0.40625 
Q 45.40625 -0.40625 43.296875 0.796875 
Q 41.203125 2 41 4.90625 
L 40.796875 8.59375 
Q 39 6.203125 36.703125 4.390625 
Q 34.40625 2.59375 31.796875 1.390625 
Q 29.203125 0.203125 26.453125 -0.390625 
Q 23.703125 -1 21 -1 
M 23.203125 5.59375 
Q 27.40625 5.59375 31.40625 7.390625 
Q 35.40625 9.203125 37.703125 11.796875 
Q 39.59375 14 39.59375 15.90625 
L 39.59375 23.59375 
Q 36.5 24.796875 33.046875 25.4375 
Q 29.59375 26.09375 26.40625 26.09375 
Q 19.59375 26.09375 15.5 23.34375 
Q 11.40625 20.59375 11.40625 15.796875 
Q 11.40625 13.796875 12.203125 11.9375 
Q 13 10.09375 14.5 8.6875 
Q 16 7.296875 18.203125 6.4375 
Q 20.40625 5.59375 23.203125 5.59375 
" id="Raleway-Medium-61"/>
       <path d="M 27.796875 -0.59375 
Q 22.5 -0.59375 18.046875 1.59375 
Q 13.59375 3.796875 10.390625 7.5 
Q 7.203125 11.203125 5.453125 16 
Q 3.703125 20.796875 3.703125 26 
Q 3.703125 31.5 5.453125 36.453125 
Q 7.203125 41.40625 10.390625 45.09375 
Q 13.59375 48.796875 18.046875 50.9375 
Q 22.5 53.09375 27.90625 53.09375 
Q 34.5 53.09375 39.296875 49.890625 
Q 44.09375 46.703125 47.40625 41.796875 
L 47.40625 52.203125 
L 55.203125 52.203125 
L 55.203125 0.59375 
Q 55.203125 -5 53.09375 -9.25 
Q 51 -13.5 47.390625 -16.390625 
Q 43.796875 -19.296875 38.9375 -20.796875 
Q 34.09375 -22.296875 28.59375 -22.296875 
Q 19.703125 -22.296875 14.140625 -19.25 
Q 8.59375 -16.203125 4.90625 -10.796875 
L 10 -6.296875 
Q 13.09375 -10.90625 18 -13.203125 
Q 22.90625 -15.5 28.59375 -15.5 
Q 32.203125 -15.5 35.453125 -14.5 
Q 38.703125 -13.5 41.09375 -11.5 
Q 43.5 -9.5 44.953125 -6.5 
Q 46.40625 -3.5 46.40625 0.59375 
L 46.40625 9.796875 
Q 44.90625 7.40625 42.84375 5.453125 
Q 40.796875 3.5 38.390625 2.140625 
Q 36 0.796875 33.296875 0.09375 
Q 30.59375 -0.59375 27.796875 -0.59375 
M 30.5 6.59375 
Q 33.296875 6.59375 35.890625 7.59375 
Q 38.5 8.59375 40.703125 10.25 
Q 42.90625 11.90625 44.40625 14 
Q 45.90625 16.09375 46.40625 18.296875 
L 46.40625 33.296875 
Q 45.296875 36 43.546875 38.203125 
Q 41.796875 40.40625 39.59375 42.046875 
Q 37.40625 43.703125 34.84375 44.59375 
Q 32.296875 45.5 29.703125 45.5 
Q 25.703125 45.5 22.546875 43.796875 
Q 19.40625 42.09375 17.203125 39.296875 
Q 15 36.5 13.796875 32.953125 
Q 12.59375 29.40625 12.59375 25.796875 
Q 12.59375 21.90625 14 18.40625 
Q 15.40625 14.90625 17.796875 12.296875 
Q 20.203125 9.703125 23.453125 8.140625 
Q 26.703125 6.59375 30.5 6.59375 
" id="Raleway-Medium-67"/>
      </defs>
      <g transform="translate(92.0447787186 426.12659375)scale(0.13 -0.13)">
       <use xlink:href="#Raleway-Medium-74"/>
       <use x="34.6999969482" xlink:href="#Raleway-Medium-72"/>
       <use x="70.8999938965" xlink:href="#Raleway-Medium-61"/>
       <use x="126.599990845" xlink:href="#Raleway-Medium-69"/>
       <use x="149.199981689" xlink:href="#Raleway-Medium-6e"/>
       <use x="207.799972534" xlink:href="#Raleway-Medium-69"/>
       <use x="230.399963379" xlink:href="#Raleway-Medium-6e"/>
       <use x="288.999954224" xlink:href="#Raleway-Medium-67"/>
      </g>
      <!--     -->
      <defs>
       <path id="Raleway-Medium-20"/>
      </defs>
      <g transform="translate(109.971575594 440.4131875)scale(0.13 -0.13)">
       <use xlink:href="#Raleway-Medium-20"/>
       <use x="25.0999908447" xlink:href="#Raleway-Medium-20"/>
       <use x="50.1999816895" xlink:href="#Raleway-Medium-20"/>
      </g>
     </g>
    </g>
   </g>
   <g id="matplotlib.axis_2">
    <g id="ytick_1">
     <g id="line2d_3">
      <path clip-path="url(#p0de974c418)" d="M 80.85375 398.48 
L 500.715 398.48 
" style="fill:none;stroke:#000000;stroke-dasharray:1.000000,3.000000;stroke-dashoffset:0.0;stroke-width:0.5;"/>
     </g>
     <g id="line2d_4">
      <defs>
       <path d="M 0 0 
L 4 0 
" id="m5a6e30597e" style="stroke:#000000;stroke-width:0.5;"/>
      </defs>
      <g>
       <use style="stroke:#000000;stroke-width:0.5;" x="80.85375" xlink:href="#m5a6e30597e" y="398.48"/>
      </g>
     </g>
     <g id="line2d_5">
      <defs>
       <path d="M 0 0 
L -4 0 
" id="m747da5678c" style="stroke:#000000;stroke-width:0.5;"/>
      </defs>
      <g>
       <use style="stroke:#000000;stroke-width:0.5;" x="500.715" xlink:href="#m747da5678c" y="398.48"/>
      </g>
     </g>
     <g id="text_2">
      <!-- 0 -->
      <defs>
       <path d="M 56.09375 29.296875 
Q 56.09375 22.703125 54.1875 17.140625 
Q 52.296875 11.59375 48.890625 7.546875 
Q 45.5 3.5 40.84375 1.25 
Q 36.203125 -1 30.796875 -1 
Q 25.296875 -1 20.640625 1.25 
Q 16 3.5 12.640625 7.546875 
Q 9.296875 11.59375 7.390625 17.140625 
Q 5.5 22.703125 5.5 29.296875 
Q 5.5 35.90625 7.390625 41.453125 
Q 9.296875 47 12.640625 51.046875 
Q 16 55.09375 20.640625 57.390625 
Q 25.296875 59.703125 30.796875 59.703125 
Q 36.203125 59.703125 40.84375 57.390625 
Q 45.5 55.09375 48.890625 51.046875 
Q 52.296875 47 54.1875 41.453125 
Q 56.09375 35.90625 56.09375 29.296875 
M 47.203125 29.296875 
Q 47.203125 34.203125 46 38.296875 
Q 44.796875 42.40625 42.59375 45.34375 
Q 40.40625 48.296875 37.40625 49.890625 
Q 34.40625 51.5 30.796875 51.5 
Q 27.09375 51.5 24.046875 49.890625 
Q 21 48.296875 18.84375 45.34375 
Q 16.703125 42.40625 15.5 38.296875 
Q 14.296875 34.203125 14.296875 29.296875 
Q 14.296875 24.296875 15.5 20.25 
Q 16.703125 16.203125 18.84375 13.296875 
Q 21 10.40625 24.046875 8.796875 
Q 27.09375 7.203125 30.796875 7.203125 
Q 34.40625 7.203125 37.40625 8.796875 
Q 40.40625 10.40625 42.59375 13.296875 
Q 44.796875 16.203125 46 20.25 
Q 47.203125 24.296875 47.203125 29.296875 
" id="Raleway-Medium-30"/>
      </defs>
      <g transform="translate(66.39875 402.874765625)scale(0.17 -0.17)">
       <use xlink:href="#Raleway-Medium-30"/>
      </g>
     </g>
    </g>
    <g id="ytick_2">
     <g id="line2d_6">
      <path clip-path="url(#p0de974c418)" d="M 80.85375 353.8208 
L 500.715 353.8208 
" style="fill:none;stroke:#000000;stroke-dasharray:1.000000,3.000000;stroke-dashoffset:0.0;stroke-width:0.5;"/>
     </g>
     <g id="line2d_7">
      <g>
       <use style="stroke:#000000;stroke-width:0.5;" x="80.85375" xlink:href="#m5a6e30597e" y="353.8208"/>
      </g>
     </g>
     <g id="line2d_8">
      <g>
       <use style="stroke:#000000;stroke-width:0.5;" x="500.715" xlink:href="#m747da5678c" y="353.8208"/>
      </g>
     </g>
     <g id="text_3">
      <!-- 20 -->
      <defs>
       <path d="M 4.796875 0 
Q 4.796875 4 5.4375 7.5 
Q 6.09375 11 7.890625 14.203125 
Q 9.703125 17.40625 12.84375 20.296875 
Q 16 23.203125 21.09375 26.09375 
Q 24.09375 27.703125 27.1875 29.25 
Q 30.296875 30.796875 32.84375 32.546875 
Q 35.40625 34.296875 37.046875 36.296875 
Q 38.703125 38.296875 38.703125 41 
Q 38.703125 42.703125 37.890625 44.390625 
Q 37.09375 46.09375 35.59375 47.390625 
Q 34.09375 48.703125 31.84375 49.5 
Q 29.59375 50.296875 26.703125 50.296875 
Q 23.703125 50.296875 21.25 49.4375 
Q 18.796875 48.59375 16.890625 47.34375 
Q 15 46.09375 13.59375 44.6875 
Q 12.203125 43.296875 11.296875 42.203125 
L 5.59375 48.59375 
Q 6.40625 49.5 8.296875 51.046875 
Q 10.203125 52.59375 13.09375 54.1875 
Q 16 55.796875 19.796875 56.9375 
Q 23.59375 58.09375 28.296875 58.09375 
Q 32.90625 58.09375 36.59375 56.84375 
Q 40.296875 55.59375 42.84375 53.390625 
Q 45.40625 51.203125 46.796875 48.25 
Q 48.203125 45.296875 48.203125 42 
Q 48.203125 38.09375 46.5 35.1875 
Q 44.796875 32.296875 42.34375 30.09375 
Q 39.90625 27.90625 37.09375 26.34375 
Q 34.296875 24.796875 32.09375 23.703125 
Q 29.90625 22.59375 27.15625 21.046875 
Q 24.40625 19.5 21.90625 17.546875 
Q 19.40625 15.59375 17.546875 13.1875 
Q 15.703125 10.796875 15.203125 8 
L 49.296875 8 
L 49.296875 0 
z
" id="Raleway-Medium-32"/>
      </defs>
      <g transform="translate(57.1496875 358.215565625)scale(0.17 -0.17)">
       <use xlink:href="#Raleway-Medium-32"/>
       <use x="54.3999938965" xlink:href="#Raleway-Medium-30"/>
      </g>
     </g>
    </g>
    <g id="ytick_3">
     <g id="line2d_9">
      <path clip-path="url(#p0de974c418)" d="M 80.85375 309.1616 
L 500.715 309.1616 
" style="fill:none;stroke:#000000;stroke-dasharray:1.000000,3.000000;stroke-dashoffset:0.0;stroke-width:0.5;"/>
     </g>
     <g id="line2d_10">
      <g>
       <use style="stroke:#000000;stroke-width:0.5;" x="80.85375" xlink:href="#m5a6e30597e" y="309.1616"/>
      </g>
     </g>
     <g id="line2d_11">
      <g>
       <use style="stroke:#000000;stroke-width:0.5;" x="500.715" xlink:href="#m747da5678c" y="309.1616"/>
      </g>
     </g>
     <g id="text_4">
      <!-- 40 -->
      <defs>
       <path d="M 34.203125 -12.703125 
L 34.203125 4.203125 
L 2.09375 4.203125 
L 2.09375 12 
L 37 57.09375 
L 43 57.09375 
L 43 12.203125 
L 51.796875 12.203125 
L 51.796875 4.203125 
L 43 4.203125 
L 43 -12.703125 
z
M 11.203125 12.203125 
L 35.09375 12.203125 
L 35.09375 43.5 
z
" id="Raleway-Medium-34"/>
      </defs>
      <g transform="translate(57.0646875 313.556365625)scale(0.17 -0.17)">
       <use xlink:href="#Raleway-Medium-34"/>
       <use x="54.8999938965" xlink:href="#Raleway-Medium-30"/>
      </g>
     </g>
    </g>
    <g id="ytick_4">
     <g id="line2d_12">
      <path clip-path="url(#p0de974c418)" d="M 80.85375 264.5024 
L 500.715 264.5024 
" style="fill:none;stroke:#000000;stroke-dasharray:1.000000,3.000000;stroke-dashoffset:0.0;stroke-width:0.5;"/>
     </g>
     <g id="line2d_13">
      <g>
       <use style="stroke:#000000;stroke-width:0.5;" x="80.85375" xlink:href="#m5a6e30597e" y="264.5024"/>
      </g>
     </g>
     <g id="line2d_14">
      <g>
       <use style="stroke:#000000;stroke-width:0.5;" x="500.715" xlink:href="#m747da5678c" y="264.5024"/>
      </g>
     </g>
     <g id="text_5">
      <!-- 60 -->
      <defs>
       <path d="M 56.296875 23.5 
Q 56.296875 18.40625 54.34375 13.953125 
Q 52.40625 9.5 48.953125 6.140625 
Q 45.5 2.796875 40.890625 0.890625 
Q 36.296875 -1 30.90625 -1 
Q 25.203125 -1 20.453125 1.09375 
Q 15.703125 3.203125 12.296875 7.140625 
Q 8.90625 11.09375 7.046875 16.75 
Q 5.203125 22.40625 5.203125 29.59375 
Q 5.203125 40.09375 7.09375 47.9375 
Q 9 55.796875 12.5 61.046875 
Q 16 66.296875 20.890625 68.890625 
Q 25.796875 71.5 31.796875 71.5 
Q 38.703125 71.5 44.34375 68.203125 
Q 50 64.90625 53.203125 58.90625 
L 47.796875 53.59375 
Q 45.59375 58.296875 41.296875 61.046875 
Q 37 63.796875 31.703125 63.796875 
Q 27.59375 63.796875 24.296875 61.9375 
Q 21 60.09375 18.59375 56.5 
Q 16.203125 52.90625 14.890625 47.75 
Q 13.59375 42.59375 13.5 36 
Q 15.703125 41.203125 20.59375 44.296875 
Q 25.5 47.40625 31.796875 47.40625 
Q 36.90625 47.40625 41.40625 45.546875 
Q 45.90625 43.703125 49.203125 40.453125 
Q 52.5 37.203125 54.390625 32.84375 
Q 56.296875 28.5 56.296875 23.5 
M 31 6.59375 
Q 34.40625 6.59375 37.5 7.9375 
Q 40.59375 9.296875 42.890625 11.59375 
Q 45.203125 13.90625 46.546875 16.953125 
Q 47.90625 20 47.90625 23.5 
Q 47.90625 26.90625 46.546875 30 
Q 45.203125 33.09375 42.890625 35.34375 
Q 40.59375 37.59375 37.5 38.9375 
Q 34.40625 40.296875 31 40.296875 
Q 27.5 40.296875 24.453125 38.9375 
Q 21.40625 37.59375 19.09375 35.34375 
Q 16.796875 33.09375 15.4375 30 
Q 14.09375 26.90625 14.09375 23.5 
Q 14.09375 20 15.4375 16.953125 
Q 16.796875 13.90625 19.09375 11.59375 
Q 21.40625 9.296875 24.453125 7.9375 
Q 27.5 6.59375 31 6.59375 
" id="Raleway-Medium-36"/>
      </defs>
      <g transform="translate(56.0978125 268.897165625)scale(0.17 -0.17)">
       <use xlink:href="#Raleway-Medium-36"/>
       <use x="60.5999908447" xlink:href="#Raleway-Medium-30"/>
      </g>
     </g>
    </g>
    <g id="ytick_5">
     <g id="line2d_15">
      <path clip-path="url(#p0de974c418)" d="M 80.85375 219.8432 
L 500.715 219.8432 
" style="fill:none;stroke:#000000;stroke-dasharray:1.000000,3.000000;stroke-dashoffset:0.0;stroke-width:0.5;"/>
     </g>
     <g id="line2d_16">
      <g>
       <use style="stroke:#000000;stroke-width:0.5;" x="80.85375" xlink:href="#m5a6e30597e" y="219.8432"/>
      </g>
     </g>
     <g id="line2d_17">
      <g>
       <use style="stroke:#000000;stroke-width:0.5;" x="500.715" xlink:href="#m747da5678c" y="219.8432"/>
      </g>
     </g>
     <g id="text_6">
      <!-- 80 -->
      <defs>
       <path d="M 54.90625 20.09375 
Q 54.90625 15.296875 52.84375 11.4375 
Q 50.796875 7.59375 47.34375 4.890625 
Q 43.90625 2.203125 39.34375 0.703125 
Q 34.796875 -0.796875 29.703125 -0.796875 
Q 24.40625 -0.796875 19.84375 0.84375 
Q 15.296875 2.5 12 5.34375 
Q 8.703125 8.203125 6.796875 12.09375 
Q 4.90625 16 4.90625 20.5 
Q 4.90625 23.796875 6.09375 26.59375 
Q 7.296875 29.40625 9.140625 31.59375 
Q 11 33.796875 13.390625 35.4375 
Q 15.796875 37.09375 18.203125 38 
Q 16 38.90625 14 40.34375 
Q 12 41.796875 10.5 43.640625 
Q 9 45.5 8.140625 47.703125 
Q 7.296875 49.90625 7.296875 52.40625 
Q 7.296875 56.90625 9.34375 60.34375 
Q 11.40625 63.796875 14.65625 66.1875 
Q 17.90625 68.59375 21.90625 69.796875 
Q 25.90625 71 29.90625 71 
Q 33.90625 71 37.953125 69.796875 
Q 42 68.59375 45.25 66.25 
Q 48.5 63.90625 50.546875 60.453125 
Q 52.59375 57 52.59375 52.5 
Q 52.59375 47.5 49.296875 43.703125 
Q 46 39.90625 41.5 38 
Q 44.203125 36.90625 46.640625 35.203125 
Q 49.09375 33.5 50.890625 31.25 
Q 52.703125 29 53.796875 26.203125 
Q 54.90625 23.40625 54.90625 20.09375 
M 46 20.703125 
Q 46 23.90625 44.546875 26.453125 
Q 43.09375 29 40.796875 30.75 
Q 38.5 32.5 35.59375 33.390625 
Q 32.703125 34.296875 29.796875 34.296875 
Q 26.796875 34.296875 23.9375 33.34375 
Q 21.09375 32.40625 18.84375 30.59375 
Q 16.59375 28.796875 15.25 26.25 
Q 13.90625 23.703125 13.90625 20.59375 
Q 13.90625 17.40625 15.34375 14.90625 
Q 16.796875 12.40625 19.09375 10.703125 
Q 21.40625 9 24.25 8.046875 
Q 27.09375 7.09375 30 7.09375 
Q 33 7.09375 35.84375 8.09375 
Q 38.703125 9.09375 40.953125 10.890625 
Q 43.203125 12.703125 44.59375 15.203125 
Q 46 17.703125 46 20.703125 
M 16.203125 52.09375 
Q 16.203125 49.40625 17.453125 47.34375 
Q 18.703125 45.296875 20.703125 43.890625 
Q 22.703125 42.5 25.09375 41.796875 
Q 27.5 41.09375 29.90625 41.09375 
Q 32.296875 41.09375 34.6875 41.84375 
Q 37.09375 42.59375 39.09375 44 
Q 41.09375 45.40625 42.34375 47.5 
Q 43.59375 49.59375 43.59375 52.296875 
Q 43.59375 54.796875 42.4375 56.796875 
Q 41.296875 58.796875 39.390625 60.1875 
Q 37.5 61.59375 35 62.34375 
Q 32.5 63.09375 29.796875 63.09375 
Q 27.09375 63.09375 24.640625 62.34375 
Q 22.203125 61.59375 20.34375 60.140625 
Q 18.5 58.703125 17.34375 56.640625 
Q 16.203125 54.59375 16.203125 52.09375 
" id="Raleway-Medium-38"/>
      </defs>
      <g transform="translate(56.2146875 224.237965625)scale(0.17 -0.17)">
       <use xlink:href="#Raleway-Medium-38"/>
       <use x="59.8999938965" xlink:href="#Raleway-Medium-30"/>
      </g>
     </g>
    </g>
    <g id="ytick_6">
     <g id="line2d_18">
      <path clip-path="url(#p0de974c418)" d="M 80.85375 175.184 
L 500.715 175.184 
" style="fill:none;stroke:#000000;stroke-dasharray:1.000000,3.000000;stroke-dashoffset:0.0;stroke-width:0.5;"/>
     </g>
     <g id="line2d_19">
      <g>
       <use style="stroke:#000000;stroke-width:0.5;" x="80.85375" xlink:href="#m5a6e30597e" y="175.184"/>
      </g>
     </g>
     <g id="line2d_20">
      <g>
       <use style="stroke:#000000;stroke-width:0.5;" x="500.715" xlink:href="#m747da5678c" y="175.184"/>
      </g>
     </g>
     <g id="text_7">
      <!-- 100 -->
      <defs>
       <path d="M 42.5 8 
L 42.5 0 
L 6.59375 0 
L 6.59375 8 
L 20.796875 8 
L 20.796875 47 
Q 19.90625 45.796875 18 44.4375 
Q 16.09375 43.09375 13.75 41.9375 
Q 11.40625 40.796875 8.90625 40 
Q 6.40625 39.203125 4.5 39.203125 
L 4.5 47.59375 
Q 6.703125 47.59375 9.390625 48.84375 
Q 12.09375 50.09375 14.546875 51.75 
Q 17 53.40625 18.75 54.953125 
Q 20.5 56.5 20.796875 57.09375 
L 29.796875 57.09375 
L 29.796875 8 
z
" id="Raleway-Medium-31"/>
      </defs>
      <g transform="translate(48.34421875 179.578765625)scale(0.17 -0.17)">
       <use xlink:href="#Raleway-Medium-31"/>
       <use x="44.6999969482" xlink:href="#Raleway-Medium-30"/>
       <use x="106.199981689" xlink:href="#Raleway-Medium-30"/>
      </g>
     </g>
    </g>
    <g id="ytick_7">
     <g id="line2d_21">
      <path clip-path="url(#p0de974c418)" d="M 80.85375 130.5248 
L 500.715 130.5248 
" style="fill:none;stroke:#000000;stroke-dasharray:1.000000,3.000000;stroke-dashoffset:0.0;stroke-width:0.5;"/>
     </g>
     <g id="line2d_22">
      <g>
       <use style="stroke:#000000;stroke-width:0.5;" x="80.85375" xlink:href="#m5a6e30597e" y="130.5248"/>
      </g>
     </g>
     <g id="line2d_23">
      <g>
       <use style="stroke:#000000;stroke-width:0.5;" x="500.715" xlink:href="#m747da5678c" y="130.5248"/>
      </g>
     </g>
     <g id="text_8">
      <!-- 120 -->
      <g transform="translate(49.55015625 134.919565625)scale(0.17 -0.17)">
       <use xlink:href="#Raleway-Medium-31"/>
       <use x="44.6999969482" xlink:href="#Raleway-Medium-32"/>
       <use x="99.0999908447" xlink:href="#Raleway-Medium-30"/>
      </g>
     </g>
    </g>
    <g id="ytick_8">
     <g id="line2d_24">
      <path clip-path="url(#p0de974c418)" d="M 80.85375 85.8656 
L 500.715 85.8656 
" style="fill:none;stroke:#000000;stroke-dasharray:1.000000,3.000000;stroke-dashoffset:0.0;stroke-width:0.5;"/>
     </g>
     <g id="line2d_25">
      <g>
       <use style="stroke:#000000;stroke-width:0.5;" x="80.85375" xlink:href="#m5a6e30597e" y="85.8656"/>
      </g>
     </g>
     <g id="line2d_26">
      <g>
       <use style="stroke:#000000;stroke-width:0.5;" x="500.715" xlink:href="#m747da5678c" y="85.8656"/>
      </g>
     </g>
     <g id="text_9">
      <!-- 140 -->
      <g transform="translate(49.46515625 90.260365625)scale(0.17 -0.17)">
       <use xlink:href="#Raleway-Medium-31"/>
       <use x="44.6999969482" xlink:href="#Raleway-Medium-34"/>
       <use x="99.5999908447" xlink:href="#Raleway-Medium-30"/>
      </g>
     </g>
    </g>
    <g id="text_10">
     <!-- Training Time (s) -->
     <defs>
      <path d="M 59.796875 63 
L 35.296875 63 
L 35.296875 0 
L 26.296875 0 
L 26.296875 63 
L 1.796875 63 
L 1.796875 71 
L 59.796875 71 
z
" id="Raleway-Medium-54"/>
      <path d="M 4.09375 34.59375 
Q 4.09375 39.703125 5.1875 44.703125 
Q 6.296875 49.703125 8.25 54.640625 
Q 10.203125 59.59375 12.75 64.5 
Q 15.296875 69.40625 18.296875 74.40625 
L 25.09375 71.40625 
Q 23.203125 68.5 20.953125 64.203125 
Q 18.703125 59.90625 16.796875 54.90625 
Q 14.90625 49.90625 13.59375 44.546875 
Q 12.296875 39.203125 12.296875 34.296875 
Q 12.296875 26.40625 15.6875 17.34375 
Q 19.09375 8.296875 24.90625 -0.796875 
L 18.40625 -4.203125 
Q 12.09375 5.203125 8.09375 15.046875 
Q 4.09375 24.90625 4.09375 34.59375 
" id="Raleway-Medium-28"/>
      <path d="M 23.90625 34.59375 
Q 23.90625 24.90625 19.90625 15.046875 
Q 15.90625 5.203125 9.59375 -4.203125 
L 3.09375 -0.796875 
Q 8.90625 8.296875 12.296875 17.34375 
Q 15.703125 26.40625 15.703125 34.296875 
Q 15.703125 39.203125 14.390625 44.546875 
Q 13.09375 49.90625 11.1875 54.90625 
Q 9.296875 59.90625 7.046875 64.203125 
Q 4.796875 68.5 2.90625 71.40625 
L 9.703125 74.40625 
Q 12.703125 69.40625 15.25 64.5 
Q 17.796875 59.59375 19.75 54.640625 
Q 21.703125 49.703125 22.796875 44.703125 
Q 23.90625 39.703125 23.90625 34.59375 
" id="Raleway-Medium-29"/>
     </defs>
     <g transform="translate(38.88484375 307.8783125)rotate(-90.0)scale(0.2 -0.2)">
      <use xlink:href="#Raleway-Medium-54"/>
      <use x="61.5999908447" xlink:href="#Raleway-Medium-72"/>
      <use x="97.799987793" xlink:href="#Raleway-Medium-61"/>
      <use x="153.499984741" xlink:href="#Raleway-Medium-69"/>
      <use x="176.099975586" xlink:href="#Raleway-Medium-6e"/>
      <use x="234.699966431" xlink:href="#Raleway-Medium-69"/>
      <use x="257.299957275" xlink:href="#Raleway-Medium-6e"/>
      <use x="315.89994812" xlink:href="#Raleway-Medium-67"/>
      <use x="377.999938965" xlink:href="#Raleway-Medium-20"/>
      <use x="403.06867981" xlink:href="#Raleway-Medium-54"/>
      <use x="464.668670654" xlink:href="#Raleway-Medium-69"/>
      <use x="487.268661499" xlink:href="#Raleway-Medium-6d"/>
      <use x="579.26864624" xlink:href="#Raleway-Medium-65"/>
      <use x="638.368637085" xlink:href="#Raleway-Medium-20"/>
      <use x="663.46862793" xlink:href="#Raleway-Medium-28"/>
      <use x="691.468612671" xlink:href="#Raleway-Medium-73"/>
      <use x="740.768600464" xlink:href="#Raleway-Medium-29"/>
     </g>
    </g>
   </g>
   <g id="patch_3">
    <path clip-path="url(#p0de974c418)" d="M 97.859303 398.48 
L 131.87041 398.48 
L 131.87041 98.220568 
L 97.859303 98.220568 
z
" style="fill:#ff4500;stroke:#000000;stroke-linejoin:miter;"/>
   </g>
   <g id="patch_4">
    <path d="M 80.85375 63.536 
L 500.715 63.536 
" style="fill:none;stroke:#000000;stroke-linecap:square;stroke-linejoin:miter;"/>
   </g>
   <g id="patch_5">
    <path d="M 500.715 398.48 
L 500.715 63.536 
" style="fill:none;stroke:#000000;stroke-linecap:square;stroke-linejoin:miter;"/>
   </g>
   <g id="patch_6">
    <path d="M 80.85375 398.48 
L 500.715 398.48 
" style="fill:none;stroke:#000000;stroke-linecap:square;stroke-linejoin:miter;"/>
   </g>
   <g id="patch_7">
    <path d="M 80.85375 398.48 
L 80.85375 63.536 
" style="fill:none;stroke:#000000;stroke-linecap:square;stroke-linejoin:miter;"/>
   </g>
   <g id="text_11">
    <!-- 134 s -->
    <defs>
     <path d="M 35.90625 23.59375 
Q 42.296875 22.5 46.046875 17.703125 
Q 49.796875 12.90625 49.796875 5.796875 
Q 49.796875 1.203125 48.09375 -2.59375 
Q 46.40625 -6.40625 43.25 -9.09375 
Q 40.09375 -11.796875 35.6875 -13.25 
Q 31.296875 -14.703125 25.90625 -14.703125 
Q 18.296875 -14.703125 12.546875 -11.84375 
Q 6.796875 -9 3.59375 -3.796875 
L 9.5 2.09375 
Q 11.796875 -2 15.6875 -4.34375 
Q 19.59375 -6.703125 25.90625 -6.703125 
Q 32.796875 -6.703125 36.75 -3.59375 
Q 40.703125 -0.5 40.703125 5.796875 
Q 40.703125 12.09375 36.453125 15.84375 
Q 32.203125 19.59375 24.09375 19.59375 
L 21.5 19.59375 
L 21.5 27 
L 24.296875 27 
Q 31.5 27 35.34375 30.453125 
Q 39.203125 33.90625 39.203125 39.203125 
Q 39.203125 44.5 35.5 47.09375 
Q 31.796875 49.703125 26.203125 49.703125 
Q 20.703125 49.703125 16.546875 47.34375 
Q 12.40625 45 10.09375 40.796875 
L 4.703125 46.40625 
Q 6 48.90625 8.25 50.953125 
Q 10.5 53 13.453125 54.5 
Q 16.40625 56 19.84375 56.796875 
Q 23.296875 57.59375 27.09375 57.59375 
Q 31.796875 57.59375 35.75 56.296875 
Q 39.703125 55 42.546875 52.703125 
Q 45.40625 50.40625 46.953125 47.09375 
Q 48.5 43.796875 48.5 39.796875 
Q 48.5 36.796875 47.640625 34.09375 
Q 46.796875 31.40625 45.140625 29.203125 
Q 43.5 27 41.140625 25.546875 
Q 38.796875 24.09375 35.90625 23.59375 
" id="Raleway-Medium-33"/>
    </defs>
    <g transform="translate(89.7522005936 87.5300665336)scale(0.22 -0.22)">
     <use xlink:href="#Raleway-Medium-31"/>
     <use x="44.6999969482" xlink:href="#Raleway-Medium-33"/>
     <use x="98.9999847412" xlink:href="#Raleway-Medium-34"/>
     <use x="153.899978638" xlink:href="#Raleway-Medium-20"/>
     <use x="178.999969482" xlink:href="#Raleway-Medium-73"/>
    </g>
   </g>
   <g id="text_12">
    <!-- Yggdrasil: Impact of Individual Optimizations -->
    <defs>
     <path d="M 6.90625 40.59375 
L 6.90625 51.796875 
L 14.203125 51.796875 
L 14.203125 40.59375 
z
M 6.90625 0 
L 6.90625 11.203125 
L 14.203125 11.203125 
L 14.203125 0 
z
" id="Raleway-Medium-3a"/>
     <path d="M 8.5 0 
L 8.5 70.90625 
L 17.5 70.90625 
L 17.5 0 
z
" id="Raleway-Medium-49"/>
     <path d="M 10.296875 71 
L 31.796875 34 
L 53.5 71 
L 63.296875 71 
L 36.296875 25.90625 
L 36.296875 0 
L 27.296875 0 
L 27.296875 26.09375 
L 0.40625 71 
z
" id="Raleway-Medium-59"/>
     <path d="M 7.09375 73 
L 15.90625 73 
L 15.90625 13.5 
Q 15.90625 10.59375 17.453125 8.9375 
Q 19 7.296875 21.796875 7.296875 
Q 22.90625 7.296875 24.40625 7.640625 
Q 25.90625 8 27.203125 8.5 
L 28.59375 1.40625 
Q 26.40625 0.5 23.40625 -0.09375 
Q 20.40625 -0.703125 18.09375 -0.703125 
Q 13 -0.703125 10.046875 2.1875 
Q 7.09375 5.09375 7.09375 10.296875 
z
" id="Raleway-Medium-6c"/>
     <path d="M 2.703125 5.703125 
L 36.09375 45.796875 
L 3.59375 45.796875 
L 3.59375 52.203125 
L 45.5 52.203125 
L 45.5 46.5 
L 12.296875 6.40625 
L 45.59375 6.40625 
L 45.59375 0 
L 2.703125 0 
z
" id="Raleway-Medium-7a"/>
     <path d="M 37.5 -0.5 
Q 30 -0.5 23.84375 2.546875 
Q 17.703125 5.59375 13.296875 10.640625 
Q 8.90625 15.703125 6.5 22.203125 
Q 4.09375 28.703125 4.09375 35.5 
Q 4.09375 42.59375 6.640625 49.09375 
Q 9.203125 55.59375 13.703125 60.59375 
Q 18.203125 65.59375 24.34375 68.546875 
Q 30.5 71.5 37.703125 71.5 
Q 45.203125 71.5 51.296875 68.34375 
Q 57.40625 65.203125 61.796875 60.09375 
Q 66.203125 55 68.59375 48.546875 
Q 71 42.09375 71 35.40625 
Q 71 28.296875 68.453125 21.796875 
Q 65.90625 15.296875 61.453125 10.34375 
Q 57 5.40625 50.84375 2.453125 
Q 44.703125 -0.5 37.5 -0.5 
M 13.203125 35.5 
Q 13.203125 30.09375 14.953125 25.046875 
Q 16.703125 20 19.890625 16.09375 
Q 23.09375 12.203125 27.59375 9.890625 
Q 32.09375 7.59375 37.59375 7.59375 
Q 43.296875 7.59375 47.796875 10.046875 
Q 52.296875 12.5 55.4375 16.453125 
Q 58.59375 20.40625 60.25 25.40625 
Q 61.90625 30.40625 61.90625 35.5 
Q 61.90625 40.90625 60.15625 45.953125 
Q 58.40625 51 55.15625 54.84375 
Q 51.90625 58.703125 47.453125 61 
Q 43 63.296875 37.59375 63.296875 
Q 31.90625 63.296875 27.40625 60.890625 
Q 22.90625 58.5 19.75 54.59375 
Q 16.59375 50.703125 14.890625 45.703125 
Q 13.203125 40.703125 13.203125 35.5 
" id="Raleway-Medium-4f"/>
     <path d="M 22 0 
L 1.40625 52.203125 
L 10.5 52.203125 
L 27 7.703125 
L 43.59375 52.203125 
L 52 52.203125 
L 31.40625 0 
z
" id="Raleway-Medium-76"/>
     <path d="M 9.90625 0 
L 9.90625 39.203125 
L 2.796875 39.203125 
L 2.796875 46.09375 
L 9.90625 46.09375 
L 9.90625 53.296875 
Q 9.90625 63 14.203125 68.5 
Q 18.5 74 25.90625 74 
Q 29 74 32 73.140625 
Q 35 72.296875 37.40625 70.796875 
L 35.203125 64.296875 
Q 33.796875 65.296875 31.75 65.890625 
Q 29.703125 66.5 27.703125 66.5 
Q 23.296875 66.5 21 63.203125 
Q 18.703125 59.90625 18.703125 53.59375 
L 18.703125 46.09375 
L 32.59375 46.09375 
L 32.59375 39.203125 
L 18.703125 39.203125 
L 18.703125 0 
z
" id="Raleway-Medium-66"/>
    </defs>
    <g transform="translate(16.59975 45.13824)scale(0.264 -0.264)">
     <use xlink:href="#Raleway-Medium-59"/>
     <use x="63.6999969482" xlink:href="#Raleway-Medium-67"/>
     <use x="125.799987793" xlink:href="#Raleway-Medium-67"/>
     <use x="187.899978638" xlink:href="#Raleway-Medium-64"/>
     <use x="250.999969482" xlink:href="#Raleway-Medium-72"/>
     <use x="287.199966431" xlink:href="#Raleway-Medium-61"/>
     <use x="342.899963379" xlink:href="#Raleway-Medium-73"/>
     <use x="392.199951172" xlink:href="#Raleway-Medium-69"/>
     <use x="414.799942017" xlink:href="#Raleway-Medium-6c"/>
     <use x="442.799926758" xlink:href="#Raleway-Medium-3a"/>
     <use x="463.899917603" xlink:href="#Raleway-Medium-20"/>
     <use x="488.999908447" xlink:href="#Raleway-Medium-49"/>
     <use x="514.999893188" xlink:href="#Raleway-Medium-6d"/>
     <use x="606.99987793" xlink:href="#Raleway-Medium-70"/>
     <use x="668.999862671" xlink:href="#Raleway-Medium-61"/>
     <use x="724.699859619" xlink:href="#Raleway-Medium-63"/>
     <use x="780.099853516" xlink:href="#Raleway-Medium-74"/>
     <use x="814.799850464" xlink:href="#Raleway-Medium-20"/>
     <use x="839.899841309" xlink:href="#Raleway-Medium-6f"/>
     <use x="899.699829102" xlink:href="#Raleway-Medium-66"/>
     <use x="935.284194946" xlink:href="#Raleway-Medium-20"/>
     <use x="960.384185791" xlink:href="#Raleway-Medium-49"/>
     <use x="986.384170532" xlink:href="#Raleway-Medium-6e"/>
     <use x="1044.98416138" xlink:href="#Raleway-Medium-64"/>
     <use x="1108.08415222" xlink:href="#Raleway-Medium-69"/>
     <use x="1130.68414307" xlink:href="#Raleway-Medium-76"/>
     <use x="1184.08413696" xlink:href="#Raleway-Medium-69"/>
     <use x="1206.68412781" xlink:href="#Raleway-Medium-64"/>
     <use x="1269.78411865" xlink:href="#Raleway-Medium-75"/>
     <use x="1330.08410645" xlink:href="#Raleway-Medium-61"/>
     <use x="1385.78410339" xlink:href="#Raleway-Medium-6c"/>
     <use x="1413.75283813" xlink:href="#Raleway-Medium-20"/>
     <use x="1438.85282898" xlink:href="#Raleway-Medium-4f"/>
     <use x="1513.95281982" xlink:href="#Raleway-Medium-70"/>
     <use x="1575.95280457" xlink:href="#Raleway-Medium-74"/>
     <use x="1610.65280151" xlink:href="#Raleway-Medium-69"/>
     <use x="1633.25279236" xlink:href="#Raleway-Medium-6d"/>
     <use x="1725.2527771" xlink:href="#Raleway-Medium-69"/>
     <use x="1747.85276794" xlink:href="#Raleway-Medium-7a"/>
     <use x="1796.55276489" xlink:href="#Raleway-Medium-61"/>
     <use x="1852.25276184" xlink:href="#Raleway-Medium-74"/>
     <use x="1886.95275879" xlink:href="#Raleway-Medium-69"/>
     <use x="1909.55274963" xlink:href="#Raleway-Medium-6f"/>
     <use x="1969.35273743" xlink:href="#Raleway-Medium-6e"/>
     <use x="2027.95272827" xlink:href="#Raleway-Medium-73"/>
    </g>
   </g>
  </g>
 </g>
 <defs>
  <clipPath id="p0de974c418">
   <rect height="334.944" width="419.86125" x="80.85375" y="63.536"/>
  </clipPath>
 </defs>
</svg>
