<?xml version="1.0" encoding="utf-8" standalone="no"?>
<!DOCTYPE svg PUBLIC "-//W3C//DTD SVG 1.1//EN"
  "http://www.w3.org/Graphics/SVG/1.1/DTD/svg11.dtd">
<!-- Created with matplotlib (http://matplotlib.org/) -->
<svg height="432pt" version="1.1" viewBox="0 0 576 432" width="576pt" xmlns="http://www.w3.org/2000/svg" xmlns:xlink="http://www.w3.org/1999/xlink">
 <defs>
  <style type="text/css">
*{stroke-linecap:butt;stroke-linejoin:round;stroke-miterlimit:100000;}
  </style>
 </defs>
 <g id="figure_1">
  <g id="patch_1">
   <path d="M 0 432 
L 576 432 
L 576 0 
L 0 0 
L 0 432 
z
" style="fill:none;"/>
  </g>
  <g id="axes_1">
   <g id="patch_2">
    <path d="M 72 388.8 
L 518.4 388.8 
L 518.4 43.2 
L 72 43.2 
L 72 388.8 
z
" style="fill:none;"/>
   </g>
   <g id="line2d_1">
    <path clip-path="url(#p191988a1a5)" d="M 72 375.564739 
L 133.647413 334.609535 
L 194.491663 293.921375 
L 255.01509 253.180332 
L 315.713406 212.05321 
L 377.115054 170.180224 
L 439.817701 127.149708 
L 504.531821 82.467416 
L 518.4 72.858029 
L 518.4 72.858029 
" style="fill:none;stroke:#0000ff;stroke-linecap:square;"/>
   </g>
   <g id="patch_3">
    <path d="M 72 43.2 
L 518.4 43.2 
" style="fill:none;stroke:#000000;stroke-linecap:square;stroke-linejoin:miter;"/>
   </g>
   <g id="patch_4">
    <path d="M 518.4 388.8 
L 518.4 43.2 
" style="fill:none;stroke:#000000;stroke-linecap:square;stroke-linejoin:miter;"/>
   </g>
   <g id="patch_5">
    <path d="M 72 388.8 
L 518.4 388.8 
" style="fill:none;stroke:#000000;stroke-linecap:square;stroke-linejoin:miter;"/>
   </g>
   <g id="patch_6">
    <path d="M 72 388.8 
L 72 43.2 
" style="fill:none;stroke:#000000;stroke-linecap:square;stroke-linejoin:miter;"/>
   </g>
   <g id="matplotlib.axis_1">
    <g id="xtick_1">
     <g id="line2d_2">
      <path clip-path="url(#p191988a1a5)" d="M 72 388.8 
L 72 43.2 
" style="fill:none;stroke:#000000;stroke-dasharray:1.000000,3.000000;stroke-dashoffset:0.0;stroke-width:0.5;"/>
     </g>
     <g id="line2d_3">
      <defs>
       <path d="M 0 0 
L 0 -4 
" id="me7d1d40a93" style="stroke:#000000;stroke-width:0.5;"/>
      </defs>
      <g>
       <use style="stroke:#000000;stroke-width:0.5;" x="72.0" xlink:href="#me7d1d40a93" y="388.8"/>
      </g>
     </g>
     <g id="line2d_4">
      <defs>
       <path d="M 0 0 
L 0 4 
" id="m12477f30ba" style="stroke:#000000;stroke-width:0.5;"/>
      </defs>
      <g>
       <use style="stroke:#000000;stroke-width:0.5;" x="72.0" xlink:href="#m12477f30ba" y="43.2"/>
      </g>
     </g>
    </g>
    <g id="xtick_2">
     <g id="line2d_5">
      <path clip-path="url(#p191988a1a5)" d="M 181.212002 388.8 
L 181.212002 43.2 
" style="fill:none;stroke:#000000;stroke-dasharray:1.000000,3.000000;stroke-dashoffset:0.0;stroke-width:0.5;"/>
     </g>
     <g id="line2d_6">
      <g>
       <use style="stroke:#000000;stroke-width:0.5;" x="181.212002002" xlink:href="#me7d1d40a93" y="388.8"/>
      </g>
     </g>
     <g id="line2d_7">
      <g>
       <use style="stroke:#000000;stroke-width:0.5;" x="181.212002002" xlink:href="#m12477f30ba" y="43.2"/>
      </g>
     </g>
     <g id="text_1">
      <!-- $n$ -->
      <defs>
       <path d="M 7.71875 1.703125 
Q 7.71875 2.296875 7.8125 2.59375 
L 15.28125 32.421875 
Q 16.015625 35.203125 16.015625 37.3125 
Q 16.015625 41.609375 13.09375 41.609375 
Q 9.96875 41.609375 8.453125 37.859375 
Q 6.9375 34.125 5.515625 28.421875 
Q 5.515625 28.125 5.21875 27.953125 
Q 4.9375 27.78125 4.6875 27.78125 
L 3.515625 27.78125 
Q 3.171875 27.78125 2.921875 28.140625 
Q 2.6875 28.515625 2.6875 28.8125 
Q 3.765625 33.15625 4.765625 36.171875 
Q 5.765625 39.203125 7.890625 41.6875 
Q 10.015625 44.1875 13.1875 44.1875 
Q 16.9375 44.1875 19.8125 41.8125 
Q 22.703125 39.453125 22.703125 35.796875 
Q 25.6875 39.703125 29.6875 41.9375 
Q 33.6875 44.1875 38.1875 44.1875 
Q 41.75 44.1875 44.328125 42.96875 
Q 46.921875 41.75 48.359375 39.28125 
Q 49.8125 36.8125 49.8125 33.40625 
Q 49.8125 29.296875 47.96875 23.484375 
Q 46.140625 17.671875 43.40625 10.5 
Q 42 7.234375 42 4.5 
Q 42 1.515625 44.28125 1.515625 
Q 48.1875 1.515625 50.796875 5.703125 
Q 53.421875 9.90625 54.5 14.703125 
Q 54.6875 15.28125 55.328125 15.28125 
L 56.5 15.28125 
Q 56.890625 15.28125 57.15625 15.03125 
Q 57.421875 14.796875 57.421875 14.40625 
Q 57.421875 14.3125 57.328125 14.109375 
Q 55.953125 8.453125 52.5625 3.65625 
Q 49.171875 -1.125 44.09375 -1.125 
Q 40.578125 -1.125 38.078125 1.296875 
Q 35.59375 3.71875 35.59375 7.171875 
Q 35.59375 9.03125 36.375 11.078125 
Q 37.640625 14.359375 39.28125 18.890625 
Q 40.921875 23.4375 41.96875 27.578125 
Q 43.015625 31.734375 43.015625 34.90625 
Q 43.015625 37.703125 41.859375 39.65625 
Q 40.71875 41.609375 37.984375 41.609375 
Q 34.328125 41.609375 31.25 39.984375 
Q 28.171875 38.375 25.875 35.71875 
Q 23.578125 33.0625 21.6875 29.390625 
L 14.890625 2.203125 
Q 14.546875 0.828125 13.34375 -0.140625 
Q 12.15625 -1.125 10.6875 -1.125 
Q 9.46875 -1.125 8.59375 -0.34375 
Q 7.71875 0.4375 7.71875 1.703125 
" id="Cmmi10-6e"/>
      </defs>
      <g transform="translate(176.637002002 403.75)scale(0.15 -0.15)">
       <use transform="translate(0.0 0.8125)" xlink:href="#Cmmi10-6e"/>
      </g>
     </g>
    </g>
    <g id="xtick_3">
     <g id="line2d_8">
      <path clip-path="url(#p191988a1a5)" d="M 245.096928 388.8 
L 245.096928 43.2 
" style="fill:none;stroke:#000000;stroke-dasharray:1.000000,3.000000;stroke-dashoffset:0.0;stroke-width:0.5;"/>
     </g>
     <g id="line2d_9">
      <g>
       <use style="stroke:#000000;stroke-width:0.5;" x="245.096927801" xlink:href="#me7d1d40a93" y="388.8"/>
      </g>
     </g>
     <g id="line2d_10">
      <g>
       <use style="stroke:#000000;stroke-width:0.5;" x="245.096927801" xlink:href="#m12477f30ba" y="43.2"/>
      </g>
     </g>
    </g>
    <g id="xtick_4">
     <g id="line2d_11">
      <path clip-path="url(#p191988a1a5)" d="M 290.424004 388.8 
L 290.424004 43.2 
" style="fill:none;stroke:#000000;stroke-dasharray:1.000000,3.000000;stroke-dashoffset:0.0;stroke-width:0.5;"/>
     </g>
     <g id="line2d_12">
      <g>
       <use style="stroke:#000000;stroke-width:0.5;" x="290.424004003" xlink:href="#me7d1d40a93" y="388.8"/>
      </g>
     </g>
     <g id="line2d_13">
      <g>
       <use style="stroke:#000000;stroke-width:0.5;" x="290.424004003" xlink:href="#m12477f30ba" y="43.2"/>
      </g>
     </g>
    </g>
    <g id="xtick_5">
     <g id="line2d_14">
      <path clip-path="url(#p191988a1a5)" d="M 325.582416 388.8 
L 325.582416 43.2 
" style="fill:none;stroke:#000000;stroke-dasharray:1.000000,3.000000;stroke-dashoffset:0.0;stroke-width:0.5;"/>
     </g>
     <g id="line2d_15">
      <g>
       <use style="stroke:#000000;stroke-width:0.5;" x="325.582415746" xlink:href="#me7d1d40a93" y="388.8"/>
      </g>
     </g>
     <g id="line2d_16">
      <g>
       <use style="stroke:#000000;stroke-width:0.5;" x="325.582415746" xlink:href="#m12477f30ba" y="43.2"/>
      </g>
     </g>
     <g id="text_2">
      <!-- $2n$ -->
      <defs>
       <path d="M 4.984375 0 
L 4.984375 2.6875 
Q 4.984375 2.9375 5.171875 3.21875 
L 20.703125 20.40625 
Q 24.21875 24.21875 26.40625 26.796875 
Q 28.609375 29.390625 30.75 32.765625 
Q 32.90625 36.140625 34.15625 39.625 
Q 35.40625 43.109375 35.40625 47.015625 
Q 35.40625 51.125 33.890625 54.859375 
Q 32.375 58.59375 29.375 60.84375 
Q 26.375 63.09375 22.125 63.09375 
Q 17.78125 63.09375 14.3125 60.46875 
Q 10.84375 57.859375 9.421875 53.71875 
Q 9.8125 53.8125 10.5 53.8125 
Q 12.75 53.8125 14.328125 52.296875 
Q 15.921875 50.78125 15.921875 48.390625 
Q 15.921875 46.09375 14.328125 44.5 
Q 12.75 42.921875 10.5 42.921875 
Q 8.15625 42.921875 6.5625 44.546875 
Q 4.984375 46.1875 4.984375 48.390625 
Q 4.984375 52.15625 6.390625 55.4375 
Q 7.8125 58.734375 10.46875 61.296875 
Q 13.140625 63.875 16.484375 65.234375 
Q 19.828125 66.609375 23.578125 66.609375 
Q 29.296875 66.609375 34.21875 64.1875 
Q 39.15625 61.765625 42.03125 57.34375 
Q 44.921875 52.9375 44.921875 47.015625 
Q 44.921875 42.671875 43.015625 38.765625 
Q 41.109375 34.859375 38.125 31.65625 
Q 35.15625 28.46875 30.515625 24.40625 
Q 25.875 20.359375 24.421875 19 
L 13.09375 8.109375 
L 22.703125 8.109375 
Q 29.78125 8.109375 34.546875 8.21875 
Q 39.3125 8.34375 39.59375 8.59375 
Q 40.765625 9.859375 42 17.828125 
L 44.921875 17.828125 
L 42.09375 0 
z
" id="Cmr10-32"/>
      </defs>
      <g transform="translate(317.257415746 403.75)scale(0.15 -0.15)">
       <use transform="translate(0.0 0.390625)" xlink:href="#Cmr10-32"/>
       <use transform="translate(50.0 0.390625)" xlink:href="#Cmmi10-6e"/>
      </g>
     </g>
    </g>
    <g id="xtick_6">
     <g id="line2d_17">
      <path clip-path="url(#p191988a1a5)" d="M 354.30893 388.8 
L 354.30893 43.2 
" style="fill:none;stroke:#000000;stroke-dasharray:1.000000,3.000000;stroke-dashoffset:0.0;stroke-width:0.5;"/>
     </g>
     <g id="line2d_18">
      <g>
       <use style="stroke:#000000;stroke-width:0.5;" x="354.308929803" xlink:href="#me7d1d40a93" y="388.8"/>
      </g>
     </g>
     <g id="line2d_19">
      <g>
       <use style="stroke:#000000;stroke-width:0.5;" x="354.308929803" xlink:href="#m12477f30ba" y="43.2"/>
      </g>
     </g>
    </g>
    <g id="xtick_7">
     <g id="line2d_20">
      <path clip-path="url(#p191988a1a5)" d="M 378.596851 388.8 
L 378.596851 43.2 
" style="fill:none;stroke:#000000;stroke-dasharray:1.000000,3.000000;stroke-dashoffset:0.0;stroke-width:0.5;"/>
     </g>
     <g id="line2d_21">
      <g>
       <use style="stroke:#000000;stroke-width:0.5;" x="378.596851367" xlink:href="#me7d1d40a93" y="388.8"/>
      </g>
     </g>
     <g id="line2d_22">
      <g>
       <use style="stroke:#000000;stroke-width:0.5;" x="378.596851367" xlink:href="#m12477f30ba" y="43.2"/>
      </g>
     </g>
    </g>
    <g id="xtick_8">
     <g id="line2d_23">
      <path clip-path="url(#p191988a1a5)" d="M 399.636006 388.8 
L 399.636006 43.2 
" style="fill:none;stroke:#000000;stroke-dasharray:1.000000,3.000000;stroke-dashoffset:0.0;stroke-width:0.5;"/>
     </g>
     <g id="line2d_24">
      <g>
       <use style="stroke:#000000;stroke-width:0.5;" x="399.636006005" xlink:href="#me7d1d40a93" y="388.8"/>
      </g>
     </g>
     <g id="line2d_25">
      <g>
       <use style="stroke:#000000;stroke-width:0.5;" x="399.636006005" xlink:href="#m12477f30ba" y="43.2"/>
      </g>
     </g>
     <g id="text_3">
      <!-- $4n$ -->
      <defs>
       <path d="M 2.78125 16.5 
L 2.78125 20.015625 
L 33.6875 66.109375 
Q 34.03125 66.609375 34.71875 66.609375 
L 36.1875 66.609375 
Q 37.3125 66.609375 37.3125 65.484375 
L 37.3125 20.015625 
L 47.125 20.015625 
L 47.125 16.5 
L 37.3125 16.5 
L 37.3125 6.6875 
Q 37.3125 4.640625 40.234375 4.078125 
Q 43.171875 3.515625 47.015625 3.515625 
L 47.015625 0 
L 19.484375 0 
L 19.484375 3.515625 
Q 23.34375 3.515625 26.265625 4.078125 
Q 29.203125 4.640625 29.203125 6.6875 
L 29.203125 16.5 
z
M 6.109375 20.015625 
L 29.78125 20.015625 
L 29.78125 55.421875 
z
" id="Cmr10-34"/>
      </defs>
      <g transform="translate(391.311006005 403.75)scale(0.15 -0.15)">
       <use transform="translate(0.0 0.390625)" xlink:href="#Cmr10-34"/>
       <use transform="translate(50.0 0.390625)" xlink:href="#Cmmi10-6e"/>
      </g>
     </g>
    </g>
    <g id="xtick_9">
     <g id="line2d_26">
      <path clip-path="url(#p191988a1a5)" d="M 418.193856 388.8 
L 418.193856 43.2 
" style="fill:none;stroke:#000000;stroke-dasharray:1.000000,3.000000;stroke-dashoffset:0.0;stroke-width:0.5;"/>
     </g>
     <g id="line2d_27">
      <g>
       <use style="stroke:#000000;stroke-width:0.5;" x="418.193855602" xlink:href="#me7d1d40a93" y="388.8"/>
      </g>
     </g>
     <g id="line2d_28">
      <g>
       <use style="stroke:#000000;stroke-width:0.5;" x="418.193855602" xlink:href="#m12477f30ba" y="43.2"/>
      </g>
     </g>
    </g>
    <g id="xtick_10">
     <g id="line2d_29">
      <path clip-path="url(#p191988a1a5)" d="M 434.794418 388.8 
L 434.794418 43.2 
" style="fill:none;stroke:#000000;stroke-dasharray:1.000000,3.000000;stroke-dashoffset:0.0;stroke-width:0.5;"/>
     </g>
     <g id="line2d_30">
      <g>
       <use style="stroke:#000000;stroke-width:0.5;" x="434.794417748" xlink:href="#me7d1d40a93" y="388.8"/>
      </g>
     </g>
     <g id="line2d_31">
      <g>
       <use style="stroke:#000000;stroke-width:0.5;" x="434.794417748" xlink:href="#m12477f30ba" y="43.2"/>
      </g>
     </g>
    </g>
    <g id="xtick_11">
     <g id="line2d_32">
      <path clip-path="url(#p191988a1a5)" d="M 449.811453 388.8 
L 449.811453 43.2 
" style="fill:none;stroke:#000000;stroke-dasharray:1.000000,3.000000;stroke-dashoffset:0.0;stroke-width:0.5;"/>
     </g>
     <g id="line2d_33">
      <g>
       <use style="stroke:#000000;stroke-width:0.5;" x="449.811452859" xlink:href="#me7d1d40a93" y="388.8"/>
      </g>
     </g>
     <g id="line2d_34">
      <g>
       <use style="stroke:#000000;stroke-width:0.5;" x="449.811452859" xlink:href="#m12477f30ba" y="43.2"/>
      </g>
     </g>
    </g>
    <g id="xtick_12">
     <g id="line2d_35">
      <path clip-path="url(#p191988a1a5)" d="M 463.520932 388.8 
L 463.520932 43.2 
" style="fill:none;stroke:#000000;stroke-dasharray:1.000000,3.000000;stroke-dashoffset:0.0;stroke-width:0.5;"/>
     </g>
     <g id="line2d_36">
      <g>
       <use style="stroke:#000000;stroke-width:0.5;" x="463.520931804" xlink:href="#me7d1d40a93" y="388.8"/>
      </g>
     </g>
     <g id="line2d_37">
      <g>
       <use style="stroke:#000000;stroke-width:0.5;" x="463.520931804" xlink:href="#m12477f30ba" y="43.2"/>
      </g>
     </g>
    </g>
    <g id="xtick_13">
     <g id="line2d_38">
      <path clip-path="url(#p191988a1a5)" d="M 476.13243 388.8 
L 476.13243 43.2 
" style="fill:none;stroke:#000000;stroke-dasharray:1.000000,3.000000;stroke-dashoffset:0.0;stroke-width:0.5;"/>
     </g>
     <g id="line2d_39">
      <g>
       <use style="stroke:#000000;stroke-width:0.5;" x="476.132429904" xlink:href="#me7d1d40a93" y="388.8"/>
      </g>
     </g>
     <g id="line2d_40">
      <g>
       <use style="stroke:#000000;stroke-width:0.5;" x="476.132429904" xlink:href="#m12477f30ba" y="43.2"/>
      </g>
     </g>
    </g>
    <g id="xtick_14">
     <g id="line2d_41">
      <path clip-path="url(#p191988a1a5)" d="M 487.808853 388.8 
L 487.808853 43.2 
" style="fill:none;stroke:#000000;stroke-dasharray:1.000000,3.000000;stroke-dashoffset:0.0;stroke-width:0.5;"/>
     </g>
     <g id="line2d_42">
      <g>
       <use style="stroke:#000000;stroke-width:0.5;" x="487.808853368" xlink:href="#me7d1d40a93" y="388.8"/>
      </g>
     </g>
     <g id="line2d_43">
      <g>
       <use style="stroke:#000000;stroke-width:0.5;" x="487.808853368" xlink:href="#m12477f30ba" y="43.2"/>
      </g>
     </g>
    </g>
    <g id="xtick_15">
     <g id="line2d_44">
      <path clip-path="url(#p191988a1a5)" d="M 498.679344 388.8 
L 498.679344 43.2 
" style="fill:none;stroke:#000000;stroke-dasharray:1.000000,3.000000;stroke-dashoffset:0.0;stroke-width:0.5;"/>
     </g>
     <g id="line2d_45">
      <g>
       <use style="stroke:#000000;stroke-width:0.5;" x="498.679343548" xlink:href="#me7d1d40a93" y="388.8"/>
      </g>
     </g>
     <g id="line2d_46">
      <g>
       <use style="stroke:#000000;stroke-width:0.5;" x="498.679343548" xlink:href="#m12477f30ba" y="43.2"/>
      </g>
     </g>
    </g>
    <g id="xtick_16">
     <g id="line2d_47">
      <path clip-path="url(#p191988a1a5)" d="M 508.848008 388.8 
L 508.848008 43.2 
" style="fill:none;stroke:#000000;stroke-dasharray:1.000000,3.000000;stroke-dashoffset:0.0;stroke-width:0.5;"/>
     </g>
     <g id="line2d_48">
      <g>
       <use style="stroke:#000000;stroke-width:0.5;" x="508.848008006" xlink:href="#me7d1d40a93" y="388.8"/>
      </g>
     </g>
     <g id="line2d_49">
      <g>
       <use style="stroke:#000000;stroke-width:0.5;" x="508.848008006" xlink:href="#m12477f30ba" y="43.2"/>
      </g>
     </g>
     <g id="text_4">
      <!-- $8n$ -->
      <defs>
       <path d="M 4.203125 15.1875 
Q 4.203125 21.1875 8.15625 25.796875 
Q 12.109375 30.421875 18.3125 33.5 
L 14.59375 35.890625 
Q 11.1875 38.140625 9.03125 41.875 
Q 6.890625 45.609375 6.890625 49.703125 
Q 6.890625 54.5 9.40625 58.34375 
Q 11.921875 62.203125 16.09375 64.40625 
Q 20.265625 66.609375 25 66.609375 
Q 29.4375 66.609375 33.5625 64.796875 
Q 37.703125 62.984375 40.359375 59.609375 
Q 43.015625 56.25 43.015625 51.609375 
Q 43.015625 48.25 41.421875 45.359375 
Q 39.84375 42.484375 37.078125 40.1875 
Q 34.328125 37.890625 31.203125 36.28125 
L 36.921875 32.625 
Q 40.875 30.03125 43.28125 25.828125 
Q 45.703125 21.625 45.703125 17 
Q 45.703125 11.578125 42.796875 7.125 
Q 39.890625 2.6875 35.109375 0.234375 
Q 30.328125 -2.203125 25 -2.203125 
Q 19.828125 -2.203125 15.015625 -0.09375 
Q 10.203125 2 7.203125 5.984375 
Q 4.203125 9.96875 4.203125 15.1875 
M 9.625 15.1875 
Q 9.625 11.234375 11.796875 7.953125 
Q 13.96875 4.6875 17.53125 2.828125 
Q 21.09375 0.984375 25 0.984375 
Q 30.8125 0.984375 35.546875 4.375 
Q 40.28125 7.765625 40.28125 13.375 
Q 40.28125 15.28125 39.515625 17.15625 
Q 38.765625 19.046875 37.421875 20.578125 
Q 36.078125 22.125 34.421875 23.09375 
L 21 31.78125 
Q 17.875 30.125 15.25 27.578125 
Q 12.640625 25.046875 11.125 21.875 
Q 9.625 18.703125 9.625 15.1875 
M 16.5 45.703125 
L 28.609375 37.890625 
Q 32.8125 40.328125 35.5 43.796875 
Q 38.1875 47.265625 38.1875 51.609375 
Q 38.1875 54.984375 36.296875 57.78125 
Q 34.421875 60.59375 31.390625 62.15625 
Q 28.375 63.71875 24.90625 63.71875 
Q 21.875 63.71875 18.796875 62.546875 
Q 15.71875 61.375 13.71875 59.046875 
Q 11.71875 56.734375 11.71875 53.609375 
Q 11.71875 48.921875 16.5 45.703125 
" id="Cmr10-38"/>
      </defs>
      <g transform="translate(500.523008006 403.75)scale(0.15 -0.15)">
       <use transform="translate(0.0 0.390625)" xlink:href="#Cmr10-38"/>
       <use transform="translate(50.0 0.390625)" xlink:href="#Cmmi10-6e"/>
      </g>
     </g>
    </g>
    <g id="xtick_17">
     <g id="line2d_50">
      <defs>
       <path d="M 0 0 
L 0 -2 
" id="mea8bfd0c76" style="stroke:#000000;stroke-width:0.5;"/>
      </defs>
      <g>
       <use style="stroke:#000000;stroke-width:0.5;" x="72.0" xlink:href="#mea8bfd0c76" y="388.8"/>
      </g>
     </g>
     <g id="line2d_51">
      <defs>
       <path d="M 0 0 
L 0 2 
" id="m847a5e5afb" style="stroke:#000000;stroke-width:0.5;"/>
      </defs>
      <g>
       <use style="stroke:#000000;stroke-width:0.5;" x="72.0" xlink:href="#m847a5e5afb" y="43.2"/>
      </g>
     </g>
    </g>
    <g id="xtick_18">
     <g id="line2d_52">
      <g>
       <use style="stroke:#000000;stroke-width:0.5;" x="100.726514056" xlink:href="#mea8bfd0c76" y="388.8"/>
      </g>
     </g>
     <g id="line2d_53">
      <g>
       <use style="stroke:#000000;stroke-width:0.5;" x="100.726514056" xlink:href="#m847a5e5afb" y="43.2"/>
      </g>
     </g>
    </g>
    <g id="xtick_19">
     <g id="line2d_54">
      <g>
       <use style="stroke:#000000;stroke-width:0.5;" x="125.014435621" xlink:href="#mea8bfd0c76" y="388.8"/>
      </g>
     </g>
     <g id="line2d_55">
      <g>
       <use style="stroke:#000000;stroke-width:0.5;" x="125.014435621" xlink:href="#m847a5e5afb" y="43.2"/>
      </g>
     </g>
    </g>
    <g id="xtick_20">
     <g id="line2d_56">
      <g>
       <use style="stroke:#000000;stroke-width:0.5;" x="146.053590258" xlink:href="#mea8bfd0c76" y="388.8"/>
      </g>
     </g>
     <g id="line2d_57">
      <g>
       <use style="stroke:#000000;stroke-width:0.5;" x="146.053590258" xlink:href="#m847a5e5afb" y="43.2"/>
      </g>
     </g>
    </g>
    <g id="xtick_21">
     <g id="line2d_58">
      <g>
       <use style="stroke:#000000;stroke-width:0.5;" x="164.611439856" xlink:href="#mea8bfd0c76" y="388.8"/>
      </g>
     </g>
     <g id="line2d_59">
      <g>
       <use style="stroke:#000000;stroke-width:0.5;" x="164.611439856" xlink:href="#m847a5e5afb" y="43.2"/>
      </g>
     </g>
    </g>
    <g id="xtick_22">
     <g id="line2d_60">
      <g>
       <use style="stroke:#000000;stroke-width:0.5;" x="290.424004003" xlink:href="#mea8bfd0c76" y="388.8"/>
      </g>
     </g>
     <g id="line2d_61">
      <g>
       <use style="stroke:#000000;stroke-width:0.5;" x="290.424004003" xlink:href="#m847a5e5afb" y="43.2"/>
      </g>
     </g>
    </g>
    <g id="xtick_23">
     <g id="line2d_62">
      <g>
       <use style="stroke:#000000;stroke-width:0.5;" x="354.308929803" xlink:href="#mea8bfd0c76" y="388.8"/>
      </g>
     </g>
     <g id="line2d_63">
      <g>
       <use style="stroke:#000000;stroke-width:0.5;" x="354.308929803" xlink:href="#m847a5e5afb" y="43.2"/>
      </g>
     </g>
    </g>
    <g id="xtick_24">
     <g id="line2d_64">
      <g>
       <use style="stroke:#000000;stroke-width:0.5;" x="399.636006005" xlink:href="#mea8bfd0c76" y="388.8"/>
      </g>
     </g>
     <g id="line2d_65">
      <g>
       <use style="stroke:#000000;stroke-width:0.5;" x="399.636006005" xlink:href="#m847a5e5afb" y="43.2"/>
      </g>
     </g>
    </g>
    <g id="xtick_25">
     <g id="line2d_66">
      <g>
       <use style="stroke:#000000;stroke-width:0.5;" x="434.794417748" xlink:href="#mea8bfd0c76" y="388.8"/>
      </g>
     </g>
     <g id="line2d_67">
      <g>
       <use style="stroke:#000000;stroke-width:0.5;" x="434.794417748" xlink:href="#m847a5e5afb" y="43.2"/>
      </g>
     </g>
    </g>
    <g id="xtick_26">
     <g id="line2d_68">
      <g>
       <use style="stroke:#000000;stroke-width:0.5;" x="463.520931804" xlink:href="#mea8bfd0c76" y="388.8"/>
      </g>
     </g>
     <g id="line2d_69">
      <g>
       <use style="stroke:#000000;stroke-width:0.5;" x="463.520931804" xlink:href="#m847a5e5afb" y="43.2"/>
      </g>
     </g>
    </g>
    <g id="xtick_27">
     <g id="line2d_70">
      <g>
       <use style="stroke:#000000;stroke-width:0.5;" x="487.808853368" xlink:href="#mea8bfd0c76" y="388.8"/>
      </g>
     </g>
     <g id="line2d_71">
      <g>
       <use style="stroke:#000000;stroke-width:0.5;" x="487.808853368" xlink:href="#m847a5e5afb" y="43.2"/>
      </g>
     </g>
    </g>
    <g id="xtick_28">
     <g id="line2d_72">
      <g>
       <use style="stroke:#000000;stroke-width:0.5;" x="508.848008006" xlink:href="#mea8bfd0c76" y="388.8"/>
      </g>
     </g>
     <g id="line2d_73">
      <g>
       <use style="stroke:#000000;stroke-width:0.5;" x="508.848008006" xlink:href="#m847a5e5afb" y="43.2"/>
      </g>
     </g>
    </g>
    <g id="text_5">
     <!-- Num. Instances, Log Scale -->
     <defs>
      <path d="M 4.796875 -1.59375 
Q 5.5 -1.59375 6.390625 -1.140625 
Q 7.296875 -0.703125 7.296875 0.796875 
L 7.296875 11.203125 
L 14.59375 11.203125 
L 14.59375 -0.59375 
Q 14.59375 -2.703125 13.6875 -4.140625 
Q 12.796875 -5.59375 11.390625 -6.4375 
Q 10 -7.296875 8.25 -7.6875 
Q 6.5 -8.09375 4.796875 -8.09375 
z
" id="Raleway-Medium-2c"/>
      <path d="M 6.296875 0 
L 6.296875 11.203125 
L 13.703125 11.203125 
L 13.703125 0 
z
" id="Raleway-Medium-2e"/>
      <path d="M 27.796875 -0.59375 
Q 22.5 -0.59375 18.046875 1.59375 
Q 13.59375 3.796875 10.390625 7.5 
Q 7.203125 11.203125 5.453125 16 
Q 3.703125 20.796875 3.703125 26 
Q 3.703125 31.5 5.453125 36.453125 
Q 7.203125 41.40625 10.390625 45.09375 
Q 13.59375 48.796875 18.046875 50.9375 
Q 22.5 53.09375 27.90625 53.09375 
Q 34.5 53.09375 39.296875 49.890625 
Q 44.09375 46.703125 47.40625 41.796875 
L 47.40625 52.203125 
L 55.203125 52.203125 
L 55.203125 0.59375 
Q 55.203125 -5 53.09375 -9.25 
Q 51 -13.5 47.390625 -16.390625 
Q 43.796875 -19.296875 38.9375 -20.796875 
Q 34.09375 -22.296875 28.59375 -22.296875 
Q 19.703125 -22.296875 14.140625 -19.25 
Q 8.59375 -16.203125 4.90625 -10.796875 
L 10 -6.296875 
Q 13.09375 -10.90625 18 -13.203125 
Q 22.90625 -15.5 28.59375 -15.5 
Q 32.203125 -15.5 35.453125 -14.5 
Q 38.703125 -13.5 41.09375 -11.5 
Q 43.5 -9.5 44.953125 -6.5 
Q 46.40625 -3.5 46.40625 0.59375 
L 46.40625 9.796875 
Q 44.90625 7.40625 42.84375 5.453125 
Q 40.796875 3.5 38.390625 2.140625 
Q 36 0.796875 33.296875 0.09375 
Q 30.59375 -0.59375 27.796875 -0.59375 
M 30.5 6.59375 
Q 33.296875 6.59375 35.890625 7.59375 
Q 38.5 8.59375 40.703125 10.25 
Q 42.90625 11.90625 44.40625 14 
Q 45.90625 16.09375 46.40625 18.296875 
L 46.40625 33.296875 
Q 45.296875 36 43.546875 38.203125 
Q 41.796875 40.40625 39.59375 42.046875 
Q 37.40625 43.703125 34.84375 44.59375 
Q 32.296875 45.5 29.703125 45.5 
Q 25.703125 45.5 22.546875 43.796875 
Q 19.40625 42.09375 17.203125 39.296875 
Q 15 36.5 13.796875 32.953125 
Q 12.59375 29.40625 12.59375 25.796875 
Q 12.59375 21.90625 14 18.40625 
Q 15.40625 14.90625 17.796875 12.296875 
Q 20.203125 9.703125 23.453125 8.140625 
Q 26.703125 6.59375 30.5 6.59375 
" id="Raleway-Medium-67"/>
      <path d="M 50.40625 56.09375 
Q 49.203125 57.5 47.203125 58.796875 
Q 45.203125 60.09375 42.703125 61.140625 
Q 40.203125 62.203125 37.25 62.84375 
Q 34.296875 63.5 31.09375 63.5 
Q 22.796875 63.5 18.9375 60.390625 
Q 15.09375 57.296875 15.09375 51.90625 
Q 15.09375 49 16.1875 47.09375 
Q 17.296875 45.203125 19.640625 43.84375 
Q 22 42.5 25.5 41.5 
Q 29 40.5 33.796875 39.40625 
Q 39.296875 38.203125 43.75 36.640625 
Q 48.203125 35.09375 51.34375 32.796875 
Q 54.5 30.5 56.140625 27.203125 
Q 57.796875 23.90625 57.796875 19.09375 
Q 57.796875 14 55.796875 10.25 
Q 53.796875 6.5 50.34375 4.046875 
Q 46.90625 1.59375 42.203125 0.4375 
Q 37.5 -0.703125 32 -0.703125 
Q 23.796875 -0.703125 16.4375 1.84375 
Q 9.09375 4.40625 3.09375 9.296875 
L 7.40625 16.90625 
Q 9 15.203125 11.546875 13.5 
Q 14.09375 11.796875 17.34375 10.4375 
Q 20.59375 9.09375 24.34375 8.25 
Q 28.09375 7.40625 32.203125 7.40625 
Q 39.796875 7.40625 44 10.09375 
Q 48.203125 12.796875 48.203125 18.203125 
Q 48.203125 21.203125 46.84375 23.25 
Q 45.5 25.296875 42.890625 26.796875 
Q 40.296875 28.296875 36.4375 29.4375 
Q 32.59375 30.59375 27.703125 31.796875 
Q 22.296875 33.09375 18.1875 34.59375 
Q 14.09375 36.09375 11.34375 38.1875 
Q 8.59375 40.296875 7.1875 43.296875 
Q 5.796875 46.296875 5.796875 50.5 
Q 5.796875 55.59375 7.6875 59.5 
Q 9.59375 63.40625 13 66.09375 
Q 16.40625 68.796875 21.09375 70.140625 
Q 25.796875 71.5 31.296875 71.5 
Q 38.5 71.5 44.296875 69.296875 
Q 50.09375 67.09375 54.59375 63.40625 
z
" id="Raleway-Medium-53"/>
      <path d="M 52.203125 0 
L 43.40625 0 
L 43.40625 29.203125 
Q 43.40625 37.59375 40.84375 41.390625 
Q 38.296875 45.203125 33.09375 45.203125 
Q 30.40625 45.203125 27.703125 44.140625 
Q 25 43.09375 22.59375 41.296875 
Q 20.203125 39.5 18.390625 37 
Q 16.59375 34.5 15.703125 31.5 
L 15.703125 0 
L 6.90625 0 
L 6.90625 52.203125 
L 14.90625 52.203125 
L 14.90625 41 
Q 18 46.5 23.84375 49.796875 
Q 29.703125 53.09375 36.59375 53.09375 
Q 41.09375 53.09375 44.09375 51.4375 
Q 47.09375 49.796875 48.890625 46.84375 
Q 50.703125 43.90625 51.453125 39.90625 
Q 52.203125 35.90625 52.203125 31.203125 
z
" id="Raleway-Medium-6e"/>
      <path d="M 85.59375 0 
L 76.796875 0 
L 76.796875 29.203125 
Q 76.796875 37.40625 74.140625 41.296875 
Q 71.5 45.203125 66.296875 45.203125 
Q 60.90625 45.203125 56.65625 41.34375 
Q 52.40625 37.5 50.59375 31.40625 
L 50.59375 0 
L 41.796875 0 
L 41.796875 29.203125 
Q 41.796875 37.59375 39.1875 41.390625 
Q 36.59375 45.203125 31.40625 45.203125 
Q 26.09375 45.203125 21.796875 41.453125 
Q 17.5 37.703125 15.703125 31.5 
L 15.703125 0 
L 6.90625 0 
L 6.90625 52.203125 
L 14.90625 52.203125 
L 14.90625 41 
Q 18.09375 46.796875 23.1875 49.9375 
Q 28.296875 53.09375 34.703125 53.09375 
Q 41.296875 53.09375 45.140625 49.546875 
Q 49 46 49.90625 40.40625 
Q 56.90625 53.09375 69.796875 53.09375 
Q 74.296875 53.09375 77.34375 51.4375 
Q 80.40625 49.796875 82.203125 46.84375 
Q 84 43.90625 84.796875 39.90625 
Q 85.59375 35.90625 85.59375 31.203125 
z
" id="Raleway-Medium-6d"/>
      <path d="M 8.5 0 
L 8.5 70.90625 
L 17.5 70.90625 
L 17.5 0 
z
" id="Raleway-Medium-49"/>
      <path d="M 29.90625 -1 
Q 24 -1 19.140625 1.203125 
Q 14.296875 3.40625 10.84375 7.09375 
Q 7.40625 10.796875 5.5 15.6875 
Q 3.59375 20.59375 3.59375 26 
Q 3.59375 31.5 5.546875 36.390625 
Q 7.5 41.296875 10.953125 45 
Q 14.40625 48.703125 19.25 50.890625 
Q 24.09375 53.09375 29.90625 53.09375 
Q 35.703125 53.09375 40.59375 50.890625 
Q 45.5 48.703125 48.953125 45 
Q 52.40625 41.296875 54.34375 36.390625 
Q 56.296875 31.5 56.296875 26 
Q 56.296875 20.59375 54.390625 15.6875 
Q 52.5 10.796875 49 7.09375 
Q 45.5 3.40625 40.640625 1.203125 
Q 35.796875 -1 29.90625 -1 
M 12.59375 25.90625 
Q 12.59375 21.796875 13.9375 18.296875 
Q 15.296875 14.796875 17.640625 12.1875 
Q 20 9.59375 23.140625 8.09375 
Q 26.296875 6.59375 29.90625 6.59375 
Q 33.5 6.59375 36.640625 8.09375 
Q 39.796875 9.59375 42.1875 12.25 
Q 44.59375 14.90625 45.9375 18.453125 
Q 47.296875 22 47.296875 26.09375 
Q 47.296875 30.09375 45.9375 33.640625 
Q 44.59375 37.203125 42.1875 39.84375 
Q 39.796875 42.5 36.640625 44 
Q 33.5 45.5 29.90625 45.5 
Q 26.296875 45.5 23.140625 43.953125 
Q 20 42.40625 17.640625 39.75 
Q 15.296875 37.09375 13.9375 33.546875 
Q 12.59375 30 12.59375 25.90625 
" id="Raleway-Medium-6f"/>
      <path d="M 7.09375 73 
L 15.90625 73 
L 15.90625 13.5 
Q 15.90625 10.59375 17.453125 8.9375 
Q 19 7.296875 21.796875 7.296875 
Q 22.90625 7.296875 24.40625 7.640625 
Q 25.90625 8 27.203125 8.5 
L 28.59375 1.40625 
Q 26.40625 0.5 23.40625 -0.09375 
Q 20.40625 -0.703125 18.09375 -0.703125 
Q 13 -0.703125 10.046875 2.1875 
Q 7.09375 5.09375 7.09375 10.296875 
z
" id="Raleway-Medium-6c"/>
      <path d="M 8.5 0 
L 8.5 71 
L 17.5 71 
L 17.5 8 
L 57.09375 8 
L 57.09375 0 
z
" id="Raleway-Medium-4c"/>
      <path id="Raleway-Medium-20"/>
      <path d="M 17.5 54.203125 
L 17.5 0 
L 8.5 0 
L 8.5 71 
L 15.5 71 
L 59.5 15.703125 
L 59.5 70.90625 
L 68.5 70.90625 
L 68.5 0 
L 60.90625 0 
z
" id="Raleway-Medium-4e"/>
      <path d="M 30.203125 -1 
Q 24.296875 -1 19.390625 1.140625 
Q 14.5 3.296875 11 7 
Q 7.5 10.703125 5.546875 15.640625 
Q 3.59375 20.59375 3.59375 26.09375 
Q 3.59375 31.59375 5.546875 36.5 
Q 7.5 41.40625 11.046875 45.09375 
Q 14.59375 48.796875 19.5 50.9375 
Q 24.40625 53.09375 30.296875 53.09375 
Q 36.203125 53.09375 41.046875 50.890625 
Q 45.90625 48.703125 49.296875 45.046875 
Q 52.703125 41.40625 54.546875 36.546875 
Q 56.40625 31.703125 56.40625 26.5 
Q 56.40625 25.40625 56.34375 24.5 
Q 56.296875 23.59375 56.203125 23.09375 
L 12.90625 23.09375 
Q 13.203125 19.203125 14.703125 16 
Q 16.203125 12.796875 18.59375 10.5 
Q 21 8.203125 24.046875 6.890625 
Q 27.09375 5.59375 30.5 5.59375 
Q 32.90625 5.59375 35.203125 6.25 
Q 37.5 6.90625 39.5 8 
Q 41.5 9.09375 43.046875 10.6875 
Q 44.59375 12.296875 45.40625 14.296875 
L 53 12.203125 
Q 51.703125 9.296875 49.453125 6.890625 
Q 47.203125 4.5 44.25 2.75 
Q 41.296875 1 37.6875 0 
Q 34.09375 -1 30.203125 -1 
M 48.09375 29.59375 
Q 47.796875 33.296875 46.25 36.4375 
Q 44.703125 39.59375 42.34375 41.796875 
Q 40 44 36.890625 45.25 
Q 33.796875 46.5 30.296875 46.5 
Q 26.796875 46.5 23.6875 45.25 
Q 20.59375 44 18.25 41.75 
Q 15.90625 39.5 14.453125 36.390625 
Q 13 33.296875 12.703125 29.59375 
z
" id="Raleway-Medium-65"/>
      <path d="M 34 2.59375 
Q 33.203125 2.203125 31.890625 1.640625 
Q 30.59375 1.09375 28.9375 0.546875 
Q 27.296875 0 25.34375 -0.34375 
Q 23.40625 -0.703125 21.296875 -0.703125 
Q 16.5 -0.703125 13 1.9375 
Q 9.5 4.59375 9.5 10.203125 
L 9.5 45.296875 
L 2.40625 45.296875 
L 2.40625 52.203125 
L 9.5 52.203125 
L 9.5 69.59375 
L 18.296875 69.59375 
L 18.296875 52.203125 
L 30 52.203125 
L 30 45.296875 
L 18.296875 45.296875 
L 18.296875 12.90625 
Q 18.5 10 20.203125 8.703125 
Q 21.90625 7.40625 24.203125 7.40625 
Q 26.796875 7.40625 28.9375 8.25 
Q 31.09375 9.09375 31.90625 9.59375 
z
" id="Raleway-Medium-74"/>
      <path d="M 23 -1 
Q 14.796875 -1 10.59375 4.5 
Q 6.40625 10 6.40625 20.90625 
L 6.40625 52.203125 
L 15.203125 52.203125 
L 15.203125 22.59375 
Q 15.203125 6.59375 26.296875 6.59375 
Q 31.703125 6.59375 36.453125 10.046875 
Q 41.203125 13.5 43.5 19.5 
L 43.5 52.203125 
L 52.296875 52.203125 
L 52.296875 10.796875 
Q 52.296875 7.703125 55.09375 7.59375 
L 55.09375 0 
Q 54 -0.203125 53.140625 -0.296875 
Q 52.296875 -0.40625 51.59375 -0.40625 
Q 48.59375 -0.40625 46.890625 1.046875 
Q 45.203125 2.5 45 4.90625 
L 44.703125 11.203125 
Q 41.203125 5.296875 35.5 2.140625 
Q 29.796875 -1 23 -1 
" id="Raleway-Medium-75"/>
      <path d="M 21 -1 
Q 17.09375 -1 13.796875 0.25 
Q 10.5 1.5 8.09375 3.640625 
Q 5.703125 5.796875 4.34375 8.75 
Q 3 11.703125 3 15 
Q 3 18.703125 4.59375 21.75 
Q 6.203125 24.796875 9.140625 26.9375 
Q 12.09375 29.09375 16.140625 30.25 
Q 20.203125 31.40625 25 31.40625 
Q 28.796875 31.40625 32.6875 30.703125 
Q 36.59375 30 39.59375 28.796875 
L 39.59375 33 
Q 39.59375 39.40625 36 43.046875 
Q 32.40625 46.703125 25.796875 46.703125 
Q 17.90625 46.703125 9.203125 40.59375 
L 6.296875 46.296875 
Q 11.40625 49.703125 16.40625 51.390625 
Q 21.40625 53.09375 26.796875 53.09375 
Q 36.796875 53.09375 42.59375 47.59375 
Q 48.40625 42.09375 48.40625 32.09375 
L 48.40625 10.796875 
Q 48.40625 7.703125 51.203125 7.59375 
L 51.203125 0 
Q 50.203125 -0.203125 49.296875 -0.296875 
Q 48.40625 -0.40625 47.59375 -0.40625 
Q 45.40625 -0.40625 43.296875 0.796875 
Q 41.203125 2 41 4.90625 
L 40.796875 8.59375 
Q 39 6.203125 36.703125 4.390625 
Q 34.40625 2.59375 31.796875 1.390625 
Q 29.203125 0.203125 26.453125 -0.390625 
Q 23.703125 -1 21 -1 
M 23.203125 5.59375 
Q 27.40625 5.59375 31.40625 7.390625 
Q 35.40625 9.203125 37.703125 11.796875 
Q 39.59375 14 39.59375 15.90625 
L 39.59375 23.59375 
Q 36.5 24.796875 33.046875 25.4375 
Q 29.59375 26.09375 26.40625 26.09375 
Q 19.59375 26.09375 15.5 23.34375 
Q 11.40625 20.59375 11.40625 15.796875 
Q 11.40625 13.796875 12.203125 11.9375 
Q 13 10.09375 14.5 8.6875 
Q 16 7.296875 18.203125 6.4375 
Q 20.40625 5.59375 23.203125 5.59375 
" id="Raleway-Medium-61"/>
      <path d="M 25.40625 -1 
Q 19.09375 -1 13 0.953125 
Q 6.90625 2.90625 2.5 6.59375 
L 6.296875 12.5 
Q 10.90625 9 15.5 7.25 
Q 20.09375 5.5 25.203125 5.5 
Q 30.90625 5.5 34.25 7.75 
Q 37.59375 10 37.59375 14.09375 
Q 37.59375 16 36.6875 17.34375 
Q 35.796875 18.703125 34 19.703125 
Q 32.203125 20.703125 29.390625 21.5 
Q 26.59375 22.296875 22.90625 23.203125 
Q 18.203125 24.40625 14.796875 25.5 
Q 11.40625 26.59375 9.203125 28.09375 
Q 7 29.59375 6 31.6875 
Q 5 33.796875 5 36.90625 
Q 5 40.796875 6.546875 43.84375 
Q 8.09375 46.90625 10.796875 48.953125 
Q 13.5 51 17.140625 52.046875 
Q 20.796875 53.09375 25 53.09375 
Q 30.90625 53.09375 36 51.1875 
Q 41.09375 49.296875 44.59375 46.203125 
L 40.59375 40.90625 
Q 37.296875 43.796875 33.1875 45.25 
Q 29.09375 46.703125 24.796875 46.703125 
Q 20 46.703125 16.640625 44.640625 
Q 13.296875 42.59375 13.296875 38.09375 
Q 13.296875 36.296875 13.9375 35.09375 
Q 14.59375 33.90625 16.09375 33 
Q 17.59375 32.09375 19.9375 31.390625 
Q 22.296875 30.703125 25.59375 29.90625 
Q 30.796875 28.703125 34.640625 27.453125 
Q 38.5 26.203125 41.046875 24.5 
Q 43.59375 22.796875 44.84375 20.5 
Q 46.09375 18.203125 46.09375 14.90625 
Q 46.09375 7.59375 40.5 3.296875 
Q 34.90625 -1 25.40625 -1 
" id="Raleway-Medium-73"/>
      <path d="M 3.59375 26.203125 
Q 3.59375 31.703125 5.5 36.59375 
Q 7.40625 41.5 10.90625 45.140625 
Q 14.40625 48.796875 19.25 50.9375 
Q 24.09375 53.09375 30.09375 53.09375 
Q 37.90625 53.09375 43.546875 49.640625 
Q 49.203125 46.203125 52.09375 40.40625 
L 43.5 37.703125 
Q 41.5 41.40625 37.890625 43.453125 
Q 34.296875 45.5 29.90625 45.5 
Q 26.296875 45.5 23.09375 44.046875 
Q 19.90625 42.59375 17.59375 40 
Q 15.296875 37.40625 13.9375 33.90625 
Q 12.59375 30.40625 12.59375 26.203125 
Q 12.59375 22.09375 14 18.5 
Q 15.40625 14.90625 17.75 12.25 
Q 20.09375 9.59375 23.25 8.09375 
Q 26.40625 6.59375 30 6.59375 
Q 32.296875 6.59375 34.546875 7.25 
Q 36.796875 7.90625 38.640625 9 
Q 40.5 10.09375 41.890625 11.546875 
Q 43.296875 13 43.90625 14.703125 
L 52.5 12.09375 
Q 51.296875 9.203125 49.140625 6.796875 
Q 47 4.40625 44.09375 2.703125 
Q 41.203125 1 37.640625 0 
Q 34.09375 -1 30.203125 -1 
Q 24.296875 -1 19.390625 1.203125 
Q 14.5 3.40625 11 7.09375 
Q 7.5 10.796875 5.546875 15.75 
Q 3.59375 20.703125 3.59375 26.203125 
" id="Raleway-Medium-63"/>
     </defs>
     <g transform="translate(196.55625 423.62453125)scale(0.16 -0.16)">
      <use xlink:href="#Raleway-Medium-4e"/>
      <use x="76.9999847412" xlink:href="#Raleway-Medium-75"/>
      <use x="137.299972534" xlink:href="#Raleway-Medium-6d"/>
      <use x="229.299957275" xlink:href="#Raleway-Medium-2e"/>
      <use x="249.299942017" xlink:href="#Raleway-Medium-20"/>
      <use x="274.399932861" xlink:href="#Raleway-Medium-49"/>
      <use x="300.399917603" xlink:href="#Raleway-Medium-6e"/>
      <use x="358.999908447" xlink:href="#Raleway-Medium-73"/>
      <use x="408.29989624" xlink:href="#Raleway-Medium-74"/>
      <use x="442.999893188" xlink:href="#Raleway-Medium-61"/>
      <use x="498.699890137" xlink:href="#Raleway-Medium-6e"/>
      <use x="557.299880981" xlink:href="#Raleway-Medium-63"/>
      <use x="612.699874878" xlink:href="#Raleway-Medium-65"/>
      <use x="671.799865723" xlink:href="#Raleway-Medium-73"/>
      <use x="721.099853516" xlink:href="#Raleway-Medium-2c"/>
      <use x="742.499847412" xlink:href="#Raleway-Medium-20"/>
      <use x="767.599838257" xlink:href="#Raleway-Medium-4c"/>
      <use x="826.584197998" xlink:href="#Raleway-Medium-6f"/>
      <use x="886.384185791" xlink:href="#Raleway-Medium-67"/>
      <use x="948.484176636" xlink:href="#Raleway-Medium-20"/>
      <use x="973.58416748" xlink:href="#Raleway-Medium-53"/>
      <use x="1034.88415527" xlink:href="#Raleway-Medium-63"/>
      <use x="1090.28414917" xlink:href="#Raleway-Medium-61"/>
      <use x="1145.98414612" xlink:href="#Raleway-Medium-6c"/>
      <use x="1173.98413086" xlink:href="#Raleway-Medium-65"/>
     </g>
    </g>
   </g>
   <g id="matplotlib.axis_2">
    <g id="ytick_1">
     <g id="line2d_74">
      <path clip-path="url(#p191988a1a5)" d="M 72 388.8 
L 518.4 388.8 
" style="fill:none;stroke:#000000;stroke-dasharray:1.000000,3.000000;stroke-dashoffset:0.0;stroke-width:0.5;"/>
     </g>
     <g id="line2d_75">
      <defs>
       <path d="M 0 0 
L 4 0 
" id="mb7c4979043" style="stroke:#000000;stroke-width:0.5;"/>
      </defs>
      <g>
       <use style="stroke:#000000;stroke-width:0.5;" x="72.0" xlink:href="#mb7c4979043" y="388.8"/>
      </g>
     </g>
     <g id="line2d_76">
      <defs>
       <path d="M 0 0 
L -4 0 
" id="m9d53c42824" style="stroke:#000000;stroke-width:0.5;"/>
      </defs>
      <g>
       <use style="stroke:#000000;stroke-width:0.5;" x="518.4" xlink:href="#m9d53c42824" y="388.8"/>
      </g>
     </g>
    </g>
    <g id="ytick_2">
     <g id="line2d_77">
      <path clip-path="url(#p191988a1a5)" d="M 72 319.68 
L 518.4 319.68 
" style="fill:none;stroke:#000000;stroke-dasharray:1.000000,3.000000;stroke-dashoffset:0.0;stroke-width:0.5;"/>
     </g>
     <g id="line2d_78">
      <g>
       <use style="stroke:#000000;stroke-width:0.5;" x="72.0" xlink:href="#mb7c4979043" y="319.68"/>
      </g>
     </g>
     <g id="line2d_79">
      <g>
       <use style="stroke:#000000;stroke-width:0.5;" x="518.4" xlink:href="#m9d53c42824" y="319.68"/>
      </g>
     </g>
     <g id="text_6">
      <!-- $D$ -->
      <defs>
       <path d="M 4.890625 0 
Q 3.90625 0 3.90625 1.3125 
Q 3.953125 1.5625 4.09375 2.171875 
Q 4.25 2.78125 4.515625 3.140625 
Q 4.78125 3.515625 5.171875 3.515625 
Q 11.28125 3.515625 13.71875 4.203125 
Q 14.984375 4.640625 15.578125 6.890625 
L 29.296875 61.8125 
Q 29.5 62.796875 29.5 63.1875 
Q 29.5 64.265625 28.328125 64.40625 
Q 26.421875 64.796875 21.09375 64.796875 
Q 20.125 64.796875 20.125 66.109375 
Q 20.171875 66.359375 20.3125 66.96875 
Q 20.453125 67.578125 20.71875 67.9375 
Q 21 68.3125 21.390625 68.3125 
L 57.328125 68.3125 
Q 64.3125 68.3125 69.53125 64.921875 
Q 74.75 61.53125 77.53125 55.78125 
Q 80.328125 50.046875 80.328125 43.109375 
Q 80.328125 35.453125 77.140625 27.78125 
Q 73.96875 20.125 68.25 13.765625 
Q 62.546875 7.421875 55.21875 3.703125 
Q 47.90625 0 40.1875 0 
z
M 23.578125 4.296875 
Q 23.578125 3.515625 27 3.515625 
L 38.625 3.515625 
Q 44.1875 3.515625 49.359375 5.8125 
Q 54.546875 8.109375 58.59375 12.109375 
Q 62.359375 15.875 65.234375 21.96875 
Q 68.109375 28.078125 69.703125 34.71875 
Q 71.296875 41.359375 71.296875 46.921875 
Q 71.296875 50.984375 70.09375 54.25 
Q 68.890625 57.515625 66.71875 59.859375 
Q 64.546875 62.203125 61.28125 63.5 
Q 58.015625 64.796875 53.90625 64.796875 
L 42.921875 64.796875 
Q 40.1875 64.796875 39.296875 64.328125 
Q 38.421875 63.875 37.703125 61.375 
L 24.03125 6.5 
Q 23.578125 5.28125 23.578125 4.296875 
" id="Cmmi10-44"/>
      </defs>
      <g transform="translate(55.55 323.557734375)scale(0.15 -0.15)">
       <use transform="translate(0.0 0.6875)" xlink:href="#Cmmi10-44"/>
      </g>
     </g>
    </g>
    <g id="ytick_3">
     <g id="line2d_80">
      <path clip-path="url(#p191988a1a5)" d="M 72 250.56 
L 518.4 250.56 
" style="fill:none;stroke:#000000;stroke-dasharray:1.000000,3.000000;stroke-dashoffset:0.0;stroke-width:0.5;"/>
     </g>
     <g id="line2d_81">
      <g>
       <use style="stroke:#000000;stroke-width:0.5;" x="72.0" xlink:href="#mb7c4979043" y="250.56"/>
      </g>
     </g>
     <g id="line2d_82">
      <g>
       <use style="stroke:#000000;stroke-width:0.5;" x="518.4" xlink:href="#m9d53c42824" y="250.56"/>
      </g>
     </g>
     <g id="text_7">
      <!-- $2D$ -->
      <g transform="translate(48.05 254.437734375)scale(0.15 -0.15)">
       <use transform="translate(0.0 0.6875)" xlink:href="#Cmr10-32"/>
       <use transform="translate(50.0 0.6875)" xlink:href="#Cmmi10-44"/>
      </g>
     </g>
    </g>
    <g id="ytick_4">
     <g id="line2d_83">
      <path clip-path="url(#p191988a1a5)" d="M 72 181.44 
L 518.4 181.44 
" style="fill:none;stroke:#000000;stroke-dasharray:1.000000,3.000000;stroke-dashoffset:0.0;stroke-width:0.5;"/>
     </g>
     <g id="line2d_84">
      <g>
       <use style="stroke:#000000;stroke-width:0.5;" x="72.0" xlink:href="#mb7c4979043" y="181.44"/>
      </g>
     </g>
     <g id="line2d_85">
      <g>
       <use style="stroke:#000000;stroke-width:0.5;" x="518.4" xlink:href="#m9d53c42824" y="181.44"/>
      </g>
     </g>
     <g id="text_8">
      <!-- $3D$ -->
      <defs>
       <path d="M 9.515625 7.71875 
Q 11.859375 4.296875 15.8125 2.640625 
Q 19.78125 0.984375 24.3125 0.984375 
Q 30.125 0.984375 32.5625 5.9375 
Q 35.015625 10.890625 35.015625 17.1875 
Q 35.015625 20.015625 34.5 22.84375 
Q 33.984375 25.6875 32.765625 28.125 
Q 31.546875 30.5625 29.421875 32.03125 
Q 27.296875 33.5 24.21875 33.5 
L 17.578125 33.5 
Q 16.703125 33.5 16.703125 34.421875 
L 16.703125 35.296875 
Q 16.703125 36.078125 17.578125 36.078125 
L 23.09375 36.53125 
Q 26.609375 36.53125 28.921875 39.15625 
Q 31.25 41.796875 32.328125 45.578125 
Q 33.40625 49.359375 33.40625 52.78125 
Q 33.40625 57.5625 31.15625 60.640625 
Q 28.90625 63.71875 24.3125 63.71875 
Q 20.515625 63.71875 17.046875 62.28125 
Q 13.578125 60.84375 11.53125 57.90625 
Q 11.71875 57.953125 11.859375 57.984375 
Q 12.015625 58.015625 12.203125 58.015625 
Q 14.453125 58.015625 15.96875 56.453125 
Q 17.484375 54.890625 17.484375 52.6875 
Q 17.484375 50.53125 15.96875 48.96875 
Q 14.453125 47.40625 12.203125 47.40625 
Q 10.015625 47.40625 8.453125 48.96875 
Q 6.890625 50.53125 6.890625 52.6875 
Q 6.890625 56.984375 9.46875 60.15625 
Q 12.0625 63.328125 16.140625 64.96875 
Q 20.21875 66.609375 24.3125 66.609375 
Q 27.34375 66.609375 30.703125 65.703125 
Q 34.078125 64.796875 36.8125 63.109375 
Q 39.546875 61.421875 41.28125 58.78125 
Q 43.015625 56.15625 43.015625 52.78125 
Q 43.015625 48.578125 41.140625 45.015625 
Q 39.265625 41.453125 35.984375 38.859375 
Q 32.71875 36.28125 28.8125 35.015625 
Q 33.15625 34.1875 37.0625 31.734375 
Q 40.96875 29.296875 43.328125 25.484375 
Q 45.703125 21.6875 45.703125 17.28125 
Q 45.703125 11.765625 42.671875 7.296875 
Q 39.65625 2.828125 34.71875 0.3125 
Q 29.78125 -2.203125 24.3125 -2.203125 
Q 19.625 -2.203125 14.90625 -0.40625 
Q 10.203125 1.375 7.203125 4.9375 
Q 4.203125 8.5 4.203125 13.484375 
Q 4.203125 15.96875 5.859375 17.625 
Q 7.515625 19.28125 10.015625 19.28125 
Q 11.625 19.28125 12.96875 18.53125 
Q 14.3125 17.78125 15.0625 16.40625 
Q 15.828125 15.046875 15.828125 13.484375 
Q 15.828125 11.03125 14.109375 9.375 
Q 12.40625 7.71875 10.015625 7.71875 
z
" id="Cmr10-33"/>
      </defs>
      <g transform="translate(48.05 185.317734375)scale(0.15 -0.15)">
       <use transform="translate(0.0 0.6875)" xlink:href="#Cmr10-33"/>
       <use transform="translate(50.0 0.6875)" xlink:href="#Cmmi10-44"/>
      </g>
     </g>
    </g>
    <g id="ytick_5">
     <g id="line2d_86">
      <path clip-path="url(#p191988a1a5)" d="M 72 112.32 
L 518.4 112.32 
" style="fill:none;stroke:#000000;stroke-dasharray:1.000000,3.000000;stroke-dashoffset:0.0;stroke-width:0.5;"/>
     </g>
     <g id="line2d_87">
      <g>
       <use style="stroke:#000000;stroke-width:0.5;" x="72.0" xlink:href="#mb7c4979043" y="112.32"/>
      </g>
     </g>
     <g id="line2d_88">
      <g>
       <use style="stroke:#000000;stroke-width:0.5;" x="518.4" xlink:href="#m9d53c42824" y="112.32"/>
      </g>
     </g>
     <g id="text_9">
      <!-- $4D$ -->
      <g transform="translate(48.05 116.197734375)scale(0.15 -0.15)">
       <use transform="translate(0.0 0.6875)" xlink:href="#Cmr10-34"/>
       <use transform="translate(50.0 0.6875)" xlink:href="#Cmmi10-44"/>
      </g>
     </g>
    </g>
    <g id="ytick_6">
     <g id="line2d_89">
      <path clip-path="url(#p191988a1a5)" d="M 72 43.2 
L 518.4 43.2 
" style="fill:none;stroke:#000000;stroke-dasharray:1.000000,3.000000;stroke-dashoffset:0.0;stroke-width:0.5;"/>
     </g>
     <g id="line2d_90">
      <g>
       <use style="stroke:#000000;stroke-width:0.5;" x="72.0" xlink:href="#mb7c4979043" y="43.2"/>
      </g>
     </g>
     <g id="line2d_91">
      <g>
       <use style="stroke:#000000;stroke-width:0.5;" x="518.4" xlink:href="#m9d53c42824" y="43.2"/>
      </g>
     </g>
     <g id="text_10">
      <!-- $5D$ -->
      <defs>
       <path d="M 8.6875 11.375 
Q 9.71875 8.453125 11.84375 6.046875 
Q 13.96875 3.65625 16.875 2.3125 
Q 19.78125 0.984375 22.90625 0.984375 
Q 30.125 0.984375 32.859375 6.59375 
Q 35.59375 12.203125 35.59375 20.21875 
Q 35.59375 23.6875 35.46875 26.046875 
Q 35.359375 28.421875 34.8125 30.609375 
Q 33.890625 34.125 31.5625 36.765625 
Q 29.25 39.40625 25.875 39.40625 
Q 22.515625 39.40625 20.09375 38.375 
Q 17.671875 37.359375 16.15625 35.984375 
Q 14.65625 34.625 13.484375 33.109375 
Q 12.3125 31.59375 12.015625 31.5 
L 10.890625 31.5 
Q 10.640625 31.5 10.265625 31.8125 
Q 9.90625 32.125 9.90625 32.421875 
L 9.90625 65.828125 
Q 9.90625 66.0625 10.21875 66.328125 
Q 10.546875 66.609375 10.890625 66.609375 
L 11.1875 66.609375 
Q 17.921875 63.375 25.484375 63.375 
Q 32.90625 63.375 39.796875 66.609375 
L 40.09375 66.609375 
Q 40.4375 66.609375 40.71875 66.359375 
Q 41.015625 66.109375 41.015625 65.828125 
L 41.015625 64.890625 
Q 41.015625 64.40625 40.828125 64.40625 
Q 37.40625 59.859375 32.25 57.3125 
Q 27.09375 54.78125 21.578125 54.78125 
Q 17.578125 54.78125 13.375 55.90625 
L 13.375 37.015625 
Q 16.703125 39.703125 19.3125 40.84375 
Q 21.921875 42 25.984375 42 
Q 31.5 42 35.859375 38.8125 
Q 40.234375 35.640625 42.578125 30.53125 
Q 44.921875 25.4375 44.921875 20.125 
Q 44.921875 14.109375 41.96875 8.984375 
Q 39.015625 3.859375 33.9375 0.828125 
Q 28.859375 -2.203125 22.90625 -2.203125 
Q 17.96875 -2.203125 13.84375 0.328125 
Q 9.71875 2.875 7.34375 7.171875 
Q 4.984375 11.46875 4.984375 16.3125 
Q 4.984375 18.5625 6.4375 19.96875 
Q 7.90625 21.390625 10.109375 21.390625 
Q 12.3125 21.390625 13.796875 19.9375 
Q 15.28125 18.5 15.28125 16.3125 
Q 15.28125 14.15625 13.796875 12.671875 
Q 12.3125 11.1875 10.109375 11.1875 
Q 9.765625 11.1875 9.328125 11.25 
Q 8.890625 11.328125 8.6875 11.375 
" id="Cmr10-35"/>
      </defs>
      <g transform="translate(48.05 47.077734375)scale(0.15 -0.15)">
       <use transform="translate(0.0 0.6875)" xlink:href="#Cmr10-35"/>
       <use transform="translate(50.0 0.6875)" xlink:href="#Cmmi10-44"/>
      </g>
     </g>
    </g>
    <g id="text_11">
     <!-- Tree Depth -->
     <defs>
      <path d="M 59.796875 63 
L 35.296875 63 
L 35.296875 0 
L 26.296875 0 
L 26.296875 63 
L 1.796875 63 
L 1.796875 71 
L 59.796875 71 
z
" id="Raleway-Medium-54"/>
      <path d="M 34.5 44.5 
Q 27.90625 44.296875 22.84375 41.09375 
Q 17.796875 37.90625 15.703125 32.203125 
L 15.703125 0 
L 6.90625 0 
L 6.90625 52.203125 
L 15.09375 52.203125 
L 15.09375 40.09375 
Q 17.796875 45.5 22.1875 49.046875 
Q 26.59375 52.59375 31.59375 52.59375 
Q 32.59375 52.59375 33.296875 52.59375 
Q 34 52.59375 34.5 52.5 
z
" id="Raleway-Medium-72"/>
      <path d="M 52.203125 0 
L 43.40625 0 
L 43.40625 29.203125 
Q 43.40625 37.296875 40.59375 41.25 
Q 37.796875 45.203125 32.40625 45.203125 
Q 29.796875 45.203125 27.1875 44.140625 
Q 24.59375 43.09375 22.34375 41.296875 
Q 20.09375 39.5 18.34375 37 
Q 16.59375 34.5 15.703125 31.5 
L 15.703125 0 
L 6.90625 0 
L 6.90625 73 
L 15.703125 73 
L 15.703125 41 
Q 18.796875 46.703125 24.09375 49.890625 
Q 29.40625 53.09375 35.703125 53.09375 
Q 40.296875 53.09375 43.5 51.390625 
Q 46.703125 49.703125 48.59375 46.796875 
Q 50.5 43.90625 51.34375 39.84375 
Q 52.203125 35.796875 52.203125 31.203125 
z
" id="Raleway-Medium-68"/>
      <path d="M 35 -1 
Q 28.5 -1 23.546875 2.203125 
Q 18.59375 5.40625 15.703125 10.296875 
L 15.703125 -21.296875 
L 6.90625 -21.296875 
L 6.90625 52.203125 
L 14.703125 52.203125 
L 14.703125 42.40625 
Q 17.796875 47.203125 22.75 50.140625 
Q 27.703125 53.09375 33.703125 53.09375 
Q 39.09375 53.09375 43.59375 50.890625 
Q 48.09375 48.703125 51.390625 44.953125 
Q 54.703125 41.203125 56.546875 36.296875 
Q 58.40625 31.40625 58.40625 26.09375 
Q 58.40625 20.5 56.703125 15.546875 
Q 55 10.59375 51.890625 6.9375 
Q 48.796875 3.296875 44.5 1.140625 
Q 40.203125 -1 35 -1 
M 32.296875 6.59375 
Q 36.203125 6.59375 39.34375 8.25 
Q 42.5 9.90625 44.75 12.65625 
Q 47 15.40625 48.203125 18.90625 
Q 49.40625 22.40625 49.40625 26.09375 
Q 49.40625 30 48 33.546875 
Q 46.59375 37.09375 44.1875 39.75 
Q 41.796875 42.40625 38.546875 43.953125 
Q 35.296875 45.5 31.5 45.5 
Q 29.09375 45.5 26.546875 44.546875 
Q 24 43.59375 21.75 42.046875 
Q 19.5 40.5 17.84375 38.34375 
Q 16.203125 36.203125 15.703125 33.796875 
L 15.703125 18.90625 
Q 16.796875 16.296875 18.5 14.046875 
Q 20.203125 11.796875 22.390625 10.140625 
Q 24.59375 8.5 27.09375 7.546875 
Q 29.59375 6.59375 32.296875 6.59375 
" id="Raleway-Medium-70"/>
      <path d="M 8.5 0 
L 8.5 71 
L 33.09375 71 
Q 41.59375 71 48.046875 68.203125 
Q 54.5 65.40625 58.796875 60.59375 
Q 63.09375 55.796875 65.25 49.34375 
Q 67.40625 42.90625 67.40625 35.59375 
Q 67.40625 27.5 65 20.953125 
Q 62.59375 14.40625 58.09375 9.75 
Q 53.59375 5.09375 47.25 2.546875 
Q 40.90625 0 33.09375 0 
z
M 58.296875 35.59375 
Q 58.296875 41.59375 56.640625 46.640625 
Q 55 51.703125 51.75 55.296875 
Q 48.5 58.90625 43.796875 60.953125 
Q 39.09375 63 33.09375 63 
L 17.5 63 
L 17.5 8 
L 33.09375 8 
Q 39.203125 8 43.953125 10.09375 
Q 48.703125 12.203125 51.84375 15.890625 
Q 55 19.59375 56.640625 24.640625 
Q 58.296875 29.703125 58.296875 35.59375 
" id="Raleway-Medium-44"/>
     </defs>
     <g transform="translate(39.6425 258.18125)rotate(-90.0)scale(0.16 -0.16)">
      <use xlink:href="#Raleway-Medium-54"/>
      <use x="61.5999908447" xlink:href="#Raleway-Medium-72"/>
      <use x="97.799987793" xlink:href="#Raleway-Medium-65"/>
      <use x="156.899978638" xlink:href="#Raleway-Medium-65"/>
      <use x="215.999969482" xlink:href="#Raleway-Medium-20"/>
      <use x="241.099960327" xlink:href="#Raleway-Medium-44"/>
      <use x="312.89994812" xlink:href="#Raleway-Medium-65"/>
      <use x="371.999938965" xlink:href="#Raleway-Medium-70"/>
      <use x="433.999923706" xlink:href="#Raleway-Medium-74"/>
      <use x="468.699920654" xlink:href="#Raleway-Medium-68"/>
     </g>
    </g>
   </g>
   <g id="text_12">
    <g id="patch_7">
     <path d="M 315.502416 368.153437 
L 462.480853 368.153437 
L 462.480853 331.02 
L 315.502416 331.02 
z
" style="fill:#b0e0e6;opacity:0.5;stroke:#000000;stroke-linejoin:miter;"/>
    </g>
    <!-- PLANET Better -->
    <defs>
     <path d="M 63 18.296875 
Q 63 14.203125 61.34375 10.796875 
Q 59.703125 7.40625 56.84375 5 
Q 54 2.59375 50.25 1.296875 
Q 46.5 0 42.203125 0 
L 8.5 0 
L 8.5 71 
L 43.796875 71 
Q 47.5 71 50.5 69.390625 
Q 53.5 67.796875 55.59375 65.25 
Q 57.703125 62.703125 58.84375 59.453125 
Q 60 56.203125 60 52.90625 
Q 60 47.59375 57.34375 43.09375 
Q 54.703125 38.59375 49.796875 36.40625 
Q 55.90625 34.59375 59.453125 29.75 
Q 63 24.90625 63 18.296875 
M 53.90625 19.90625 
Q 53.90625 22.296875 53.046875 24.546875 
Q 52.203125 26.796875 50.75 28.5 
Q 49.296875 30.203125 47.296875 31.203125 
Q 45.296875 32.203125 42.90625 32.203125 
L 17.5 32.203125 
L 17.5 7.796875 
L 42.203125 7.796875 
Q 44.703125 7.796875 46.796875 8.796875 
Q 48.90625 9.796875 50.5 11.4375 
Q 52.09375 13.09375 53 15.296875 
Q 53.90625 17.5 53.90625 19.90625 
M 17.5 63.203125 
L 17.5 39.5 
L 40.09375 39.5 
Q 42.5 39.5 44.5 40.453125 
Q 46.5 41.40625 47.953125 43 
Q 49.40625 44.59375 50.25 46.75 
Q 51.09375 48.90625 51.09375 51.296875 
Q 51.09375 53.796875 50.296875 56 
Q 49.5 58.203125 48.140625 59.796875 
Q 46.796875 61.40625 44.84375 62.296875 
Q 42.90625 63.203125 40.703125 63.203125 
z
" id="Raleway-Medium-42"/>
     <path d="M 1.09375 0 
L 30.296875 71 
L 37.703125 71 
L 66.796875 0 
L 57.203125 0 
L 48.796875 20.796875 
L 19 20.796875 
L 10.703125 0 
z
M 34 60.59375 
L 20.796875 27.796875 
L 46.796875 27.796875 
z
" id="Raleway-Medium-41"/>
     <path d="M 8.5 0 
L 8.5 71 
L 38.09375 71 
Q 42.796875 71 46.75 69.046875 
Q 50.703125 67.09375 53.546875 63.84375 
Q 56.40625 60.59375 58 56.546875 
Q 59.59375 52.5 59.59375 48.296875 
Q 59.59375 43.90625 58.09375 39.796875 
Q 56.59375 35.703125 53.84375 32.5 
Q 51.09375 29.296875 47.25 27.390625 
Q 43.40625 25.5 38.703125 25.5 
L 17.5 25.5 
L 17.5 0 
z
M 17.5 33.5 
L 38.203125 33.5 
Q 41 33.5 43.25 34.640625 
Q 45.5 35.796875 47.09375 37.84375 
Q 48.703125 39.90625 49.59375 42.59375 
Q 50.5 45.296875 50.5 48.296875 
Q 50.5 51.40625 49.453125 54.09375 
Q 48.40625 56.796875 46.65625 58.796875 
Q 44.90625 60.796875 42.546875 61.890625 
Q 40.203125 63 37.59375 63 
L 17.5 63 
z
" id="Raleway-Medium-50"/>
     <path d="M 56.703125 8 
L 56.703125 0 
L 8.5 0 
L 8.5 71 
L 55.796875 71 
L 55.796875 63 
L 17.5 63 
L 17.5 40 
L 50.796875 40 
L 50.796875 32.5 
L 17.5 32.5 
L 17.5 8 
z
" id="Raleway-Medium-45"/>
    </defs>
    <g transform="translate(325.582415746 354.24)scale(0.18 -0.18)">
     <use xlink:href="#Raleway-Medium-50"/>
     <use x="62.0999908447" xlink:href="#Raleway-Medium-4c"/>
     <use x="121.099975586" xlink:href="#Raleway-Medium-41"/>
     <use x="188.899963379" xlink:href="#Raleway-Medium-4e"/>
     <use x="265.89994812" xlink:href="#Raleway-Medium-45"/>
     <use x="326.899932861" xlink:href="#Raleway-Medium-54"/>
     <use x="388.468673706" xlink:href="#Raleway-Medium-20"/>
     <use x="413.568664551" xlink:href="#Raleway-Medium-42"/>
     <use x="480.768661499" xlink:href="#Raleway-Medium-65"/>
     <use x="539.868652344" xlink:href="#Raleway-Medium-74"/>
     <use x="574.568649292" xlink:href="#Raleway-Medium-74"/>
     <use x="609.26864624" xlink:href="#Raleway-Medium-65"/>
     <use x="668.368637085" xlink:href="#Raleway-Medium-72"/>
    </g>
   </g>
   <g id="text_13">
    <g id="patch_8">
     <path d="M 135.97359 160.973438 
L 292.725465 160.973438 
L 292.725465 123.66 
L 135.97359 123.66 
z
" style="fill:#ffa500;opacity:0.5;stroke:#000000;stroke-linejoin:miter;"/>
    </g>
    <!-- Yggdrasil Better -->
    <defs>
     <path d="M 28.5 -1 
Q 23.09375 -1 18.5 1.203125 
Q 13.90625 3.40625 10.59375 7.09375 
Q 7.296875 10.796875 5.4375 15.6875 
Q 3.59375 20.59375 3.59375 26 
Q 3.59375 31.5 5.34375 36.453125 
Q 7.09375 41.40625 10.25 45.09375 
Q 13.40625 48.796875 17.75 50.9375 
Q 22.09375 53.09375 27.296875 53.09375 
Q 33.59375 53.09375 38.546875 49.796875 
Q 43.5 46.5 46.40625 41.796875 
L 46.40625 73 
L 55.203125 73 
L 55.203125 10.796875 
Q 55.203125 7.703125 58 7.59375 
L 58 0 
Q 56.90625 -0.203125 56.046875 -0.296875 
Q 55.203125 -0.40625 54.5 -0.40625 
Q 51.5 -0.40625 49.703125 1.140625 
Q 47.90625 2.703125 47.796875 4.90625 
L 47.59375 9.796875 
Q 44.5 4.703125 39.34375 1.84375 
Q 34.203125 -1 28.5 -1 
M 30.59375 6.59375 
Q 33 6.59375 35.546875 7.5 
Q 38.09375 8.40625 40.34375 10 
Q 42.59375 11.59375 44.25 13.75 
Q 45.90625 15.90625 46.40625 18.296875 
L 46.40625 33.296875 
Q 45.5 35.796875 43.703125 38.046875 
Q 41.90625 40.296875 39.65625 41.9375 
Q 37.40625 43.59375 34.84375 44.546875 
Q 32.296875 45.5 29.796875 45.5 
Q 25.90625 45.5 22.75 43.84375 
Q 19.59375 42.203125 17.34375 39.453125 
Q 15.09375 36.703125 13.890625 33.140625 
Q 12.703125 29.59375 12.703125 25.90625 
Q 12.703125 22 14.09375 18.453125 
Q 15.5 14.90625 17.890625 12.296875 
Q 20.296875 9.703125 23.546875 8.140625 
Q 26.796875 6.59375 30.59375 6.59375 
" id="Raleway-Medium-64"/>
     <path d="M 6.90625 0 
L 6.90625 52.203125 
L 15.703125 52.203125 
L 15.703125 0 
z
M 6.90625 62 
L 6.90625 73 
L 15.703125 73 
L 15.703125 62 
z
" id="Raleway-Medium-69"/>
     <path d="M 10.296875 71 
L 31.796875 34 
L 53.5 71 
L 63.296875 71 
L 36.296875 25.90625 
L 36.296875 0 
L 27.296875 0 
L 27.296875 26.09375 
L 0.40625 71 
z
" id="Raleway-Medium-59"/>
    </defs>
    <g transform="translate(146.053590258 146.88)scale(0.18 -0.18)">
     <use xlink:href="#Raleway-Medium-59"/>
     <use x="63.6999969482" xlink:href="#Raleway-Medium-67"/>
     <use x="125.799987793" xlink:href="#Raleway-Medium-67"/>
     <use x="187.899978638" xlink:href="#Raleway-Medium-64"/>
     <use x="250.999969482" xlink:href="#Raleway-Medium-72"/>
     <use x="287.199966431" xlink:href="#Raleway-Medium-61"/>
     <use x="342.899963379" xlink:href="#Raleway-Medium-73"/>
     <use x="392.199951172" xlink:href="#Raleway-Medium-69"/>
     <use x="414.799942017" xlink:href="#Raleway-Medium-6c"/>
     <use x="442.768676758" xlink:href="#Raleway-Medium-20"/>
     <use x="467.868667603" xlink:href="#Raleway-Medium-42"/>
     <use x="535.068664551" xlink:href="#Raleway-Medium-65"/>
     <use x="594.168655396" xlink:href="#Raleway-Medium-74"/>
     <use x="628.868652344" xlink:href="#Raleway-Medium-74"/>
     <use x="663.568649292" xlink:href="#Raleway-Medium-65"/>
     <use x="722.668640137" xlink:href="#Raleway-Medium-72"/>
    </g>
   </g>
   <g id="text_14">
    <!-- Num. Instances vs. Max Tree Depth -->
    <defs>
     <path d="M 22 0 
L 1.40625 52.203125 
L 10.5 52.203125 
L 27 7.703125 
L 43.59375 52.203125 
L 52 52.203125 
L 31.40625 0 
z
" id="Raleway-Medium-76"/>
     <path d="M 10.296875 52.203125 
L 24.59375 33 
L 25.40625 31.40625 
L 26.296875 33 
L 40.5 52.203125 
L 49.796875 52.203125 
L 30.296875 26 
L 49.90625 0 
L 40.59375 0 
L 26.296875 19.09375 
L 25.40625 20.59375 
L 24.59375 19.09375 
L 10.296875 0 
L 1 0 
L 20.59375 26 
L 1.09375 52.203125 
z
" id="Raleway-Medium-78"/>
     <path d="M 69.90625 0 
L 69.90625 54.90625 
L 46.296875 12.796875 
L 41.203125 12.796875 
L 17.5 54.90625 
L 17.5 0 
L 8.5 0 
L 8.5 71 
L 18 71 
L 43.703125 24.90625 
L 69.5 71 
L 78.90625 71 
L 78.90625 0 
z
" id="Raleway-Medium-4d"/>
    </defs>
    <g transform="translate(118.0513125 24.376)scale(0.216 -0.216)">
     <use xlink:href="#Raleway-Medium-4e"/>
     <use x="76.9999847412" xlink:href="#Raleway-Medium-75"/>
     <use x="137.299972534" xlink:href="#Raleway-Medium-6d"/>
     <use x="229.299957275" xlink:href="#Raleway-Medium-2e"/>
     <use x="249.299942017" xlink:href="#Raleway-Medium-20"/>
     <use x="274.399932861" xlink:href="#Raleway-Medium-49"/>
     <use x="300.399917603" xlink:href="#Raleway-Medium-6e"/>
     <use x="358.999908447" xlink:href="#Raleway-Medium-73"/>
     <use x="408.29989624" xlink:href="#Raleway-Medium-74"/>
     <use x="442.999893188" xlink:href="#Raleway-Medium-61"/>
     <use x="498.699890137" xlink:href="#Raleway-Medium-6e"/>
     <use x="557.299880981" xlink:href="#Raleway-Medium-63"/>
     <use x="612.699874878" xlink:href="#Raleway-Medium-65"/>
     <use x="671.799865723" xlink:href="#Raleway-Medium-73"/>
     <use x="721.099853516" xlink:href="#Raleway-Medium-20"/>
     <use x="746.16859436" xlink:href="#Raleway-Medium-76"/>
     <use x="799.552963257" xlink:href="#Raleway-Medium-73"/>
     <use x="848.85295105" xlink:href="#Raleway-Medium-2e"/>
     <use x="868.852935791" xlink:href="#Raleway-Medium-20"/>
     <use x="893.952926636" xlink:href="#Raleway-Medium-4d"/>
     <use x="981.352920532" xlink:href="#Raleway-Medium-61"/>
     <use x="1037.05291748" xlink:href="#Raleway-Medium-78"/>
     <use x="1087.95291138" xlink:href="#Raleway-Medium-20"/>
     <use x="1113.02165222" xlink:href="#Raleway-Medium-54"/>
     <use x="1174.62164307" xlink:href="#Raleway-Medium-72"/>
     <use x="1210.82164001" xlink:href="#Raleway-Medium-65"/>
     <use x="1269.92163086" xlink:href="#Raleway-Medium-65"/>
     <use x="1329.0216217" xlink:href="#Raleway-Medium-20"/>
     <use x="1354.12161255" xlink:href="#Raleway-Medium-44"/>
     <use x="1425.92160034" xlink:href="#Raleway-Medium-65"/>
     <use x="1485.02159119" xlink:href="#Raleway-Medium-70"/>
     <use x="1547.02157593" xlink:href="#Raleway-Medium-74"/>
     <use x="1581.72157288" xlink:href="#Raleway-Medium-68"/>
    </g>
   </g>
  </g>
 </g>
 <defs>
  <clipPath id="p191988a1a5">
   <rect height="345.6" width="446.4" x="72.0" y="43.2"/>
  </clipPath>
 </defs>
</svg>
