<?xml version="1.0" encoding="utf-8" standalone="no"?>
<!DOCTYPE svg PUBLIC "-//W3C//DTD SVG 1.1//EN"
  "http://www.w3.org/Graphics/SVG/1.1/DTD/svg11.dtd">
<!-- Created with matplotlib (http://matplotlib.org/) -->
<svg height="432pt" version="1.1" viewBox="0 0 576 432" width="576pt" xmlns="http://www.w3.org/2000/svg" xmlns:xlink="http://www.w3.org/1999/xlink">
 <defs>
  <style type="text/css">
*{stroke-linecap:butt;stroke-linejoin:round;stroke-miterlimit:100000;}
  </style>
 </defs>
 <g id="figure_1">
  <g id="patch_1">
   <path d="M 0 432 
L 576 432 
L 576 0 
L 0 0 
L 0 432 
z
" style="fill:none;"/>
  </g>
  <g id="axes_1">
   <g id="patch_2">
    <path d="M 101.77875 364.14 
L 508.386094 364.14 
L 508.386094 62.384 
L 101.77875 62.384 
L 101.77875 364.14 
z
" style="fill:none;"/>
   </g>
   <g id="line2d_1">
    <path clip-path="url(#p26161855f0)" d="M 101.77875 362.914448 
L 258.16619 360.562034 
L 289.443678 358.928387 
L 320.721166 356.446384 
L 351.998654 351.736621 
L 383.276142 343.343867 
L 414.55363 322.702323 
L 445.831118 274.346769 
L 477.108606 136.078699 
L 508.386094 52.507737 
" style="fill:none;stroke:#0000ff;stroke-linecap:square;stroke-width:1.75;"/>
    <defs>
     <path d="M -6 6 
L 6 -6 
M -6 -6 
L 6 6 
" id="mc8f45fa608" style="stroke:#0000ff;stroke-width:0.5;"/>
    </defs>
    <g clip-path="url(#p26161855f0)">
     <use style="fill:#0000ff;stroke:#0000ff;stroke-width:0.5;" x="101.77875" xlink:href="#mc8f45fa608" y="362.914448182"/>
     <use style="fill:#0000ff;stroke:#0000ff;stroke-width:0.5;" x="258.166189904" xlink:href="#mc8f45fa608" y="360.562033845"/>
     <use style="fill:#0000ff;stroke:#0000ff;stroke-width:0.5;" x="289.443677885" xlink:href="#mc8f45fa608" y="358.928387212"/>
     <use style="fill:#0000ff;stroke:#0000ff;stroke-width:0.5;" x="320.721165865" xlink:href="#mc8f45fa608" y="356.446383761"/>
     <use style="fill:#0000ff;stroke:#0000ff;stroke-width:0.5;" x="351.998653846" xlink:href="#mc8f45fa608" y="351.736621376"/>
     <use style="fill:#0000ff;stroke:#0000ff;stroke-width:0.5;" x="383.276141827" xlink:href="#mc8f45fa608" y="343.34386666"/>
     <use style="fill:#0000ff;stroke:#0000ff;stroke-width:0.5;" x="414.553629808" xlink:href="#mc8f45fa608" y="322.702322919"/>
     <use style="fill:#0000ff;stroke:#0000ff;stroke-width:0.5;" x="445.831117788" xlink:href="#mc8f45fa608" y="274.346768836"/>
     <use style="fill:#0000ff;stroke:#0000ff;stroke-width:0.5;" x="477.108605769" xlink:href="#mc8f45fa608" y="136.078699442"/>
     <use style="fill:#0000ff;stroke:#0000ff;stroke-width:0.5;" x="508.38609375" xlink:href="#mc8f45fa608" y="52.5077373492"/>
    </g>
   </g>
   <g id="line2d_2">
    <path clip-path="url(#p26161855f0)" d="M 101.77875 362.282118 
L 258.16619 359.066395 
L 289.443678 358.794151 
L 320.721166 358.667414 
L 351.998654 358.28696 
L 383.276142 357.898237 
L 414.55363 357.381541 
L 445.831118 356.894597 
L 477.108606 354.605054 
L 508.386094 351.087454 
" style="fill:none;stroke:#008000;stroke-linecap:square;stroke-width:1.75;"/>
    <defs>
     <path d="M 0 3 
C 0.795609 3 1.55874 2.683901 2.12132 2.12132 
C 2.683901 1.55874 3 0.795609 3 0 
C 3 -0.795609 2.683901 -1.55874 2.12132 -2.12132 
C 1.55874 -2.683901 0.795609 -3 0 -3 
C -0.795609 -3 -1.55874 -2.683901 -2.12132 -2.12132 
C -2.683901 -1.55874 -3 -0.795609 -3 0 
C -3 0.795609 -2.683901 1.55874 -2.12132 2.12132 
C -1.55874 2.683901 -0.795609 3 0 3 
z
" id="me35fe086bd" style="stroke:#008000;stroke-width:0.5;"/>
    </defs>
    <g clip-path="url(#p26161855f0)">
     <use style="fill:#008000;stroke:#008000;stroke-width:0.5;" x="101.77875" xlink:href="#me35fe086bd" y="362.282118484"/>
     <use style="fill:#008000;stroke:#008000;stroke-width:0.5;" x="258.166189904" xlink:href="#me35fe086bd" y="359.066395318"/>
     <use style="fill:#008000;stroke:#008000;stroke-width:0.5;" x="289.443677885" xlink:href="#me35fe086bd" y="358.794151055"/>
     <use style="fill:#008000;stroke:#008000;stroke-width:0.5;" x="320.721165865" xlink:href="#me35fe086bd" y="358.667413535"/>
     <use style="fill:#008000;stroke:#008000;stroke-width:0.5;" x="351.998653846" xlink:href="#me35fe086bd" y="358.28695957"/>
     <use style="fill:#008000;stroke:#008000;stroke-width:0.5;" x="383.276141827" xlink:href="#me35fe086bd" y="357.898237491"/>
     <use style="fill:#008000;stroke:#008000;stroke-width:0.5;" x="414.553629808" xlink:href="#me35fe086bd" y="357.381540692"/>
     <use style="fill:#008000;stroke:#008000;stroke-width:0.5;" x="445.831117788" xlink:href="#me35fe086bd" y="356.894597035"/>
     <use style="fill:#008000;stroke:#008000;stroke-width:0.5;" x="477.108605769" xlink:href="#me35fe086bd" y="354.605053561"/>
     <use style="fill:#008000;stroke:#008000;stroke-width:0.5;" x="508.38609375" xlink:href="#me35fe086bd" y="351.087453693"/>
    </g>
   </g>
   <g id="line2d_3">
    <path clip-path="url(#p26161855f0)" d="M 101.77875 361.364237 
L 258.16619 358.91606 
L 289.443678 356.871543 
L 320.721166 353.078711 
L 351.998654 346.317204 
" style="fill:none;stroke:#ff0000;stroke-linecap:square;stroke-width:1.75;"/>
    <defs>
     <path d="M 0 -6 
L -1.347084 -1.854102 
L -5.706339 -1.854102 
L -2.179628 0.708204 
L -3.526712 4.854102 
L -0 2.291796 
L 3.526712 4.854102 
L 2.179628 0.708204 
L 5.706339 -1.854102 
L 1.347084 -1.854102 
z
" id="m14224bef9c" style="stroke:#000000;stroke-linejoin:bevel;stroke-width:0.5;"/>
    </defs>
    <g clip-path="url(#p26161855f0)">
     <use style="fill:#ff0000;stroke:#000000;stroke-linejoin:bevel;stroke-width:0.5;" x="101.77875" xlink:href="#m14224bef9c" y="361.364237083"/>
     <use style="fill:#ff0000;stroke:#000000;stroke-linejoin:bevel;stroke-width:0.5;" x="258.166189904" xlink:href="#m14224bef9c" y="358.916060479"/>
     <use style="fill:#ff0000;stroke:#000000;stroke-linejoin:bevel;stroke-width:0.5;" x="289.443677885" xlink:href="#m14224bef9c" y="356.871542877"/>
     <use style="fill:#ff0000;stroke:#000000;stroke-linejoin:bevel;stroke-width:0.5;" x="320.721165865" xlink:href="#m14224bef9c" y="353.078711362"/>
     <use style="fill:#ff0000;stroke:#000000;stroke-linejoin:bevel;stroke-width:0.5;" x="351.998653846" xlink:href="#m14224bef9c" y="346.317204318"/>
    </g>
   </g>
   <g id="patch_3">
    <path d="M 101.77875 62.384 
L 508.386094 62.384 
" style="fill:none;stroke:#000000;stroke-linecap:square;stroke-linejoin:miter;"/>
   </g>
   <g id="patch_4">
    <path d="M 508.386094 364.14 
L 508.386094 62.384 
" style="fill:none;stroke:#000000;stroke-linecap:square;stroke-linejoin:miter;"/>
   </g>
   <g id="patch_5">
    <path d="M 101.77875 364.14 
L 508.386094 364.14 
" style="fill:none;stroke:#000000;stroke-linecap:square;stroke-linejoin:miter;"/>
   </g>
   <g id="patch_6">
    <path d="M 101.77875 364.14 
L 101.77875 62.384 
" style="fill:none;stroke:#000000;stroke-linecap:square;stroke-linejoin:miter;"/>
   </g>
   <g id="matplotlib.axis_1">
    <g id="xtick_1">
     <g id="line2d_4">
      <path clip-path="url(#p26161855f0)" d="M 133.056238 364.14 
L 133.056238 62.384 
" style="fill:none;stroke:#000000;stroke-dasharray:1.000000,3.000000;stroke-dashoffset:0.0;stroke-width:0.5;"/>
     </g>
     <g id="line2d_5">
      <defs>
       <path d="M 0 0 
L 0 -4 
" id="m208ee43f54" style="stroke:#000000;stroke-width:0.5;"/>
      </defs>
      <g>
       <use style="stroke:#000000;stroke-width:0.5;" x="133.056237981" xlink:href="#m208ee43f54" y="364.14"/>
      </g>
     </g>
     <g id="line2d_6">
      <defs>
       <path d="M 0 0 
L 0 4 
" id="me7c938466b" style="stroke:#000000;stroke-width:0.5;"/>
      </defs>
      <g>
       <use style="stroke:#000000;stroke-width:0.5;" x="133.056237981" xlink:href="#me7c938466b" y="62.384"/>
      </g>
     </g>
     <g id="text_1">
      <!-- 6 -->
      <defs>
       <path d="M 56.296875 23.5 
Q 56.296875 18.40625 54.34375 13.953125 
Q 52.40625 9.5 48.953125 6.140625 
Q 45.5 2.796875 40.890625 0.890625 
Q 36.296875 -1 30.90625 -1 
Q 25.203125 -1 20.453125 1.09375 
Q 15.703125 3.203125 12.296875 7.140625 
Q 8.90625 11.09375 7.046875 16.75 
Q 5.203125 22.40625 5.203125 29.59375 
Q 5.203125 40.09375 7.09375 47.9375 
Q 9 55.796875 12.5 61.046875 
Q 16 66.296875 20.890625 68.890625 
Q 25.796875 71.5 31.796875 71.5 
Q 38.703125 71.5 44.34375 68.203125 
Q 50 64.90625 53.203125 58.90625 
L 47.796875 53.59375 
Q 45.59375 58.296875 41.296875 61.046875 
Q 37 63.796875 31.703125 63.796875 
Q 27.59375 63.796875 24.296875 61.9375 
Q 21 60.09375 18.59375 56.5 
Q 16.203125 52.90625 14.890625 47.75 
Q 13.59375 42.59375 13.5 36 
Q 15.703125 41.203125 20.59375 44.296875 
Q 25.5 47.40625 31.796875 47.40625 
Q 36.90625 47.40625 41.40625 45.546875 
Q 45.90625 43.703125 49.203125 40.453125 
Q 52.5 37.203125 54.390625 32.84375 
Q 56.296875 28.5 56.296875 23.5 
M 31 6.59375 
Q 34.40625 6.59375 37.5 7.9375 
Q 40.59375 9.296875 42.890625 11.59375 
Q 45.203125 13.90625 46.546875 16.953125 
Q 47.90625 20 47.90625 23.5 
Q 47.90625 26.90625 46.546875 30 
Q 45.203125 33.09375 42.890625 35.34375 
Q 40.59375 37.59375 37.5 38.9375 
Q 34.40625 40.296875 31 40.296875 
Q 27.5 40.296875 24.453125 38.9375 
Q 21.40625 37.59375 19.09375 35.34375 
Q 16.796875 33.09375 15.4375 30 
Q 14.09375 26.90625 14.09375 23.5 
Q 14.09375 20 15.4375 16.953125 
Q 16.796875 13.90625 19.09375 11.59375 
Q 21.40625 9.296875 24.453125 7.9375 
Q 27.5 6.59375 31 6.59375 
" id="Raleway-Medium-36"/>
      </defs>
      <g transform="translate(127.905769231 380.55)scale(0.17 -0.17)">
       <use xlink:href="#Raleway-Medium-36"/>
      </g>
     </g>
    </g>
    <g id="xtick_2">
     <g id="line2d_7">
      <path clip-path="url(#p26161855f0)" d="M 195.611214 364.14 
L 195.611214 62.384 
" style="fill:none;stroke:#000000;stroke-dasharray:1.000000,3.000000;stroke-dashoffset:0.0;stroke-width:0.5;"/>
     </g>
     <g id="line2d_8">
      <g>
       <use style="stroke:#000000;stroke-width:0.5;" x="195.611213942" xlink:href="#m208ee43f54" y="364.14"/>
      </g>
     </g>
     <g id="line2d_9">
      <g>
       <use style="stroke:#000000;stroke-width:0.5;" x="195.611213942" xlink:href="#me7c938466b" y="62.384"/>
      </g>
     </g>
     <g id="text_2">
      <!-- 8 -->
      <defs>
       <path d="M 54.90625 20.09375 
Q 54.90625 15.296875 52.84375 11.4375 
Q 50.796875 7.59375 47.34375 4.890625 
Q 43.90625 2.203125 39.34375 0.703125 
Q 34.796875 -0.796875 29.703125 -0.796875 
Q 24.40625 -0.796875 19.84375 0.84375 
Q 15.296875 2.5 12 5.34375 
Q 8.703125 8.203125 6.796875 12.09375 
Q 4.90625 16 4.90625 20.5 
Q 4.90625 23.796875 6.09375 26.59375 
Q 7.296875 29.40625 9.140625 31.59375 
Q 11 33.796875 13.390625 35.4375 
Q 15.796875 37.09375 18.203125 38 
Q 16 38.90625 14 40.34375 
Q 12 41.796875 10.5 43.640625 
Q 9 45.5 8.140625 47.703125 
Q 7.296875 49.90625 7.296875 52.40625 
Q 7.296875 56.90625 9.34375 60.34375 
Q 11.40625 63.796875 14.65625 66.1875 
Q 17.90625 68.59375 21.90625 69.796875 
Q 25.90625 71 29.90625 71 
Q 33.90625 71 37.953125 69.796875 
Q 42 68.59375 45.25 66.25 
Q 48.5 63.90625 50.546875 60.453125 
Q 52.59375 57 52.59375 52.5 
Q 52.59375 47.5 49.296875 43.703125 
Q 46 39.90625 41.5 38 
Q 44.203125 36.90625 46.640625 35.203125 
Q 49.09375 33.5 50.890625 31.25 
Q 52.703125 29 53.796875 26.203125 
Q 54.90625 23.40625 54.90625 20.09375 
M 46 20.703125 
Q 46 23.90625 44.546875 26.453125 
Q 43.09375 29 40.796875 30.75 
Q 38.5 32.5 35.59375 33.390625 
Q 32.703125 34.296875 29.796875 34.296875 
Q 26.796875 34.296875 23.9375 33.34375 
Q 21.09375 32.40625 18.84375 30.59375 
Q 16.59375 28.796875 15.25 26.25 
Q 13.90625 23.703125 13.90625 20.59375 
Q 13.90625 17.40625 15.34375 14.90625 
Q 16.796875 12.40625 19.09375 10.703125 
Q 21.40625 9 24.25 8.046875 
Q 27.09375 7.09375 30 7.09375 
Q 33 7.09375 35.84375 8.09375 
Q 38.703125 9.09375 40.953125 10.890625 
Q 43.203125 12.703125 44.59375 15.203125 
Q 46 17.703125 46 20.703125 
M 16.203125 52.09375 
Q 16.203125 49.40625 17.453125 47.34375 
Q 18.703125 45.296875 20.703125 43.890625 
Q 22.703125 42.5 25.09375 41.796875 
Q 27.5 41.09375 29.90625 41.09375 
Q 32.296875 41.09375 34.6875 41.84375 
Q 37.09375 42.59375 39.09375 44 
Q 41.09375 45.40625 42.34375 47.5 
Q 43.59375 49.59375 43.59375 52.296875 
Q 43.59375 54.796875 42.4375 56.796875 
Q 41.296875 58.796875 39.390625 60.1875 
Q 37.5 61.59375 35 62.34375 
Q 32.5 63.09375 29.796875 63.09375 
Q 27.09375 63.09375 24.640625 62.34375 
Q 22.203125 61.59375 20.34375 60.140625 
Q 18.5 58.703125 17.34375 56.640625 
Q 16.203125 54.59375 16.203125 52.09375 
" id="Raleway-Medium-38"/>
      </defs>
      <g transform="translate(190.519182692 380.55)scale(0.17 -0.17)">
       <use xlink:href="#Raleway-Medium-38"/>
      </g>
     </g>
    </g>
    <g id="xtick_3">
     <g id="line2d_10">
      <path clip-path="url(#p26161855f0)" d="M 258.16619 364.14 
L 258.16619 62.384 
" style="fill:none;stroke:#000000;stroke-dasharray:1.000000,3.000000;stroke-dashoffset:0.0;stroke-width:0.5;"/>
     </g>
     <g id="line2d_11">
      <g>
       <use style="stroke:#000000;stroke-width:0.5;" x="258.166189904" xlink:href="#m208ee43f54" y="364.14"/>
      </g>
     </g>
     <g id="line2d_12">
      <g>
       <use style="stroke:#000000;stroke-width:0.5;" x="258.166189904" xlink:href="#me7c938466b" y="62.384"/>
      </g>
     </g>
     <g id="text_3">
      <!-- 10 -->
      <defs>
       <path d="M 56.09375 29.296875 
Q 56.09375 22.703125 54.1875 17.140625 
Q 52.296875 11.59375 48.890625 7.546875 
Q 45.5 3.5 40.84375 1.25 
Q 36.203125 -1 30.796875 -1 
Q 25.296875 -1 20.640625 1.25 
Q 16 3.5 12.640625 7.546875 
Q 9.296875 11.59375 7.390625 17.140625 
Q 5.5 22.703125 5.5 29.296875 
Q 5.5 35.90625 7.390625 41.453125 
Q 9.296875 47 12.640625 51.046875 
Q 16 55.09375 20.640625 57.390625 
Q 25.296875 59.703125 30.796875 59.703125 
Q 36.203125 59.703125 40.84375 57.390625 
Q 45.5 55.09375 48.890625 51.046875 
Q 52.296875 47 54.1875 41.453125 
Q 56.09375 35.90625 56.09375 29.296875 
M 47.203125 29.296875 
Q 47.203125 34.203125 46 38.296875 
Q 44.796875 42.40625 42.59375 45.34375 
Q 40.40625 48.296875 37.40625 49.890625 
Q 34.40625 51.5 30.796875 51.5 
Q 27.09375 51.5 24.046875 49.890625 
Q 21 48.296875 18.84375 45.34375 
Q 16.703125 42.40625 15.5 38.296875 
Q 14.296875 34.203125 14.296875 29.296875 
Q 14.296875 24.296875 15.5 20.25 
Q 16.703125 16.203125 18.84375 13.296875 
Q 21 10.40625 24.046875 8.796875 
Q 27.09375 7.203125 30.796875 7.203125 
Q 34.40625 7.203125 37.40625 8.796875 
Q 40.40625 10.40625 42.59375 13.296875 
Q 44.796875 16.203125 46 20.25 
Q 47.203125 24.296875 47.203125 29.296875 
" id="Raleway-Medium-30"/>
       <path d="M 42.5 8 
L 42.5 0 
L 6.59375 0 
L 6.59375 8 
L 20.796875 8 
L 20.796875 47 
Q 19.90625 45.796875 18 44.4375 
Q 16.09375 43.09375 13.75 41.9375 
Q 11.40625 40.796875 8.90625 40 
Q 6.40625 39.203125 4.5 39.203125 
L 4.5 47.59375 
Q 6.703125 47.59375 9.390625 48.84375 
Q 12.09375 50.09375 14.546875 51.75 
Q 17 53.40625 18.75 54.953125 
Q 20.5 56.5 20.796875 57.09375 
L 29.796875 57.09375 
L 29.796875 8 
z
" id="Raleway-Medium-31"/>
      </defs>
      <g transform="translate(249.138924279 380.55)scale(0.17 -0.17)">
       <use xlink:href="#Raleway-Medium-31"/>
       <use x="44.6999969482" xlink:href="#Raleway-Medium-30"/>
      </g>
     </g>
    </g>
    <g id="xtick_4">
     <g id="line2d_13">
      <path clip-path="url(#p26161855f0)" d="M 320.721166 364.14 
L 320.721166 62.384 
" style="fill:none;stroke:#000000;stroke-dasharray:1.000000,3.000000;stroke-dashoffset:0.0;stroke-width:0.5;"/>
     </g>
     <g id="line2d_14">
      <g>
       <use style="stroke:#000000;stroke-width:0.5;" x="320.721165865" xlink:href="#m208ee43f54" y="364.14"/>
      </g>
     </g>
     <g id="line2d_15">
      <g>
       <use style="stroke:#000000;stroke-width:0.5;" x="320.721165865" xlink:href="#me7c938466b" y="62.384"/>
      </g>
     </g>
     <g id="text_4">
      <!-- 12 -->
      <defs>
       <path d="M 4.796875 0 
Q 4.796875 4 5.4375 7.5 
Q 6.09375 11 7.890625 14.203125 
Q 9.703125 17.40625 12.84375 20.296875 
Q 16 23.203125 21.09375 26.09375 
Q 24.09375 27.703125 27.1875 29.25 
Q 30.296875 30.796875 32.84375 32.546875 
Q 35.40625 34.296875 37.046875 36.296875 
Q 38.703125 38.296875 38.703125 41 
Q 38.703125 42.703125 37.890625 44.390625 
Q 37.09375 46.09375 35.59375 47.390625 
Q 34.09375 48.703125 31.84375 49.5 
Q 29.59375 50.296875 26.703125 50.296875 
Q 23.703125 50.296875 21.25 49.4375 
Q 18.796875 48.59375 16.890625 47.34375 
Q 15 46.09375 13.59375 44.6875 
Q 12.203125 43.296875 11.296875 42.203125 
L 5.59375 48.59375 
Q 6.40625 49.5 8.296875 51.046875 
Q 10.203125 52.59375 13.09375 54.1875 
Q 16 55.796875 19.796875 56.9375 
Q 23.59375 58.09375 28.296875 58.09375 
Q 32.90625 58.09375 36.59375 56.84375 
Q 40.296875 55.59375 42.84375 53.390625 
Q 45.40625 51.203125 46.796875 48.25 
Q 48.203125 45.296875 48.203125 42 
Q 48.203125 38.09375 46.5 35.1875 
Q 44.796875 32.296875 42.34375 30.09375 
Q 39.90625 27.90625 37.09375 26.34375 
Q 34.296875 24.796875 32.09375 23.703125 
Q 29.90625 22.59375 27.15625 21.046875 
Q 24.40625 19.5 21.90625 17.546875 
Q 19.40625 15.59375 17.546875 13.1875 
Q 15.703125 10.796875 15.203125 8 
L 49.296875 8 
L 49.296875 0 
z
" id="Raleway-Medium-32"/>
      </defs>
      <g transform="translate(312.29686899 380.55)scale(0.17 -0.17)">
       <use xlink:href="#Raleway-Medium-31"/>
       <use x="44.6999969482" xlink:href="#Raleway-Medium-32"/>
      </g>
     </g>
    </g>
    <g id="xtick_5">
     <g id="line2d_16">
      <path clip-path="url(#p26161855f0)" d="M 383.276142 364.14 
L 383.276142 62.384 
" style="fill:none;stroke:#000000;stroke-dasharray:1.000000,3.000000;stroke-dashoffset:0.0;stroke-width:0.5;"/>
     </g>
     <g id="line2d_17">
      <g>
       <use style="stroke:#000000;stroke-width:0.5;" x="383.276141827" xlink:href="#m208ee43f54" y="364.14"/>
      </g>
     </g>
     <g id="line2d_18">
      <g>
       <use style="stroke:#000000;stroke-width:0.5;" x="383.276141827" xlink:href="#me7c938466b" y="62.384"/>
      </g>
     </g>
     <g id="text_5">
      <!-- 14 -->
      <defs>
       <path d="M 34.203125 -12.703125 
L 34.203125 4.203125 
L 2.09375 4.203125 
L 2.09375 12 
L 37 57.09375 
L 43 57.09375 
L 43 12.203125 
L 51.796875 12.203125 
L 51.796875 4.203125 
L 43 4.203125 
L 43 -12.703125 
z
M 11.203125 12.203125 
L 35.09375 12.203125 
L 35.09375 43.5 
z
" id="Raleway-Medium-34"/>
      </defs>
      <g transform="translate(374.809344952 380.55)scale(0.17 -0.17)">
       <use xlink:href="#Raleway-Medium-31"/>
       <use x="44.6999969482" xlink:href="#Raleway-Medium-34"/>
      </g>
     </g>
    </g>
    <g id="xtick_6">
     <g id="line2d_19">
      <path clip-path="url(#p26161855f0)" d="M 445.831118 364.14 
L 445.831118 62.384 
" style="fill:none;stroke:#000000;stroke-dasharray:1.000000,3.000000;stroke-dashoffset:0.0;stroke-width:0.5;"/>
     </g>
     <g id="line2d_20">
      <g>
       <use style="stroke:#000000;stroke-width:0.5;" x="445.831117788" xlink:href="#m208ee43f54" y="364.14"/>
      </g>
     </g>
     <g id="line2d_21">
      <g>
       <use style="stroke:#000000;stroke-width:0.5;" x="445.831117788" xlink:href="#me7c938466b" y="62.384"/>
      </g>
     </g>
     <g id="text_6">
      <!-- 16 -->
      <g transform="translate(436.880883413 380.55)scale(0.17 -0.17)">
       <use xlink:href="#Raleway-Medium-31"/>
       <use x="44.6999969482" xlink:href="#Raleway-Medium-36"/>
      </g>
     </g>
    </g>
    <g id="xtick_7">
     <g id="line2d_22">
      <path clip-path="url(#p26161855f0)" d="M 508.386094 364.14 
L 508.386094 62.384 
" style="fill:none;stroke:#000000;stroke-dasharray:1.000000,3.000000;stroke-dashoffset:0.0;stroke-width:0.5;"/>
     </g>
     <g id="line2d_23">
      <g>
       <use style="stroke:#000000;stroke-width:0.5;" x="508.38609375" xlink:href="#m208ee43f54" y="364.14"/>
      </g>
     </g>
     <g id="line2d_24">
      <g>
       <use style="stroke:#000000;stroke-width:0.5;" x="508.38609375" xlink:href="#me7c938466b" y="62.384"/>
      </g>
     </g>
     <g id="text_7">
      <!-- 18 -->
      <g transform="translate(499.494296875 380.55)scale(0.17 -0.17)">
       <use xlink:href="#Raleway-Medium-31"/>
       <use x="44.6999969482" xlink:href="#Raleway-Medium-38"/>
      </g>
     </g>
    </g>
    <g id="text_8">
     <!-- Tree Depth -->
     <defs>
      <path d="M 59.796875 63 
L 35.296875 63 
L 35.296875 0 
L 26.296875 0 
L 26.296875 63 
L 1.796875 63 
L 1.796875 71 
L 59.796875 71 
z
" id="Raleway-Medium-54"/>
      <path d="M 8.5 0 
L 8.5 71 
L 33.09375 71 
Q 41.59375 71 48.046875 68.203125 
Q 54.5 65.40625 58.796875 60.59375 
Q 63.09375 55.796875 65.25 49.34375 
Q 67.40625 42.90625 67.40625 35.59375 
Q 67.40625 27.5 65 20.953125 
Q 62.59375 14.40625 58.09375 9.75 
Q 53.59375 5.09375 47.25 2.546875 
Q 40.90625 0 33.09375 0 
z
M 58.296875 35.59375 
Q 58.296875 41.59375 56.640625 46.640625 
Q 55 51.703125 51.75 55.296875 
Q 48.5 58.90625 43.796875 60.953125 
Q 39.09375 63 33.09375 63 
L 17.5 63 
L 17.5 8 
L 33.09375 8 
Q 39.203125 8 43.953125 10.09375 
Q 48.703125 12.203125 51.84375 15.890625 
Q 55 19.59375 56.640625 24.640625 
Q 58.296875 29.703125 58.296875 35.59375 
" id="Raleway-Medium-44"/>
      <path id="Raleway-Medium-20"/>
      <path d="M 52.203125 0 
L 43.40625 0 
L 43.40625 29.203125 
Q 43.40625 37.296875 40.59375 41.25 
Q 37.796875 45.203125 32.40625 45.203125 
Q 29.796875 45.203125 27.1875 44.140625 
Q 24.59375 43.09375 22.34375 41.296875 
Q 20.09375 39.5 18.34375 37 
Q 16.59375 34.5 15.703125 31.5 
L 15.703125 0 
L 6.90625 0 
L 6.90625 73 
L 15.703125 73 
L 15.703125 41 
Q 18.796875 46.703125 24.09375 49.890625 
Q 29.40625 53.09375 35.703125 53.09375 
Q 40.296875 53.09375 43.5 51.390625 
Q 46.703125 49.703125 48.59375 46.796875 
Q 50.5 43.90625 51.34375 39.84375 
Q 52.203125 35.796875 52.203125 31.203125 
z
" id="Raleway-Medium-68"/>
      <path d="M 30.203125 -1 
Q 24.296875 -1 19.390625 1.140625 
Q 14.5 3.296875 11 7 
Q 7.5 10.703125 5.546875 15.640625 
Q 3.59375 20.59375 3.59375 26.09375 
Q 3.59375 31.59375 5.546875 36.5 
Q 7.5 41.40625 11.046875 45.09375 
Q 14.59375 48.796875 19.5 50.9375 
Q 24.40625 53.09375 30.296875 53.09375 
Q 36.203125 53.09375 41.046875 50.890625 
Q 45.90625 48.703125 49.296875 45.046875 
Q 52.703125 41.40625 54.546875 36.546875 
Q 56.40625 31.703125 56.40625 26.5 
Q 56.40625 25.40625 56.34375 24.5 
Q 56.296875 23.59375 56.203125 23.09375 
L 12.90625 23.09375 
Q 13.203125 19.203125 14.703125 16 
Q 16.203125 12.796875 18.59375 10.5 
Q 21 8.203125 24.046875 6.890625 
Q 27.09375 5.59375 30.5 5.59375 
Q 32.90625 5.59375 35.203125 6.25 
Q 37.5 6.90625 39.5 8 
Q 41.5 9.09375 43.046875 10.6875 
Q 44.59375 12.296875 45.40625 14.296875 
L 53 12.203125 
Q 51.703125 9.296875 49.453125 6.890625 
Q 47.203125 4.5 44.25 2.75 
Q 41.296875 1 37.6875 0 
Q 34.09375 -1 30.203125 -1 
M 48.09375 29.59375 
Q 47.796875 33.296875 46.25 36.4375 
Q 44.703125 39.59375 42.34375 41.796875 
Q 40 44 36.890625 45.25 
Q 33.796875 46.5 30.296875 46.5 
Q 26.796875 46.5 23.6875 45.25 
Q 20.59375 44 18.25 41.75 
Q 15.90625 39.5 14.453125 36.390625 
Q 13 33.296875 12.703125 29.59375 
z
" id="Raleway-Medium-65"/>
      <path d="M 34 2.59375 
Q 33.203125 2.203125 31.890625 1.640625 
Q 30.59375 1.09375 28.9375 0.546875 
Q 27.296875 0 25.34375 -0.34375 
Q 23.40625 -0.703125 21.296875 -0.703125 
Q 16.5 -0.703125 13 1.9375 
Q 9.5 4.59375 9.5 10.203125 
L 9.5 45.296875 
L 2.40625 45.296875 
L 2.40625 52.203125 
L 9.5 52.203125 
L 9.5 69.59375 
L 18.296875 69.59375 
L 18.296875 52.203125 
L 30 52.203125 
L 30 45.296875 
L 18.296875 45.296875 
L 18.296875 12.90625 
Q 18.5 10 20.203125 8.703125 
Q 21.90625 7.40625 24.203125 7.40625 
Q 26.796875 7.40625 28.9375 8.25 
Q 31.09375 9.09375 31.90625 9.59375 
z
" id="Raleway-Medium-74"/>
      <path d="M 34.5 44.5 
Q 27.90625 44.296875 22.84375 41.09375 
Q 17.796875 37.90625 15.703125 32.203125 
L 15.703125 0 
L 6.90625 0 
L 6.90625 52.203125 
L 15.09375 52.203125 
L 15.09375 40.09375 
Q 17.796875 45.5 22.1875 49.046875 
Q 26.59375 52.59375 31.59375 52.59375 
Q 32.59375 52.59375 33.296875 52.59375 
Q 34 52.59375 34.5 52.5 
z
" id="Raleway-Medium-72"/>
      <path d="M 35 -1 
Q 28.5 -1 23.546875 2.203125 
Q 18.59375 5.40625 15.703125 10.296875 
L 15.703125 -21.296875 
L 6.90625 -21.296875 
L 6.90625 52.203125 
L 14.703125 52.203125 
L 14.703125 42.40625 
Q 17.796875 47.203125 22.75 50.140625 
Q 27.703125 53.09375 33.703125 53.09375 
Q 39.09375 53.09375 43.59375 50.890625 
Q 48.09375 48.703125 51.390625 44.953125 
Q 54.703125 41.203125 56.546875 36.296875 
Q 58.40625 31.40625 58.40625 26.09375 
Q 58.40625 20.5 56.703125 15.546875 
Q 55 10.59375 51.890625 6.9375 
Q 48.796875 3.296875 44.5 1.140625 
Q 40.203125 -1 35 -1 
M 32.296875 6.59375 
Q 36.203125 6.59375 39.34375 8.25 
Q 42.5 9.90625 44.75 12.65625 
Q 47 15.40625 48.203125 18.90625 
Q 49.40625 22.40625 49.40625 26.09375 
Q 49.40625 30 48 33.546875 
Q 46.59375 37.09375 44.1875 39.75 
Q 41.796875 42.40625 38.546875 43.953125 
Q 35.296875 45.5 31.5 45.5 
Q 29.09375 45.5 26.546875 44.546875 
Q 24 43.59375 21.75 42.046875 
Q 19.5 40.5 17.84375 38.34375 
Q 16.203125 36.203125 15.703125 33.796875 
L 15.703125 18.90625 
Q 16.796875 16.296875 18.5 14.046875 
Q 20.203125 11.796875 22.390625 10.140625 
Q 24.59375 8.5 27.09375 7.546875 
Q 29.59375 6.59375 32.296875 6.59375 
" id="Raleway-Medium-70"/>
     </defs>
     <g transform="translate(252.355859375 403.77046875)scale(0.2 -0.2)">
      <use xlink:href="#Raleway-Medium-54"/>
      <use x="61.5999908447" xlink:href="#Raleway-Medium-72"/>
      <use x="97.799987793" xlink:href="#Raleway-Medium-65"/>
      <use x="156.899978638" xlink:href="#Raleway-Medium-65"/>
      <use x="215.999969482" xlink:href="#Raleway-Medium-20"/>
      <use x="241.099960327" xlink:href="#Raleway-Medium-44"/>
      <use x="312.89994812" xlink:href="#Raleway-Medium-65"/>
      <use x="371.999938965" xlink:href="#Raleway-Medium-70"/>
      <use x="433.999923706" xlink:href="#Raleway-Medium-74"/>
      <use x="468.699920654" xlink:href="#Raleway-Medium-68"/>
     </g>
    </g>
   </g>
   <g id="matplotlib.axis_2">
    <g id="ytick_1">
     <g id="line2d_25">
      <path clip-path="url(#p26161855f0)" d="M 101.77875 364.14 
L 508.386094 364.14 
" style="fill:none;stroke:#000000;stroke-dasharray:1.000000,3.000000;stroke-dashoffset:0.0;stroke-width:0.5;"/>
     </g>
     <g id="line2d_26">
      <defs>
       <path d="M 0 0 
L 4 0 
" id="mcd7c0ff1ad" style="stroke:#000000;stroke-width:0.5;"/>
      </defs>
      <g>
       <use style="stroke:#000000;stroke-width:0.5;" x="101.77875" xlink:href="#mcd7c0ff1ad" y="364.14"/>
      </g>
     </g>
     <g id="line2d_27">
      <defs>
       <path d="M 0 0 
L -4 0 
" id="ma86af0cf1a" style="stroke:#000000;stroke-width:0.5;"/>
      </defs>
      <g>
       <use style="stroke:#000000;stroke-width:0.5;" x="508.38609375" xlink:href="#ma86af0cf1a" y="364.14"/>
      </g>
     </g>
     <g id="text_9">
      <!-- 0 -->
      <g transform="translate(87.32375 368.534765625)scale(0.17 -0.17)">
       <use xlink:href="#Raleway-Medium-30"/>
      </g>
     </g>
    </g>
    <g id="ytick_2">
     <g id="line2d_28">
      <path clip-path="url(#p26161855f0)" d="M 101.77875 303.7888 
L 508.386094 303.7888 
" style="fill:none;stroke:#000000;stroke-dasharray:1.000000,3.000000;stroke-dashoffset:0.0;stroke-width:0.5;"/>
     </g>
     <g id="line2d_29">
      <g>
       <use style="stroke:#000000;stroke-width:0.5;" x="101.77875" xlink:href="#mcd7c0ff1ad" y="303.7888"/>
      </g>
     </g>
     <g id="line2d_30">
      <g>
       <use style="stroke:#000000;stroke-width:0.5;" x="508.38609375" xlink:href="#ma86af0cf1a" y="303.7888"/>
      </g>
     </g>
     <g id="text_10">
      <!-- 2000 -->
      <g transform="translate(57.1646875 308.183565625)scale(0.17 -0.17)">
       <use xlink:href="#Raleway-Medium-32"/>
       <use x="54.3999938965" xlink:href="#Raleway-Medium-30"/>
       <use x="115.899978638" xlink:href="#Raleway-Medium-30"/>
       <use x="177.399963379" xlink:href="#Raleway-Medium-30"/>
      </g>
     </g>
    </g>
    <g id="ytick_3">
     <g id="line2d_31">
      <path clip-path="url(#p26161855f0)" d="M 101.77875 243.4376 
L 508.386094 243.4376 
" style="fill:none;stroke:#000000;stroke-dasharray:1.000000,3.000000;stroke-dashoffset:0.0;stroke-width:0.5;"/>
     </g>
     <g id="line2d_32">
      <g>
       <use style="stroke:#000000;stroke-width:0.5;" x="101.77875" xlink:href="#mcd7c0ff1ad" y="243.4376"/>
      </g>
     </g>
     <g id="line2d_33">
      <g>
       <use style="stroke:#000000;stroke-width:0.5;" x="508.38609375" xlink:href="#ma86af0cf1a" y="243.4376"/>
      </g>
     </g>
     <g id="text_11">
      <!-- 4000 -->
      <g transform="translate(57.0796875 247.832365625)scale(0.17 -0.17)">
       <use xlink:href="#Raleway-Medium-34"/>
       <use x="54.8999938965" xlink:href="#Raleway-Medium-30"/>
       <use x="116.399978638" xlink:href="#Raleway-Medium-30"/>
       <use x="177.899963379" xlink:href="#Raleway-Medium-30"/>
      </g>
     </g>
    </g>
    <g id="ytick_4">
     <g id="line2d_34">
      <path clip-path="url(#p26161855f0)" d="M 101.77875 183.0864 
L 508.386094 183.0864 
" style="fill:none;stroke:#000000;stroke-dasharray:1.000000,3.000000;stroke-dashoffset:0.0;stroke-width:0.5;"/>
     </g>
     <g id="line2d_35">
      <g>
       <use style="stroke:#000000;stroke-width:0.5;" x="101.77875" xlink:href="#mcd7c0ff1ad" y="183.0864"/>
      </g>
     </g>
     <g id="line2d_36">
      <g>
       <use style="stroke:#000000;stroke-width:0.5;" x="508.38609375" xlink:href="#ma86af0cf1a" y="183.0864"/>
      </g>
     </g>
     <g id="text_12">
      <!-- 6000 -->
      <g transform="translate(56.1128125 187.481165625)scale(0.17 -0.17)">
       <use xlink:href="#Raleway-Medium-36"/>
       <use x="60.5999908447" xlink:href="#Raleway-Medium-30"/>
       <use x="122.099975586" xlink:href="#Raleway-Medium-30"/>
       <use x="183.599960327" xlink:href="#Raleway-Medium-30"/>
      </g>
     </g>
    </g>
    <g id="ytick_5">
     <g id="line2d_37">
      <path clip-path="url(#p26161855f0)" d="M 101.77875 122.7352 
L 508.386094 122.7352 
" style="fill:none;stroke:#000000;stroke-dasharray:1.000000,3.000000;stroke-dashoffset:0.0;stroke-width:0.5;"/>
     </g>
     <g id="line2d_38">
      <g>
       <use style="stroke:#000000;stroke-width:0.5;" x="101.77875" xlink:href="#mcd7c0ff1ad" y="122.7352"/>
      </g>
     </g>
     <g id="line2d_39">
      <g>
       <use style="stroke:#000000;stroke-width:0.5;" x="508.38609375" xlink:href="#ma86af0cf1a" y="122.7352"/>
      </g>
     </g>
     <g id="text_13">
      <!-- 8000 -->
      <g transform="translate(56.2296875 127.129965625)scale(0.17 -0.17)">
       <use xlink:href="#Raleway-Medium-38"/>
       <use x="59.8999938965" xlink:href="#Raleway-Medium-30"/>
       <use x="121.399978638" xlink:href="#Raleway-Medium-30"/>
       <use x="182.899963379" xlink:href="#Raleway-Medium-30"/>
      </g>
     </g>
    </g>
    <g id="ytick_6">
     <g id="line2d_40">
      <path clip-path="url(#p26161855f0)" d="M 101.77875 62.384 
L 508.386094 62.384 
" style="fill:none;stroke:#000000;stroke-dasharray:1.000000,3.000000;stroke-dashoffset:0.0;stroke-width:0.5;"/>
     </g>
     <g id="line2d_41">
      <g>
       <use style="stroke:#000000;stroke-width:0.5;" x="101.77875" xlink:href="#mcd7c0ff1ad" y="62.384"/>
      </g>
     </g>
     <g id="line2d_42">
      <g>
       <use style="stroke:#000000;stroke-width:0.5;" x="508.38609375" xlink:href="#ma86af0cf1a" y="62.384"/>
      </g>
     </g>
     <g id="text_14">
      <!-- 10000 -->
      <g transform="translate(48.35921875 66.778765625)scale(0.17 -0.17)">
       <use xlink:href="#Raleway-Medium-31"/>
       <use x="44.6999969482" xlink:href="#Raleway-Medium-30"/>
       <use x="106.199981689" xlink:href="#Raleway-Medium-30"/>
       <use x="167.699966431" xlink:href="#Raleway-Medium-30"/>
       <use x="229.199951172" xlink:href="#Raleway-Medium-30"/>
      </g>
     </g>
    </g>
    <g id="text_15">
     <!-- Training Time (s) -->
     <defs>
      <path d="M 52.203125 0 
L 43.40625 0 
L 43.40625 29.203125 
Q 43.40625 37.59375 40.84375 41.390625 
Q 38.296875 45.203125 33.09375 45.203125 
Q 30.40625 45.203125 27.703125 44.140625 
Q 25 43.09375 22.59375 41.296875 
Q 20.203125 39.5 18.390625 37 
Q 16.59375 34.5 15.703125 31.5 
L 15.703125 0 
L 6.90625 0 
L 6.90625 52.203125 
L 14.90625 52.203125 
L 14.90625 41 
Q 18 46.5 23.84375 49.796875 
Q 29.703125 53.09375 36.59375 53.09375 
Q 41.09375 53.09375 44.09375 51.4375 
Q 47.09375 49.796875 48.890625 46.84375 
Q 50.703125 43.90625 51.453125 39.90625 
Q 52.203125 35.90625 52.203125 31.203125 
z
" id="Raleway-Medium-6e"/>
      <path d="M 85.59375 0 
L 76.796875 0 
L 76.796875 29.203125 
Q 76.796875 37.40625 74.140625 41.296875 
Q 71.5 45.203125 66.296875 45.203125 
Q 60.90625 45.203125 56.65625 41.34375 
Q 52.40625 37.5 50.59375 31.40625 
L 50.59375 0 
L 41.796875 0 
L 41.796875 29.203125 
Q 41.796875 37.59375 39.1875 41.390625 
Q 36.59375 45.203125 31.40625 45.203125 
Q 26.09375 45.203125 21.796875 41.453125 
Q 17.5 37.703125 15.703125 31.5 
L 15.703125 0 
L 6.90625 0 
L 6.90625 52.203125 
L 14.90625 52.203125 
L 14.90625 41 
Q 18.09375 46.796875 23.1875 49.9375 
Q 28.296875 53.09375 34.703125 53.09375 
Q 41.296875 53.09375 45.140625 49.546875 
Q 49 46 49.90625 40.40625 
Q 56.90625 53.09375 69.796875 53.09375 
Q 74.296875 53.09375 77.34375 51.4375 
Q 80.40625 49.796875 82.203125 46.84375 
Q 84 43.90625 84.796875 39.90625 
Q 85.59375 35.90625 85.59375 31.203125 
z
" id="Raleway-Medium-6d"/>
      <path d="M 6.90625 0 
L 6.90625 52.203125 
L 15.703125 52.203125 
L 15.703125 0 
z
M 6.90625 62 
L 6.90625 73 
L 15.703125 73 
L 15.703125 62 
z
" id="Raleway-Medium-69"/>
      <path d="M 23.90625 34.59375 
Q 23.90625 24.90625 19.90625 15.046875 
Q 15.90625 5.203125 9.59375 -4.203125 
L 3.09375 -0.796875 
Q 8.90625 8.296875 12.296875 17.34375 
Q 15.703125 26.40625 15.703125 34.296875 
Q 15.703125 39.203125 14.390625 44.546875 
Q 13.09375 49.90625 11.1875 54.90625 
Q 9.296875 59.90625 7.046875 64.203125 
Q 4.796875 68.5 2.90625 71.40625 
L 9.703125 74.40625 
Q 12.703125 69.40625 15.25 64.5 
Q 17.796875 59.59375 19.75 54.640625 
Q 21.703125 49.703125 22.796875 44.703125 
Q 23.90625 39.703125 23.90625 34.59375 
" id="Raleway-Medium-29"/>
      <path d="M 4.09375 34.59375 
Q 4.09375 39.703125 5.1875 44.703125 
Q 6.296875 49.703125 8.25 54.640625 
Q 10.203125 59.59375 12.75 64.5 
Q 15.296875 69.40625 18.296875 74.40625 
L 25.09375 71.40625 
Q 23.203125 68.5 20.953125 64.203125 
Q 18.703125 59.90625 16.796875 54.90625 
Q 14.90625 49.90625 13.59375 44.546875 
Q 12.296875 39.203125 12.296875 34.296875 
Q 12.296875 26.40625 15.6875 17.34375 
Q 19.09375 8.296875 24.90625 -0.796875 
L 18.40625 -4.203125 
Q 12.09375 5.203125 8.09375 15.046875 
Q 4.09375 24.90625 4.09375 34.59375 
" id="Raleway-Medium-28"/>
      <path d="M 27.796875 -0.59375 
Q 22.5 -0.59375 18.046875 1.59375 
Q 13.59375 3.796875 10.390625 7.5 
Q 7.203125 11.203125 5.453125 16 
Q 3.703125 20.796875 3.703125 26 
Q 3.703125 31.5 5.453125 36.453125 
Q 7.203125 41.40625 10.390625 45.09375 
Q 13.59375 48.796875 18.046875 50.9375 
Q 22.5 53.09375 27.90625 53.09375 
Q 34.5 53.09375 39.296875 49.890625 
Q 44.09375 46.703125 47.40625 41.796875 
L 47.40625 52.203125 
L 55.203125 52.203125 
L 55.203125 0.59375 
Q 55.203125 -5 53.09375 -9.25 
Q 51 -13.5 47.390625 -16.390625 
Q 43.796875 -19.296875 38.9375 -20.796875 
Q 34.09375 -22.296875 28.59375 -22.296875 
Q 19.703125 -22.296875 14.140625 -19.25 
Q 8.59375 -16.203125 4.90625 -10.796875 
L 10 -6.296875 
Q 13.09375 -10.90625 18 -13.203125 
Q 22.90625 -15.5 28.59375 -15.5 
Q 32.203125 -15.5 35.453125 -14.5 
Q 38.703125 -13.5 41.09375 -11.5 
Q 43.5 -9.5 44.953125 -6.5 
Q 46.40625 -3.5 46.40625 0.59375 
L 46.40625 9.796875 
Q 44.90625 7.40625 42.84375 5.453125 
Q 40.796875 3.5 38.390625 2.140625 
Q 36 0.796875 33.296875 0.09375 
Q 30.59375 -0.59375 27.796875 -0.59375 
M 30.5 6.59375 
Q 33.296875 6.59375 35.890625 7.59375 
Q 38.5 8.59375 40.703125 10.25 
Q 42.90625 11.90625 44.40625 14 
Q 45.90625 16.09375 46.40625 18.296875 
L 46.40625 33.296875 
Q 45.296875 36 43.546875 38.203125 
Q 41.796875 40.40625 39.59375 42.046875 
Q 37.40625 43.703125 34.84375 44.59375 
Q 32.296875 45.5 29.703125 45.5 
Q 25.703125 45.5 22.546875 43.796875 
Q 19.40625 42.09375 17.203125 39.296875 
Q 15 36.5 13.796875 32.953125 
Q 12.59375 29.40625 12.59375 25.796875 
Q 12.59375 21.90625 14 18.40625 
Q 15.40625 14.90625 17.796875 12.296875 
Q 20.203125 9.703125 23.453125 8.140625 
Q 26.703125 6.59375 30.5 6.59375 
" id="Raleway-Medium-67"/>
      <path d="M 21 -1 
Q 17.09375 -1 13.796875 0.25 
Q 10.5 1.5 8.09375 3.640625 
Q 5.703125 5.796875 4.34375 8.75 
Q 3 11.703125 3 15 
Q 3 18.703125 4.59375 21.75 
Q 6.203125 24.796875 9.140625 26.9375 
Q 12.09375 29.09375 16.140625 30.25 
Q 20.203125 31.40625 25 31.40625 
Q 28.796875 31.40625 32.6875 30.703125 
Q 36.59375 30 39.59375 28.796875 
L 39.59375 33 
Q 39.59375 39.40625 36 43.046875 
Q 32.40625 46.703125 25.796875 46.703125 
Q 17.90625 46.703125 9.203125 40.59375 
L 6.296875 46.296875 
Q 11.40625 49.703125 16.40625 51.390625 
Q 21.40625 53.09375 26.796875 53.09375 
Q 36.796875 53.09375 42.59375 47.59375 
Q 48.40625 42.09375 48.40625 32.09375 
L 48.40625 10.796875 
Q 48.40625 7.703125 51.203125 7.59375 
L 51.203125 0 
Q 50.203125 -0.203125 49.296875 -0.296875 
Q 48.40625 -0.40625 47.59375 -0.40625 
Q 45.40625 -0.40625 43.296875 0.796875 
Q 41.203125 2 41 4.90625 
L 40.796875 8.59375 
Q 39 6.203125 36.703125 4.390625 
Q 34.40625 2.59375 31.796875 1.390625 
Q 29.203125 0.203125 26.453125 -0.390625 
Q 23.703125 -1 21 -1 
M 23.203125 5.59375 
Q 27.40625 5.59375 31.40625 7.390625 
Q 35.40625 9.203125 37.703125 11.796875 
Q 39.59375 14 39.59375 15.90625 
L 39.59375 23.59375 
Q 36.5 24.796875 33.046875 25.4375 
Q 29.59375 26.09375 26.40625 26.09375 
Q 19.59375 26.09375 15.5 23.34375 
Q 11.40625 20.59375 11.40625 15.796875 
Q 11.40625 13.796875 12.203125 11.9375 
Q 13 10.09375 14.5 8.6875 
Q 16 7.296875 18.203125 6.4375 
Q 20.40625 5.59375 23.203125 5.59375 
" id="Raleway-Medium-61"/>
      <path d="M 25.40625 -1 
Q 19.09375 -1 13 0.953125 
Q 6.90625 2.90625 2.5 6.59375 
L 6.296875 12.5 
Q 10.90625 9 15.5 7.25 
Q 20.09375 5.5 25.203125 5.5 
Q 30.90625 5.5 34.25 7.75 
Q 37.59375 10 37.59375 14.09375 
Q 37.59375 16 36.6875 17.34375 
Q 35.796875 18.703125 34 19.703125 
Q 32.203125 20.703125 29.390625 21.5 
Q 26.59375 22.296875 22.90625 23.203125 
Q 18.203125 24.40625 14.796875 25.5 
Q 11.40625 26.59375 9.203125 28.09375 
Q 7 29.59375 6 31.6875 
Q 5 33.796875 5 36.90625 
Q 5 40.796875 6.546875 43.84375 
Q 8.09375 46.90625 10.796875 48.953125 
Q 13.5 51 17.140625 52.046875 
Q 20.796875 53.09375 25 53.09375 
Q 30.90625 53.09375 36 51.1875 
Q 41.09375 49.296875 44.59375 46.203125 
L 40.59375 40.90625 
Q 37.296875 43.796875 33.1875 45.25 
Q 29.09375 46.703125 24.796875 46.703125 
Q 20 46.703125 16.640625 44.640625 
Q 13.296875 42.59375 13.296875 38.09375 
Q 13.296875 36.296875 13.9375 35.09375 
Q 14.59375 33.90625 16.09375 33 
Q 17.59375 32.09375 19.9375 31.390625 
Q 22.296875 30.703125 25.59375 29.90625 
Q 30.796875 28.703125 34.640625 27.453125 
Q 38.5 26.203125 41.046875 24.5 
Q 43.59375 22.796875 44.84375 20.5 
Q 46.09375 18.203125 46.09375 14.90625 
Q 46.09375 7.59375 40.5 3.296875 
Q 34.90625 -1 25.40625 -1 
" id="Raleway-Medium-73"/>
     </defs>
     <g transform="translate(38.89984375 290.1323125)rotate(-90.0)scale(0.2 -0.2)">
      <use xlink:href="#Raleway-Medium-54"/>
      <use x="61.5999908447" xlink:href="#Raleway-Medium-72"/>
      <use x="97.799987793" xlink:href="#Raleway-Medium-61"/>
      <use x="153.499984741" xlink:href="#Raleway-Medium-69"/>
      <use x="176.099975586" xlink:href="#Raleway-Medium-6e"/>
      <use x="234.699966431" xlink:href="#Raleway-Medium-69"/>
      <use x="257.299957275" xlink:href="#Raleway-Medium-6e"/>
      <use x="315.89994812" xlink:href="#Raleway-Medium-67"/>
      <use x="377.999938965" xlink:href="#Raleway-Medium-20"/>
      <use x="403.06867981" xlink:href="#Raleway-Medium-54"/>
      <use x="464.668670654" xlink:href="#Raleway-Medium-69"/>
      <use x="487.268661499" xlink:href="#Raleway-Medium-6d"/>
      <use x="579.26864624" xlink:href="#Raleway-Medium-65"/>
      <use x="638.368637085" xlink:href="#Raleway-Medium-20"/>
      <use x="663.46862793" xlink:href="#Raleway-Medium-28"/>
      <use x="691.468612671" xlink:href="#Raleway-Medium-73"/>
      <use x="740.768600464" xlink:href="#Raleway-Medium-29"/>
     </g>
    </g>
   </g>
   <g id="text_16">
    <!-- Yggdrasil vs. MLlib and XGBoost: Yahoo 2M -->
    <defs>
     <path d="M 63 18.296875 
Q 63 14.203125 61.34375 10.796875 
Q 59.703125 7.40625 56.84375 5 
Q 54 2.59375 50.25 1.296875 
Q 46.5 0 42.203125 0 
L 8.5 0 
L 8.5 71 
L 43.796875 71 
Q 47.5 71 50.5 69.390625 
Q 53.5 67.796875 55.59375 65.25 
Q 57.703125 62.703125 58.84375 59.453125 
Q 60 56.203125 60 52.90625 
Q 60 47.59375 57.34375 43.09375 
Q 54.703125 38.59375 49.796875 36.40625 
Q 55.90625 34.59375 59.453125 29.75 
Q 63 24.90625 63 18.296875 
M 53.90625 19.90625 
Q 53.90625 22.296875 53.046875 24.546875 
Q 52.203125 26.796875 50.75 28.5 
Q 49.296875 30.203125 47.296875 31.203125 
Q 45.296875 32.203125 42.90625 32.203125 
L 17.5 32.203125 
L 17.5 7.796875 
L 42.203125 7.796875 
Q 44.703125 7.796875 46.796875 8.796875 
Q 48.90625 9.796875 50.5 11.4375 
Q 52.09375 13.09375 53 15.296875 
Q 53.90625 17.5 53.90625 19.90625 
M 17.5 63.203125 
L 17.5 39.5 
L 40.09375 39.5 
Q 42.5 39.5 44.5 40.453125 
Q 46.5 41.40625 47.953125 43 
Q 49.40625 44.59375 50.25 46.75 
Q 51.09375 48.90625 51.09375 51.296875 
Q 51.09375 53.796875 50.296875 56 
Q 49.5 58.203125 48.140625 59.796875 
Q 46.796875 61.40625 44.84375 62.296875 
Q 42.90625 63.203125 40.703125 63.203125 
z
" id="Raleway-Medium-42"/>
     <path d="M 6.90625 40.59375 
L 6.90625 51.796875 
L 14.203125 51.796875 
L 14.203125 40.59375 
z
M 6.90625 0 
L 6.90625 11.203125 
L 14.203125 11.203125 
L 14.203125 0 
z
" id="Raleway-Medium-3a"/>
     <path d="M 6.296875 0 
L 6.296875 11.203125 
L 13.703125 11.203125 
L 13.703125 0 
z
" id="Raleway-Medium-2e"/>
     <path d="M 58.796875 9.59375 
Q 49.40625 -0.5 37.203125 -0.5 
Q 30.09375 -0.5 24.046875 2.59375 
Q 18 5.703125 13.59375 10.75 
Q 9.203125 15.796875 6.640625 22.296875 
Q 4.09375 28.796875 4.09375 35.703125 
Q 4.09375 42.90625 6.59375 49.34375 
Q 9.09375 55.796875 13.5 60.75 
Q 17.90625 65.703125 24 68.59375 
Q 30.09375 71.5 37.203125 71.5 
Q 47.5 71.5 54.140625 67.203125 
Q 60.796875 62.90625 64.296875 56 
L 57.40625 51.203125 
Q 54.203125 57.40625 48.890625 60.40625 
Q 43.59375 63.40625 37 63.40625 
Q 31.59375 63.40625 27.1875 61.046875 
Q 22.796875 58.703125 19.6875 54.84375 
Q 16.59375 51 14.890625 45.953125 
Q 13.203125 40.90625 13.203125 35.5 
Q 13.203125 29.796875 15.09375 24.75 
Q 17 19.703125 20.296875 15.84375 
Q 23.59375 12 28.09375 9.796875 
Q 32.59375 7.59375 37.90625 7.59375 
Q 49.5 7.59375 58.796875 18.796875 
L 58.796875 28.59375 
L 43.5 28.59375 
L 43.5 35.40625 
L 66.40625 35.40625 
L 66.40625 0 
L 58.796875 0 
z
" id="Raleway-Medium-47"/>
     <path d="M 29.90625 -1 
Q 24 -1 19.140625 1.203125 
Q 14.296875 3.40625 10.84375 7.09375 
Q 7.40625 10.796875 5.5 15.6875 
Q 3.59375 20.59375 3.59375 26 
Q 3.59375 31.5 5.546875 36.390625 
Q 7.5 41.296875 10.953125 45 
Q 14.40625 48.703125 19.25 50.890625 
Q 24.09375 53.09375 29.90625 53.09375 
Q 35.703125 53.09375 40.59375 50.890625 
Q 45.5 48.703125 48.953125 45 
Q 52.40625 41.296875 54.34375 36.390625 
Q 56.296875 31.5 56.296875 26 
Q 56.296875 20.59375 54.390625 15.6875 
Q 52.5 10.796875 49 7.09375 
Q 45.5 3.40625 40.640625 1.203125 
Q 35.796875 -1 29.90625 -1 
M 12.59375 25.90625 
Q 12.59375 21.796875 13.9375 18.296875 
Q 15.296875 14.796875 17.640625 12.1875 
Q 20 9.59375 23.140625 8.09375 
Q 26.296875 6.59375 29.90625 6.59375 
Q 33.5 6.59375 36.640625 8.09375 
Q 39.796875 9.59375 42.1875 12.25 
Q 44.59375 14.90625 45.9375 18.453125 
Q 47.296875 22 47.296875 26.09375 
Q 47.296875 30.09375 45.9375 33.640625 
Q 44.59375 37.203125 42.1875 39.84375 
Q 39.796875 42.5 36.640625 44 
Q 33.5 45.5 29.90625 45.5 
Q 26.296875 45.5 23.140625 43.953125 
Q 20 42.40625 17.640625 39.75 
Q 15.296875 37.09375 13.9375 33.546875 
Q 12.59375 30 12.59375 25.90625 
" id="Raleway-Medium-6f"/>
     <path d="M 10.203125 71 
L 31.796875 41.40625 
L 53.40625 71 
L 63.296875 71 
L 36.59375 35 
L 62.5 0 
L 52.59375 0 
L 31.796875 28.59375 
L 11 0 
L 1 0 
L 26.90625 35 
L 0.203125 71 
z
" id="Raleway-Medium-58"/>
     <path d="M 10.296875 71 
L 31.796875 34 
L 53.5 71 
L 63.296875 71 
L 36.296875 25.90625 
L 36.296875 0 
L 27.296875 0 
L 27.296875 26.09375 
L 0.40625 71 
z
" id="Raleway-Medium-59"/>
     <path d="M 7.09375 73 
L 15.90625 73 
L 15.90625 13.5 
Q 15.90625 10.59375 17.453125 8.9375 
Q 19 7.296875 21.796875 7.296875 
Q 22.90625 7.296875 24.40625 7.640625 
Q 25.90625 8 27.203125 8.5 
L 28.59375 1.40625 
Q 26.40625 0.5 23.40625 -0.09375 
Q 20.40625 -0.703125 18.09375 -0.703125 
Q 13 -0.703125 10.046875 2.1875 
Q 7.09375 5.09375 7.09375 10.296875 
z
" id="Raleway-Medium-6c"/>
     <path d="M 8.5 0 
L 8.5 71 
L 17.5 71 
L 17.5 8 
L 57.09375 8 
L 57.09375 0 
z
" id="Raleway-Medium-4c"/>
     <path d="M 69.90625 0 
L 69.90625 54.90625 
L 46.296875 12.796875 
L 41.203125 12.796875 
L 17.5 54.90625 
L 17.5 0 
L 8.5 0 
L 8.5 71 
L 18 71 
L 43.703125 24.90625 
L 69.5 71 
L 78.90625 71 
L 78.90625 0 
z
" id="Raleway-Medium-4d"/>
     <path d="M 22 0 
L 1.40625 52.203125 
L 10.5 52.203125 
L 27 7.703125 
L 43.59375 52.203125 
L 52 52.203125 
L 31.40625 0 
z
" id="Raleway-Medium-76"/>
     <path d="M 28.5 -1 
Q 23.09375 -1 18.5 1.203125 
Q 13.90625 3.40625 10.59375 7.09375 
Q 7.296875 10.796875 5.4375 15.6875 
Q 3.59375 20.59375 3.59375 26 
Q 3.59375 31.5 5.34375 36.453125 
Q 7.09375 41.40625 10.25 45.09375 
Q 13.40625 48.796875 17.75 50.9375 
Q 22.09375 53.09375 27.296875 53.09375 
Q 33.59375 53.09375 38.546875 49.796875 
Q 43.5 46.5 46.40625 41.796875 
L 46.40625 73 
L 55.203125 73 
L 55.203125 10.796875 
Q 55.203125 7.703125 58 7.59375 
L 58 0 
Q 56.90625 -0.203125 56.046875 -0.296875 
Q 55.203125 -0.40625 54.5 -0.40625 
Q 51.5 -0.40625 49.703125 1.140625 
Q 47.90625 2.703125 47.796875 4.90625 
L 47.59375 9.796875 
Q 44.5 4.703125 39.34375 1.84375 
Q 34.203125 -1 28.5 -1 
M 30.59375 6.59375 
Q 33 6.59375 35.546875 7.5 
Q 38.09375 8.40625 40.34375 10 
Q 42.59375 11.59375 44.25 13.75 
Q 45.90625 15.90625 46.40625 18.296875 
L 46.40625 33.296875 
Q 45.5 35.796875 43.703125 38.046875 
Q 41.90625 40.296875 39.65625 41.9375 
Q 37.40625 43.59375 34.84375 44.546875 
Q 32.296875 45.5 29.796875 45.5 
Q 25.90625 45.5 22.75 43.84375 
Q 19.59375 42.203125 17.34375 39.453125 
Q 15.09375 36.703125 13.890625 33.140625 
Q 12.703125 29.59375 12.703125 25.90625 
Q 12.703125 22 14.09375 18.453125 
Q 15.5 14.90625 17.890625 12.296875 
Q 20.296875 9.703125 23.546875 8.140625 
Q 26.796875 6.59375 30.59375 6.59375 
" id="Raleway-Medium-64"/>
     <path d="M 33.703125 -1 
Q 27.59375 -1 22.59375 2 
Q 17.59375 5 14.703125 9.796875 
L 14.703125 0 
L 6.90625 0 
L 6.90625 73 
L 15.703125 73 
L 15.703125 41.796875 
Q 19 46.90625 23.796875 50 
Q 28.59375 53.09375 35 53.09375 
Q 40.40625 53.09375 44.703125 50.796875 
Q 49 48.5 52.046875 44.75 
Q 55.09375 41 56.75 36.046875 
Q 58.40625 31.09375 58.40625 25.90625 
Q 58.40625 20.40625 56.5 15.5 
Q 54.59375 10.59375 51.296875 6.9375 
Q 48 3.296875 43.453125 1.140625 
Q 38.90625 -1 33.703125 -1 
M 31.5 6.59375 
Q 35.40625 6.59375 38.703125 8.1875 
Q 42 9.796875 44.390625 12.5 
Q 46.796875 15.203125 48.09375 18.640625 
Q 49.40625 22.09375 49.40625 25.90625 
Q 49.40625 29.703125 48.15625 33.25 
Q 46.90625 36.796875 44.65625 39.5 
Q 42.40625 42.203125 39.25 43.84375 
Q 36.09375 45.5 32.296875 45.5 
Q 29.5 45.5 27 44.5 
Q 24.5 43.5 22.34375 41.84375 
Q 20.203125 40.203125 18.546875 38 
Q 16.90625 35.796875 15.703125 33.296875 
L 15.703125 18.203125 
Q 16.203125 15.703125 17.84375 13.59375 
Q 19.5 11.5 21.75 9.953125 
Q 24 8.40625 26.546875 7.5 
Q 29.09375 6.59375 31.5 6.59375 
" id="Raleway-Medium-62"/>
    </defs>
    <g transform="translate(38.590921875 45.31376)scale(0.264 -0.264)">
     <use xlink:href="#Raleway-Medium-59"/>
     <use x="63.6999969482" xlink:href="#Raleway-Medium-67"/>
     <use x="125.799987793" xlink:href="#Raleway-Medium-67"/>
     <use x="187.899978638" xlink:href="#Raleway-Medium-64"/>
     <use x="250.999969482" xlink:href="#Raleway-Medium-72"/>
     <use x="287.199966431" xlink:href="#Raleway-Medium-61"/>
     <use x="342.899963379" xlink:href="#Raleway-Medium-73"/>
     <use x="392.199951172" xlink:href="#Raleway-Medium-69"/>
     <use x="414.799942017" xlink:href="#Raleway-Medium-6c"/>
     <use x="442.768676758" xlink:href="#Raleway-Medium-20"/>
     <use x="467.837417603" xlink:href="#Raleway-Medium-76"/>
     <use x="521.221786499" xlink:href="#Raleway-Medium-73"/>
     <use x="570.521774292" xlink:href="#Raleway-Medium-2e"/>
     <use x="590.521759033" xlink:href="#Raleway-Medium-20"/>
     <use x="615.621749878" xlink:href="#Raleway-Medium-4d"/>
     <use x="703.021743774" xlink:href="#Raleway-Medium-4c"/>
     <use x="762.021728516" xlink:href="#Raleway-Medium-6c"/>
     <use x="790.021713257" xlink:href="#Raleway-Medium-69"/>
     <use x="812.621704102" xlink:href="#Raleway-Medium-62"/>
     <use x="874.721694946" xlink:href="#Raleway-Medium-20"/>
     <use x="899.821685791" xlink:href="#Raleway-Medium-61"/>
     <use x="955.521682739" xlink:href="#Raleway-Medium-6e"/>
     <use x="1014.12167358" xlink:href="#Raleway-Medium-64"/>
     <use x="1077.22166443" xlink:href="#Raleway-Medium-20"/>
     <use x="1102.32165527" xlink:href="#Raleway-Medium-58"/>
     <use x="1165.82164001" xlink:href="#Raleway-Medium-47"/>
     <use x="1237.62162781" xlink:href="#Raleway-Medium-42"/>
     <use x="1304.82162476" xlink:href="#Raleway-Medium-6f"/>
     <use x="1364.62161255" xlink:href="#Raleway-Medium-6f"/>
     <use x="1424.42160034" xlink:href="#Raleway-Medium-73"/>
     <use x="1473.72158813" xlink:href="#Raleway-Medium-74"/>
     <use x="1508.42158508" xlink:href="#Raleway-Medium-3a"/>
     <use x="1529.52157593" xlink:href="#Raleway-Medium-20"/>
     <use x="1554.57469177" xlink:href="#Raleway-Medium-59"/>
     <use x="1618.14968872" xlink:href="#Raleway-Medium-61"/>
     <use x="1673.84968567" xlink:href="#Raleway-Medium-68"/>
     <use x="1732.44967651" xlink:href="#Raleway-Medium-6f"/>
     <use x="1792.24966431" xlink:href="#Raleway-Medium-6f"/>
     <use x="1852.0496521" xlink:href="#Raleway-Medium-20"/>
     <use x="1877.14964294" xlink:href="#Raleway-Medium-32"/>
     <use x="1931.54963684" xlink:href="#Raleway-Medium-4d"/>
    </g>
   </g>
   <g id="legend_1">
    <g id="patch_7">
     <path d="M 112.97875 144.6065 
L 235.02375 144.6065 
Q 238.22375 144.6065 238.22375 141.4065 
L 238.22375 73.584 
Q 238.22375 70.384 235.02375 70.384 
L 112.97875 70.384 
Q 109.77875 70.384 109.77875 73.584 
L 109.77875 141.4065 
Q 109.77875 144.6065 112.97875 144.6065 
z
" style="fill:#ffffff;opacity:0.5;stroke:#000000;stroke-linejoin:miter;"/>
    </g>
    <g id="line2d_43">
     <path d="M 120.97875 82.864 
L 143.37875 82.864 
" style="fill:none;stroke:#0000ff;stroke-linecap:square;stroke-width:1.75;"/>
    </g>
    <g id="line2d_44">
     <g>
      <use style="fill:#0000ff;stroke:#0000ff;stroke-width:0.5;" x="120.97875" xlink:href="#mc8f45fa608" y="82.864"/>
      <use style="fill:#0000ff;stroke:#0000ff;stroke-width:0.5;" x="143.37875" xlink:href="#mc8f45fa608" y="82.864"/>
     </g>
    </g>
    <g id="text_17">
     <!-- MLlib -->
     <g transform="translate(160.97875 88.464)scale(0.16 -0.16)">
      <use xlink:href="#Raleway-Medium-4d"/>
      <use x="87.3999938965" xlink:href="#Raleway-Medium-4c"/>
      <use x="146.399978638" xlink:href="#Raleway-Medium-6c"/>
      <use x="174.399963379" xlink:href="#Raleway-Medium-69"/>
      <use x="196.999954224" xlink:href="#Raleway-Medium-62"/>
     </g>
    </g>
    <g id="line2d_45">
     <path d="M 120.97875 105.9515 
L 143.37875 105.9515 
" style="fill:none;stroke:#008000;stroke-linecap:square;stroke-width:1.75;"/>
    </g>
    <g id="line2d_46">
     <g>
      <use style="fill:#008000;stroke:#008000;stroke-width:0.5;" x="120.97875" xlink:href="#me35fe086bd" y="105.9515"/>
      <use style="fill:#008000;stroke:#008000;stroke-width:0.5;" x="143.37875" xlink:href="#me35fe086bd" y="105.9515"/>
     </g>
    </g>
    <g id="text_18">
     <!-- Yggdrasil -->
     <g transform="translate(160.97875 111.5515)scale(0.16 -0.16)">
      <use xlink:href="#Raleway-Medium-59"/>
      <use x="63.6999969482" xlink:href="#Raleway-Medium-67"/>
      <use x="125.799987793" xlink:href="#Raleway-Medium-67"/>
      <use x="187.899978638" xlink:href="#Raleway-Medium-64"/>
      <use x="250.999969482" xlink:href="#Raleway-Medium-72"/>
      <use x="287.199966431" xlink:href="#Raleway-Medium-61"/>
      <use x="342.899963379" xlink:href="#Raleway-Medium-73"/>
      <use x="392.199951172" xlink:href="#Raleway-Medium-69"/>
      <use x="414.799942017" xlink:href="#Raleway-Medium-6c"/>
     </g>
    </g>
    <g id="line2d_47">
     <path d="M 120.97875 129.199 
L 143.37875 129.199 
" style="fill:none;stroke:#ff0000;stroke-linecap:square;stroke-width:1.75;"/>
    </g>
    <g id="line2d_48">
     <g>
      <use style="fill:#ff0000;stroke:#000000;stroke-linejoin:bevel;stroke-width:0.5;" x="120.97875" xlink:href="#m14224bef9c" y="129.199"/>
      <use style="fill:#ff0000;stroke:#000000;stroke-linejoin:bevel;stroke-width:0.5;" x="143.37875" xlink:href="#m14224bef9c" y="129.199"/>
     </g>
    </g>
    <g id="text_19">
     <!-- XGBoost -->
     <g transform="translate(160.97875 134.799)scale(0.16 -0.16)">
      <use xlink:href="#Raleway-Medium-58"/>
      <use x="63.4999847412" xlink:href="#Raleway-Medium-47"/>
      <use x="135.299972534" xlink:href="#Raleway-Medium-42"/>
      <use x="202.499969482" xlink:href="#Raleway-Medium-6f"/>
      <use x="262.299957275" xlink:href="#Raleway-Medium-6f"/>
      <use x="322.099945068" xlink:href="#Raleway-Medium-73"/>
      <use x="371.399932861" xlink:href="#Raleway-Medium-74"/>
     </g>
    </g>
   </g>
  </g>
 </g>
 <defs>
  <clipPath id="p26161855f0">
   <rect height="301.756" width="406.60734375" x="101.77875" y="62.384"/>
  </clipPath>
 </defs>
</svg>
